<?xml version="1.0" encoding="UTF-8"?>
<svg width="427px" height="458px" viewBox="0 0 427 458" version="1.1" xmlns="http://www.w3.org/2000/svg" xmlns:xlink="http://www.w3.org/1999/xlink">
    <!-- Generator: Sketch 47.1 (45422) - http://www.bohemiancoding.com/sketch -->
    <title>survey-graphs</title>
    <desc>Created with Sketch.</desc>
    <defs></defs>
    <g id="Page-1" stroke="none" stroke-width="1" fill="none" fill-rule="evenodd">
        <g id="Artboard" transform="translate(-78.000000, -45.000000)">
            <g id="survey-graphs" transform="translate(78.000000, 48.000000)">
                <g id="Group">
                    <circle id="Oval" stroke="#EEEEEE" stroke-width="1.5" stroke-linecap="round" stroke-linejoin="round" cx="102" cy="72" r="72"></circle>
                    <path d="M32.6867562,91.5531293 C41.2066748,121.816123 69.0126764,144 102,144 L102,144 C141.764502,144 174,111.764502 174,72 C174,32.235498 141.764502,0 102,0" id="Oval-Copy" stroke="#AEEA00" stroke-width="5" stroke-linejoin="round"></path>
                    <path d="M6.65136719,191.402344 L2.48144531,191.402344 L1.54492188,194 L0.19140625,194 L3.9921875,184.046875 L5.140625,184.046875 L8.94824219,194 L7.6015625,194 L6.65136719,191.402344 Z M2.87792969,190.322266 L6.26171875,190.322266 L4.56640625,185.666992 L2.87792969,190.322266 Z M17.3787109,184.046875 L17.3787109,190.814453 C17.3741536,191.75326 17.0790719,192.521156 16.493457,193.118164 C15.9078421,193.715172 15.113742,194.05013 14.1111328,194.123047 L13.7625,194.136719 C12.6733018,194.136719 11.8051465,193.842776 11.1580078,193.254883 C10.5108692,192.666989 10.1827474,191.858078 10.1736328,190.828125 L10.1736328,184.046875 L11.4724609,184.046875 L11.4724609,190.787109 C11.4724609,191.507165 11.6707011,192.066567 12.0671875,192.465332 C12.4636739,192.864097 13.0287724,193.063477 13.7625,193.063477 C14.5053423,193.063477 15.0738587,192.865236 15.4680664,192.46875 C15.8622741,192.072264 16.059375,191.514001 16.059375,190.793945 L16.059375,184.046875 L17.3787109,184.046875 Z M26.5269531,185.126953 L23.3277344,185.126953 L23.3277344,194 L22.0220703,194 L22.0220703,185.126953 L18.8296875,185.126953 L18.8296875,184.046875 L26.5269531,184.046875 L26.5269531,185.126953 Z M35.8529297,194 L34.5335938,194 L34.5335938,189.399414 L29.5160156,189.399414 L29.5160156,194 L28.2035156,194 L28.2035156,184.046875 L29.5160156,184.046875 L29.5160156,188.326172 L34.5335938,188.326172 L34.5335938,184.046875 L35.8529297,184.046875 L35.8529297,194 Z M46.0402344,189.344727 C46.0402344,190.319992 45.8761735,191.171058 45.5480469,191.897949 C45.2199202,192.624841 44.7550811,193.179686 44.1535156,193.5625 C43.5519501,193.945314 42.8501342,194.136719 42.0480469,194.136719 C41.2641888,194.136719 40.5692088,193.944175 39.9630859,193.559082 C39.3569631,193.173989 38.8864275,192.624841 38.5514649,191.911621 C38.2165022,191.198401 38.0444662,190.372401 38.0353516,189.433594 L38.0353516,188.71582 C38.0353516,187.758784 38.2016911,186.913415 38.534375,186.179688 C38.867059,185.44596 39.3375946,184.884279 39.9459961,184.494629 C40.5543976,184.104979 41.2505169,183.910156 42.034375,183.910156 C42.831905,183.910156 43.5348603,184.1027 44.1432617,184.487793 C44.7516632,184.872886 45.2199202,185.431149 45.5480469,186.162598 C45.8761735,186.894047 46.0402344,187.745112 46.0402344,188.71582 L46.0402344,189.344727 Z M44.7345703,188.702148 C44.7345703,187.521804 44.4975935,186.616051 44.0236328,185.984863 C43.5496721,185.353675 42.8865928,185.038086 42.034375,185.038086 C41.2049438,185.038086 40.5521183,185.353675 40.0758789,185.984863 C39.5996396,186.616051 39.3546876,187.492182 39.3410156,188.613281 L39.3410156,189.344727 C39.3410156,190.488612 39.5814104,191.387529 40.062207,192.041504 C40.5430037,192.695479 41.2049437,193.022461 42.0480469,193.022461 C42.8957074,193.022461 43.5519508,192.713708 44.0167969,192.096191 C44.481643,191.478675 44.7208984,190.59343 44.7345703,189.44043 L44.7345703,188.702148 Z M51.859375,189.973633 L49.5214844,189.973633 L49.5214844,194 L48.2021485,194 L48.2021485,184.046875 L51.4970703,184.046875 C52.6181697,184.046875 53.4806285,184.302081 54.0844727,184.8125 C54.6883168,185.322919 54.9902344,186.06575 54.9902344,187.041016 C54.9902344,187.66081 54.8227556,188.200844 54.487793,188.661133 C54.1528304,189.121422 53.686852,189.465494 53.0898438,189.693359 L55.4277344,193.917969 L55.4277344,194 L54.0195313,194 L51.859375,189.973633 Z M49.5214844,188.900391 L51.538086,188.900391 C52.1897819,188.900391 52.7081687,188.731773 53.0932617,188.394531 C53.4783548,188.05729 53.6708985,187.606123 53.6708985,187.041016 C53.6708985,186.425778 53.4874693,185.954103 53.1206055,185.625977 C52.7537417,185.29785 52.2239618,185.13151 51.53125,185.126953 L49.5214844,185.126953 L49.5214844,188.900391 Z M58.4373047,194 L57.1248047,194 L57.1248047,184.046875 L58.4373047,184.046875 L58.4373047,194 Z M67.7154297,185.126953 L64.516211,185.126953 L64.516211,194 L63.2105469,194 L63.2105469,185.126953 L60.0181641,185.126953 L60.0181641,184.046875 L67.7154297,184.046875 L67.7154297,185.126953 Z M72.5365235,189.043945 L75.1341797,184.046875 L76.6244141,184.046875 L73.1927735,190.288086 L73.1927735,194 L71.8802735,194 L71.8802735,190.288086 L68.4486328,184.046875 L69.9525391,184.046875 L72.5365235,189.043945 Z M83.1835938,194 L81.8710938,194 L81.8710938,184.046875 L83.1835938,184.046875 L83.1835938,194 Z M93.4324219,194 L92.113086,194 L87.1023438,186.330078 L87.1023438,194 L85.7830078,194 L85.7830078,184.046875 L87.1023438,184.046875 L92.1267578,191.750977 L92.1267578,184.046875 L93.4324219,184.046875 L93.4324219,194 Z M107.278711,194 L105.959375,194 L105.959375,189.399414 L100.941797,189.399414 L100.941797,194 L99.6292969,194 L99.6292969,184.046875 L100.941797,184.046875 L100.941797,188.326172 L105.959375,188.326172 L105.959375,184.046875 L107.278711,184.046875 L107.278711,194 Z M117.466016,189.344727 C117.466016,190.319992 117.301955,191.171058 116.973828,191.897949 C116.645702,192.624841 116.180862,193.179686 115.579297,193.5625 C114.977731,193.945314 114.275916,194.136719 113.473828,194.136719 C112.68997,194.136719 111.99499,193.944175 111.388867,193.559082 C110.782744,193.173989 110.312209,192.624841 109.977246,191.911621 C109.642284,191.198401 109.470247,190.372401 109.461133,189.433594 L109.461133,188.71582 C109.461133,187.758784 109.627472,186.913415 109.960156,186.179688 C110.29284,185.44596 110.763376,184.884279 111.371777,184.494629 C111.980179,184.104979 112.676298,183.910156 113.460156,183.910156 C114.257686,183.910156 114.960642,184.1027 115.569043,184.487793 C116.177444,184.872886 116.645702,185.431149 116.973828,186.162598 C117.301955,186.894047 117.466016,187.745112 117.466016,188.71582 L117.466016,189.344727 Z M116.160352,188.702148 C116.160352,187.521804 115.923375,186.616051 115.449414,185.984863 C114.975453,185.353675 114.312374,185.038086 113.460156,185.038086 C112.630725,185.038086 111.9779,185.353675 111.50166,185.984863 C111.025421,186.616051 110.780469,187.492182 110.766797,188.613281 L110.766797,189.344727 C110.766797,190.488612 111.007192,191.387529 111.487988,192.041504 C111.968785,192.695479 112.630725,193.022461 113.473828,193.022461 C114.321489,193.022461 114.977732,192.713708 115.442578,192.096191 C115.907424,191.478675 116.14668,190.59343 116.160352,189.44043 L116.160352,188.702148 Z M123.285156,189.973633 L120.947266,189.973633 L120.947266,194 L119.62793,194 L119.62793,184.046875 L122.922852,184.046875 C124.043951,184.046875 124.90641,184.302081 125.510254,184.8125 C126.114098,185.322919 126.416016,186.06575 126.416016,187.041016 C126.416016,187.66081 126.248537,188.200844 125.913574,188.661133 C125.578612,189.121422 125.112633,189.465494 124.515625,189.693359 L126.853516,193.917969 L126.853516,194 L125.445313,194 L123.285156,189.973633 Z M120.947266,188.900391 L122.963867,188.900391 C123.615563,188.900391 124.13395,188.731773 124.519043,188.394531 C124.904136,188.05729 125.09668,187.606123 125.09668,187.041016 C125.09668,186.425778 124.913251,185.954103 124.546387,185.625977 C124.179523,185.29785 123.649743,185.13151 122.957031,185.126953 L120.947266,185.126953 L120.947266,188.900391 Z M132.105273,189.973633 L129.767383,189.973633 L129.767383,194 L128.448047,194 L128.448047,184.046875 L131.742969,184.046875 C132.864068,184.046875 133.726527,184.302081 134.330371,184.8125 C134.934215,185.322919 135.236133,186.06575 135.236133,187.041016 C135.236133,187.66081 135.068654,188.200844 134.733691,188.661133 C134.398729,189.121422 133.93275,189.465494 133.335742,189.693359 L135.673633,193.917969 L135.673633,194 L134.26543,194 L132.105273,189.973633 Z M129.767383,188.900391 L131.783984,188.900391 C132.43568,188.900391 132.954067,188.731773 133.33916,188.394531 C133.724253,188.05729 133.916797,187.606123 133.916797,187.041016 C133.916797,186.425778 133.733368,185.954103 133.366504,185.625977 C132.99964,185.29785 132.46986,185.13151 131.777148,185.126953 L129.767383,185.126953 L129.767383,188.900391 Z M144.93125,189.344727 C144.93125,190.319992 144.767189,191.171058 144.439063,191.897949 C144.110936,192.624841 143.646097,193.179686 143.044531,193.5625 C142.442966,193.945314 141.74115,194.136719 140.939063,194.136719 C140.155204,194.136719 139.460224,193.944175 138.854102,193.559082 C138.247979,193.173989 137.777443,192.624841 137.442481,191.911621 C137.107518,191.198401 136.935482,190.372401 136.926367,189.433594 L136.926367,188.71582 C136.926367,187.758784 137.092707,186.913415 137.425391,186.179688 C137.758075,185.44596 138.22861,184.884279 138.837012,184.494629 C139.445413,184.104979 140.141533,183.910156 140.925391,183.910156 C141.722921,183.910156 142.425876,184.1027 143.034277,184.487793 C143.642679,184.872886 144.110936,185.431149 144.439063,186.162598 C144.767189,186.894047 144.93125,187.745112 144.93125,188.71582 L144.93125,189.344727 Z M143.625586,188.702148 C143.625586,187.521804 143.388609,186.616051 142.914648,185.984863 C142.440688,185.353675 141.777608,185.038086 140.925391,185.038086 C140.095959,185.038086 139.443134,185.353675 138.966895,185.984863 C138.490655,186.616051 138.245703,187.492182 138.232031,188.613281 L138.232031,189.344727 C138.232031,190.488612 138.472426,191.387529 138.953223,192.041504 C139.434019,192.695479 140.095959,193.022461 140.939063,193.022461 C141.786723,193.022461 142.442966,192.713708 142.907813,192.096191 C143.372659,191.478675 143.611914,190.59343 143.625586,189.44043 L143.625586,188.702148 Z M150.750391,189.973633 L148.4125,189.973633 L148.4125,194 L147.093164,194 L147.093164,184.046875 L150.388086,184.046875 C151.509185,184.046875 152.371644,184.302081 152.975488,184.8125 C153.579332,185.322919 153.88125,186.06575 153.88125,187.041016 C153.88125,187.66081 153.713771,188.200844 153.378809,188.661133 C153.043846,189.121422 152.577868,189.465494 151.980859,189.693359 L154.31875,193.917969 L154.31875,194 L152.910547,194 L150.750391,189.973633 Z M148.4125,188.900391 L150.429102,188.900391 C151.080798,188.900391 151.599184,188.731773 151.984277,188.394531 C152.36937,188.05729 152.561914,187.606123 152.561914,187.041016 C152.561914,186.425778 152.378485,185.954103 152.011621,185.625977 C151.644757,185.29785 151.114977,185.13151 150.422266,185.126953 L148.4125,185.126953 L148.4125,188.900391 Z M166.93457,192.694336 C166.597329,193.177411 166.126793,193.538573 165.522949,193.777832 C164.919105,194.017091 164.21615,194.136719 163.414063,194.136719 C162.602861,194.136719 161.882816,193.946454 161.253906,193.565918 C160.624997,193.185382 160.138511,192.644209 159.794434,191.942383 C159.450356,191.240556 159.273763,190.427088 159.264648,189.501953 L159.264648,188.633789 C159.264648,187.134433 159.614417,185.972335 160.313965,185.147461 C161.013513,184.322587 161.996739,183.910156 163.263672,183.910156 C164.30274,183.910156 165.138994,184.175616 165.772461,184.706543 C166.405928,185.23747 166.793294,185.990555 166.93457,186.96582 L165.62207,186.96582 C165.375975,185.648756 164.592129,184.990234 163.270508,184.990234 C162.390946,184.990234 161.724449,185.298988 161.270996,185.916504 C160.817543,186.53402 160.588542,187.42838 160.583984,188.599609 L160.583984,189.413086 C160.583984,190.529628 160.83919,191.417152 161.349609,192.075684 C161.860029,192.734216 162.550451,193.063477 163.420898,193.063477 C163.913088,193.063477 164.343748,193.00879 164.712891,192.899414 C165.082033,192.790039 165.387369,192.60547 165.628906,192.345703 L165.628906,190.110352 L163.325195,190.110352 L163.325195,189.043945 L166.93457,189.043945 L166.93457,192.694336 Z M174.948047,189.399414 L170.63457,189.399414 L170.63457,192.926758 L175.645313,192.926758 L175.645313,194 L169.32207,194 L169.32207,184.046875 L175.576953,184.046875 L175.576953,185.126953 L170.63457,185.126953 L170.63457,188.326172 L174.948047,188.326172 L174.948047,189.399414 Z M185.128516,194 L183.80918,194 L178.798438,186.330078 L178.798438,194 L177.479102,194 L177.479102,184.046875 L178.798438,184.046875 L183.822852,191.750977 L183.822852,184.046875 L185.128516,184.046875 L185.128516,194 Z M191.309961,189.973633 L188.97207,189.973633 L188.97207,194 L187.652734,194 L187.652734,184.046875 L190.947656,184.046875 C192.068756,184.046875 192.931214,184.302081 193.535059,184.8125 C194.138903,185.322919 194.44082,186.06575 194.44082,187.041016 C194.44082,187.66081 194.273342,188.200844 193.938379,188.661133 C193.603416,189.121422 193.137438,189.465494 192.54043,189.693359 L194.87832,193.917969 L194.87832,194 L193.470117,194 L191.309961,189.973633 Z M188.97207,188.900391 L190.988672,188.900391 C191.640368,188.900391 192.158755,188.731773 192.543848,188.394531 C192.928941,188.05729 193.121484,187.606123 193.121484,187.041016 C193.121484,186.425778 192.938055,185.954103 192.571191,185.625977 C192.204328,185.29785 191.674548,185.13151 190.981836,185.126953 L188.97207,185.126953 L188.97207,188.900391 Z M202.105664,189.399414 L197.792188,189.399414 L197.792188,192.926758 L202.80293,192.926758 L202.80293,194 L196.479688,194 L196.479688,184.046875 L202.73457,184.046875 L202.73457,185.126953 L197.792188,185.126953 L197.792188,188.326172 L202.105664,188.326172 L202.105664,189.399414 Z" id="Authority-in-horror-Copy" fill="#FFFFFF"></path>
                    <path d="M93.0239258,61.8554688 L84.4853516,81 L81.7382812,81 L90.2485352,62.5351562 L79.090332,62.5351562 L79.090332,60.3828125 L93.0239258,60.3828125 L93.0239258,61.8554688 Z M104.206934,81 L101.573145,81 L101.573145,63.5405273 L96.2914062,65.4804688 L96.2914062,63.1015625 L103.796289,60.2836914 L104.206934,60.2836914 L104.206934,81 Z M111.255176,64.3476562 C111.255176,63.1109964 111.649296,62.0914754 112.437549,61.2890625 C113.225801,60.4866496 114.238243,60.0854492 115.474902,60.0854492 C116.730442,60.0854492 117.747604,60.4890096 118.526416,61.2961426 C119.305228,62.1032755 119.694629,63.1487566 119.694629,64.4326172 L119.694629,65.4379883 C119.694629,66.6840883 119.300508,67.7012493 118.512256,68.489502 C117.724003,69.2777546 116.721002,69.671875 115.503223,69.671875 C114.276003,69.671875 113.261202,69.2777546 112.458789,68.489502 C111.656376,67.7012493 111.255176,66.6510482 111.255176,65.3388672 L111.255176,64.3476562 Z M113.209277,65.4379883 C113.209277,66.1743201 113.416958,66.7808407 113.832324,67.2575684 C114.247691,67.734296 114.804651,67.9726562 115.503223,67.9726562 C116.173473,67.9726562 116.713914,67.741376 117.124561,67.2788086 C117.535207,66.8162412 117.740527,66.1837605 117.740527,65.3813477 L117.740527,64.3476562 C117.740527,63.6113244 117.537567,63.0024438 117.131641,62.5209961 C116.725714,62.0395484 116.173474,61.7988281 115.474902,61.7988281 C114.776331,61.7988281 114.224091,62.0395484 113.818164,62.5209961 C113.412238,63.0024438 113.209277,63.6302045 113.209277,64.4042969 L113.209277,65.4379883 Z M121.294727,75.9448242 C121.294727,74.7081644 121.688847,73.6910033 122.4771,72.8933105 C123.265352,72.0956178 124.277793,71.6967773 125.514453,71.6967773 C126.751113,71.6967773 127.765914,72.0932578 128.558887,72.8862305 C129.351859,73.6792032 129.74834,74.7317643 129.74834,76.0439453 L129.74834,77.0493164 C129.74834,78.2859762 129.354219,79.3031373 128.565967,80.1008301 C127.777714,80.8985229 126.769993,81.2973633 125.542773,81.2973633 C124.315554,81.2973633 123.300753,80.9032429 122.49834,80.1149902 C121.695927,79.3267376 121.294727,78.2765365 121.294727,76.9643555 L121.294727,75.9448242 Z M123.248828,77.0493164 C123.248828,77.7950884 123.456508,78.406329 123.871875,78.8830566 C124.287242,79.3597843 124.844202,79.5981445 125.542773,79.5981445 C126.222464,79.5981445 126.765265,79.3645043 127.171191,78.8972168 C127.577118,78.4299293 127.780078,77.7950886 127.780078,76.9926758 L127.780078,75.9448242 C127.780078,75.1990523 127.574758,74.5901716 127.164111,74.1181641 C126.753465,73.6461565 126.203584,73.4101562 125.514453,73.4101562 C124.844202,73.4101562 124.299042,73.6437965 123.878955,74.111084 C123.458868,74.5783715 123.248828,75.2084921 123.248828,76.0014648 L123.248828,77.0493164 Z M116.097949,79.4423828 L114.611133,78.5078125 L124.679004,62.3935547 L126.16582,63.328125 L116.097949,79.4423828 Z" id="71%-copy" fill="#AAAAAA"></path>
                </g>
                <g id="Group-Copy" transform="translate(280.000000, 0.000000)">
                    <circle id="Oval" stroke="#EEEEEE" stroke-width="1.5" stroke-linejoin="round" cx="72" cy="72" r="72"></circle>
                    <path d="M14.156001,114.880344 C27.2762921,132.550065 48.3010082,144 72,144 L72,144 C111.764502,144 144,111.764502 144,72 C144,32.235498 111.764502,0 72,0" id="Oval-Copy-2" stroke="#FFD600" stroke-width="5" stroke-linejoin="round"></path>
                    <path d="M44.5560547,185.126953 L41.3568359,185.126953 L41.3568359,194 L40.0511719,194 L40.0511719,185.126953 L36.858789,185.126953 L36.858789,184.046875 L44.5560547,184.046875 L44.5560547,185.126953 Z M53.8820312,194 L52.5626953,194 L52.5626953,189.399414 L47.5451172,189.399414 L47.5451172,194 L46.2326172,194 L46.2326172,184.046875 L47.5451172,184.046875 L47.5451172,188.326172 L52.5626953,188.326172 L52.5626953,184.046875 L53.8820312,184.046875 L53.8820312,194 Z M60.0634766,189.973633 L57.7255859,189.973633 L57.7255859,194 L56.40625,194 L56.40625,184.046875 L59.7011719,184.046875 C60.8222712,184.046875 61.68473,184.302081 62.2885742,184.8125 C62.8924184,185.322919 63.1943359,186.06575 63.1943359,187.041016 C63.1943359,187.66081 63.0268571,188.200844 62.6918945,188.661133 C62.3569319,189.121422 61.8909535,189.465494 61.2939453,189.693359 L63.6318359,193.917969 L63.6318359,194 L62.2236328,194 L60.0634766,189.973633 Z M57.7255859,188.900391 L59.7421875,188.900391 C60.3938835,188.900391 60.9122702,188.731773 61.2973633,188.394531 C61.6824563,188.05729 61.875,187.606123 61.875,187.041016 C61.875,186.425778 61.6915708,185.954103 61.324707,185.625977 C60.9578432,185.29785 60.4280634,185.13151 59.7353516,185.126953 L57.7255859,185.126953 L57.7255859,188.900391 Z M66.6414062,194 L65.3289062,194 L65.3289062,184.046875 L66.6414062,184.046875 L66.6414062,194 Z M70.5601562,192.926758 L75.2769531,192.926758 L75.2769531,194 L69.2408203,194 L69.2408203,184.046875 L70.5601562,184.046875 L70.5601562,192.926758 Z M78.2933594,192.926758 L83.0101563,192.926758 L83.0101563,194 L76.9740234,194 L76.9740234,184.046875 L78.2933594,184.046875 L78.2933594,192.926758 Z M86.1154297,194 L84.8029297,194 L84.8029297,184.046875 L86.1154297,184.046875 L86.1154297,194 Z M96.3642578,194 L95.0449219,194 L90.0341797,186.330078 L90.0341797,194 L88.7148438,194 L88.7148438,184.046875 L90.0341797,184.046875 L95.0585938,191.750977 L95.0585938,184.046875 L96.3642578,184.046875 L96.3642578,194 Z M106.243945,192.694336 C105.906704,193.177411 105.436168,193.538573 104.832324,193.777832 C104.22848,194.017091 103.525525,194.136719 102.723438,194.136719 C101.912236,194.136719 101.192191,193.946454 100.563281,193.565918 C99.9343719,193.185382 99.4478858,192.644209 99.1038086,191.942383 C98.7597314,191.240556 98.5831381,190.427088 98.5740234,189.501953 L98.5740234,188.633789 C98.5740234,187.134433 98.9237921,185.972335 99.6233399,185.147461 C100.322888,184.322587 101.306113,183.910156 102.573047,183.910156 C103.612115,183.910156 104.448369,184.175616 105.081836,184.706543 C105.715303,185.23747 106.102669,185.990555 106.243945,186.96582 L104.931445,186.96582 C104.68535,185.648756 103.901504,184.990234 102.579883,184.990234 C101.700321,184.990234 101.033824,185.298988 100.580371,185.916504 C100.126918,186.53402 99.8979167,187.42838 99.8933594,188.599609 L99.8933594,189.413086 C99.8933594,190.529628 100.148565,191.417152 100.658984,192.075684 C101.169404,192.734216 101.859826,193.063477 102.730273,193.063477 C103.222463,193.063477 103.653123,193.00879 104.022266,192.899414 C104.391408,192.790039 104.696744,192.60547 104.938281,192.345703 L104.938281,190.110352 L102.63457,190.110352 L102.63457,189.043945 L106.243945,189.043945 L106.243945,192.694336 Z" id="Thrilling-Copy" fill="#FFFFFF"></path>
                    <path d="M60.6893555,60.3686523 L60.6893555,62.5917969 L60.2079102,62.5917969 C58.1688375,62.6295575 56.5451558,63.2337181 55.3368164,64.4042969 C54.128477,65.5748756 53.4299163,67.2221573 53.2411133,69.3461914 C54.3267307,68.1000914 55.8088122,67.4770508 57.6874024,67.4770508 C59.4810311,67.4770508 60.9135526,68.1095314 61.9850098,69.3745117 C63.056467,70.639492 63.5921875,72.2726137 63.5921875,74.2739258 C63.5921875,76.3979598 63.0139869,78.0971616 61.8575684,79.371582 C60.7011498,80.6460025 59.1506282,81.2832031 57.205957,81.2832031 C55.2329654,81.2832031 53.6328837,80.5256423 52.4056641,79.010498 C51.1784444,77.4953538 50.5648438,75.5436317 50.5648438,73.1552734 L50.5648438,72.1499023 C50.5648438,68.3549615 51.3743246,65.4545185 52.9933106,63.4484863 C54.6122965,61.4424542 57.021859,60.4158531 60.2220703,60.3686523 L60.6893555,60.3686523 Z M57.2484375,69.6577148 C56.3516231,69.6577148 55.5256223,69.9267551 54.7704102,70.4648438 C54.0151981,71.0029324 53.4912775,71.6778931 53.1986328,72.4897461 L53.1986328,73.4526367 C53.1986328,75.151864 53.5809532,76.5206654 54.3456055,77.559082 C55.1102577,78.5974987 56.0636987,79.1166992 57.205957,79.1166992 C58.385976,79.1166992 59.3134569,78.6824588 59.9884277,77.8139648 C60.6633986,76.9454709 61.0008789,75.8079497 61.0008789,74.4013672 C61.0008789,72.9853445 60.6586786,71.8407433 59.9742676,70.9675293 C59.2898566,70.0943153 58.3812557,69.6577148 57.2484375,69.6577148 Z M78.7966797,65.7636719 C78.7966797,66.7926484 78.5252794,67.7083293 77.9824707,68.5107422 C77.439662,69.3131551 76.7057012,69.9409157 75.7805664,70.394043 C76.8567437,70.8566104 77.7087045,71.5315711 78.3364746,72.4189453 C78.9642447,73.3063195 79.278125,74.3116806 79.278125,75.4350586 C79.278125,77.2192472 78.6763244,78.6399687 77.4727051,79.6972656 C76.2690858,80.7545626 74.6855241,81.2832031 72.7219727,81.2832031 C70.7395409,81.2832031 69.1512592,80.7522026 67.9570801,79.6901855 C66.7629009,78.6281685 66.1658203,77.2098071 66.1658203,75.4350586 C66.1658203,74.3211207 66.4702606,73.3157597 67.0791504,72.4189453 C67.6880402,71.5221309 68.530561,70.8424502 69.6067383,70.3798828 C68.6910436,69.9267555 67.9688829,69.2989949 67.4402344,68.496582 C66.9115859,67.6941692 66.6472656,66.7832082 66.6472656,65.7636719 C66.6472656,64.026684 67.2042262,62.6484426 68.3181641,61.6289062 C69.4321019,60.6093699 70.9000234,60.0996094 72.7219727,60.0996094 C74.5344817,60.0996094 76.0000432,60.6093699 77.1187012,61.6289062 C78.2373591,62.6484426 78.7966797,64.026684 78.7966797,65.7636719 Z M76.6584961,75.378418 C76.6584961,74.2267195 76.2926957,73.2874385 75.561084,72.5605469 C74.8294723,71.8336552 73.8736713,71.4702148 72.6936523,71.4702148 C71.5136334,71.4702148 70.5672724,71.8289352 69.854541,72.5463867 C69.1418096,73.2638382 68.7854492,74.2078392 68.7854492,75.378418 C68.7854492,76.5489967 69.1323696,77.4693977 69.8262207,78.1396484 C70.5200718,78.8098992 71.4853128,79.1450195 72.7219727,79.1450195 C73.9491923,79.1450195 74.9120733,78.8075392 75.6106445,78.1325684 C76.3092157,77.4575975 76.6584961,76.5395566 76.6584961,75.378418 Z M72.7219727,62.2519531 C71.6929962,62.2519531 70.8599153,62.5705535 70.2227051,63.2077637 C69.5854949,63.8449739 69.2668945,64.7110948 69.2668945,65.8061523 C69.2668945,66.8540091 69.5807749,67.70125 70.2085449,68.3479004 C70.836315,68.9945508 71.6741159,69.3178711 72.7219727,69.3178711 C73.7698295,69.3178711 74.6076303,68.9945508 75.2354004,68.3479004 C75.8631705,67.70125 76.1770508,66.8540091 76.1770508,65.8061523 C76.1770508,64.7582955 75.8513704,63.9039747 75.2,63.2431641 C74.5486296,62.5823535 73.7226287,62.2519531 72.7219727,62.2519531 Z M81.9508789,64.3476562 C81.9508789,63.1109964 82.3449993,62.0914754 83.133252,61.2890625 C83.9215046,60.4866496 84.9339456,60.0854492 86.1706055,60.0854492 C87.4261456,60.0854492 88.4433066,60.4890096 89.2221191,61.2961426 C90.0009316,62.1032755 90.390332,63.1487566 90.390332,64.4326172 L90.390332,65.4379883 C90.390332,66.6840883 89.9962116,67.7012493 89.207959,68.489502 C88.4197063,69.2777546 87.4167053,69.671875 86.1989258,69.671875 C84.9717061,69.671875 83.9569051,69.2777546 83.1544922,68.489502 C82.3520793,67.7012493 81.9508789,66.6510482 81.9508789,65.3388672 L81.9508789,64.3476562 Z M83.9049805,65.4379883 C83.9049805,66.1743201 84.1126607,66.7808407 84.5280273,67.2575684 C84.943394,67.734296 85.5003546,67.9726562 86.1989258,67.9726562 C86.8691765,67.9726562 87.4096171,67.741376 87.8202637,67.2788086 C88.2309103,66.8162412 88.4362305,66.1837605 88.4362305,65.3813477 L88.4362305,64.3476562 C88.4362305,63.6113244 88.2332703,63.0024438 87.8273437,62.5209961 C87.4214172,62.0395484 86.8691767,61.7988281 86.1706055,61.7988281 C85.4720343,61.7988281 84.9197937,62.0395484 84.5138672,62.5209961 C84.1079407,63.0024438 83.9049805,63.6302045 83.9049805,64.4042969 L83.9049805,65.4379883 Z M91.9904297,75.9448242 C91.9904297,74.7081644 92.3845501,73.6910033 93.1728027,72.8933105 C93.9610554,72.0956178 94.9734964,71.6967773 96.2101562,71.6967773 C97.4468161,71.6967773 98.4616171,72.0932578 99.2545898,72.8862305 C100.047563,73.6792032 100.444043,74.7317643 100.444043,76.0439453 L100.444043,77.0493164 C100.444043,78.2859762 100.049923,79.3031373 99.2616699,80.1008301 C98.4734173,80.8985229 97.4656962,81.2973633 96.2384766,81.2973633 C95.0112569,81.2973633 93.9964558,80.9032429 93.194043,80.1149902 C92.3916301,79.3267376 91.9904297,78.2765365 91.9904297,76.9643555 L91.9904297,75.9448242 Z M93.9445312,77.0493164 C93.9445312,77.7950884 94.1522115,78.406329 94.5675781,78.8830566 C94.9829448,79.3597843 95.5399054,79.5981445 96.2384766,79.5981445 C96.9181675,79.5981445 97.460968,79.3645043 97.8668945,78.8972168 C98.272821,78.4299293 98.4757812,77.7950886 98.4757812,76.9926758 L98.4757812,75.9448242 C98.4757812,75.1990523 98.270461,74.5901716 97.8598145,74.1181641 C97.4491679,73.6461565 96.8992873,73.4101562 96.2101562,73.4101562 C95.5399055,73.4101562 94.9947449,73.6437965 94.5746582,74.111084 C94.1545715,74.5783715 93.9445312,75.2084921 93.9445312,76.0014648 L93.9445312,77.0493164 Z M86.7936523,79.4423828 L85.3068359,78.5078125 L95.374707,62.3935547 L96.8615234,63.328125 L86.7936523,79.4423828 Z" id="68%-copy" fill="#AAAAAA"></path>
                </g>
                <g id="Group-Copy-2" transform="translate(30.000000, 260.000000)">
                    <circle id="Oval" stroke="#EEEEEE" stroke-width="1.5" stroke-linejoin="round" cx="72" cy="72" r="72"></circle>
                    <path d="M15.4319816,116.547623 C28.6166781,133.26697 49.0549223,144 72,144 L72,144 C111.764502,144 144,111.764502 144,72 C144,32.235498 111.764502,0 72,0" id="Oval-Copy-3" stroke="#FFAB00" stroke-width="5" stroke-linejoin="round"></path>
                    <path d="M53.9624023,189.563477 C52.8367457,189.239907 52.0175807,188.842288 51.5048828,188.370605 C50.9921849,187.898923 50.7358398,187.316735 50.7358398,186.624023 C50.7358398,185.840165 51.0491505,185.191897 51.6757812,184.679199 C52.302412,184.166501 53.1170197,183.910156 54.1196289,183.910156 C54.8032261,183.910156 55.4127577,184.042316 55.9482422,184.306641 C56.4837266,184.570965 56.898436,184.935545 57.1923828,185.400391 C57.4863296,185.865237 57.6333008,186.37337 57.6333008,186.924805 L56.3139648,186.924805 C56.3139648,186.323239 56.1225605,185.850425 55.7397461,185.506348 C55.3569317,185.16227 54.816898,184.990234 54.1196289,184.990234 C53.4724902,184.990234 52.9677752,185.132648 52.6054687,185.41748 C52.2431622,185.702313 52.0620117,186.097654 52.0620117,186.603516 C52.0620117,187.009117 52.2340478,187.352049 52.578125,187.632324 C52.9222022,187.912599 53.5078084,188.168944 54.3349609,188.401367 C55.1621135,188.63379 55.8092424,188.890135 56.2763672,189.17041 C56.7434919,189.450685 57.0898426,189.777667 57.3154297,190.151367 C57.5410167,190.525067 57.6538086,190.964841 57.6538086,191.470703 C57.6538086,192.277348 57.3393586,192.923337 56.7104492,193.408691 C56.0815398,193.894045 55.2407279,194.136719 54.1879883,194.136719 C53.5043911,194.136719 52.8663767,194.005698 52.2739258,193.743652 C51.6814749,193.481607 51.224611,193.122724 50.9033203,192.666992 C50.5820296,192.211261 50.4213867,191.694013 50.4213867,191.115234 L51.7407226,191.115234 C51.7407226,191.7168 51.9628884,192.191893 52.4072266,192.540527 C52.8515647,192.889162 53.445146,193.063477 54.1879883,193.063477 C54.8807001,193.063477 55.4116192,192.922202 55.7807617,192.639648 C56.1499042,192.357095 56.3344726,191.972008 56.3344726,191.484375 C56.3344726,190.996742 56.1635759,190.61963 55.8217773,190.353027 C55.4799788,190.086424 54.8601933,189.823243 53.9624023,189.563477 Z M66.8567383,190.841797 C66.7336908,191.894537 66.3451856,192.706866 65.6912109,193.278809 C65.0372363,193.850752 64.1679416,194.136719 63.0833008,194.136719 C61.9075136,194.136719 60.965303,193.715173 60.2566406,192.87207 C59.5479782,192.028967 59.1936523,190.901049 59.1936523,189.488281 L59.1936523,188.53125 C59.1936523,187.606115 59.3588525,186.792647 59.6892578,186.09082 C60.0196631,185.388994 60.4879201,184.8501 61.094043,184.474121 C61.7001658,184.098143 62.4019817,183.910156 63.1995117,183.910156 C64.2568087,183.910156 65.1044564,184.205238 65.7424805,184.79541 C66.3805045,185.385582 66.75192,186.202469 66.8567383,187.246094 L65.5374023,187.246094 C65.4234695,186.453121 65.1762389,185.878908 64.7957031,185.523438 C64.4151674,185.167967 63.8831089,184.990234 63.1995117,184.990234 C62.3609659,184.990234 61.7035831,185.300127 61.2273437,185.919922 C60.7511044,186.539717 60.5129883,187.421544 60.5129883,188.56543 L60.5129883,189.529297 C60.5129883,190.60938 60.738572,191.468421 61.1897461,192.106445 C61.6409202,192.744469 62.2720988,193.063477 63.0833008,193.063477 C63.8124711,193.063477 64.371873,192.898276 64.7615234,192.567871 C65.1511738,192.237466 65.4097975,191.662113 65.5374023,190.841797 L66.8567383,190.841797 Z M74.3438477,191.402344 L70.1739258,191.402344 L69.2374023,194 L67.8838867,194 L71.684668,184.046875 L72.8331055,184.046875 L76.6407227,194 L75.294043,194 L74.3438477,191.402344 Z M70.5704102,190.322266 L73.9541992,190.322266 L72.2588867,185.666992 L70.5704102,190.322266 Z M81.830957,189.973633 L79.4930664,189.973633 L79.4930664,194 L78.1737305,194 L78.1737305,184.046875 L81.4686523,184.046875 C82.5897517,184.046875 83.4522105,184.302081 84.0560547,184.8125 C84.6598989,185.322919 84.9618164,186.06575 84.9618164,187.041016 C84.9618164,187.66081 84.7943376,188.200844 84.459375,188.661133 C84.1244124,189.121422 83.658434,189.465494 83.0614258,189.693359 L85.3993164,193.917969 L85.3993164,194 L83.9911133,194 L81.830957,189.973633 Z M79.4930664,188.900391 L81.509668,188.900391 C82.1613639,188.900391 82.6797507,188.731773 83.0648438,188.394531 C83.4499368,188.05729 83.6424805,187.606123 83.6424805,187.041016 C83.6424805,186.425778 83.4590513,185.954103 83.0921875,185.625977 C82.7253237,185.29785 82.1955438,185.13151 81.502832,185.126953 L79.4930664,185.126953 L79.4930664,188.900391 Z M89.7077148,189.043945 L92.3053711,184.046875 L93.7956055,184.046875 L90.3639648,190.288086 L90.3639648,194 L89.0514648,194 L89.0514648,190.288086 L85.6198242,184.046875 L87.1237305,184.046875 L89.7077148,189.043945 Z" id="Scary-Copy" fill="#FFFFFF"></path>
                    <path d="M60.6893555,60.3686523 L60.6893555,62.5917969 L60.2079102,62.5917969 C58.1688375,62.6295575 56.5451558,63.2337181 55.3368164,64.4042969 C54.128477,65.5748756 53.4299163,67.2221573 53.2411133,69.3461914 C54.3267307,68.1000914 55.8088122,67.4770508 57.6874024,67.4770508 C59.4810311,67.4770508 60.9135526,68.1095314 61.9850098,69.3745117 C63.056467,70.639492 63.5921875,72.2726137 63.5921875,74.2739258 C63.5921875,76.3979598 63.0139869,78.0971616 61.8575684,79.371582 C60.7011498,80.6460025 59.1506282,81.2832031 57.205957,81.2832031 C55.2329654,81.2832031 53.6328837,80.5256423 52.4056641,79.010498 C51.1784444,77.4953538 50.5648438,75.5436317 50.5648438,73.1552734 L50.5648438,72.1499023 C50.5648438,68.3549615 51.3743246,65.4545185 52.9933106,63.4484863 C54.6122965,61.4424542 57.021859,60.4158531 60.2220703,60.3686523 L60.6893555,60.3686523 Z M57.2484375,69.6577148 C56.3516231,69.6577148 55.5256223,69.9267551 54.7704102,70.4648438 C54.0151981,71.0029324 53.4912775,71.6778931 53.1986328,72.4897461 L53.1986328,73.4526367 C53.1986328,75.151864 53.5809532,76.5206654 54.3456055,77.559082 C55.1102577,78.5974987 56.0636987,79.1166992 57.205957,79.1166992 C58.385976,79.1166992 59.3134569,78.6824588 59.9884277,77.8139648 C60.6633986,76.9454709 61.0008789,75.8079497 61.0008789,74.4013672 C61.0008789,72.9853445 60.6586786,71.8407433 59.9742676,70.9675293 C59.2898566,70.0943153 58.3812557,69.6577148 57.2484375,69.6577148 Z M76.5735352,60.3686523 L76.5735352,62.5917969 L76.0920898,62.5917969 C74.0530172,62.6295575 72.4293355,63.2337181 71.2209961,64.4042969 C70.0126567,65.5748756 69.314096,67.2221573 69.125293,69.3461914 C70.2109104,68.1000914 71.6929919,67.4770508 73.571582,67.4770508 C75.3652108,67.4770508 76.7977323,68.1095314 77.8691895,69.3745117 C78.9406466,70.639492 79.4763672,72.2726137 79.4763672,74.2739258 C79.4763672,76.3979598 78.8981666,78.0971616 77.741748,79.371582 C76.5853295,80.6460025 75.0348079,81.2832031 73.0901367,81.2832031 C71.1171451,81.2832031 69.5170634,80.5256423 68.2898438,79.010498 C67.0626241,77.4953538 66.4490234,75.5436317 66.4490234,73.1552734 L66.4490234,72.1499023 C66.4490234,68.3549615 67.2585043,65.4545185 68.8774902,63.4484863 C70.4964762,61.4424542 72.9060387,60.4158531 76.10625,60.3686523 L76.5735352,60.3686523 Z M73.1326172,69.6577148 C72.2358028,69.6577148 71.409802,69.9267551 70.6545898,70.4648438 C69.8993777,71.0029324 69.3754572,71.6778931 69.0828125,72.4897461 L69.0828125,73.4526367 C69.0828125,75.151864 69.4651329,76.5206654 70.2297852,77.559082 C70.9944374,78.5974987 71.9478784,79.1166992 73.0901367,79.1166992 C74.2701556,79.1166992 75.1976366,78.6824588 75.8726074,77.8139648 C76.5475782,76.9454709 76.8850586,75.8079497 76.8850586,74.4013672 C76.8850586,72.9853445 76.5428582,71.8407433 75.8584473,70.9675293 C75.1740363,70.0943153 74.2654354,69.6577148 73.1326172,69.6577148 Z M81.9508789,64.3476562 C81.9508789,63.1109964 82.3449993,62.0914754 83.133252,61.2890625 C83.9215046,60.4866496 84.9339456,60.0854492 86.1706055,60.0854492 C87.4261456,60.0854492 88.4433066,60.4890096 89.2221191,61.2961426 C90.0009316,62.1032755 90.390332,63.1487566 90.390332,64.4326172 L90.390332,65.4379883 C90.390332,66.6840883 89.9962116,67.7012493 89.207959,68.489502 C88.4197063,69.2777546 87.4167053,69.671875 86.1989258,69.671875 C84.9717061,69.671875 83.9569051,69.2777546 83.1544922,68.489502 C82.3520793,67.7012493 81.9508789,66.6510482 81.9508789,65.3388672 L81.9508789,64.3476562 Z M83.9049805,65.4379883 C83.9049805,66.1743201 84.1126607,66.7808407 84.5280273,67.2575684 C84.943394,67.734296 85.5003546,67.9726562 86.1989258,67.9726562 C86.8691765,67.9726562 87.4096171,67.741376 87.8202637,67.2788086 C88.2309103,66.8162412 88.4362305,66.1837605 88.4362305,65.3813477 L88.4362305,64.3476562 C88.4362305,63.6113244 88.2332703,63.0024438 87.8273437,62.5209961 C87.4214172,62.0395484 86.8691767,61.7988281 86.1706055,61.7988281 C85.4720343,61.7988281 84.9197937,62.0395484 84.5138672,62.5209961 C84.1079407,63.0024438 83.9049805,63.6302045 83.9049805,64.4042969 L83.9049805,65.4379883 Z M91.9904297,75.9448242 C91.9904297,74.7081644 92.3845501,73.6910033 93.1728027,72.8933105 C93.9610554,72.0956178 94.9734964,71.6967773 96.2101562,71.6967773 C97.4468161,71.6967773 98.4616171,72.0932578 99.2545898,72.8862305 C100.047563,73.6792032 100.444043,74.7317643 100.444043,76.0439453 L100.444043,77.0493164 C100.444043,78.2859762 100.049923,79.3031373 99.2616699,80.1008301 C98.4734173,80.8985229 97.4656962,81.2973633 96.2384766,81.2973633 C95.0112569,81.2973633 93.9964558,80.9032429 93.194043,80.1149902 C92.3916301,79.3267376 91.9904297,78.2765365 91.9904297,76.9643555 L91.9904297,75.9448242 Z M93.9445312,77.0493164 C93.9445312,77.7950884 94.1522115,78.406329 94.5675781,78.8830566 C94.9829448,79.3597843 95.5399054,79.5981445 96.2384766,79.5981445 C96.9181675,79.5981445 97.460968,79.3645043 97.8668945,78.8972168 C98.272821,78.4299293 98.4757812,77.7950886 98.4757812,76.9926758 L98.4757812,75.9448242 C98.4757812,75.1990523 98.270461,74.5901716 97.8598145,74.1181641 C97.4491679,73.6461565 96.8992873,73.4101562 96.2101562,73.4101562 C95.5399055,73.4101562 94.9947449,73.6437965 94.5746582,74.111084 C94.1545715,74.5783715 93.9445312,75.2084921 93.9445312,76.0014648 L93.9445312,77.0493164 Z M86.7936523,79.4423828 L85.3068359,78.5078125 L95.374707,62.3935547 L96.8615234,63.328125 L86.7936523,79.4423828 Z" id="66%-copy" fill="#AAAAAA"></path>
                </g>
                <g id="Group-Copy-3" transform="translate(280.000000, 260.000000)">
                    <circle id="Oval" stroke="#EEEEEE" stroke-width="1.5" stroke-linejoin="round" cx="72" cy="72" r="72"></circle>
                    <path d="M31.4324297,131.491773 C42.9845138,139.384388 56.95324,144 72,144 L72,144 C111.764502,144 144,111.764502 144,72 C144,32.235498 111.764502,0 72,0" id="Oval-Copy-4" stroke="#FF6D00" stroke-width="5" stroke-linejoin="round"></path>
                    <path d="M47.4998047,189.399414 L43.1863281,189.399414 L43.1863281,192.926758 L48.1970703,192.926758 L48.1970703,194 L41.8738281,194 L41.8738281,184.046875 L48.1287109,184.046875 L48.1287109,185.126953 L43.1863281,185.126953 L43.1863281,188.326172 L47.4998047,188.326172 L47.4998047,189.399414 Z M53.2779297,187.861328 L55.6636719,184.046875 L57.2085937,184.046875 L54.0640625,188.982422 L57.2837891,194 L55.7251953,194 L53.2779297,190.117188 L50.8169922,194 L49.2652344,194 L52.4917969,188.982422 L49.3404297,184.046875 L50.8785156,184.046875 L53.2779297,187.861328 Z M66.1585937,190.841797 C66.0355463,191.894537 65.647041,192.706866 64.9930664,193.278809 C64.3390918,193.850752 63.4697971,194.136719 62.3851562,194.136719 C61.2093691,194.136719 60.2671585,193.715173 59.5584961,192.87207 C58.8498337,192.028967 58.4955078,190.901049 58.4955078,189.488281 L58.4955078,188.53125 C58.4955078,187.606115 58.660708,186.792647 58.9911133,186.09082 C59.3215186,185.388994 59.7897756,184.8501 60.3958984,184.474121 C61.0020213,184.098143 61.7038372,183.910156 62.5013672,183.910156 C63.5586641,183.910156 64.4063119,184.205238 65.0443359,184.79541 C65.68236,185.385582 66.0537755,186.202469 66.1585937,187.246094 L64.8392578,187.246094 C64.7253249,186.453121 64.4780943,185.878908 64.0975586,185.523438 C63.7170228,185.167967 63.1849643,184.990234 62.5013672,184.990234 C61.6628213,184.990234 61.0054386,185.300127 60.5291992,185.919922 C60.0529599,186.539717 59.8148437,187.421544 59.8148437,188.56543 L59.8148437,189.529297 C59.8148437,190.60938 60.0404274,191.468421 60.4916016,192.106445 C60.9427757,192.744469 61.5739543,193.063477 62.3851562,193.063477 C63.1143266,193.063477 63.6737285,192.898276 64.0633789,192.567871 C64.4530293,192.237466 64.711653,191.662113 64.8392578,190.841797 L66.1585937,190.841797 Z M69.5578125,194 L68.2453125,194 L68.2453125,184.046875 L69.5578125,184.046875 L69.5578125,194 Z M78.8359375,185.126953 L75.6367188,185.126953 L75.6367188,194 L74.3310547,194 L74.3310547,185.126953 L71.1386719,185.126953 L71.1386719,184.046875 L78.8359375,184.046875 L78.8359375,185.126953 Z M81.9207031,194 L80.6082031,194 L80.6082031,184.046875 L81.9207031,184.046875 L81.9207031,194 Z M92.1695313,194 L90.8501953,194 L85.8394531,186.330078 L85.8394531,194 L84.5201172,194 L84.5201172,184.046875 L85.8394531,184.046875 L90.8638672,191.750977 L90.8638672,184.046875 L92.1695313,184.046875 L92.1695313,194 Z M102.049219,192.694336 C101.711977,193.177411 101.241442,193.538573 100.637598,193.777832 C100.033754,194.017091 99.3307983,194.136719 98.5287109,194.136719 C97.717509,194.136719 96.9974641,193.946454 96.3685547,193.565918 C95.7396453,193.185382 95.2531593,192.644209 94.909082,191.942383 C94.5650048,191.240556 94.3884115,190.427088 94.3792969,189.501953 L94.3792969,188.633789 C94.3792969,187.134433 94.7290655,185.972335 95.4286133,185.147461 C96.1281611,184.322587 97.1113869,183.910156 98.3783203,183.910156 C99.417388,183.910156 100.253643,184.175616 100.887109,184.706543 C101.520576,185.23747 101.907942,185.990555 102.049219,186.96582 L100.736719,186.96582 C100.490624,185.648756 99.7067775,184.990234 98.3851563,184.990234 C97.5055946,184.990234 96.8390973,185.298988 96.3856445,185.916504 C95.9321918,186.53402 95.7031901,187.42838 95.6986328,188.599609 L95.6986328,189.413086 C95.6986328,190.529628 95.9538386,191.417152 96.4642578,192.075684 C96.974677,192.734216 97.6650998,193.063477 98.5355469,193.063477 C99.0277368,193.063477 99.4583966,193.00879 99.8275391,192.899414 C100.196682,192.790039 100.502017,192.60547 100.743555,192.345703 L100.743555,190.110352 L98.4398438,190.110352 L98.4398438,189.043945 L102.049219,189.043945 L102.049219,192.694336 Z" id="Exciting-Copy" fill="#FFFFFF"></path>
                    <path d="M60.6893555,60.3686523 L60.6893555,62.5917969 L60.2079102,62.5917969 C58.1688375,62.6295575 56.5451558,63.2337181 55.3368164,64.4042969 C54.128477,65.5748756 53.4299163,67.2221573 53.2411133,69.3461914 C54.3267307,68.1000914 55.8088122,67.4770508 57.6874024,67.4770508 C59.4810311,67.4770508 60.9135526,68.1095314 61.9850098,69.3745117 C63.056467,70.639492 63.5921875,72.2726137 63.5921875,74.2739258 C63.5921875,76.3979598 63.0139869,78.0971616 61.8575684,79.371582 C60.7011498,80.6460025 59.1506282,81.2832031 57.205957,81.2832031 C55.2329654,81.2832031 53.6328837,80.5256423 52.4056641,79.010498 C51.1784444,77.4953538 50.5648438,75.5436317 50.5648438,73.1552734 L50.5648438,72.1499023 C50.5648438,68.3549615 51.3743246,65.4545185 52.9933106,63.4484863 C54.6122965,61.4424542 57.021859,60.4158531 60.2220703,60.3686523 L60.6893555,60.3686523 Z M57.2484375,69.6577148 C56.3516231,69.6577148 55.5256223,69.9267551 54.7704102,70.4648438 C54.0151981,71.0029324 53.4912775,71.6778931 53.1986328,72.4897461 L53.1986328,73.4526367 C53.1986328,75.151864 53.5809532,76.5206654 54.3456055,77.559082 C55.1102577,78.5974987 56.0636987,79.1166992 57.205957,79.1166992 C58.385976,79.1166992 59.3134569,78.6824588 59.9884277,77.8139648 C60.6633986,76.9454709 61.0008789,75.8079497 61.0008789,74.4013672 C61.0008789,72.9853445 60.6586786,71.8407433 59.9742676,70.9675293 C59.2898566,70.0943153 58.3812557,69.6577148 57.2484375,69.6577148 Z M67.496875,70.6630859 L68.5447266,60.3828125 L79.1082031,60.3828125 L79.1082031,62.8041992 L70.7678711,62.8041992 L70.1448242,68.4257812 C71.1549204,67.8310517 72.3018816,67.5336914 73.5857422,67.5336914 C75.4643323,67.5336914 76.9558539,68.154372 78.0603516,69.395752 C79.1648493,70.6371319 79.7170898,72.3150936 79.7170898,74.4296875 C79.7170898,76.5537216 79.1436093,78.2269633 77.9966309,79.4494629 C76.8496525,80.6719625 75.2472108,81.2832031 73.1892578,81.2832031 C71.3673086,81.2832031 69.8805071,80.7781626 68.7288086,79.7680664 C67.5771101,78.7579702 66.9210295,77.3608488 66.7605469,75.5766602 L69.2385742,75.5766602 C69.3990568,76.7566791 69.8191372,77.6464 70.4988281,78.2458496 C71.178519,78.8452992 72.07532,79.1450195 73.1892578,79.1450195 C74.4070373,79.1450195 75.3628383,78.7296591 76.0566895,77.8989258 C76.7505406,77.0681925 77.0974609,75.9212313 77.0974609,74.4580078 C77.0974609,73.0797457 76.7222206,71.9729046 75.9717285,71.1374512 C75.2212365,70.3019978 74.2229555,69.8842773 72.9768555,69.8842773 C71.8345972,69.8842773 70.9377962,70.1344376 70.2864258,70.6347656 L69.5925781,71.2011719 L67.496875,70.6630859 Z M81.9508789,64.3476562 C81.9508789,63.1109964 82.3449993,62.0914754 83.133252,61.2890625 C83.9215046,60.4866496 84.9339456,60.0854492 86.1706055,60.0854492 C87.4261456,60.0854492 88.4433066,60.4890096 89.2221191,61.2961426 C90.0009316,62.1032755 90.390332,63.1487566 90.390332,64.4326172 L90.390332,65.4379883 C90.390332,66.6840883 89.9962116,67.7012493 89.207959,68.489502 C88.4197063,69.2777546 87.4167053,69.671875 86.1989258,69.671875 C84.9717061,69.671875 83.9569051,69.2777546 83.1544922,68.489502 C82.3520793,67.7012493 81.9508789,66.6510482 81.9508789,65.3388672 L81.9508789,64.3476562 Z M83.9049805,65.4379883 C83.9049805,66.1743201 84.1126607,66.7808407 84.5280273,67.2575684 C84.943394,67.734296 85.5003546,67.9726562 86.1989258,67.9726562 C86.8691765,67.9726562 87.4096171,67.741376 87.8202637,67.2788086 C88.2309103,66.8162412 88.4362305,66.1837605 88.4362305,65.3813477 L88.4362305,64.3476562 C88.4362305,63.6113244 88.2332703,63.0024438 87.8273437,62.5209961 C87.4214172,62.0395484 86.8691767,61.7988281 86.1706055,61.7988281 C85.4720343,61.7988281 84.9197937,62.0395484 84.5138672,62.5209961 C84.1079407,63.0024438 83.9049805,63.6302045 83.9049805,64.4042969 L83.9049805,65.4379883 Z M91.9904297,75.9448242 C91.9904297,74.7081644 92.3845501,73.6910033 93.1728027,72.8933105 C93.9610554,72.0956178 94.9734964,71.6967773 96.2101562,71.6967773 C97.4468161,71.6967773 98.4616171,72.0932578 99.2545898,72.8862305 C100.047563,73.6792032 100.444043,74.7317643 100.444043,76.0439453 L100.444043,77.0493164 C100.444043,78.2859762 100.049923,79.3031373 99.2616699,80.1008301 C98.4734173,80.8985229 97.4656962,81.2973633 96.2384766,81.2973633 C95.0112569,81.2973633 93.9964558,80.9032429 93.194043,80.1149902 C92.3916301,79.3267376 91.9904297,78.2765365 91.9904297,76.9643555 L91.9904297,75.9448242 Z M93.9445312,77.0493164 C93.9445312,77.7950884 94.1522115,78.406329 94.5675781,78.8830566 C94.9829448,79.3597843 95.5399054,79.5981445 96.2384766,79.5981445 C96.9181675,79.5981445 97.460968,79.3645043 97.8668945,78.8972168 C98.272821,78.4299293 98.4757812,77.7950886 98.4757812,76.9926758 L98.4757812,75.9448242 C98.4757812,75.1990523 98.270461,74.5901716 97.8598145,74.1181641 C97.4491679,73.6461565 96.8992873,73.4101562 96.2101562,73.4101562 C95.5399055,73.4101562 94.9947449,73.6437965 94.5746582,74.111084 C94.1545715,74.5783715 93.9445312,75.2084921 93.9445312,76.0014648 L93.9445312,77.0493164 Z M86.7936523,79.4423828 L85.3068359,78.5078125 L95.374707,62.3935547 L96.8615234,63.328125 L86.7936523,79.4423828 Z" id="65%-copy" fill="#AAAAAA"></path>
                </g>
            </g>
        </g>
    </g>
</svg>