<?xml version="1.0" encoding="UTF-8" standalone="no"?>
<!-- Created with Inkscape (http://www.inkscape.org/) -->

<svg
   xmlns:dc="http://purl.org/dc/elements/1.1/"
   xmlns:cc="http://creativecommons.org/ns#"
   xmlns:rdf="http://www.w3.org/1999/02/22-rdf-syntax-ns#"
   xmlns:svg="http://www.w3.org/2000/svg"
   xmlns="http://www.w3.org/2000/svg"
   xmlns:sodipodi="http://sodipodi.sourceforge.net/DTD/sodipodi-0.dtd"
   xmlns:inkscape="http://www.inkscape.org/namespaces/inkscape"
   width="1000"
   height="755.97229"
   id="svg2"
   version="1.1"
   inkscape:version="0.48.5 r10040"
   sodipodi:docname="New document 1">
  <defs
     id="defs4" />
  <sodipodi:namedview
     id="base"
     pagecolor="#ffffff"
     bordercolor="#666666"
     borderopacity="1.0"
     inkscape:pageopacity="0.0"
     inkscape:pageshadow="2"
     inkscape:zoom="0.20108349"
     inkscape:cx="728.50851"
     inkscape:cy="277.31551"
     inkscape:document-units="px"
     inkscape:current-layer="layer1"
     showgrid="false"
     fit-margin-left="0.5"
     fit-margin-bottom="0.5"
     fit-margin-top="0.5"
     fit-margin-right="0.5"
     inkscape:window-width="1078"
     inkscape:window-height="1029"
     inkscape:window-x="836"
     inkscape:window-y="-12"
     inkscape:window-maximized="0">
    <inkscape:grid
       type="xygrid"
       id="grid2996"
       empspacing="5"
       visible="true"
       enabled="true"
       snapvisiblegridlinesonly="true"
       originx="-59.5px"
       originy="-83.771963px" />
  </sodipodi:namedview>
  <metadata
     id="metadata7">
    <rdf:RDF>
      <cc:Work
         rdf:about="">
        <dc:format>image/svg+xml</dc:format>
        <dc:type
           rdf:resource="http://purl.org/dc/dcmitype/StillImage" />
        <dc:title></dc:title>
      </cc:Work>
    </rdf:RDF>
  </metadata>
  <g
     inkscape:label="Layer 1"
     inkscape:groupmode="layer"
     id="layer1"
     transform="translate(-59.5,-212.61791)">
    <path
       style="fill:#080006;fill-opacity:1;stroke:none"
       d="m 60,213.11791 999,0 0,557.9415 -790.7912,0 L 60,968.09022 z"
       id="path3018"
       inkscape:connector-curvature="0"
       sodipodi:nodetypes="cccccc" />
    <path
       style="fill:#ffffff;stroke:none"
       d="m 185.874,343.99972 -35.964,32.967 0,211.2885 35.964,0 0,-19.4805 c 0,0 14.2505,23.60137 50.76169,23.60137 50.18912,0 81.51215,-40.03792 81.51215,-85.38328 0,-49.5895 -35.39565,-85.66425 -81.44972,-85.66425 -36.21119,0 -50.82412,23.57016 -50.82412,23.57016 l 0,-100.899 z m 46.48472,110.76412 c 28.34502,0 49.10709,20.62016 49.10709,51.91678 0,30.81507 -20.31157,52.13531 -49.10709,52.13531 -26.42466,0 -48.85735,-19.09526 -48.85735,-52.04165 0,-29.39164 19.39146,-52.01044 48.85735,-52.01044 z"
       id="path2998"
       inkscape:connector-curvature="0" />
    <path
       style="fill:#ffffff;stroke:none"
       d="m 342.2175,588.24241 0,-162.837 35.4645,0 0,17.97651 c 0,0 11.92413,-22.12071 47.4525,-22.12071 15.68118,0 27.04048,4.33319 27.04048,4.33319 l -8.0974,35.48132 c 0,0 -12.07235,-5.78316 -26.74227,-5.78316 -27.90361,0 -39.15381,19.94814 -39.15381,42.54035 l 0,90.4095 z"
       id="path3004"
       inkscape:connector-curvature="0"
       sodipodi:nodetypes="ccccccccccc" />
    <path
       id="path3007"
       d="m 584.88084,425.40541 35.964,0 0,162.84981 -35.964,0 0,-19.4805 c 0,0 -14.25049,23.60137 -50.76168,23.60137 -50.18912,0 -81.51216,-40.03792 -81.51216,-85.38328 0,-49.5895 35.39565,-85.66425 81.44972,-85.66425 36.21119,0 50.82412,23.57016 50.82412,23.57016 z m -46.48472,29.35843 c -28.34501,0 -49.10709,20.62016 -49.10709,51.91678 0,30.81507 20.31157,52.13531 49.10709,52.13531 26.42466,0 48.85735,-19.09526 48.85735,-52.04165 0,-29.39164 -19.39146,-52.01044 -48.85735,-52.01044 z"
       style="fill:#ffffff;stroke:none"
       inkscape:connector-curvature="0"
       sodipodi:nodetypes="cccccsssccsssss" />
    <path
       style="fill:#ffffff;stroke:none"
       d="m 638.03676,425.40541 38.85122,0 48.04676,125.71687 47.90116,-125.71687 37.85222,0 -65.06361,162.837 -42.26851,0 z"
       id="path3009"
       inkscape:connector-curvature="0"
       sodipodi:nodetypes="cccccccc" />
    <path
       style="fill:#ffffff;stroke:none"
       d="m 898.62928,421.26612 c -54.58268,0 -88.00566,39.81336 -88.00566,85.53938 0,45.32053 33.62411,85.60181 87.59982,85.60181 51.99989,0 87.50615,-37.94449 87.50615,-85.53938 0,-52.67621 -41.18425,-85.60181 -87.10031,-85.60181 z m -0.4995,33.4665 c 27.40916,0 51.19875,19.69445 51.19875,52.26019 0,30.98532 -23.49417,51.97922 -51.10509,51.97922 -29.76887,0 -51.04266,-22.18046 -51.04266,-52.16653 0,-28.11677 20.58141,-52.07288 50.949,-52.07288 z"
       id="path3013"
       inkscape:connector-curvature="0" />
  </g>
</svg>
