<?xml version="1.0" encoding="utf-8"?>
<!-- Generator: Adobe Illustrator 19.0.0, SVG Export Plug-In . SVG Version: 6.00 Build 0)  -->
<svg version="1.1" id="Layer_3" xmlns="http://www.w3.org/2000/svg" xmlns:xlink="http://www.w3.org/1999/xlink" x="0px" y="0px"
	 viewBox="-7 44.7 84.2 13.3" style="enable-background:new -7 44.7 84.2 13.3;" xml:space="preserve">
<style type="text/css">
	.st0{fill:#333333;}
	.st1{fill:#FFFFFF;}
	.st2{fill:#1589CA;}
	.st3{fill:#6360AB;}
	.st4{fill:#CF1F44;}
	.st5{fill:#F37024;}
	.st6{fill:#FCB717;}
	.st7{fill:#12B24B;}
</style>
<polyline id="XMLID_11_" class="st0" points="33.5,48 39.2,48 44.2,55 44.2,55 44.2,48 47.9,48 47.9,57.7 42.3,57.7 37.2,50.7 
	37.1,50.7 37.1,57.7 33.5,57.7 33.5,48 "/>
<path id="XMLID_22_" class="st0" d="M53.1,55.6h1.2c2.2,0,3-0.3,3-1c0-0.7-1-1-2.7-1h-1.5L53.1,55.6 M53.1,51.7h1.2
	c1.8,0,2.7-0.1,2.7-0.9c0-0.8-0.7-1-2.4-1h-1.5V51.7z M49,48h7c3.4,0,5.3,0.9,5.3,2.4c0,0.9-0.9,1.9-2.7,2.2l0,0
	c2.2,0.1,3.1,1.5,3.1,2.4c0,1.6-1.9,2.7-5.6,2.7H49V48z"/>
<path id="XMLID_13_" class="st0" d="M72.7,51.1c-0.1-1-1-1.3-2.1-1.5c-3.1-0.3-3.7,2.1-3.7,3.1c0,1.6,0.4,3.1,3.6,3.1
	c0.6,0,2.1-0.6,2.1-1.5H77c-0.1,2.8-4.9,3.6-7,3.6c-4.3,0-8-0.7-7.7-5c0.1-3,3-5.2,8.6-5c3.1,0,6.2,1,6.2,3.4h-4.5"/>
<path id="XMLID_14_" class="st0" d="M28.2,51.1c-0.1-1-1-1.3-2.1-1.5c-3.1-0.2-3.7,2.1-3.7,3.2c0,1.6,0.4,3.1,3.6,3.1
	c0.6,0,2.2-0.6,2.2-1.5h4.5c-0.1,2.8-4.9,3.6-7,3.6c-4.3,0-8-0.7-7.7-5c0.1-3,3-5.2,8.6-5c3.1,0,6.2,1,6.2,3.4h-4.6"/>
<path id="XMLID_7_" class="st1" d="M14.1,57.6c-0.4,0.2-0.8,0.2-1.2,0.2H-4.6c-1-0.1-2-0.9-2.2-1.9c-0.3-1,0-2,0.6-2.7
	c0.6-0.6,1.4-0.9,2.3-0.8c-0.9-0.5-1.2-1.5-1.1-2.5c0.1-0.9,0.8-1.7,1.6-2.1c0.9-0.4,2.1-0.2,2.8,0.5c-0.2-0.5-0.2-1.3,0-1.8
	c0.2-0.8,1.1-1.5,1.9-1.7c1.1-0.2,2.2,0.2,2.8,1.1c0.1,0.2,0.2,0.4,0.3,0.6c0.3-0.9,1.2-1.7,2.2-1.8s1.9,0.3,2.5,1.1
	c0.5,0.7,0.6,1.7,0.3,2.5l0,0c0.6-0.6,1.7-0.9,2.6-0.5c0.9,0.3,1.6,1.2,1.7,2.1c0.1,1-0.2,1.9-1,2.5c1.1-0.1,2.2,0.5,2.7,1.6
	c0.4,0.9,0.3,2.2-0.4,2.9C14.7,57.2,14.4,57.5,14.1,57.6"/>
<path id="XMLID_6_" class="st2" d="M12.3,52.4l-6.5,4.3L8,51.6l1-2.4c0.4-0.8,1.2-1.3,2.1-1.3c0.8,0,1.6,0.4,2,1.1
	c0.5,0.7,0.5,1.9,0,2.6C12.9,51.9,12.6,52.2,12.3,52.4"/>
<path id="XMLID_5_" class="st3" d="M9,48.3l-3.2,7.6l-0.1-0.8l-1-6.2c0-0.4,0.1-0.7,0.4-0.9l0.5-0.3c0-0.1-0.1-0.1-0.2-0.2H4.5
	c-0.1-0.9,0.3-1.7,1.1-2.2c0.6-0.4,1.5-0.5,2.1-0.2c0.9,0.3,1.4,1.3,1.5,2.2C9.2,47.7,9.2,48,9,48.3"/>
<path id="XMLID_4_" class="st4" d="M2.9,55.9l-3.2-7.6c-0.3-0.8-0.2-1.8,0.4-2.5c0.6-0.7,1.5-1,2.4-0.7C3.3,45.3,4,46,4.2,46.8
	c0.1,0.3,0.1,0.6,0.1,1L2.9,55.9"/>
<path id="XMLID_3_" class="st5" d="M-3.9,52.2c-0.6-0.6-0.9-1.4-0.8-2.2c0.1-0.9,0.8-1.7,1.6-2s1.8-0.1,2.4,0.6
	c0.3,0.2,0.4,0.5,0.6,0.8L3,56.8L-3.9,52.2"/>
<path id="XMLID_2_" class="st6" d="M-4.6,57.6c-0.8-0.1-1.5-0.6-1.9-1.3c-0.4-0.8-0.3-1.9,0.2-2.6c0.6-0.7,1.4-1.1,2.3-0.9
	c0.4,0,0.7,0.2,1,0.3l6.6,4.4L-4.6,57.6"/>
<path id="XMLID_1_" class="st7" d="M13.2,57.6c0.8-0.1,1.5-0.6,1.9-1.3c0.4-0.8,0.3-1.9-0.2-2.6c-0.6-0.7-1.4-1.1-2.3-0.9
	c-0.3,0.1-0.6,0.2-0.9,0.4l-6.6,4.4H13.2"/>
</svg>
