<?xml version="1.0" encoding="utf-8"?>
<!-- Generator: Adobe Illustrator 16.0.0, SVG Export Plug-In . SVG Version: 6.00 Build 0)  -->
<!DOCTYPE svg PUBLIC "-//W3C//DTD SVG 1.1//EN" "http://www.w3.org/Graphics/SVG/1.1/DTD/svg11.dtd">
<svg version="1.1" id="Layer_1" xmlns="http://www.w3.org/2000/svg" xmlns:xlink="http://www.w3.org/1999/xlink" x="0px" y="0px"
	 width="1000.912px" height="289.7px" viewBox="0 0 1000.912 289.7" enable-background="new 0 0 1000.912 289.7"
	 xml:space="preserve">
<g>
	<g>
		<path d="M472.203,211.449h12.214l37.611,63.877v-63.877H531v77.282h-10.811l-39.023-66.259v66.259h-8.963V211.449z"/>
		<path d="M551.019,211.449h45.072v7.674h-35.674v26.266h28.756v7.669h-28.756v27.996h37.611v7.678h-47.01V211.449z"/>
		<path d="M632.416,219.123h-22.481v-7.674h54.37v7.674h-22.481v69.608h-9.407V219.123z"/>
		<path d="M676.537,211.449h9.625l15.673,62.361l18.153-62.361h6.7l18.162,62.578l15.881-62.578h8.756l-20.101,77.282h-8.646
			l-17.511-61.07l-18.045,61.07h-8.538L676.537,211.449z"/>
		<path d="M775.897,250.577v-0.869c0-21.938,15.347-39.231,38.046-39.231c22.698,0,37.72,17.293,37.72,39.019v0.864
			c0,21.83-15.021,39.341-37.503,39.341C791.354,289.7,775.897,272.189,775.897,250.577z M841.938,250.25v-0.864
			c0-17.294-10.158-31.342-27.995-31.342c-17.945,0-28.321,13.184-28.321,31.555v0.869c0,18.696,12.432,31.454,28.538,31.454
			C831.346,281.922,841.938,268.948,841.938,250.25z"/>
		<path d="M866.819,211.449h23.242c14.804,0,27.018,6.053,27.018,21.509v0.435c0,12.748-8.538,19.022-19.131,21.073l23.667,34.266
			H911.14l-23.024-33.618h-11.889v33.618h-9.407V211.449z M890.704,247.657c11.028,0,16.977-4.758,16.977-14.265v-0.435
			c0-10.485-6.491-13.944-16.977-13.944h-14.478v28.644H890.704z"/>
		<path d="M936.881,211.449h9.398v37.182l33.618-37.29h10.484l-34.369,37.615l36.099,39.775h-11.354l-34.479-37.725v37.725h-9.398
			V211.449z"/>
	</g>
	<g>
		<g>
			<path d="M440.983,248.739c-5.731-0.163-46.928,0.507-52.885,1.005c0-0.924,4.636-79.55,5.958-90.406c0,0-1.856-0.067-3.341-0.067
				c-11.635,19.498-35.058,24.84-41.74,24.84c-16.098,0-57.403-3.183-57.403-44.737c0-43.356,37.068-61.794,72.397-61.794
				c9.833,0,17.257,1.005,22.608,2.68c6.456,2.531,7.678,8.466,7.678,11.924c0,6.999-6.392,13.717-11.245,13.717
				s-7.479-2.852-15.229-2.852c-7.569,0-29.091,5.668-29.091,32.722c0,18.616,12.296,22.934,21.44,22.934
				c19.168,0,34.36-13.287,34.36-36.407c0-8.076,0.39-19.073,1.268-22.925c2.264-9.941,14.46-12.019,22.889-12.019
				c13.346,0,20.625,6.687,20.625,11.902C439.272,102.749,440.983,248.739,440.983,248.739z"/>
			<path d="M181.745,87.918c0-7.189,10.068-14.016,26.601-14.016c16.542,0,30.911,3.948,30.911,9.702
				c0,5.392-3.105,6.469-3.105,10.896c0,3.93,7.877,7.244,16.632,15.646c8.104,8.09,14.994,12.25,14.994,26.574
				c0,1.684-1.421,10.113-1.476,10.938c10.611,0.615,21.25,7.234,23.912,9.598c1.576,1.611,2.128,5.89,2.028,8.691
				c-0.063,2.11-0.281,11.164-6.157,11.164c-8.846-2.146-13.989-10.344-28.159-12.195c-14.613,12.947-49.508,19.136-69.545,19.136
				c-13.156,0-32.867-4.038-32.867-16.923c0-8.882,12.703-19.181,41.694-21.721c8.303-0.729,9.38-0.702,14.65-0.602
				c-0.145-0.154,2.598-3.649,2.381-10.702c-0.29-5.989-5.261-11.462-18.145-20.395c-5.813,8.76-11.544,14.464-29.942,31.857
				c-19.629,18.553-55.928,40.291-104.096,40.291C38.335,185.857,0,179.465,0,141.727c0-32.645,38.208-46.448,52.614-52.695
				c-0.136-0.022,0.344-1.385,0.217-1.412c-9.453-2.472-37.973-6.03-37.973-26.483c0-18.149,18.009-35.701,34.75-45.126
				C67.454,5.969,86.495-0.143,124.866,0.002c10.222,0.036,16.325,9.271,16.325,15.564c0,6.32-2.834,10.715-7.633,11.562
				c-10.394,1.838-17.836,3.685-28.494,8.325C93.675,40.42,85.598,49.103,85.879,61.1c0.263,11,13.717,13.224,22.02,15.378
				c3.604,0.702,8.819,2.793,10.086,3.844c3.006,2.481,3.015,7.954,1.576,10.435c-0.697,1.045-2.716,2.911-7.071,4.857
				c-4.536,2.368-11.146,6.881-15.999,10.938c-11.245,9.435-20.254,18.471-20.254,31.477c0,9.801,4.518,19.453,21.322,19.453
				c25.614,0,53.338-3.318,88.948-55.566C184.533,99.15,181.745,95.107,181.745,87.918z M206.598,161.529
				c-3.531-0.702-4.002-0.77-13.292-0.77c-9.76,0-18.199,4.871-18.199,7.18c0,2.345,4.255,3.232,9.353,3.232
				C192.338,171.171,201.438,167.377,206.598,161.529z"/>
			<path d="M681.852,40.873c0,12.649-12.25,22.898-27.353,22.898c-15.111,0-27.353-10.25-27.353-22.898
				c0-12.648,12.241-22.902,27.353-22.902C674.301,17.97,681.852,26.45,681.852,40.873z M634.652,168.818
				c8.919,12.395,27.914,16.302,46.557,16.302c17.556,0,31.935-6.415,42.328-23.673c7.787-12.929,15.438-30.539,22.219-55.253
				c5.071,1.834,22.31,3.328,35.765,2.332c-15.257,11.449-20.399,23.346-20.399,39.408c0,19.313,20.254,37.443,68.313,37.443
				c15.139,0,26.23-5.587,35.674-10.874c14.658,8.04,39.123,10.109,48.576,10.321c26.655,0.598,35.42-1.802,48.141-2.987
				c10.313-0.969,16.714,0.063,23.043,0.063c7.035,0,16.044-2.753,16.044-10.893c-0.019-6.827-8.665-9.715-19.503-9.715
				c-18.869,0-23.541,6.347-55.086,6.347c-13.318,0-21.35-10.675-21.35-20.838c0-12.658,13.527-14.646,22.763-19.046
				c2.281-1.095,4.4-3.726,4.663-6.881c0.162-1.829-0.263-6.256-4.989-7.008c-9.353-1.48-18.38-4.378-18.38-11.535
				c0-4.093,10.276-11.091,22.835-12.468c8.71-0.959,5.813,0.009,15.057-0.181c4.854-0.1,6.564-3.545,7.614-8.466
				c0.86-4.047-6.591-11.467-11.082-12.133c-7.959-1.186-21.105-0.24-39.494,3.264c-24.491,4.659-46.067,14.519-46.91,24.279
				c-1.258,14.636,20.173,19.294,29.345,20.485l0.354,1.987c-16.605,4.219-37.692,12.771-37.692,27.978
				c0,6.021,1.331,9.298,2.264,12.354c-4.98,2.35-7.543,4.477-17.067,4.567c-19.91,0.19-28.802-15.401-28.802-32.681
				c0-8.832,1.802-16.18,7.814-23.346c4.979,0,11.046-1.023,13.617-3.44c2.58-2.408,3.812-5.143,3.812-14.106
				c0-2.834-0.443-7.47-6.618-7.47c-6.176,0-28.982,1.657-46.838,1.657c-17.863,0-23.342-1.164-29.742-2.825
				c-1.766-10.91-9.19-15.084-18.145-15.084c-8.701,0-19.702,3.033-19.702,15.161c0,13.359,8.049,18.167,18.905,21.3
				c0.353,0.104,0.814,0.851,0.814,0.851c-3.332,11.282-6.555,21.124-9.996,29.426c-8.619,20.896-16.985,32.105-27.588,32.105
				c-9.887,0-14.804-7.302-14.804-19.982c0-29.982,3.749-48.317,3.749-51.984c0-8.805-10.666-13.423-24.601-13.423
				c-6.393,0-27.823,1.503-27.823,13.826c0,12.327,1.113,39.476,1.113,57.263c0,1.354,0.063,2.667,0.199,3.93l0.072,0.005
				c-5.405,4.155-12.277,7.628-18.923,7.628c-25.479,0-21.485-14.998-20.824-23.5c0.57-7.325,5.694-38.956,5.694-50.106
				c0-4.799-8.81-10.118-18.724-10.118c-16.198,0-29.942,7.393-29.942,13.993c0,4.002-0.661,31.278-0.661,42.229
				c0,14.428-6.093,24.4-24.029,24.4c-7.887,0-15.482-1.905-15.482-17.076c0-18.48,5.478-40.346,5.478-50.921
				c0-8.384-14.686-12.626-24.763-12.626c-3.087,0-26.701,1.499-26.701,13.83c0,12.328-1.54,36.117-1.54,56.923
				c0,20.444,19.666,33.592,45.706,33.592c23.052,0,37.864-10.141,45.633-22.011c0-0.005,0,0,0,0
				c7.107,19.271,23.369,22.576,46.376,22.576c14.993,0,28.294-7.089,37.62-15.197L634.652,168.818z"/>
		</g>
	</g>
</g>
</svg>
