<?xml version="1.0" encoding="UTF-8" standalone="no"?>
<!-- Created with Inkscape (http://www.inkscape.org/) -->

<svg
   xmlns:svg="http://www.w3.org/2000/svg"
   xmlns="http://www.w3.org/2000/svg"
   version="1.1"
   width="62"
   height="78"
   id="svg5868">
  <defs
     id="defs5870" />
  <g
     transform="translate(-566.86786,-492.82343)"
     id="layer1">
    <path
       d="m 575.21411,570.28468 27.1,0 0,-11.40625 6.95125,0 0,-7.3125 18.8775,0 0,-35.9025 -5.3625,0 0,-12.98625 -14.53875,0 0,-9.315 -23.57125,0 0,18.48875 -17.0775,0 0,39.5725 7.61,0 0.0113,18.86125 z"
       id="path1372"
       style="fill:#100f0d;fill-opacity:1;fill-rule:nonzero;stroke:none" />
    <path
       d="m 620.54986,533.60868 -2.21,-2.0625 c 0,0 -0.7375,-0.59 -1.32625,0 0,0 -0.51875,0.86625 -1.57125,1.03125 0,0 2.55375,-7.22 3.83,-9.13625 0,0 0.835,-1.61875 -1.27625,-2.505 0,0 -1.13,-0.5375 -3.04625,-0.9325 0,0 -1.2275,-0.49 -1.32625,1.37625 -0.0975,1.865 -2.75,8.25 -3.24125,9.38 -0.49,1.13 -0.93125,2.84875 -3.9275,2.65125 l 5.3525,-14.68375 c 0,0 0.9325,-2.11125 -1.2775,-2.16125 l -2.21,-0.0975 c 0,0 -1.57125,-0.1475 -2.0625,1.66875 l -5.10875,13.89875 c 0,0 -0.57125,1.755 -1.7,2.1475 0,0 -1.90875,0.5125 -1,2.47 1.0825,2.33375 3.535,3.4375 5.74625,2.3075 0,0 2.70125,-1.62125 3.63375,-1.62125 0,0 -1.2275,5.55 -1.08,7.02375 0.1475,1.47375 0.78625,2.3075 2.8475,2.3575 2.065,0.0487 2.21125,0.0487 2.21125,0.0487 0,0 1.2275,0.0975 0.9825,-1.8175 -0.245,-1.915 -0.05,-4.17375 0.34375,-5.695 0.3925,-1.52375 1.08125,-3.44 1.08125,-3.44 l 5.79375,0.14875 c 0,0 1.13,0.14625 1.08,-1.18 0,0 0.0987,-0.68625 -0.53875,-1.1775 m -21.28625,-3.6575 c 0,0 1.4275,-0.81375 0.135,-2.17375 0,0 -0.95125,-1.97 -7,-1.49375 -6.0475,0.47625 -6.5225,0.3375 -6.5225,0.3375 0,0 -1.63125,-0.475 -1.63125,1.36 0,1.835 2.78625,4.825 7.47625,2.2425 l -8.22375,7.5425 c 0,0 -2.31,2.04 -2.4475,-1.0175 -0.135,-3.06 -0.0662,-13.4575 2.2425,-13.59125 2.31125,-0.13875 13.04875,-0.61375 14.34,-0.27375 1.29,0.34125 4.0775,1.15625 3.0575,-2.17375 -1.01875,-3.33 -3.125,-2.65 -3.125,-2.65 0,0 -11.7575,0.33875 -15.69875,0.27 0,0 -2.5825,-1.29 -4.28125,0.545 -1.97125,2.10625 -0.20375,4.00875 -0.20375,4.00875 0,0 -2.71875,8.63125 -1.29125,18.8925 l 3.6,2.58375 c 0,0 2.17625,1.35875 4.215,-0.47625 0,0 4.5525,-4.14625 8.97,-10.26125 0,0 -2.44625,7.27 -2.44625,11.34875 0,0 -0.135,1.6975 1.22375,1.6975 l 2.4475,-0.0675 c 0,0 2.03875,-0.0675 1.69625,-2.10625 0,0 -1.42625,-11.145 3.4675,-14.54375"
       id="path1376"
       style="fill:#f89d21;fill-opacity:1;fill-rule:nonzero;stroke:none" />
    <path
       d="m 615.04323,545.68268 c 0.1825,0 0.4725,0.03 0.4725,-0.20875 0,-0.16625 -0.18875,-0.19 -0.34375,-0.19 l -0.38,0 0,0.39875 0.25125,0 z m 0.60125,0.735 -0.18625,0 -0.36625,-0.59125 -0.3,0 0,0.59125 -0.14625,0 0,-1.27875 0.56,0 c 0.3375,0 0.45375,0.1275 0.45375,0.33875 0,0.25 -0.17375,0.34375 -0.40125,0.34875 l 0.38625,0.59125 z m 0.45125,-0.66625 c 0,-0.5675 -0.45375,-1.0225 -1.025,-1.0225 -0.57,0 -1.025,0.455 -1.025,1.0225 0,0.57625 0.455,1.0275 1.025,1.0275 0.57125,0 1.025,-0.45125 1.025,-1.0275 m -2.195,0 c 0,-0.64375 0.5275,-1.16375 1.17,-1.16375 0.64625,0 1.16875,0.52 1.16875,1.16375 0,0.64625 -0.5225,1.1725 -1.16875,1.1725 -0.6425,0 -1.17,-0.52625 -1.17,-1.1725"
       id="path1380"
       style="fill:#f89d21;fill-opacity:1;fill-rule:nonzero;stroke:none" />
  </g>
</svg>
