<?xml version="1.0" encoding="UTF-8" standalone="no"?>
<!-- Created with Inkscape (http://www.inkscape.org/) -->

<svg
   xmlns:dc="http://purl.org/dc/elements/1.1/"
   xmlns:cc="http://creativecommons.org/ns#"
   xmlns:rdf="http://www.w3.org/1999/02/22-rdf-syntax-ns#"
   xmlns:svg="http://www.w3.org/2000/svg"
   xmlns="http://www.w3.org/2000/svg"
   xmlns:sodipodi="http://sodipodi.sourceforge.net/DTD/sodipodi-0.dtd"
   xmlns:inkscape="http://www.inkscape.org/namespaces/inkscape"
   width="1000"
   height="300.74899"
   id="svg2"
   version="1.1"
   inkscape:version="0.48.2 r9819"
   sodipodi:docname="NBC Gold.svg">
  <defs
     id="defs4" />
  <sodipodi:namedview
     id="base"
     pagecolor="#ffffff"
     bordercolor="#666666"
     borderopacity="1.0"
     inkscape:pageopacity="0.0"
     inkscape:pageshadow="2"
     inkscape:zoom="0.37520853"
     inkscape:cx="1473.5781"
     inkscape:cy="20.422222"
     inkscape:document-units="px"
     inkscape:current-layer="layer1"
     showgrid="false"
     inkscape:window-width="1920"
     inkscape:window-height="1028"
     inkscape:window-x="-8"
     inkscape:window-y="-8"
     inkscape:window-maximized="1"
     fit-margin-left="0.5"
     fit-margin-bottom="0.5"
     fit-margin-top="0.5"
     fit-margin-right="0.5">
    <inkscape:grid
       type="xygrid"
       id="grid2996"
       empspacing="5"
       visible="true"
       enabled="true"
       snapvisiblegridlinesonly="true" />
  </sodipodi:namedview>
  <metadata
     id="metadata7">
    <rdf:RDF>
      <cc:Work
         rdf:about="">
        <dc:format>image/svg+xml</dc:format>
        <dc:type
           rdf:resource="http://purl.org/dc/dcmitype/StillImage" />
        <dc:title></dc:title>
      </cc:Work>
    </rdf:RDF>
  </metadata>
  <g
     inkscape:label="Layer 1"
     inkscape:groupmode="layer"
     id="layer1"
     transform="translate(240.54712,-1352.2373)">
    <g
       id="g3134"
       transform="matrix(0.78011628,0,0,0.78011628,-52.782453,363.35483)">
      <path
         style="fill:#ffffff;stroke:none"
         d="m -185.00001,1532.3622 c -31.68552,0 -55.04711,-24.8361 -55.04711,-53.7338 0,-37.8074 32.29802,-58.1391 50.64782,-55.5948 -12.05197,-10.0942 -20.25913,-24.6395 -20.25913,-41.8139 0,-35.2196 28.80588,-56.4194 56.77267,-56.4194 17.39875,0 26.73734,7.6561 26.73734,7.6561 -0.98696,-4.6565 -0.59951,-5.376 -0.8245,-7.8916 0,-35.3107 26.69763,-56.3016 54.181396,-56.3016 28.323582,0 44.930346,17.7598 49.352179,29.3287 4.459082,-11.1642 19.9760004,-29.3287 48.881036,-29.3287 34.16114,0 54.888104,27.0414 54.888104,55.1237 0,6.0475 -1.295642,9.3051 -1.295642,9.3051 0,0 8.472823,-7.7739 27.208477,-7.7739 31.52673,0 56.30153,23.9923 56.30153,56.5371 0,27.0477 -19.55241,41.225 -19.55241,41.225 23.66368,0 50.05889,21.4773 50.05889,55.1237 0,26.4978 -19.6743,54.5583 -54.86808,54.5583 z"
         id="path3066"
         inkscape:connector-curvature="0"
         sodipodi:nodetypes="cccccccccccccccccc" />
      <path
         id="path3028"
         d="m -182.54958,1348.7006 c -16.91853,15.2805 -23.07978,49.9024 7.42174,70.1416 l 121.683516,83.2816 -59.000816,-134.8429 c -12.36262,-31.82 -46.18334,-38.7601 -70.10444,-18.5803"
         style="fill:#f37021"
         inkscape:connector-curvature="0" />
      <path
         id="path3030"
         d="m -75.909733,1280.8871 c -19.477422,0.3952 -48.721357,23.533 -35.704207,58.8625 l 60.083181,141.3606 21.110782,-148.6843 c 4.885446,-36.9454 -23.137855,-54.0006 -45.489756,-51.5388"
         style="fill:#cc004c"
         inkscape:connector-curvature="0" />
      <path
         id="path3032"
         d="m -17.355494,1327.0125 h 11.3799411 c 0,0 6.07624131,0 6.90155657,2.86 -4.47691457,3.6487 -16.66457967,4.1046 -15.04914667,23.5911 L 5.0085944,1481.5939 64.77566,1339.6355 c 12.227241,-31.6961 -13.435168,-58.1677 -36.19652,-58.9769 -1.064258,-0.078 -2.129986,-0.1392 -3.233821,-0.1392 -20.4334684,0 -43.844224,14.8145 -42.700813,46.4931"
         style="fill:#6460aa"
         inkscape:connector-curvature="0" />
      <path
         id="path3034"
         d="M 64.018444,1368.4498 6.3448191,1502.4912 128.73302,1418.2569 c 28.21466,-19.9623 23.66527,-51.8784 7.87097,-67.6548 -6.62221,-7.4253 -18.77638,-13.1606 -31.6529,-13.1606 -15.215519,0 -31.494363,8.0474 -40.932646,31.0083"
         style="fill:#0089d0"
         inkscape:connector-curvature="0" />
      <path
         id="path3036"
         d="M 114.74994,1441.9142 2.2124556,1520.3314 H 140.7787 c 28.4287,0 46.69539,-29.2414 38.57605,-56.0755 -5.43828,-16.8654 -21.53493,-30.1052 -40.2131,-30.1243 -7.86161,0 -16.19767,2.3648 -24.39171,7.7826"
         style="fill:#0db14b"
         inkscape:connector-curvature="0" />
      <path
         id="path3038"
         d="M -184.09933,1520.5546 H -48.572212 L -160.3166,1442.7072 c -25.81781,-16.548 -54.84376,-6.8654 -65.32583,20.5935 -8.88164,31.4346 13.29919,57.2539 41.5431,57.2539"
         style="fill:#fcb711"
         inkscape:connector-curvature="0" />
      <path
         id="path3068"
         d="m 585.4375,1268.25 c -59.80194,0 -120.31731,40.6194 -131.1875,113.1875 l -69.8125,0 c -7.85445,0 -9.40433,1.8052 -13.46875,11 l -15.3125,34.125 79.5625,0 c -10.04011,35.4845 -42.43381,57.7187 -75.5,57.7187 -47.10094,0 -79.5,-40.6068 -79.5,-83.4062 0,-52.9359 40.49908,-83.6562 79.84375,-83.6562 23.29985,0 43.34205,10.1795 54.53125,18.7812 7.21678,5.6961 14.7251,3.9214 18.34375,-1.8438 l 18.25,-31.3124 c 0,0 -32.99346,-34.4688 -89.59375,-34.4688 -69.01763,0 -134.5625,50.0788 -134.5625,132.5 0,67.542 53.82513,131.625 131.84375,131.625 66.87496,0 119.24656,-51.5025 129.28125,-105.8438 0,27.0541 -3.72335,37.6005 -9.09375,53.2188 27.29387,34.0817 63.62984,52.8125 106.03125,52.8125 52.24592,0 92.07312,-29.0113 112.90625,-64.1563 l 0,29.8438 c 0,19.4252 13.9609,31 29.34375,31 l 176.65625,0 c 9.89061,0 18,-5.3386 18,-18 l 0,-84 72,0 c 9.2558,0 12.1902,-2.936 16.5312,-11.8125 l 15.0626,-34.1875 -103.5938,0 0,-61 88,0 c 7.5038,0 10.1989,-3.3245 13.375,-9.9688 l 17.1562,-39.0312 -140.5312,0 c -18.1685,0 -31,11.3992 -31,31 l 0,218 -14.3125,-32.9062 c -1.8004,-3.9385 -5.20711,-7.0938 -11.625,-7.0938 l -92.0625,0 0,-191 c 0,-12.2248 -7.61513,-18 -18,-18 l -35,0 0,41 c 8.2438,15.849 13.12336,34.9824 14.5,53.3438 -15.27335,-51.5957 -60.78708,-97.4688 -127.0625,-97.4688 z m -0.5,48.9062 c 42.14908,0 78.90625,36.514 78.90625,83.1563 0,47.2667 -37.64655,83.9687 -79.15625,83.9687 -44.20543,0 -78.6875,-40.6573 -78.6875,-83.75 0,-43.3089 32.21796,-83.375 78.9375,-83.375 z"
         style="fill:#000000;stroke:none"
         inkscape:connector-curvature="0" />
      <path
         sodipodi:nodetypes="ccccccccccccc"
         inkscape:connector-curvature="0"
         id="path4422"
         d="m 271.68225,1636.4124 c 9.52925,0 15.90609,-5.033 15.90609,-5.033 3.00461,-2.3739 5.97093,-2.6424 7.66414,0.087 l 6.20488,10.5257 c 0,0 -10.81173,10.4942 -30.10826,10.4942 -27.26271,0 -43.9339,-21.2003 -43.9339,-43.9339 0,-22.6871 17.32861,-43.7257 44.3087,-43.7257 19.49229,0 29.90004,10.6191 29.90004,10.6191 l -6.37146,10.4941 c -0.88547,1.3101 -3.04111,3.0457 -7.41254,10e-5 0,0 -7.02162,-5.0389 -16.15769,-5.0389 -14.75902,0 -26.23541,12.0262 -26.23541,27.4847 0,17.362 13.06038,28.0261 26.23541,28.0261 z"
         style="fill:#000000;stroke:none" />
      <path
         sodipodi:nodetypes="ccccccccccccccccc"
         inkscape:connector-curvature="0"
         id="path4426"
         d="m 377,1616.3622 0,35 -7,0 c -6.24949,0 -10.5,-4.4157 -10.5,-11 l 0,-74.5 11.5,0 c 3.5639,0 6,1.9982 6,5.5 l 0,29 32,0 0,-34.5 10.88339,0 c 3.20996,0 6.61661,1.1722 6.61661,5.9111 l 0,79.5889 -7.5,0 c -6.02058,0 -10,-3.8931 -10,-10 l 0,-25 z"
         style="fill:#000000;stroke:none" />
      <path
         id="path4428"
         d="m 511.1875,1565.875 -28.84375,77.0312 c -2.61359,6.3955 -1.49496,8.4688 2.65625,8.4688 l 12.40625,0 6.40625,-18 30.53125,0 3.9375,11.5312 c 1.5733,3.6866 3.47983,6.4688 7.71875,6.4688 l 13.40625,0 -28.34375,-76.25 c -1.99803,-6.0717 -4.67259,-9.25 -10.5,-9.25 l -9.375,0 z m 7.875,24.7812 10.28125,28.7188 -20.625,0 10.34375,-28.7188 z"
         style="fill:#000000;stroke:none"
         inkscape:connector-curvature="0" />
      <path
         sodipodi:nodetypes="ccccccccccccccc"
         inkscape:connector-curvature="0"
         id="path4432"
         d="m 630.5,1651.3622 -11.5,0 c -3.3154,0 -6,-1.9884 -6,-6 l 0,-79.5 11.66685,0 c 6.1438,0 8.08078,4.5709 11.00056,8.8343 L 663,1621.3622 l 0,-55.5 11.91616,0 c 3.98493,0 5.58384,2.4619 5.58384,6.5838 l 0,78.9162 -11.5,0 c -6.43222,0 -9.05635,-3.7045 -11.82332,-8.2945 L 630.5,1596.6959 z"
         style="fill:#000000;stroke:none" />
      <path
         style="fill:#000000;stroke:none"
         d="m 760.26117,1651.3622 -11.5,0 c -3.3154,0 -6,-1.9884 -6,-6 l 0,-79.5 11.66685,0 c 6.1438,0 8.08078,4.5709 11.00056,8.8343 l 27.33259,46.6657 0,-55.5 11.91616,0 c 3.98493,0 5.58384,2.4619 5.58384,6.5838 l 0,78.9162 -11.5,0 c -6.43222,0 -9.05635,-3.7045 -11.82332,-8.2945 l -26.67668,-46.3718 z"
         id="path4434"
         inkscape:connector-curvature="0"
         sodipodi:nodetypes="ccccccccccccccc" />
      <path
         sodipodi:nodetypes="ccccccccccccccccc"
         inkscape:connector-curvature="0"
         id="path3077"
         d="m 918,1651.3622 -35.99944,0 c -5.54558,0 -10.00056,-3.471 -10.00056,-11 l 0,-74.5 57.41225,0 -6.3422,13.7901 c -0.88742,1.4503 -1.486,2.7099 -4.65662,2.7099 l -28.41343,0 0,19 35,0 -6,12 c -1.06848,2.2174 -1.78564,3 -4.17432,3 l -24.82568,0 0,19 39,0 -6,13 c -0.8997,1.7335 -1.7074,3 -5,3 z"
         style="fill:#000000;stroke:none" />
      <path
         sodipodi:nodetypes="cccccccccc"
         inkscape:connector-curvature="0"
         id="path3081"
         d="m 1040.2945,1651.3622 -45.2945,0 c -7.74314,0 -10.5,-4.8976 -10.5,-11 l 0,-74.5 11.5,0 c 3.70178,0 6,1.277 6,5.7915 l 0,63.7085 27,0 c 3.4674,0 4.0423,0.3987 5.8233,3.7644 z"
         style="fill:#000000;stroke:none" />
    </g>
  </g>
</svg>
