<?xml version="1.0" encoding="UTF-8" standalone="no"?>
<!-- Created with Inkscape (http://www.inkscape.org/) -->

<svg
   xmlns:dc="http://purl.org/dc/elements/1.1/"
   xmlns:cc="http://creativecommons.org/ns#"
   xmlns:rdf="http://www.w3.org/1999/02/22-rdf-syntax-ns#"
   xmlns:svg="http://www.w3.org/2000/svg"
   xmlns="http://www.w3.org/2000/svg"
   xmlns:sodipodi="http://sodipodi.sourceforge.net/DTD/sodipodi-0.dtd"
   xmlns:inkscape="http://www.inkscape.org/namespaces/inkscape"
   width="257.6362"
   height="263.31"
   id="svg3617"
   version="1.1"
   inkscape:version="0.48.2 r9819"
   sodipodi:docname="New document 3">
  <defs
     id="defs3619">
    <clipPath
       clipPathUnits="userSpaceOnUse"
       id="clipPath518">
      <path
         inkscape:connector-curvature="0"
         d="m 542.434,308.321 96.656,0 0,98.808 -96.656,0 0,-98.808 z"
         id="path520" />
    </clipPath>
    <clipPath
       clipPathUnits="userSpaceOnUse"
       id="clipPath490">
      <path
         inkscape:connector-curvature="0"
         d="m 542.434,308.321 96.657,0 0,98.808 -96.657,0 0,-98.808 z"
         id="path492" />
    </clipPath>
    <clipPath
       clipPathUnits="userSpaceOnUse"
       id="clipPath474">
      <path
         inkscape:connector-curvature="0"
         d="m 542.434,308.321 96.656,0 0,98.808 -96.656,0 0,-98.808 z"
         id="path476" />
    </clipPath>
    <clipPath
       clipPathUnits="userSpaceOnUse"
       id="clipPath442">
      <path
         inkscape:connector-curvature="0"
         d="m 542.434,308.321 96.657,0 0,98.808 -96.657,0 0,-98.808 z"
         id="path444" />
    </clipPath>
  </defs>
  <sodipodi:namedview
     id="base"
     pagecolor="#ffffff"
     bordercolor="#666666"
     borderopacity="1.0"
     inkscape:pageopacity="0.0"
     inkscape:pageshadow="2"
     inkscape:zoom="1"
     inkscape:cx="110.81"
     inkscape:cy="164.15495"
     inkscape:document-units="px"
     inkscape:current-layer="layer1"
     showgrid="false"
     fit-margin-top="1.4"
     fit-margin-left="1.4"
     fit-margin-right="1.4"
     fit-margin-bottom="1.4"
     inkscape:window-width="1920"
     inkscape:window-height="1018"
     inkscape:window-x="-8"
     inkscape:window-y="-8"
     inkscape:window-maximized="1" />
  <metadata
     id="metadata3622">
    <rdf:RDF>
      <cc:Work
         rdf:about="">
        <dc:format>image/svg+xml</dc:format>
        <dc:type
           rdf:resource="http://purl.org/dc/dcmitype/StillImage" />
        <dc:title></dc:title>
      </cc:Work>
    </rdf:RDF>
  </metadata>
  <g
     inkscape:label="Layer 1"
     inkscape:groupmode="layer"
     id="layer1"
     transform="translate(-264.19,-433.20714)">
    <g
       id="g422"
       transform="matrix(2.6365274,0,0,-2.6365274,311.17159,677.78939)">
      <path
         inkscape:connector-curvature="0"
         d="m 0,0 1.118,0 0,-6.463 -0.952,0 -3.564,4.598 0,-4.598 -1.117,0 0,6.463 1.053,0 L 0,-4.469 0,0 z"
         style="fill:#231f20;fill-opacity:1;fill-rule:nonzero;stroke:none"
         id="path424" />
    </g>
    <g
       id="g426"
       transform="matrix(2.6365274,0,0,-2.6365274,344.60434,680.46863)">
      <path
         inkscape:connector-curvature="0"
         d="m 0,0 -3.655,0 0,-1.679 3.241,0 0,-1.017 -3.241,0 0,-1.735 3.701,0 0,-1.016 -4.834,0 0,6.463 L 0,1.016 0,0 z"
         style="fill:#231f20;fill-opacity:1;fill-rule:nonzero;stroke:none"
         id="path428" />
    </g>
    <g
       id="g430"
       transform="matrix(2.6365274,0,0,-2.6365274,366.09232,694.82927)">
      <path
         inkscape:connector-curvature="0"
         d="m 0,0 -1.143,0 0,5.411 -2.049,0 0,1.052 5.242,0 0,-1.052 L 0,5.411 0,0 z"
         style="fill:#231f20;fill-opacity:1;fill-rule:nonzero;stroke:none"
         id="path432" />
    </g>
    <g
       id="g434"
       transform="matrix(2.6365274,0,0,-2.6365274,393.63454,677.74299)">
      <path
         inkscape:connector-curvature="0"
         d="m 0,0 0.959,0 1.59,-4.809 1.537,4.791 1.196,0 -2.254,-6.509 -0.98,0 -1.586,4.645 -1.587,-4.645 -0.979,0 -2.254,6.509 1.227,0 1.543,-4.791 L 0,0 z"
         style="fill:#231f20;fill-opacity:1;fill-rule:nonzero;stroke:none"
         id="path436" />
    </g>
    <g
       transform="matrix(2.6365274,0,0,-2.6365274,-1164.5521,1508.0139)"
       id="g438">
      <g
         id="g440"
         clip-path="url(#clipPath442)">
        <g
           id="g446"
           transform="translate(603.5072,313.9606)">
          <path
             inkscape:connector-curvature="0"
             d="m 0,0 c -1.278,0 -2.178,-1.024 -2.178,-2.289 0,-1.266 0.915,-2.309 2.197,-2.309 1.286,0 2.178,1.025 2.178,2.289 C 2.197,-1.043 1.283,0 0,0 m 0,-5.64 c -1.983,0 -3.367,1.504 -3.367,3.331 0,1.828 1.402,3.351 3.386,3.351 1.986,0 3.368,-1.507 3.368,-3.331 C 3.387,-4.119 1.984,-5.64 0,-5.64"
             style="fill:#231f20;fill-opacity:1;fill-rule:nonzero;stroke:none"
             id="path448" />
        </g>
        <g
           id="g450"
           transform="translate(615.0411,313.8583)">
          <path
             inkscape:connector-curvature="0"
             d="m 0,0 -1.653,0 0,-2.168 1.662,0 c 0.817,0 1.331,0.424 1.331,1.087 C 1.34,-0.369 0.842,0 0,0 m 1.36,-5.428 -1.588,2.253 -1.425,0 0,-2.253 -1.136,0 0,6.463 2.882,0 c 1.487,0 2.401,-0.785 2.401,-2.048 0,-1.074 -0.636,-1.72 -1.543,-1.967 l 1.747,-2.448 -1.338,0 z"
             style="fill:#231f20;fill-opacity:1;fill-rule:nonzero;stroke:none"
             id="path452" />
        </g>
        <g
           id="g454"
           transform="translate(628.639,308.4302)">
          <path
             inkscape:connector-curvature="0"
             d="m 0,0 -1.375,0 -2.21,2.907 -1.004,-1.031 0,-1.876 -1.137,0 0,6.463 1.137,0 0,-3.25 3.073,3.25 1.395,0 L -2.81,3.684 0,0 z"
             style="fill:#231f20;fill-opacity:1;fill-rule:nonzero;stroke:none"
             id="path456" />
        </g>
        <g
           id="g458"
           transform="translate(599.2965,345.3979)">
          <path
             inkscape:connector-curvature="0"
             d="m 0,0 c 0,1.607 -1.357,2.597 -4.421,2.597 l -6.907,0 0,-5.262 7.1,0 C -1.589,-2.665 0,-1.847 0,-0.068 L 0,0 z m -1.511,9.57 c 0,1.575 -1.399,2.462 -3.92,2.462 l -5.897,0 0,-5.06 5.507,0 c 2.64,0 4.31,0.754 4.31,2.533 l 0,0.065 z m -2.717,-16.85 -12.921,0 0,23.928 12.61,0 c 5.55,0 8.966,-2.427 8.966,-6.187 l 0,-0.069 c 0,-2.7 -1.632,-4.204 -3.569,-5.163 3.141,-1.058 5.08,-2.664 5.08,-5.877 l 0,-0.071 c 0,-4.374 -4.034,-6.561 -10.166,-6.561"
             style="fill:#231f20;fill-opacity:1;fill-rule:nonzero;stroke:none"
             id="path460" />
        </g>
        <g
           id="g462"
           transform="translate(556.319,338.1275)">
          <path
             inkscape:connector-curvature="0"
             d="m 0,0 5.898,0 0,2.833 0,0.494 C 4.281,3.168 2.214,2.839 0,2.234 L 0,0 z"
             style="fill:#231f20;fill-opacity:1;fill-rule:nonzero;stroke:none"
             id="path464" />
        </g>
        <g
           id="g466"
           transform="translate(574.5576,362.0462)">
          <path
             inkscape:connector-curvature="0"
             d="M 0,0 0,-14.735 -12.728,0 l -5.511,0 0,-16.597 c 2.134,0.524 4.138,0.794 5.898,0.899 l 0,6.98 13.155,-15.209 5.081,0 L 5.895,0 0,0 z"
             style="fill:#231f20;fill-opacity:1;fill-rule:nonzero;stroke:none"
             id="path468" />
        </g>
      </g>
    </g>
    <g
       transform="matrix(2.6365274,0,0,-2.6365274,-1164.5521,1508.0139)"
       id="g470">
      <g
         id="g472"
         clip-path="url(#clipPath474)">
        <g
           id="g478"
           transform="translate(619.627,337.7142)">
          <path
             inkscape:connector-curvature="0"
             d="m 0,0 c 2.066,2.44 3.512,3.918 3.863,4.241 0.356,0.327 0.721,0.49 1.09,0.49 0.293,0 0.508,-0.106 0.63,-0.191 C 5.8,4.432 6.553,4.044 7.263,3.495 7.78,3.098 7.874,2.674 7.861,2.388 7.854,2.209 7.804,2.054 7.736,1.92 8.853,2.567 9.861,3.355 10.828,4.267 L 7.025,7.651 C 4.891,5.941 2.987,4.845 -0.118,4.845 c -4.657,0 -7.881,3.42 -7.881,7.522 l 0,0.068 c 0,4.105 3.299,7.453 7.881,7.453 2.719,0 4.855,-1.026 6.949,-2.7 l 3.807,3.86 c -2.525,2.189 -5.593,3.693 -10.719,3.693 -8.343,0 -14.162,-5.569 -14.162,-12.374 l 0,-0.068 c 0,-6.872 5.936,-12.305 13.93,-12.305 0.108,0 0.207,0.005 0.313,0.006"
             style="fill:#231f20;fill-opacity:1;fill-rule:nonzero;stroke:none"
             id="path480" />
        </g>
        <g
           id="g482"
           transform="translate(593.3277,402.4499)">
          <path
             inkscape:connector-curvature="0"
             d="m 0,0 c 0.969,1.59 2.584,3.245 4.316,3.943 2.978,1.367 6.989,0.786 9.428,-1.368 2.359,-2.137 3.556,-5.063 2.993,-8.34 0.584,0.108 1.163,0.482 1.78,0.689 3.647,1.031 7.521,-0.088 9.864,-3.231 1.771,-2.238 2.224,-5.72 1.168,-8.417 -0.528,-1.365 -1.423,-2.596 -2.583,-3.637 l 0.119,-0.112 c 3.405,-0.168 6.751,-2.81 7.789,-6.056 1.111,-3.271 0.129,-6.766 -2.267,-9.157 -1.958,-1.927 -4.46,-2.603 -7.256,-2.542 l -50.701,0 c -4.169,-0.091 -7.383,1.755 -9.119,5.455 -1.355,3.183 -0.691,7.248 1.857,9.661 1.587,1.681 3.593,2.367 5.762,2.71 -2.444,2.266 -3.632,5.381 -2.942,8.711 0.498,2.701 2.799,5.435 5.437,6.377 2.333,0.925 5.485,0.763 7.62,-0.494 l 0.082,0.09 c -0.646,3.678 0.988,6.991 4.028,9.021 2.715,1.834 7.066,1.793 9.732,-0.161 C -1.702,2.406 -0.714,1.153 0,0"
             style="fill:#ffffff;fill-opacity:1;fill-rule:nonzero;stroke:none"
             id="path484" />
        </g>
      </g>
    </g>
    <g
       transform="matrix(2.6365274,0,0,-2.6365274,-1164.5521,1508.0139)"
       id="g486">
      <g
         id="g488"
         clip-path="url(#clipPath490)">
        <g
           id="g494"
           transform="translate(607.6888,401.0752)">
          <path
             inkscape:connector-curvature="0"
             d="m 0,0 c 1.078,-2.192 0.456,-5.074 -0.695,-7.047 l -8.796,-19.801 -0.072,-0.084 -3.19,20.081 c -0.256,1.921 1.816,2.744 3.023,3.675 -0.054,0.283 -0.376,0.27 -0.575,0.4 l -2.966,0.032 -0.088,0.094 c 0.009,2.486 1.361,4.793 3.629,6 2.372,1.376 5.721,1.002 7.777,-0.755 C -1.118,1.846 -0.409,0.977 0,0"
             style="fill:#5f53ae;fill-opacity:1;fill-rule:nonzero;stroke:none"
             id="path496" />
        </g>
        <g
           id="g498"
           transform="translate(591.4775,401.7699)">
          <path
             inkscape:connector-curvature="0"
             d="m 0,0 c 0.712,-1.329 1.136,-2.846 0.879,-4.515 l -3.585,-22.99 c 0.014,-0.038 -0.013,-0.064 -0.047,-0.075 l -0.923,1.844 -8.994,20.085 c -0.84,2.589 -0.058,5.289 1.816,7.139 1.896,1.93 5.032,2.456 7.504,1.403 C -2.032,2.328 -0.784,1.28 0,0"
             style="fill:#c81a46;fill-opacity:1;fill-rule:nonzero;stroke:none"
             id="path500" />
        </g>
        <g
           id="g502"
           transform="translate(620.7,392.0861)">
          <path
             inkscape:connector-curvature="0"
             d="m 0,0 c 1.208,-2.063 0.934,-5.183 -0.406,-7.098 -0.838,-1.346 -2.219,-2.013 -3.368,-2.899 l -18.633,-12.786 -0.051,0 0.21,0.614 9.877,22.284 c 1.479,2.63 4.297,3.964 7.291,3.561 C -3.033,3.305 -0.992,1.974 0,0"
             style="fill:#0e88d3;fill-opacity:1;fill-rule:nonzero;stroke:none"
             id="path504" />
        </g>
        <g
           id="g506"
           transform="translate(578.3739,392.2014)">
          <path
             inkscape:connector-curvature="0"
             d="m 0,0 10.278,-22.898 -0.17,0 -20.719,14.282 c -2.11,1.772 -2.966,4.435 -2.251,7.126 0.534,2.017 2.209,3.901 4.193,4.645 C -5.41,4.349 -1.735,3.082 0,0"
             style="fill:#f25c19;fill-opacity:1;fill-rule:nonzero;stroke:none"
             id="path508" />
        </g>
        <g
           id="g510"
           transform="translate(626.1036,375.921)">
          <path
             inkscape:connector-curvature="0"
             d="m 0,0 c 1.024,-2.178 0.62,-5.168 -0.853,-7.024 -1.464,-1.779 -3.424,-2.744 -5.721,-2.682 l -22.091,-0.018 18.507,12.872 c 1.812,1.166 4.557,1.378 6.527,0.436 C -2.103,2.992 -0.674,1.495 0,0"
             style="fill:#33b540;fill-opacity:1;fill-rule:nonzero;stroke:none"
             id="path512" />
        </g>
      </g>
    </g>
    <g
       transform="matrix(2.6365274,0,0,-2.6365274,-1164.5521,1508.0139)"
       id="g514">
      <g
         id="g516"
         clip-path="url(#clipPath518)">
        <g
           id="g522"
           transform="translate(560.6875,375.921)">
          <path
             inkscape:connector-curvature="0"
             d="M 0,0 C -1.036,-2.178 -0.632,-5.168 0.844,-7.024 2.311,-8.803 4.271,-9.768 6.567,-9.706 L 28.664,-9.724 10.154,3.148 C 8.348,4.314 5.597,4.526 3.621,3.584 2.099,2.992 0.665,1.495 0,0"
             style="fill:#fab20b;fill-opacity:1;fill-rule:nonzero;stroke:none"
             id="path524" />
        </g>
        <g
           id="g526"
           transform="translate(562.9518,327.8014)">
          <path
             inkscape:connector-curvature="0"
             d="m 0,0 c -1.132,-1.974 -4.98,-4.341 -6.263,-5.061 -0.71,-0.401 -2.35,-1.358 -4.371,-2.091 -2.229,-0.808 -4.219,-1.179 -4.404,-0.633 -0.077,0.229 -0.226,0.329 0.498,1.093 0.851,0.89 3.446,2.558 5.843,3.798 2.789,1.446 5.898,2.725 8.768,3.777 C 0.19,0.658 0.213,0.371 0,0 M 20.956,5.793 C 19.859,6.644 18.297,5.973 18.297,5.973 15.294,5.016 12.055,2.62 9.49,0.381 c 1.176,1.35 2.507,2.804 4.025,4.374 0,0 1.081,0.556 0.25,1.375 -0.829,0.817 -1.815,1.591 -1.815,1.591 0,0 -0.395,0.347 -0.583,0.205 C 11.18,7.784 11.319,7.403 11.355,7.348 11.388,7.296 10.861,6.651 10.861,6.651 c 0,0 -0.036,-0.038 -0.087,-0.094 C 9.904,5.798 8.331,5.038 7.532,4.677 5.809,4.047 3.609,3.305 1.24,2.463 1.104,2.597 0.946,2.726 0.756,2.846 c -2.83,1.771 -11.292,1.925 -14.541,2.165 -3.509,0.264 -4.299,0.493 -4.43,1.074 -0.17,0.755 0.936,1.823 2.521,2.979 6.139,4.478 14.614,5.389 17.358,5.343 C 4.676,14.36 5.52,14.007 5.566,13.786 5.613,13.574 5.469,13.41 5.469,13.41 4.984,12.844 4.318,12.49 3.6,12.028 0.843,10.243 -2.152,8.924 -2.152,8.924 -2.807,8.314 -1.535,8.16 -1.535,8.16 c 1.749,0.057 3.427,0.479 5.004,1.083 3.263,1.249 4.047,2.375 4.14,3.046 0.161,1.158 -0.335,2.369 -0.272,2.263 -0.836,3.547 -6.456,3.404 -6.456,3.404 -4.852,-0.017 -12.116,-1.4 -18.566,-6.131 -3.306,-2.423 -2.806,-4.159 -2.806,-4.159 0,0 -0.058,-3.363 2.494,-4.18 1.031,-0.331 1.782,-0.506 3.464,-0.674 3.264,-0.327 5.68,-0.373 9.063,-0.603 1.994,-0.137 3.377,-0.363 4.322,-0.61 -2.767,-1.022 -5.617,-2.166 -8.102,-3.411 -2.169,-1.087 -5.417,-2.91 -6.58,-4.367 -1.392,-1.745 -0.092,-3.132 -0.254,-2.83 0.206,-0.384 1.074,-1.94 4.783,-1.47 1.812,0.231 3.927,1.089 5.565,1.978 2.344,1.274 4.081,2.756 5.13,3.769 2.101,2.029 2.696,3.594 2.699,4.958 0,0.526 -0.105,0.956 -0.238,1.292 2.533,0.879 4.755,1.551 6.23,1.965 -4.131,-4.965 -11.1,-14.473 -8.009,-18.841 0,0 0.201,-0.34 0.472,-0.647 0,0 0.547,-0.453 0.752,-0.176 0.205,0.276 -0.404,0.573 -0.404,0.573 -0.177,0.216 -0.288,0.562 -0.209,1.145 0.081,0.581 0.238,1.491 0.74,2.809 l 0.852,1.912 C 2.277,-9.744 2.276,-9.747 2.274,-9.75 c 0.003,0.008 0.007,0.014 0.011,0.021 L 2.279,-9.742 c 1.06,1.839 2.869,4.374 5.051,6.541 5.44,5.403 10.296,7.629 11.29,7.948 0.723,0.231 1.04,0.17 1.159,0.06 0.695,-0.623 -1.035,-3.408 -1.035,-3.408 -0.03,-0.045 -0.058,-0.085 -0.088,-0.127 -3.119,-4.551 -4.947,-5.816 -6.579,-6.44 -1.13,-0.335 -1.817,0.04 -2.025,0.182 -0.396,0.377 -0.616,0.894 -0.58,1.146 0.07,0.479 -0.144,0.465 -0.144,0.465 C 8.551,-3.639 8.984,-5.01 8.984,-5.01 c 0.577,-2.594 4.178,-3.256 7.592,-0.7 4.515,3.379 5.41,6.088 6.057,7.733 0.645,1.645 -0.583,2.913 -1.677,3.77"
             style="fill:#231f20;fill-opacity:1;fill-rule:nonzero;stroke:none"
             id="path528" />
        </g>
        <g
           id="g530"
           transform="translate(639.0834,335.5045)">
          <path
             inkscape:connector-curvature="0"
             d="M 0,0 C -0.248,1.484 -2.504,1.834 -6.461,1.518 -8.55,1.352 -12.498,0.792 -16.04,0.226 l 3.481,3.884 c 0,0 0.757,0.487 -0.021,1.087 -0.777,0.6 -1.625,1.002 -1.625,1.002 0,0 -0.347,0.333 -0.954,-0.221 -0.355,-0.327 -2.593,-2.596 -5.731,-6.52 -3.495,-0.466 -7.517,-0.75 -8.553,-0.872 0,0 -0.51,-0.105 -0.708,0.246 0,0 -0.454,0.316 -0.348,-0.442 0,0 0.111,-2.012 2.049,-1.646 1.099,0.208 3.333,0.5 6.12,0.875 -0.472,-0.614 -1.195,-1.534 -1.964,-2.611 -3.476,-3.794 -9.375,-9.892 -10.694,-9.085 0,0 -0.289,0.268 -0.087,0.919 0.298,0.969 1.417,2.726 3.666,5.364 0,0 1.036,1.229 0.993,1.772 -0.065,0.833 -0.531,0.815 -0.531,0.815 0,0 -2.99,0.884 -3.988,1.78 0.419,0.65 1.183,2.101 0.207,2.78 0,0 -1.257,0.798 -2.178,-1.094 -0.372,-0.755 -0.339,-1.482 0.145,-2.152 -0.684,-0.725 -2.578,-2.577 -4.464,-3.124 -0.107,0.658 -0.386,1.059 -0.805,1.269 0,0 -1.039,0.523 -1.603,-0.128 -0.561,-0.648 -0.064,-1.295 0.512,-1.736 -0.171,-0.514 -0.646,-1.187 -1.311,-2.229 -0.85,-1.336 -1.958,-2.601 -3.47,-3.626 -0.513,-0.35 -2.611,-1.562 -3.162,0.097 -0.301,0.913 0.203,2.679 1.496,4.686 2.662,4.145 6.384,5.503 7.392,4.858 0,0 0.473,-0.468 0.193,-0.985 0,0 -0.107,-0.284 0.274,-0.318 0.385,-0.037 0.598,0.297 0.662,0.632 0.158,0.877 -0.637,1.881 -1.543,2.601 -0.272,0.216 -0.585,0.366 -0.945,0.547 0,0 -1.583,0.558 -3.745,-0.518 -0.664,-0.328 -3.499,-1.89 -5.56,-5.561 -0.654,-1.162 -1.066,-2.407 -1.052,-3.612 0.005,-0.794 0.154,-1.578 0.579,-2.307 0.163,-0.278 1.029,-1.417 2.193,-2.013 2.323,-1.19 5.049,1.072 6.111,2.04 1.868,1.711 3.297,3.977 3.625,4.962 2.448,0.633 4.87,3.086 5.66,3.948 0.144,-0.096 0.29,-0.191 0.458,-0.283 l 1.47,-0.781 c -0.862,-0.992 -0.867,-0.996 -1.781,-2.285 -0.94,-1.329 -3.274,-4.451 -1.765,-6.461 0.295,-0.399 0.697,-0.889 1.357,-1.15 1.993,-0.789 4.252,1.17 7.747,4.843 0.553,0.582 1.086,1.162 1.594,1.729 -0.218,-0.436 -0.418,-0.874 -0.583,-1.305 -0.815,-2.125 -0.342,-4.038 1.368,-5.173 1.014,-0.673 2.332,-0.366 3.837,0.624 2.974,1.962 7.364,6.381 10.152,9.32 -0.101,-0.403 -0.196,-0.845 -0.284,-1.34 -0.662,-3.687 -2.9,-8.429 -3.783,-7.214 -0.016,-0.178 -0.028,0.82 -0.507,1.223 -0.437,0.363 -0.819,0.459 -1.307,0.139 -0.634,-0.417 -0.319,-1.967 1.629,-2.962 0.446,-0.228 0.844,-0.349 1.21,-0.392 1.06,-0.179 3.206,-0.196 5.735,1.699 3.424,2.572 7.132,6.258 7.132,6.258 0,0 0.743,0.657 0.04,1.063 0,0 -0.341,0.178 -0.663,-0.11 -0.185,-0.166 -0.35,-0.383 -0.35,-0.383 0.05,0.05 -5.193,-4.947 -8.294,-6.622 0.5,0.614 0.813,1.501 1.076,2.55 0.22,0.881 0.598,3.258 0.996,5 0.217,0.948 0.523,1.709 0.622,1.934 0.377,0.85 0.9,0.778 1.021,1.026 0.087,0.175 0.054,0.334 -0.171,0.611 -0.188,0.236 -0.44,0.479 -0.647,0.67 -0.246,0.227 -0.761,0.576 -1.034,0.628 -0.188,0.036 -0.403,0.022 -0.593,-0.128 -0.173,-0.135 -0.475,-0.405 -0.814,-0.976 -1.879,-2.05 -8.04,-8.623 -11.811,-10.861 0.201,0.121 -3.062,-2.085 -2.372,0.784 0.317,1.306 1.627,4.228 5.307,8.84 l 1.913,2.136 c 1.571,0.225 3.205,0.47 4.835,0.734 0,0 14.381,1.783 10.487,-1.279 0,0 0.25,-0.482 0.851,-0.006 C -0.394,-1.319 0.073,-0.457 0,0"
             style="fill:#231f20;fill-opacity:1;fill-rule:nonzero;stroke:none"
             id="path532" />
        </g>
      </g>
    </g>
  </g>
</svg>
