<?xml version="1.0" encoding="utf-8"?>
<!-- Generator: Adobe Illustrator 16.0.0, SVG Export Plug-In . SVG Version: 6.00 Build 0)  -->
<!DOCTYPE svg PUBLIC "-//W3C//DTD SVG 1.1//EN" "http://www.w3.org/Graphics/SVG/1.1/DTD/svg11.dtd">
<svg version="1.1" id="Layer_1" xmlns="http://www.w3.org/2000/svg" xmlns:xlink="http://www.w3.org/1999/xlink" x="0px" y="0px"
	 width="1000px" height="800px" viewBox="-326.5 -137 1000 800" enable-background="new -326.5 -137 1000 800" xml:space="preserve"
	>
<title>Logos</title>
<desc>Created with Sketch.</desc>
<g id="Clip-4">
</g>
<g>
	<polygon fill="#E9DC01" points="429.057,218.557 429.057,107.445 451.279,107.445 451.279,-137 -326.5,-137 -326.5,107.445 
		-304.278,107.445 -304.278,307.445 -104.278,307.445 -104.278,418.557 -126.499,418.557 -126.499,663 651.277,663 651.277,463 
		673.5,463 673.5,218.557 	"/>
	<polygon fill="#141414" points="557.174,574.057 520.122,574.057 457.255,415.697 457.255,574.057 415.341,574.057 
		415.341,307.502 452.764,307.502 515.259,465.861 515.259,307.502 557.174,307.502 	"/>
	<polygon fill="#141414" points="295.19,114.445 295.19,218.894 253.279,218.894 253.279,114.445 201.634,-47.664 248.04,-47.664 
		274.231,57.909 300.801,-47.664 346.832,-47.664 	"/>
	<polygon fill="#141414" points="329.751,345.314 259.771,345.314 259.771,420.938 320.023,420.938 320.023,458.754 
		259.771,458.754 259.771,536.244 329.751,536.244 329.751,574.057 217.859,574.057 217.859,307.502 329.751,307.502 	"/>
	<polygon fill="#141414" points="91.739,218.894 61.05,123.053 30.365,218.894 -15.666,218.894 37.101,80.751 -11.549,-47.664 
		34.48,-47.664 61.05,41.438 87.622,-47.664 133.65,-47.664 83.88,80.751 137.766,218.894 	"/>
	<path fill="#141414" d="M40.808,529.133c3.743,5.992,9.731,10.109,19.835,10.109c18.337,0,26.195-15.727,26.195-34.068v-41.555
		H60.643V429.17h68.11v73.752c0,48.674-28.068,74.133-68.11,74.133c-24.7,0-40.792-9.734-51.642-22.836
		c-17.589-20.971-19.463-50.17-19.463-113.436c0-63.273,1.874-92.473,19.463-113.438c10.85-13.107,26.941-22.842,51.642-22.842
		c20.583,0,36.302,6.736,47.528,17.967c13.098,13.48,19.834,32.949,20.582,55.785H86.838c-0.372-14.6-3.366-35.939-26.195-35.939
		c-10.104,0-16.092,4.121-19.835,10.109c-8.231,12.727-9.353,39.684-9.353,88.357C31.455,489.449,32.576,516.406,40.808,529.133
		L40.808,529.133z"/>
	<path fill="#141414" d="M-151.246-12.845c-10.103,0-16.092,4.12-19.836,10.105c-7.856,12.729-9.353,39.686-9.353,88.357
		c0,48.667,1.496,75.623,9.353,88.353c3.744,5.991,9.733,10.105,19.836,10.105c10.104,0,16.468-4.114,20.208-10.105
		c7.857-12.729,8.98-39.686,8.98-88.353c0-48.671-1.123-75.628-8.98-88.357C-134.778-8.725-141.143-12.845-151.246-12.845
		 M-99.603,199.055c-10.854,13.101-26.945,22.834-51.644,22.834c-24.7,0-40.792-9.734-51.642-22.834
		c-17.59-21.344-19.462-50.171-19.462-113.438c0-63.272,1.872-92.099,19.462-113.436c10.85-13.109,26.941-22.843,51.642-22.843
		c24.698,0,40.79,9.734,51.644,22.843C-81.642-6.854-80.145,22.345-80.145,85.617C-80.145,148.883-81.642,178.083-99.603,199.055
		L-99.603,199.055z"/>
</g>
</svg>
