<?xml version="1.0" encoding="utf-8"?>
<!-- Generator: Adobe Illustrator 17.1.0, SVG Export Plug-In . SVG Version: 6.00 Build 0)  -->
<!DOCTYPE svg PUBLIC "-//W3C//DTD SVG 1.1//EN" "http://www.w3.org/Graphics/SVG/1.1/DTD/svg11.dtd">
<svg version="1.1"
	 id="svg2" xmlns:dc="http://purl.org/dc/elements/1.1/" xmlns:cc="http://creativecommons.org/ns#" xmlns:rdf="http://www.w3.org/1999/02/22-rdf-syntax-ns#" xmlns:svg="http://www.w3.org/2000/svg" xmlns:sodipodi="http://sodipodi.sourceforge.net/DTD/sodipodi-0.dtd" xmlns:inkscape="http://www.inkscape.org/namespaces/inkscape" inkscape:output_extension="org.inkscape.output.svg.inkscape" inkscape:version="0.47 r22583" sodipodi:version="0.32"
	 xmlns="http://www.w3.org/2000/svg" xmlns:xlink="http://www.w3.org/1999/xlink" x="0px" y="0px" width="374px" height="230px"
	 viewBox="0 0 374 230" enable-background="new 0 0 374 230" xml:space="preserve">
<g id="layer1" transform="translate(-1.3939212,-821.45528)" inkscape:label="Layer 1" inkscape:groupmode="layer">
	<path id="path104488" fill="#0096CF" d="M335.5,912.3c7.3,1.3,6,7,8.5,13.5c0.6,1.5,0.7,5.1,2,6c1.8,0.8,5.7-0.8,7.2-1
		c6.3-0.7,9.5,0,15.7,2.3c1.4,0.7,2.7,1,4.2,1.6c1.2,1.2,0.4,3.4,0.8,5.1c0.3,1.3,1.9,3,1.6,4.6c-1.8,1.2-3.7,1.5-5.6,2.7
		c-3.2,0.9-3.7,0.8-7.2,1.3c-4,0.6-6.9,1.6-11.9,2c1.2,7.6,1.6,13.2,2.3,21.1c0.9,10.9-5.5,28.8-9.5,37.3c-2.7,5.7-8.3,17.6-16.9,15
		c-6.2-1.9-11.4-7.3-9.1-14.5c1.2-2.5,2.3-5,3.4-7.4c3-8.1,6-17,6.9-25.4c0.3-2.3,1.1-6.2,0.8-8.5c0-3.9,0-7.8-0.1-11.6
		c0.2-1.2,0.2-3.6-0.5-4.1c-1.2-0.5-8.6-0.7-10-0.2c-1.1-0.3-2.2-0.7-3.2-1c-1.1,0.2-4-2-3-3c-0.4-0.5-1.1-0.4-1.5-1
		c-0.5-0.8-0.3-1.8,0.1-2.5c-0.6-0.3-1.2-0.7-1.8-1c0.1-0.5,0.2-1,0.3-1.5c4.6-2.3,8.7-5,13.5-7.2c1.1-0.5,4.9-0.7,4.4-2.1
		c0.9-4.2-1.7-13.6,0.7-17.2c1.3-2.1,5.7-2.3,8-3.3"/>
	<path id="path104490" fill="#0096CF" d="M43.5,931c7.4-0.3,18.4,0.9,22.4,4.9c1.8,1.8,3.9,5,1.9,8.2c-1.9,3-5.8,1.6-9.8,2.4
		c-7.9,1.5-13.9,0.6-18.8,6.1c-0.9,0.9-2.2,1.9-1.7,4.1c1,4.1,6.6,6.3,9.6,8.5c7.1,5.4,18.2,14.7,17.8,26.2c-0.2,5-0.4,8.5-2.9,11.8
		c-1.7,2.3-4.6,4-7,5.7c-2.8,2-5.4,4.5-8.3,6.5c-5.8,3.9-19.6,7.5-27.5,6.8c-4.6-0.4-14.4-1-15.9-3.4c0.7-1.7,1-3.7-0.1-5.7
		c-0.5-0.2-1.1-0.3-1.6-0.4c-3-18.3,34-12.1,38.2-25.2c-9.4-6.3-20.6-10-26.7-19.8c-2.1-3.4-4-10.1-2.3-15.2c0.7-2.1,2.1-4,3.3-5.6
		c1.9-2.7,3.9-5.6,6.5-7.6c4.5-3.5,10-5.5,16.5-7.2C39.2,931.6,41.3,931.3,43.5,931"/>
	<path id="path104492" fill="#0096CF" d="M177.6,931.4c1.8,0.2,3.5,0.2,5.3,0.4c2.6,0.8,7.6,3.5,8.8,5.9c0.9,1.8,0.7,3.5,1.6,5.4
		c0.8,1.8,2.2,4.8,2.6,7c-5.8,8.9-18.2,0.7-23.8,8.8c-4.7,6.9-3.6,22.8-4.7,33.4c-0.5,5.2,1.2,11-0.3,15.6c-1,3-7,4.7-10.7,3.1
		c-3-1.8-5.2-11.9-7-15.6c-1.8-3.7-2.8-8.4-3.6-13c-0.1-2.1-0.2-4.2-0.3-6.3c-3.2-17.4,4.6-32.1,14.7-39.2c3.5-2.4,7.9-3.4,12.6-4.8
		C174.4,931.9,176,931.7,177.6,931.4"/>
	<path id="path104496" fill="#0096CF" d="M262.3,950.5c6.7,0,8.6,5.5,7.9,12.9c-1,10.6,2.1,31.2,12.6,33.7c3.3,0.8,6.5-2.4,7.7-3.9
		c6.4-7.9,2.7-21.3,1.1-31.9c-0.5-3-0.2-9.4,1.7-10.6c0.5-0.2,1-0.3,1.5-0.5c2,1.3,2.5,4,4.5,5.2c1.6,0.7,3.1,1.3,4.7,2
		c0.8,0.8,1.6,1.6,2.4,2.3c0.8,0.4,1.9-0.2,2.8,0.5c0.2,0.2,2.2,3.8,2.4,4.2c1.8,3.7,1.6,7.1,2.4,11.6c3,16.8-5.8,31.1-18.3,36.3
		c-3.2,1.3-7.9,1.7-11.4,2.2c-12.9,1.8-24.4-10.1-29.4-19.6c-2.7-5-3.5-17.5-3.2-22.7c0.4-5.8,1.6-18.7,6.2-21.6
		C259.1,951,261.2,951.1,262.3,950.5"/>
	<path id="path104498" fill="#0096CF" d="M108.3,937.8c-4.9,0.7-9.1,2-11.8,3.3c-7.9,3.7-15.7,10.2-19.8,17.5
		c-13.9,24.6-4.6,56.6,7.5,76.7c2.5,4.1,5.2,12.7,8.2,15.6c0,0,0.1,0.2,0.1,0.3h0.2c-0.4-0.7-0.7-1.4-1.1-2.2
		c1.1,0.7,2.2,1.4,3.3,2.1c1.7,0.7,2-0.2,3.5,0c6.7,0.9,7.4-0.3,12.4-2.6c0.7-7.7-2.6-16.5-5.3-22.8c-2.1-5.7-4.2-11.5-6.3-17.2
		c6.4,1.8,12.5-0.5,18.9-3c11-4.3,17.4-12.7,20.2-23.7C144,959.2,129.2,936.5,108.3,937.8 M117.6,978.4c-2,6.7-3.3,8.6-10.4,11.2
		c-1.6,0.6-4.1,1.6-6.4,1.3c-7.3-1.1-11.1-10.3-9.9-18.6c0.4-2.8,0-4.3,1.1-6.5c0.8-1.6,3.9-5.8,5.9-6.6c1.7-0.3,3.4-0.6,5.1-1
		c10.3-0.3,11.8,3.3,14.3,11.9C118.1,972.6,118.4,976,117.6,978.4"/>
	<path id="path104500" fill="#0096CF" d="M247.4,986.3c-0.2-2.5-0.9-5.1-1.1-7.6c-1.3-3.9-2.9-6.1-4.8-9.2c-0.7-1.4-1.9-2.8-2.6-4.2
		c-4.2-5.4-14-11.8-23.7-11.5c-1.5,0.3-2.9,0.6-4.4,0.9c-11,4.1-22.1,7.8-27.9,16.9c-2,3.1-3.6,7-4.7,11
		c-3.7,14.1,1.6,23.6,7.7,31.4c1.9,2.5,3.8,4.7,6.5,6.2c1.2,0.2,2.6,1.4,3.8,1.6c3.2,1.1,6.6,1.7,10.4,2.4c1.7,0.3,3,0.2,3.8,0
		c2.5,0,4.4-0.4,6.7-0.7c0.8-0.2,1.2-0.2,1.8-0.5c3.4-0.9,6.7-1.2,9.3-2.9c2-1.3,3.8-2.2,5.8-3.6c1.7-1.1,4.3-2.5,5.4-4.1
		c1.9-2.8,3-5.6,4.7-8.6c1.7-2.9,2.8-6.7,3.5-10.5C248.3,990.6,247.8,988.5,247.4,986.3 M230.5,995.7c-2,6.7-11.4,12.8-21.1,9
		c-10.2-4-11.4-21.1-2.8-27.6c3.4-2.6,7.9-3.5,13.7-4.2C229.7,973.5,233.4,985.8,230.5,995.7"/>
	<path id="path104502" fill="#81BA4A" d="M258.5,911.8c-1.2-4.2-3.5-7.7-6.4-10.5c7.2,2.4,16.8,2.1,23.1,0.5
		c10.7-2.6,22.2-14.8,19.5-27.2c-2.7-12.3-18.2-14.3-32.6-9.4c-0.4,0.2-0.8,0.3-1.3,0.5c0.2-0.3,0.4-0.5,0.6-0.8
		c10.6-14.5,5.9-36.4-4.3-42.3c-10.2-5.9-28.1,10.3-33.6,23.7c-0.9,2.1-1.5,4.2-1.8,6.1c-6.3-8.9-19.6-13.3-27.4-10.7
		c-9.7,3.3-9.1,22.2-3.3,32.2c2.6,4.5,5.9,9.1,9.4,12.7c-1.8,0.4-3.5,0.8-5.3,1.4c-12.7,4.3-19,14.8-17.2,24.3
		c1.9,9.9,19.5,10.9,29,8.6c5.3-1.3,10.8-5.3,14.2-10.5c-1.1,6.8,0,14.3,3.8,21.4c6.9,12.9,19,17,25.1,12.8
		C255.8,940.8,263,927.7,258.5,911.8"/>
	<path id="path104504" fill="#0096D2" d="M356.4,958.4c0,0.3,0.1,0.5,0.2,0.7c0.2,0.4,0.6,0.5,1.2,0.5c0.3,0,0.5,0,0.7,0
		c0.4-0.2,0.6-0.4,0.6-0.8c0-0.3-0.1-0.5-0.3-0.6c-0.2,0-0.4-0.2-0.8-0.3l-0.7-0.2c-0.4,0-0.8-0.2-0.9-0.4c-0.3-0.2-0.5-0.6-0.5-1
		c0-0.5,0.1-0.9,0.4-1.2c0.3-0.3,0.8-0.5,1.3-0.5c0.5,0,1,0.2,1.3,0.4c0.4,0.3,0.5,0.7,0.5,1.3h-0.7c0-0.3-0.1-0.5-0.2-0.7
		c-0.2-0.3-0.5-0.4-1-0.4c-0.4,0-0.7,0-0.8,0.3c-0.2,0.2-0.3,0.4-0.3,0.6c0,0.3,0.1,0.5,0.3,0.6c0.1,0,0.4,0.2,0.9,0.3l0.7,0.2
		c0.4,0,0.6,0.2,0.8,0.4c0.3,0.2,0.5,0.6,0.5,1.1c0,0.6-0.2,1-0.6,1.3c-0.4,0.3-0.9,0.4-1.4,0.4c-0.6,0-1.1-0.2-1.5-0.5
		c-0.4-0.3-0.5-0.8-0.5-1.4h0.7"/>
	<path id="path104506" fill="#0096D2" d="M360.8,954.8h1l1.5,4.6l1.5-4.6h1v5.4h-0.7V957c0,0,0-0.3,0-0.5c0-0.2,0-0.5,0-0.8
		l-1.5,4.5h-0.7l-1.5-4.5v0.2c0,0,0,0.3,0,0.6c0,0.3,0,0.5,0,0.6v3.2h-0.7L360.8,954.8"/>
</g>
</svg>
