<?xml version="1.0" encoding="utf-8"?>
<!-- Generator: Adobe Illustrator 19.0.0, SVG Export Plug-In . SVG Version: 6.00 Build 0)  -->
<svg version="1.1" id="Layer_2_1_" xmlns="http://www.w3.org/2000/svg" xmlns:xlink="http://www.w3.org/1999/xlink" x="0px" y="0px"
	 viewBox="0 0 140 102" style="enable-background:new 0 0 140 102;" xml:space="preserve">
<style type="text/css">
	.st0{fill:#F5F5F5;}
</style>
<g>
	<path class="st0" d="M73.6,67.8c-0.4,1.6-1.2,2.8-2,3.8c-1.4,1.2-2.8,1.8-4,1.8c-2.8,0.4-5.6,0-8.8-1.6c-2-1.2-4.6-3-7.2-5.4
		L51.3,67c-1.2,3-2.4,5.2-4.6,7.2c-2,2.2-4.4,4-7.2,5.2c-3,1.2-6.2,1.8-9.2,2c-3.6,0.2-7,0.2-10.2-0.2c-3.2-0.4-6.4-1.4-9.2-3
		c-3-1.6-5.2-3.8-6.8-6.4c-1.8-2.8-3-5.6-3.6-8.8C0.2,60.8,0,57.2,0,52.4V20.5h18.1l0.2,35.9c0.2,3.8,1.4,6.6,3.4,8.2
		c1.2,1.2,2.8,1.6,4.6,1.6c1.8,0,3.4-0.2,4.6-1c2.4-1.4,3.8-4,4.4-8.2c0.2-1.2,0.2-3,0.2-5.2V20.5H53l-1.8,1.2
		c-1.6,1.6-3,3.2-3.6,4.8c-1.6,2.4-2.8,5.6-3,9.6c-0.2,3.2,0.2,6.4,1.4,9.2c1.2,3.2,3,5.6,5,7.4l4.4,2.8L65.6,59
		c2,0.6,3.6,1.4,5,2.2c1.2,0.6,1.8,1.6,2.4,2.8C73.6,65,74,66.4,73.6,67.8z"/>
	<path class="st0" d="M122.6,20.9v5.2c-2.2-2.2-4.8-3.6-7.2-4.6c-2.2-0.8-4.6-1.2-7-1.4c-3.4-0.2-6.2,0.2-9.2,1.4
		c-2,0.8-4,1.8-5.8,3c-3.6,2.4-6.6,6-8.8,10.6c-3.4-2.8-6-4.6-8-5.6c-3.6-1.4-6.8-1.4-9.2-0.2c-1.6,0.8-2.6,1.6-3.2,2.8
		c-1,1.2-1.2,2.8-1,4.4c0,1.4,0.4,2.6,1.6,3.8c1,0.8,2.2,1.6,3.8,2l9.6,3.4c3.4,1.2,6.4,2.8,8.4,4.8c4.6,4.2,6.4,10,5.2,17.4
		c-0.2,2-0.8,3.6-1.4,5l-0.6,1.6l0.6,0.4l1.6,1.6c2.2,1.6,4.8,2.8,7.2,4c5.6,2,10.8,2,16,0.4c2.8-1.2,5.4-2.8,7.6-5V81H140v-60
		H122.6z M117.3,64.4c-1.4,1.2-3.6,1.6-5.8,1.6c-2.6,0-5.2-1-7.2-2.8c-2.2-1.8-3.6-4.2-4.6-7.2c-2-6.8-1-12.2,3.8-16.6
		c2.2-2.2,4.6-3.4,7.4-3.4c2.6-0.2,5.2,1,7.6,3c3.8,2.8,5.6,7.4,5.4,13.2C123.6,57.8,121.7,62,117.3,64.4z"/>
</g>
</svg>
