<?xml version="1.0" encoding="UTF-8" standalone="no"?>
<svg
   xmlns:dc="http://purl.org/dc/elements/1.1/"
   xmlns:cc="http://creativecommons.org/ns#"
   xmlns:rdf="http://www.w3.org/1999/02/22-rdf-syntax-ns#"
   xmlns:svg="http://www.w3.org/2000/svg"
   xmlns="http://www.w3.org/2000/svg"
   viewBox="0 0 1735.3199 761.46667"
   height="761.46667"
   width="1735.3199"
   xml:space="preserve"
   id="svg2"
   version="1.1"><metadata
     id="metadata8"><rdf:RDF><cc:Work
         rdf:about=""><dc:format>image/svg+xml</dc:format><dc:type
           rdf:resource="http://purl.org/dc/dcmitype/StillImage" /></cc:Work></rdf:RDF></metadata><defs
     id="defs6" /><g
     transform="matrix(1.3333333,0,0,-1.3333333,0,761.46667)"
     id="g10"><g
       transform="scale(0.1)"
       id="g12"><path
         id="path14"
         style="fill:#121110;fill-opacity:1;fill-rule:nonzero;stroke:none"
         d="m 5380.55,2368.21 c -75.35,30.04 -149.97,62.56 -222.76,98.52 -137.74,68.37 -269.66,149.49 -388.54,247.52 -218.88,180.48 -377.89,417.62 -472.54,684.15 -97.16,272.82 -131.6,569.61 -114.7,858.04 18.03,308.82 101.19,612.83 254,882.3 119.87,211.32 278.91,399.84 464.79,555.85 -343.51,0 -1629.73,-0.49 -1629.73,-0.49 0,0 -2.99,-1718.24 -2.99,-2403.36 v -512.93 c 0,-158.95 -2.71,-318.15 -22.25,-475.92 -34.98,-280.57 -125.75,-606.92 -390.41,-755.2 -127.61,-71.3 -277.44,-92.92 -422.39,-88.01 -145.1,5.21 -292.22,42.45 -409.08,132.39 -231.8,178.31 -304.94,497.82 -330.82,773.93 -14.64,153.01 -14.64,306.63 -14.64,459.68 v 514.19 c 0,344.63 -0.1,2355.23 -0.1,2355.23 L 1.36328,5695.18 c 0,0 0.73828,-2287.34 -1.222655,-2972.08 C -1.08594,2390.01 4.50781,2054.6 73.1758,1727.56 133.602,1438.94 241.023,1157.38 407.648,912.75 568.703,676.199 785.031,482.77 1034.02,342.18 1301.73,191.262 1601.17,103.648 1904.44,59.1406 2209.58,14.4414 2522.52,8.53906 2829.53,34.8789 c 292.81,25.0625 584.88,84.5821 856.95,197.8511 258.27,107.489 493.23,263.399 682.54,469.891 180.27,196.77 316.77,431.099 407.15,681.589 7.47,20.25 14.5,40.58 21.28,61.11 199.67,-196.48 418.7,-379.11 669.21,-507.019 246.48,-125.949 535.8,-200.949 812.46,-152.27 136.89,24.457 268.53,82.809 369.84,179.641 95.71,91.698 159.47,213.808 182.53,344.078 21.93,123.39 9.93,253.66 -44.88,367.32 -50.51,104.54 -133.92,189.31 -229.5,253.86 -138.99,94.01 -302.35,151.78 -460.87,203.26 -176.88,57.76 -442.09,135.46 -505.84,157.28 -63.76,22.01 -174.72,62.87 -209.85,76.74 m 4937.75,-899.2 c -252,0 -492.12,100.97 -680.25,266.22 -201.89,177.43 -340.31,419.38 -414.58,676.09 -151.77,524.32 -28.38,1140.64 367.22,1529.42 185.49,181.99 429.81,296.34 691.11,304.1 262,8.06 520.3,-89.2 719.4,-258.17 346.5,-293.74 504.6,-772.28 482.5,-1217.41 -22.2,-447.33 -234,-903.27 -623.7,-1144.85 -162,-100.69 -351,-155.4 -541.7,-155.4 M 11397,5166.45 c -356.3,340.01 -836.2,525.1 -1325.8,543.08 -488.57,17.87 -982.02,-125.26 -1381.27,-408.1 -348.97,-247.12 -619.9,-595.34 -806.65,-977.99 -228.71,202.38 -465.28,398.07 -751.15,513.7 -266.16,107.87 -588.36,157.67 -858.67,35.77 -122.31,-54.93 -228.11,-144.43 -295.36,-260.93 -68.37,-118.88 -96.23,-260 -81.24,-396.11 14.93,-131.74 72.11,-249.63 167.11,-342.27 99.32,-96.96 226.5,-160.63 353.87,-212.7 146.84,-59.83 299.49,-102.91 450.9,-149.03 144.31,-44 288.23,-89.21 429.21,-142.74 273.01,-103.45 540.92,-239.81 752.52,-444.55 424.99,-411.14 561.84,-1035.66 490.82,-1608.05 -19.85,-161.55 -58.55,-320.51 -116.41,-472.55 -13.47,-35.742 -28.02,-71.308 -43.82,-106.3 -4.32,-9.758 -11.1,-26.989 -11.1,-26.989 0,0 34.76,-37.543 49.6,-52.332 48.04,-47.699 98.15,-93.468 150.6,-136.89 193.06,-159.75 413.8,-285.778 648.5,-374 465.95,-174.9807 992.64,-201.6878 1466.74,-39.887 265.9,90.668 515.7,240.098 711.6,442.77 0,-84.293 -0.4,-470.2426 -0.4,-470.2426 l 1618.3,-0.1875 -0.7,5554.2481 -1617.2,0.2 v -467.92" /></g></g></svg>