<?xml version="1.0" encoding="UTF-8" standalone="no"?>
<svg width="93px" height="100px" viewBox="0 0 93 100" version="1.1" xmlns="http://www.w3.org/2000/svg" xmlns:xlink="http://www.w3.org/1999/xlink">
    <!-- Generator: Sketch 3.6.1 (26313) - http://www.bohemiancoding.com/sketch -->
    <title>backlog</title>
    <desc>Created with Sketch.</desc>
    <defs></defs>
    <g id="Page-1" stroke="none" stroke-width="1" fill="none" fill-rule="evenodd">
        <path d="M19.4117647,22.3872549 L5.09803922,22.3872549 C3.35539003,22.3872549 1.92647059,20.9583355 1.92647059,19.2156863 L1.92647059,4.90196078 C1.92647059,3.1593116 3.35539003,1.73039216 5.09803922,1.73039216 L19.4117647,1.73039216 C21.1544139,1.73039216 22.5833333,3.1593116 22.5833333,4.90196078 L22.5833333,19.2156863 C22.5833333,20.9583355 21.1544139,22.3872549 19.4117647,22.3872549 L19.4117647,22.3872549 Z M19.4117647,23.8872549 C21.982841,23.8872549 24.0833333,21.7867626 24.0833333,19.2156863 L24.0833333,4.90196078 C24.0833333,2.33088448 21.982841,0.230392157 19.4117647,0.230392157 L5.09803922,0.230392157 C2.52696291,0.230392157 0.426470588,2.33088448 0.426470588,4.90196078 L0.426470588,19.2156863 C0.426470588,21.7867626 2.52696291,23.8872549 5.09803922,23.8872549 L19.4117647,23.8872549 Z M33.7254902,12.7107843 L92.3529412,12.7107843 L92.3529412,11.2107843 L33.7254902,11.2107843 L33.7254902,12.7107843 Z M33.7254902,50.75 L92.3529412,50.75 L92.3529412,49.25 L33.7254902,49.25 L33.7254902,50.75 Z M19.4117647,99.7696078 C21.982841,99.7696078 24.0833333,97.6691155 24.0833333,95.0980392 L24.0833333,80.7843137 C24.0833333,78.2132374 21.982841,76.1127451 19.4117647,76.1127451 L5.09803922,76.1127451 C2.52696291,76.1127451 0.426470588,78.2132374 0.426470588,80.7843137 L0.426470588,95.0980392 C0.426470588,97.6691155 2.52696291,99.7696078 5.09803922,99.7696078 L19.4117647,99.7696078 Z M19.4117647,98.2696078 L5.09803922,98.2696078 C3.35539003,98.2696078 1.92647059,96.8406884 1.92647059,95.0980392 L1.92647059,80.7843137 C1.92647059,79.0416645 3.35539003,77.6127451 5.09803922,77.6127451 L19.4117647,77.6127451 C21.1544139,77.6127451 22.5833333,79.0416645 22.5833333,80.7843137 L22.5833333,95.0980392 C22.5833333,96.8406884 21.1544139,98.2696078 19.4117647,98.2696078 Z M33.7254902,88.5931373 L92.3529412,88.5931373 L92.3529412,87.0931373 L33.7254902,87.0931373 L33.7254902,88.5931373 Z M0.18022912,49.6698499 L9.78807226,60.6698499 L10.4642206,61.4439708 L10.9951381,60.5638762 L23.3676871,40.0540723 L22.0832933,39.2792611 L9.71074425,59.789065 L10.9178101,59.6830913 L1.30996696,48.6830913 L0.18022912,49.6698499 Z" id="backlog" fill="#7B3D46"></path>
    </g>
</svg>