<?xml version="1.0" encoding="UTF-8" standalone="no"?>
<svg width="90px" height="89px" viewBox="0 0 90 89" version="1.1" xmlns="http://www.w3.org/2000/svg" xmlns:xlink="http://www.w3.org/1999/xlink">
    <!-- Generator: Sketch 3.6.1 (26313) - http://www.bohemiancoding.com/sketch -->
    <title>refining</title>
    <desc>Created with Sketch.</desc>
    <defs></defs>
    <g id="Page-1" stroke="none" stroke-width="1" fill="none" fill-rule="evenodd">
        <g id="refining" fill="#693D4F">
            <path d="M10.5,72.4 C8.9,72.4 7.4,73 6.3,74.1 C5.2,75.2 4.6,76.7 4.6,78.3 C4.6,79.9 5.2,81.4 6.3,82.5 C7.4,83.6 8.9,84.2 10.5,84.2 C12.1,84.2 13.6,83.6 14.7,82.5 C17,80.2 17,76.4 14.7,74.1 C13.6,73 12.1,72.4 10.5,72.4 L10.5,72.4 Z M14,81.8 C13.1,82.7 11.9,83.2 10.6,83.2 C9.3,83.2 8.1,82.7 7.2,81.8 C6.3,80.9 5.8,79.7 5.8,78.4 C5.8,77.1 6.3,75.9 7.2,75 C8.1,74.1 9.3,73.6 10.6,73.6 C11.9,73.6 13.1,74.1 14,75 C15.9,76.8 15.9,79.9 14,81.8 L14,81.8 Z" id="Shape"></path>
            <path d="M61.5,34.9 C61.7,35.4 62.1,35.8 62.7,36.1 C63,36.2 63.2,36.3 63.5,36.3 C64.4,36.3 65.1,35.8 65.5,35 L68.5,27.7 C68.7,27.2 68.7,26.6 68.5,26.1 C68.3,25.6 67.9,25.2 67.3,24.9 C67,24.8 66.8,24.7 66.5,24.7 C65.6,24.7 64.9,25.2 64.5,26 L61.5,33.3 C61.3,33.8 61.3,34.4 61.5,34.9 L61.5,34.9 Z M62.6,33.7 L65.6,26.4 C65.8,26 66.1,25.8 66.6,25.8 C66.7,25.8 66.9,25.8 67,25.9 C67.3,26 67.5,26.2 67.6,26.5 C67.7,26.8 67.7,27 67.6,27.3 L64.6,34.6 C64.4,35.1 63.8,35.4 63.2,35.2 C62.9,35.1 62.7,34.9 62.6,34.6 C62.5,34.2 62.4,34 62.6,33.7 L62.6,33.7 Z" id="Shape"></path>
            <path d="M56.9,33.2 C57.1,33.7 57.5,34.1 58.1,34.4 C58.4,34.5 58.6,34.6 58.9,34.6 C59.8,34.6 60.5,34.1 60.9,33.3 L63.9,26 C64.3,24.9 63.8,23.7 62.7,23.2 C62.4,23.1 62.2,23 61.9,23 C61,23 60.3,23.5 59.9,24.3 L56.9,31.6 C56.7,32.1 56.7,32.7 56.9,33.2 L56.9,33.2 Z M58,32 L61,24.7 C61.2,24.3 61.5,24.1 62,24.1 C62.1,24.1 62.3,24.1 62.4,24.2 C62.9,24.4 63.2,25 63,25.6 L60,32.9 C59.8,33.4 59.2,33.7 58.6,33.5 C58.3,33.4 58.1,33.2 58,32.9 C57.8,32.5 57.8,32.2 58,32 L58,32 Z" id="Shape"></path>
            <path d="M53.4,32.7 C53.7,32.8 53.9,32.9 54.2,32.9 C55.1,32.9 55.8,32.4 56.2,31.6 L59.2,24.3 C59.4,23.8 59.4,23.2 59.2,22.7 C59,22.2 58.6,21.8 58,21.5 C57.7,21.4 57.5,21.3 57.2,21.3 C56.3,21.3 55.6,21.8 55.2,22.6 L52.2,29.9 C52,30.4 52,31 52.2,31.5 C52.4,32.1 52.9,32.5 53.4,32.7 L53.4,32.7 Z M53.2,30.4 L56.2,23.1 C56.4,22.7 56.7,22.5 57.2,22.5 C57.3,22.5 57.5,22.5 57.6,22.6 C57.9,22.7 58.1,22.9 58.2,23.2 C58.3,23.5 58.3,23.7 58.2,24 L55.2,31.3 C55,31.8 54.4,32.1 53.8,31.9 C53.5,31.8 53.3,31.6 53.2,31.3 C53.1,30.9 53.1,30.6 53.2,30.4 L53.2,30.4 Z" id="Shape"></path>
            <path d="M86.3,71.9 L66.3,51.9 C66.2,51.8 66.2,51.8 66.1,51.8 L61.9,50.4 L56.9,45.9 C59.5,45 62.3,44.7 65.9,44.4 L67,44.3 C73.8,43.6 82.7,41 87.3,32.3 C94.6,18.3 84.9,9 84.8,8.9 C84.7,8.8 84.5,8.7 84.3,8.8 C84.1,8.8 84,9 83.9,9.1 L78.4,22.5 L74.3,24 L61.7,19 L59.8,18.3 L67.5,1.8 C67.6,1.6 67.6,1.4 67.5,1.3 C67.4,1.1 67.2,1 67.1,1 C54.2,0.3 47.2,10.6 45.9,12.8 L44.7,12.3 C44.5,12.2 44.4,12.3 44.2,12.3 L40.5,14.3 C40.4,14.4 40.3,14.5 40.2,14.6 L39.4,16.7 C39.1,17.5 39.5,18.3 40.3,18.6 L46.1,20.9 L45.9,22.2 C44.9,28.2 43.5,32.9 40.1,36.9 L39.2,36 L38,34.8 C36.9,33.8 35.5,32.4 34.1,31 C33.3,30.2 32.5,29.3 31.6,28.4 C30.6,27.4 29.7,26.4 28.8,25.4 L28.6,25.2 C27.7,24.2 26.8,23.2 25.9,22.2 C25.4,21.7 25,21 24.6,20.4 C24.4,20.2 24.3,19.9 24.2,19.6 C24,19.2 23.7,18.7 23.4,18.3 C23,17.7 22.5,17.1 22,16.4 C21.5,15.8 21,15.2 20.6,14.7 C19.7,13.6 18.7,12.5 17.6,11.4 C16.7,10.5 15.8,9.5 14.7,8.5 C13.7,7.5 12.9,6.7 12.1,5.9 C11.8,5.6 11.5,5.3 11.2,5.1 L10.6,4.5 C10.3,4.3 10.1,4 9.8,3.8 L8,2.2 C7.5,1.8 7.1,1.4 6.8,1.2 L6.4,0.9 C6.2,0.7 5.9,0.7 5.7,0.9 L0.7,5.9 C0.5,6.1 0.5,6.4 0.7,6.6 L1,7 C1.2,7.3 1.6,7.7 2,8.2 L3.6,10 C3.8,10.2 4.1,10.5 4.3,10.8 L4.9,11.4 C5.2,11.7 5.4,12 5.7,12.3 C6.4,13.1 7.3,14 8.3,14.9 C9.3,15.9 10.3,16.9 11.2,17.8 C12.3,18.8 13.4,19.8 14.5,20.8 C15.1,21.3 15.7,21.8 16.2,22.2 C16.9,22.8 17.5,23.2 18.1,23.6 C18.5,23.9 18.9,24.1 19.4,24.4 C19.7,24.5 19.9,24.7 20.2,24.8 C20.8,25.2 21.5,25.6 22,26 C23.1,26.9 24.1,27.8 25.1,28.7 L25.3,28.9 C26.3,29.9 27.3,30.8 28.3,31.7 C29.2,32.6 30.1,33.4 30.9,34.2 C32.4,35.6 33.7,37 34.7,38.1 C34.8,38.2 35.2,38.7 35.7,39.2 C36.1,39.6 36.5,40 36.7,40.3 L3.1,71.4 C1.1,73.3 0,75.8 0,78.6 C0,81.4 1,83.9 3,85.9 C4.9,87.8 7.4,88.9 10.1,88.9 C12.9,88.9 15.5,87.8 17.4,85.7 L44.4,56.6 L49.7,62.7 L51.1,66.8 C51.1,66.9 51.2,67 51.2,67 L71.2,87 C72.8,88.5 74.3,89 75.6,89 C76.7,89 77.6,88.7 78.6,88.3 L78.6,88.3 L78.6,88.3 C79.3,88 80,87.5 80.5,87 L81.9,85.6 L84.8,82.7 L86.2,81.3 C86.8,80.7 87.2,80.1 87.5,79.4 L87.5,79.4 L87.5,79.4 L87.5,79.4 L87.5,79.4 C89.2,76.4 88,73.6 86.3,71.9 L86.3,71.9 Z M66.1,2.1 L58.8,17.9 L46.8,13.3 C48.2,11 54.6,1.9 66.1,2.1 L66.1,2.1 Z M36.2,38.8 C35.7,38.3 35.3,37.9 35.2,37.7 C34.2,36.6 32.8,35.2 31.4,33.8 L28.8,31.2 C27.9,30.3 26.9,29.4 25.8,28.4 L25.6,28.2 C24.6,27.3 23.6,26.4 22.5,25.4 C21.9,24.9 21.3,24.5 20.6,24.1 C20.3,23.9 20.1,23.8 19.8,23.6 C19.4,23.4 19,23.1 18.6,22.9 C18,22.5 17.4,22.1 16.8,21.6 C16.2,21.1 15.6,20.6 15.1,20.2 C14,19.3 13,18.3 11.9,17.3 C11,16.4 10,15.5 9,14.4 C8.1,13.4 7.2,12.6 6.5,11.8 C6.2,11.5 6,11.2 5.7,10.9 L5.1,10.2 C4.9,9.9 4.6,9.7 4.4,9.4 L2.8,7.6 C2.4,7.1 2,6.7 1.8,6.4 L1.8,6.4 L6.1,2.1 L6.1,2.1 C6.4,2.3 6.8,2.7 7.3,3.1 L9.1,4.7 C9.3,4.9 9.6,5.1 9.9,5.4 L10.5,6 C10.8,6.3 11.1,6.5 11.4,6.8 C12.2,7.5 13,8.4 14,9.3 C15,10.3 16,11.3 16.9,12.2 C17.9,13.3 18.9,14.4 19.8,15.4 C20.3,16 20.8,16.5 21.2,17.1 C21.7,17.7 22.2,18.3 22.5,18.9 C22.8,19.3 23,19.7 23.2,20.1 C23.4,20.4 23.5,20.6 23.7,20.9 C24.1,21.6 24.6,22.2 25.1,22.9 C26,24 27,25 27.9,26 L28.1,26.2 C29,27.2 29.9,28.2 30.9,29.2 C31.8,30.1 32.7,31 33.5,31.8 C35,33.3 36.4,34.6 37.4,35.6 C37.5,35.7 38.1,36.3 38.6,36.8 C39,37.2 39.3,37.5 39.5,37.7 C39.2,38 38.9,38.4 38.5,38.7 L37.4,39.7 C36.9,39.6 36.5,39.2 36.2,38.8 L36.2,38.8 Z M16.6,84.9 C14.9,86.7 12.6,87.7 10.1,87.7 C7.7,87.7 5.4,86.8 3.7,85.1 C2,83.4 1,81.1 1.1,78.6 C1.1,76.2 2.1,73.9 3.9,72.2 L39.1,39.6 L40.5,38.2 L40.5,38.2 L40.5,38.2 C44.3,33.9 45.8,28.9 46.9,22.5 L47.2,20.7 C47.2,20.4 47.1,20.2 46.9,20.1 L40.7,17.7 C40.5,17.6 40.4,17.4 40.5,17.2 L41.2,15.3 L44.5,13.5 L61.3,20 L74.1,25 C74.2,25 74.4,25.1 74.5,25 L79.1,23.4 C79.2,23.3 79.4,23.2 79.4,23.1 L84.6,10.2 C86.5,12.4 92.2,20.3 86.3,31.7 C82,40 73.4,42.5 66.9,43.1 L65.8,43.2 C58.9,43.9 54.3,44.3 49.1,49.8 L16.6,84.9 L16.6,84.9 Z M72,86.2 L52.1,66.3 L50.7,62.2 C50.7,62.1 50.6,62.1 50.6,62 L45.1,55.8 L49.9,50.6 C51.9,48.5 53.7,47.2 55.7,46.3 L55.7,46.3 L61.1,51.2 C61.2,51.2 61.2,51.3 61.3,51.3 L65.5,52.7 L85.4,72.6 C86.7,73.9 87.6,75.9 86.8,78.1 L65.9,57 C65.4,56.5 64.8,56.2 64.1,56.2 C63.4,56.2 62.8,56.5 62.3,57 C61.3,58 61.3,59.7 62.3,60.7 L83.9,82.3 L81.8,84.4 L60.1,62.8 C59.6,62.3 59,62 58.3,62 C57.6,62 57,62.3 56.5,62.8 C55.5,63.8 55.5,65.5 56.5,66.5 L77.6,87.6 C75.9,88.1 74.2,88.2 72,86.2 L72,86.2 Z M79.9,86.2 C79.5,86.6 79.1,86.9 78.6,87.2 L57.2,65.7 C56.6,65.1 56.6,64.2 57.2,63.6 C57.5,63.3 57.9,63.2 58.3,63.2 C58.7,63.2 59.1,63.4 59.4,63.6 L81,85.2 L79.9,86.2 L79.9,86.2 Z M85.6,80.5 L84.6,81.5 L63,59.9 C62.7,59.6 62.6,59.2 62.6,58.8 C62.6,58.4 62.8,58 63,57.7 C63.3,57.4 63.7,57.3 64.1,57.3 C64.5,57.3 64.9,57.5 65.2,57.7 L86.6,79.1 C86.3,79.7 85.9,80.1 85.6,80.5 L85.6,80.5 Z" id="Shape"></path>
        </g>
    </g>
</svg>