<?xml version="1.0" encoding="UTF-8" standalone="no"?>
<svg width="118px" height="90px" viewBox="0 0 118 90" version="1.1" xmlns="http://www.w3.org/2000/svg" xmlns:xlink="http://www.w3.org/1999/xlink">
    <!-- Generator: Sketch 3.6.1 (26313) - http://www.bohemiancoding.com/sketch -->
    <title>discovery</title>
    <desc>Created with Sketch.</desc>
    <defs></defs>
    <g id="Page-1" stroke="none" stroke-width="1" fill="none" fill-rule="evenodd">
        <path d="M117.11087,60.7669565 C116.461304,56.2226087 114.603913,52.0643478 111.845217,48.6482609 L101.603478,22.6069565 C100.000435,16.9382609 94.646087,12.6378261 89.5356522,12.6378261 L89.306087,12.6378261 C89.3073913,5.66086957 83.6517391,0 76.6682609,0 C73.2065217,0 70.0773913,1.39565217 67.7973913,3.65086957 L49.5952174,3.65086957 C47.3126087,1.39565217 44.1847826,0 40.7230435,0 C33.7395652,0 28.0852174,5.66086957 28.0852174,12.6378261 L27.8556522,12.6378261 C22.7452174,12.6378261 17.3908696,16.9382609 15.7904348,22.6108696 L5.55652174,48.6378261 C2.7926087,52.0565217 0.93,56.2213043 0.280434783,60.7669565 C0.114782609,61.9304348 4.97379915e-14,63.1056522 4.97379915e-14,64.3134783 C4.97379915e-14,65.5213043 0.114782609,66.6952174 0.280434783,67.86 C2.01,79.9604348 12.42,89.3073913 24.993913,89.3073913 C38.7782609,89.3073913 49.9904348,78.0952174 49.9904348,64.3134783 C49.9904348,64.0591304 49.9604348,63.813913 49.95,63.5595652 C52.3473913,65.5773913 55.3969565,66.8413043 58.7621739,66.8413043 C62.066087,66.8413043 65.0595652,65.6204348 67.4334783,63.6717391 C67.4282609,63.8934783 67.4034783,64.0995652 67.4034783,64.3134783 C67.4034783,78.0952174 78.6130435,89.3073913 92.3973913,89.3073913 C104.972609,89.3073913 115.381304,79.9604348 117.11087,67.86 C117.276522,66.6952174 117.391304,65.52 117.391304,64.3134783 C117.391304,63.1069565 117.276522,61.9304348 117.11087,60.7669565 L117.11087,60.7669565 Z M17.9530435,23.223913 C19.2469565,18.6234783 23.6921739,14.8852174 27.8556522,14.8852174 L28.0852174,14.8852174 C29.3256522,14.8852174 30.3326087,13.8795652 30.3326087,12.6378261 C30.3326087,6.90521739 34.9917391,2.24608696 40.7243478,2.24608696 C43.466087,2.24608696 46.0565217,3.31304348 48.0182609,5.2473913 C48.4382609,5.66478261 49.0043478,5.89695652 49.5978261,5.89695652 L67.8,5.89695652 C68.3908696,5.89695652 68.9569565,5.66478261 69.3795652,5.2473913 C71.3413043,3.31434783 73.9291304,2.24608696 76.6708696,2.24608696 C82.4034783,2.24608696 87.0626087,6.90521739 87.0626087,12.6378261 C87.0626087,13.8782609 88.0682609,14.8852174 89.31,14.8852174 L89.5395652,14.8852174 C93.7017391,14.8852174 98.1482609,18.6221739 99.5178261,23.4326087 L107.899565,44.7430435 C103.633043,41.3543478 98.253913,39.3195652 92.4,39.3195652 C84.4486957,39.3195652 77.37,43.0617391 72.7891304,48.8673913 C72.5465217,49.1726087 72.3156522,49.4869565 72.086087,49.8026087 C70.6082609,43.7973913 65.2147826,39.3195652 58.7647826,39.3195652 C54.1004348,39.3195652 49.9813043,41.666087 47.4913043,45.2295652 C46.7321739,46.3121739 46.173913,47.5252174 45.753913,48.806087 C45.6313043,49.1726087 45.4943478,49.5417391 45.4017391,49.9291304 C44.5943478,48.7826087 43.7073913,47.7026087 42.723913,46.7113043 C38.1913043,42.1513043 31.92,39.3182609 24.9952174,39.3182609 C19.143913,39.3182609 13.7634783,41.3543478 9.49826087,44.7365217 L17.9530435,23.223913 L17.9530435,23.223913 Z M24.993913,87.06 C12.4552174,87.06 2.2473913,76.8547826 2.2473913,64.3134783 C2.2473913,58.3317391 4.61608696,52.9213043 8.40521739,48.8569565 C12.5608696,44.3986957 18.4343478,41.5656522 24.9952174,41.5656522 C31.3513043,41.5656522 37.0930435,44.1978261 41.2226087,48.4186957 C42.783913,50.0086957 44.04,51.8686957 45.0795652,53.8604348 C46.2026087,56.01 47.0034783,58.3265217 47.3882609,60.81 C47.5695652,61.9617391 47.7443478,63.1108696 47.7443478,64.3134783 C47.7443478,76.8547826 37.5352174,87.06 24.993913,87.06 L24.993913,87.06 Z M58.7621739,64.5926087 C55.0017391,64.5926087 51.6873913,62.7534783 49.586087,59.9582609 C48.1395652,58.0317391 47.2473913,55.6682609 47.2473913,53.0778261 C47.2473913,53.0517391 47.2578261,53.0269565 47.2578261,52.9982609 C47.2656522,51.8413043 47.49,50.7430435 47.8134783,49.6917391 C48.2191304,48.6469565 48.7486957,47.5134783 49.4165217,46.4073913 C51.506087,43.4856522 54.9065217,41.5643478 58.7634783,41.5643478 C65.0073913,41.5643478 70.08,46.5652174 70.2482609,52.7765217 C70.2508696,52.8756522 70.2782609,52.9721739 70.2782609,53.0765217 C70.2782609,55.7595652 69.3208696,58.1947826 67.7765217,60.1513043 C65.6686957,62.8382609 62.43,64.5926087 58.7621739,64.5926087 L58.7621739,64.5926087 Z M92.3973913,87.06 C79.856087,87.06 69.6482609,76.8547826 69.6482609,64.3134783 C69.6482609,63.1773913 69.8243478,62.0843478 69.9873913,60.9913043 C70.3773913,58.3265217 71.2382609,55.8456522 72.476087,53.5630435 C73.1386957,52.3421739 73.8978261,51.1969565 74.7665217,50.1208696 C78.9221739,44.97 85.196087,41.5995652 92.3086957,41.5734783 C92.4234783,41.5813043 92.5382609,41.5813043 92.6478261,41.5917391 C93.0378261,41.6178261 93.4252174,41.6608696 93.8073913,41.7065217 C96.87,42.0730435 99.783913,42.9091304 102.456522,44.0152174 C106.16087,45.8569565 109.296522,48.6313043 111.517826,52.0878261 C113.79,55.623913 115.145217,59.8069565 115.145217,64.3134783 C115.143913,76.8547826 104.938696,87.06 92.3973913,87.06 Z M92.3973913,47.5317391 C83.1417391,47.5317391 75.6169565,55.0617391 75.6169565,64.3121739 C75.6169565,73.5626087 83.1430435,81.0926087 92.3973913,81.0926087 C101.651739,81.0926087 109.177826,73.5626087 109.177826,64.3121739 C109.177826,55.0617391 101.653043,47.5317391 92.3973913,47.5317391 Z M92.3973913,78.8465217 C84.3847826,78.8465217 77.8630435,72.3247826 77.8630435,64.3121739 C77.8630435,56.2995652 84.3847826,49.7778261 92.3973913,49.7778261 C100.41,49.7778261 106.931739,56.2995652 106.931739,64.3121739 C106.931739,72.3247826 100.408696,78.8465217 92.3973913,78.8465217 Z M24.993913,47.5317391 C15.7408696,47.5317391 8.21608696,55.0617391 8.21608696,64.3121739 C8.21608696,73.5626087 15.7421739,81.0926087 24.993913,81.0926087 C34.2495652,81.0926087 41.7743478,73.5626087 41.7743478,64.3121739 C41.7743478,55.0617391 34.2495652,47.5317391 24.993913,47.5317391 Z M24.993913,78.8465217 C16.9813043,78.8465217 10.4621739,72.3247826 10.4621739,64.3121739 C10.4621739,56.2995652 16.9813043,49.7778261 24.993913,49.7778261 C33.0091304,49.7778261 39.5282609,56.2995652 39.5282609,64.3121739 C39.5282609,72.3247826 33.0091304,78.8465217 24.993913,78.8465217 Z M58.7621739,43.8104348 C53.6491304,43.8104348 49.4947826,47.97 49.4947826,53.0778261 C49.4947826,58.1856522 53.6504348,62.3452174 58.7621739,62.3452174 C63.873913,62.3452174 68.0295652,58.1856522 68.0295652,53.0778261 C68.0295652,47.97 63.8752174,43.8104348 58.7621739,43.8104348 Z M58.7621739,60.0991304 C54.8921739,60.0991304 51.7408696,56.9504348 51.7408696,53.0778261 C51.7408696,49.2078261 54.8921739,46.0565217 58.7621739,46.0565217 C62.6321739,46.0565217 65.7834783,49.2078261 65.7834783,53.0778261 C65.7834783,56.9504348 62.6321739,60.0991304 58.7621739,60.0991304 Z" id="discovery" fill="#E73C0E"></path>
    </g>
</svg>