<?xml version="1.0" encoding="UTF-8" standalone="no"?>
<svg width="86px" height="100px" viewBox="0 0 86 100" version="1.1" xmlns="http://www.w3.org/2000/svg" xmlns:xlink="http://www.w3.org/1999/xlink">
    <!-- Generator: Sketch 3.6.1 (26313) - http://www.bohemiancoding.com/sketch -->
    <title>ideation</title>
    <desc>Created with Sketch.</desc>
    <defs></defs>
    <g id="Page-1" stroke="none" stroke-width="1" fill="none" fill-rule="evenodd">
        <path d="M21.8149266,0.0046424573 C21.0880742,0.125305705 20.6442058,1.09492109 21.0061955,1.74133135 L25.2064258,9.05007667 C25.4491887,9.61604476 26.2564833,9.85880773 26.8224514,9.53416613 C27.3884195,9.210961 27.5493038,8.40366641 27.1858776,7.8779194 L22.9439898,0.569174083 C22.7428844,0.205747871 22.258795,-0.0370150927 21.8149266,0.0046424573 L21.8149266,0.0046424573 L21.8149266,0.0046424573 Z M63.3791062,0.0046424573 C63.0142435,0.0850846228 62.7326959,0.287626504 62.5703751,0.57061055 L58.3687085,7.87935587 C58.0052823,8.40510288 58.1661666,9.21239747 58.7321347,9.5356026 C59.2578817,9.85880773 60.0666127,9.61604476 60.3481603,9.05151314 L64.5886116,1.74276782 C64.9922589,1.01591539 64.307064,-0.0743632409 63.4581119,0.00607892454 C63.4178908,0.0046424573 63.3791062,0.0046424573 63.3791062,0.0046424573 L63.3791062,0.0046424573 L63.3791062,0.0046424573 Z M42.777293,8.80875017 C27.6699671,8.80875017 15.3910451,21.24712 15.3910451,36.5124574 C15.3910451,45.519107 18.0169072,50.0827634 20.4402274,54.0818882 C22.8635477,58.0795765 25.0857625,61.5127332 25.0857625,69.3874466 L25.0857625,69.4678888 C25.0857625,69.5497674 25.1259836,69.6287731 25.1259836,69.6704307 C25.1259836,69.7523093 25.1662047,69.7910939 25.1662047,69.831315 L29.4080924,91.9629658 C29.7715186,93.860539 31.6288708,95.0326963 33.6083226,95.0326963 L33.9717489,95.0326963 L33.9717489,95.6388855 C33.9717489,97.9415424 35.5475534,100 37.7683318,100 L47.7445968,100 C49.9668116,100 51.5828372,97.940106 51.5828372,95.6388855 L51.5828372,95.0326963 L51.9060424,95.0326963 C53.8854942,95.0326963 55.7442828,93.8619755 56.1464936,91.9629658 L60.3883814,69.7896575 L60.4286025,69.6689942 L60.4286025,69.6689942 C60.4673871,69.5081099 60.4673871,69.3874466 60.4286025,69.2653469 L60.4286025,69.1044626 C60.5090447,61.4725121 62.7312595,58.0393554 65.1143586,54.0818882 C67.5376789,50.0827634 70.1218834,45.519107 70.1218834,36.5124574 C70.1233199,21.24712 57.8860555,8.80875017 42.777293,8.80875017 L42.777293,8.80875017 L42.777293,8.80875017 Z M42.777293,11.1099707 C56.6320196,11.1099707 67.860884,22.498283 67.860884,36.5124574 C67.860884,45.1154597 65.5984481,48.870385 63.1751279,52.8695098 C60.8710344,56.6660928 58.4893717,60.7844443 58.2466088,68.2957315 L47.3811705,68.2957315 L38.2122001,68.2957315 L27.3065409,68.2957315 C27.0637779,60.7844443 24.6806787,56.6646563 22.3780218,52.8695098 C19.9547015,48.870385 17.6922656,45.1154597 17.6922656,36.5124574 C17.6951386,22.498283 28.9225665,11.1099707 42.777293,11.1099707 L42.777293,11.1099707 L42.777293,11.1099707 Z M6.58693738,15.2297587 C5.61732199,15.350422 5.33433795,16.9262265 6.18329009,17.3700949 L13.4949083,21.6105462 C14.0192189,21.8935303 14.7475078,21.6909884 15.0707129,21.1666778 C15.353697,20.6409308 15.1511551,19.9140784 14.6254081,19.5908733 L7.31522627,15.3906431 C7.15290547,15.2699798 6.91157898,15.2297587 6.66881601,15.2297587 L6.58693738,15.2297587 L6.58693738,15.2297587 L6.58693738,15.2297587 Z M78.7263222,15.2297587 C78.5237803,15.2297587 78.362896,15.3102009 78.2020117,15.3906431 L70.932051,19.5908733 C70.4077404,19.9140784 70.2051985,20.6409308 70.4867461,21.1666778 C70.7697302,21.6909884 71.5368037,21.8935303 72.0625507,21.6105462 L79.3741689,17.3700949 C79.8194738,17.1287684 80.0622367,16.5225793 79.8984795,16.0370533 C79.7361587,15.5529639 79.2118481,15.1895377 78.7263222,15.2297587 L78.7263222,15.2297587 L78.7263222,15.2297587 Z M1.09245019,36.0283679 C0.486261012,36.068589 -0.0380495311,36.6331206 0.00217155164,37.2393098 C0.0423926344,37.8052779 0.608360727,38.3295884 1.2145499,38.2893673 L9.61644679,38.2893673 C10.222636,38.3295884 10.748383,37.7636203 10.748383,37.1588676 C10.748383,36.5526785 10.222636,36.0283679 9.61644679,36.0283679 L1.2145499,36.0283679 C1.17432882,36.0283679 1.13410774,36.0283679 1.09245019,36.0283679 L1.09245019,36.0283679 L1.09245019,36.0283679 Z M75.8189125,36.0283679 C75.2127233,36.068589 74.7286339,36.6331206 74.7286339,37.2393098 C74.768855,37.8052779 75.334823,38.3295884 75.9410122,38.2893673 L84.3831302,38.2893673 C84.9893194,38.3295884 85.553851,37.7636203 85.553851,37.1588676 C85.553851,36.5526785 84.9878829,36.0283679 84.3831302,36.0283679 L75.9410122,36.0283679 C75.9007911,36.0283679 75.8591336,36.0283679 75.8189125,36.0283679 L75.8189125,36.0283679 L75.8189125,36.0283679 Z M27.6311825,70.5983885 L57.9650612,70.5983885 L53.8854942,91.4774399 C53.8036156,91.9227447 52.9158788,92.7300393 51.9060424,92.7300393 L50.6146583,92.7300393 L50.4121164,92.7300393 L38.2136366,92.7300393 L34.9011432,92.7300393 L33.6083226,92.7300393 C32.6387073,92.7300393 31.7509705,91.9213082 31.6690919,91.4774399 L30.6592554,86.2285886 L45.4835973,86.2285886 C46.0897865,86.2285886 46.614097,85.6626205 46.614097,85.0578678 C46.614097,84.4918997 46.0897865,83.927368 45.4835973,83.927368 L30.1766024,83.927368 L28.9642241,77.5868016 L48.5949854,77.5868016 C49.1609535,77.5868016 49.7254851,77.0624911 49.7254851,76.4563019 C49.7254851,75.8501128 49.159517,75.3258022 48.5949854,75.3258022 L28.5605768,75.3258022 L27.6311825,70.5983885 L27.6311825,70.5983885 L27.6311825,70.5983885 Z M36.2341848,95.0326963 L38.2136366,95.0326963 L49.2801802,95.0326963 L49.2801802,95.6388855 C49.2801802,96.9302695 48.4728856,97.7390006 47.7460332,97.7390006 L37.7697682,97.7390006 C37.0429158,97.7390006 36.2356212,96.9302695 36.2356212,95.6388855 L36.2356212,95.0326963 L36.2341848,95.0326963 L36.2341848,95.0326963 Z" id="ideation" fill="#D53C17"></path>
    </g>
</svg>