<?xml version="1.0" encoding="UTF-8" standalone="no"?>
<svg width="133px" height="100px" viewBox="0 0 133 100" version="1.1" xmlns="http://www.w3.org/2000/svg" xmlns:xlink="http://www.w3.org/1999/xlink">
    <!-- Generator: Sketch 3.6.1 (26313) - http://www.bohemiancoding.com/sketch -->
    <title>maping</title>
    <desc>Created with Sketch.</desc>
    <defs></defs>
    <g id="Page-1" stroke="none" stroke-width="1" fill="none" fill-rule="evenodd">
        <path d="M23.7303301,55.4696699 C18.4374369,50.1767767 9.96256313,50.1767767 4.66966991,55.4696699 C-0.623223305,60.7625631 -0.623223305,69.2374369 4.66966991,74.5303301 L13.6328735,84.8907826 L14.2,85.5461287 L14.7671265,84.8907826 L23.7671265,74.4907826 C29.0232233,69.2374369 29.0232233,60.7625631 23.7303301,55.4696699 L23.7303301,55.4696699 Z M22.6696699,56.5303301 C27.3767767,61.2374369 27.3767767,68.7625631 22.6696699,73.4696699 L13.6328735,83.9092174 L14.7671265,83.9092174 L5.76712651,73.5092174 C1.0232233,68.7625631 1.0232233,61.2374369 5.73033009,56.5303301 C10.4374369,51.8232233 17.9625631,51.8232233 22.6696699,56.5303301 L22.6696699,56.5303301 Z M14.2,70.05 C11.4142136,70.05 9.15,67.7857864 9.15,65 C9.15,62.2142136 11.4142136,59.95 14.2,59.95 C16.9857864,59.95 19.25,62.2142136 19.25,65 C19.25,67.7857864 16.9857864,70.05 14.2,70.05 L14.2,70.05 Z M14.2,71.55 C17.8142136,71.55 20.75,68.6142136 20.75,65 C20.75,61.3857864 17.8142136,58.45 14.2,58.45 C10.5857864,58.45 7.65,61.3857864 7.65,65 C7.65,68.6142136 10.5857864,71.55 14.2,71.55 L14.2,71.55 Z M128.13033,4.06966991 C122.837437,-1.2232233 114.362563,-1.2232233 109.06967,4.06966991 C103.776777,9.36256313 103.776777,17.8374369 109.06967,23.1303301 L118.032873,33.4907826 L118.6,34.1461287 L119.167127,33.4907826 L128.167127,23.0907826 C133.423223,17.8374369 133.423223,9.36256313 128.13033,4.06966991 L128.13033,4.06966991 Z M127.06967,5.13033009 C131.776777,9.83743687 131.776777,17.3625631 127.06967,22.0696699 L118.032873,32.5092174 L119.167127,32.5092174 L110.167127,22.1092174 C105.423223,17.3625631 105.423223,9.83743687 110.13033,5.13033009 C114.837437,0.423223305 122.362563,0.423223305 127.06967,5.13033009 L127.06967,5.13033009 Z M118.6,18.65 C115.814214,18.65 113.55,16.3857864 113.55,13.6 C113.55,10.8142136 115.814214,8.55 118.6,8.55 C121.385786,8.55 123.65,10.8142136 123.65,13.6 C123.65,16.3857864 121.385786,18.65 118.6,18.65 L118.6,18.65 Z M118.6,20.15 C122.214214,20.15 125.15,17.2142136 125.15,13.6 C125.15,9.98578644 122.214214,7.05 118.6,7.05 C114.985786,7.05 112.05,9.98578644 112.05,13.6 C112.05,17.2142136 114.985786,20.15 118.6,20.15 L118.6,20.15 Z M14.2,98.25 C12.6472988,98.25 11.1995093,97.1882877 10.7183697,95.5844891 C10.2020872,93.6905478 11.3007269,91.5979006 13.1819017,91.1276069 L74.4116247,73.1195241 L76.5142346,72.5011095 L74.4735709,71.7016742 L55.0735709,64.1016742 C53.6507366,63.6263428 52.75,62.2041271 52.75,60.6 C52.75,59.1956991 53.8680976,57.8345369 55.4371708,57.3115125 L117.801449,39.922439 C119.6694,39.4130106 121.632848,40.4702521 122.288488,42.4371708 C122.779577,44.4106373 121.782234,46.2153524 119.762829,46.8884875 L69.7977776,60.877777 L67.6540597,61.478018 L69.7239637,62.297355 L88.9239637,69.897355 C90.3492634,70.3736572 91.25,71.7958729 91.25,73.4 C91.25,74.8043009 90.1319024,76.1654631 88.5628292,76.6884875 L15.3877369,98.2806639 L15.6,99 L15.8371708,98.2884875 C15.3645423,98.1309447 15.021097,98.1309447 14.4904355,98.2147333 C14.3081427,98.2435164 14.2555535,98.25 14.2,98.25 L14.2,98.25 L14.2,98.25 Z M14.2,99.75 L14.2,99.75 C14.3641996,99.75 14.458061,99.738428 14.7243793,99.6963778 C15.0381623,99.6468331 15.1687911,99.6468331 15.3628292,99.7115125 L15.5863174,99.7860086 L15.8122631,99.7193361 L89.0122631,78.1193361 C91.1861303,77.3951926 92.75,75.4913513 92.75,73.4 C92.75,71.1830745 91.4732718,69.1671879 89.4371708,68.4884875 L70.2760363,60.902645 L70.2022224,62.322223 L120.202222,48.322223 C122.998411,47.3910992 124.425341,44.8090348 123.727607,42.0180983 C122.804652,39.2422479 120.044394,37.7559549 117.402662,38.4764271 L54.9985507,55.877561 C52.8138697,56.6048074 51.25,58.5086487 51.25,60.6 C51.25,62.8169255 52.5267282,64.8328121 54.5628292,65.5115125 L73.9264291,73.0983258 L73.9883753,71.6804759 L12.7883753,89.6804759 C10.0892011,90.3546174 8.54150257,93.3026146 9.27642713,95.9973381 C9.95433686,98.2578661 11.9890648,99.75 14.2,99.75 L14.2,99.75 Z" id="maping" fill="#8D3D3C"></path>
    </g>
</svg>