<?xml version="1.0" encoding="UTF-8" standalone="no"?>
<svg width="133px" height="100px" viewBox="0 0 133 100" version="1.1" xmlns="http://www.w3.org/2000/svg" xmlns:xlink="http://www.w3.org/1999/xlink" xmlns:sketch="http://www.bohemiancoding.com/sketch/ns">
    <!-- Generator: Sketch 3.5.2 (25235) - http://www.bohemiancoding.com/sketch -->
    <title>mapping</title>
    <desc>Created with Sketch.</desc>
    <defs></defs>
    <g id="Page-1" stroke="none" stroke-width="1" fill="none" fill-rule="evenodd" sketch:type="MSPage">
        <path d="M23.2,56 C18.2,51 10.2,51 5.2,56 C0.2,61 0.2,69 5.2,74 L14.2,84.4 L23.2,74 L23.2,74 C28.2,69 28.2,61 23.2,56 L23.2,56 Z M14.2,70.8 C11,70.8 8.4,68.2 8.4,65 C8.4,61.8 11,59.2 14.2,59.2 C17.4,59.2 20,61.8 20,65 C20,68.2 17.4,70.8 14.2,70.8 Z M127.6,4.6 C122.6,-0.4 114.6,-0.4 109.6,4.6 C104.6,9.6 104.6,17.6 109.6,22.6 L118.6,33 L127.6,22.6 C132.6,17.6 132.6,9.6 127.6,4.6 Z M118.6,19.4 C115.4,19.4 112.8,16.8 112.8,13.6 C112.8,10.4 115.4,7.8 118.6,7.8 C121.8,7.8 124.4,10.4 124.4,13.6 C124.4,16.8 121.8,19.4 118.6,19.4 Z M14.2,99 C12.4,99 10.6,97.8 10,95.8 C9.4,93.6 10.6,91 13,90.4 L74.2,72.4 L54.8,64.8 C53,64.2 52,62.4 52,60.6 C52,58.8 53.4,57.2 55.2,56.6 L117.6,39.2 C119.8,38.6 122.2,39.8 123,42.2 C123.6,44.6 122.4,46.8 120,47.6 L70,61.6 L89.2,69.2 C91,69.8 92,71.6 92,73.4 C92,75.2 90.6,76.8 88.8,77.4 L15.6,99 C15,98.8 14.6,99 14.2,99 Z" id="mapping" stroke="#954936" stroke-width="1.5" sketch:type="MSShapeGroup"></path>
    </g>
</svg>