<?xml version="1.0" encoding="UTF-8" standalone="no"?>
<svg width="133px" height="97px" viewBox="0 0 133 97" version="1.1" xmlns="http://www.w3.org/2000/svg" xmlns:xlink="http://www.w3.org/1999/xlink">
    <!-- Generator: Sketch 3.6.1 (26313) - http://www.bohemiancoding.com/sketch -->
    <title>prototype</title>
    <desc>Created with Sketch.</desc>
    <defs></defs>
    <g id="Page-1" stroke="none" stroke-width="1" fill="none" fill-rule="evenodd">
        <path d="M2,19 L2,95 L131,95 L131,19 L2,19 Z M2,18 L2,5.99609375 C2,3.78911211 3.79895913,2 6.00217021,2 L126.99783,2 C129.208167,2 131,3.79532688 131,5.99609375 L131,18 L2,18 Z M133,5.99458241 C133,2.68386596 130.313219,0 127.005135,0 L5.99486533,0 C2.68399263,0 0,2.6955746 0,5.99458241 L0,97 L133,97 L133,5.99458241 Z M11.5,13 C12.8807119,13 14,11.8807119 14,10.5 C14,9.11928813 12.8807119,8 11.5,8 C10.1192881,8 9,9.11928813 9,10.5 C9,11.8807119 10.1192881,13 11.5,13 Z M19.5,13 C20.8807119,13 22,11.8807119 22,10.5 C22,9.11928813 20.8807119,8 19.5,8 C18.1192881,8 17,9.11928813 17,10.5 C17,11.8807119 18.1192881,13 19.5,13 Z M27.5,13 C28.8807119,13 30,11.8807119 30,10.5 C30,9.11928813 28.8807119,8 27.5,8 C26.1192881,8 25,9.11928813 25,10.5 C25,11.8807119 26.1192881,13 27.5,13 Z M46.9994146,14 C44.7905989,14 43,12.2046438 43,10 C43,7.790861 44.7977484,6 46.9994146,6 L111.000585,6 C113.209401,6 115,7.79535615 115,10 C115,12.209139 113.202252,14 111.000585,14 L46.9994146,14 Z M47.0078125,13 C45.3466435,13 44,11.6534829 44,10 C44,8.34314575 45.3358366,7 47.0078125,7 L110.992188,7 C112.653356,7 114,8.34651712 114,10 C114,11.6568542 112.664163,13 110.992188,13 L47.0078125,13 Z M49,25 L18,25 L18,56 L49,56 L49,25 Z M47,27 L47,54 L20,54 L20,27 L47,27 Z M34,34 C35.4291667,34 37,35.5708333 37,38 C37,39.4291667 35.4291667,41 34,41 C31.5708333,41 30,39.4291667 30,38 C30,35.5708333 31.5708333,34 34,34 Z M37,43 L34,46 L30,43 C24.9421524,44.3724573 25.0000169,48.9999994 25,49 L33,49 L42,49 C42.0018442,49.002 42.0617753,44.3724573 37,43 Z M57,32 L102,32 L102,35 L57,35 L57,32 Z M57,43 L102,43 L102,46 L57,46 L57,43 Z M114,57 L83,57 L83,88 L114,88 L114,57 Z M112,59 L112,86 L85,86 L85,59 L112,59 Z M99,66 C100.429167,66 102,67.5708333 102,70 C102,71.4291667 100.429167,73 99,73 C96.5708333,73 95,71.4291667 95,70 C95,67.5708333 96.5708333,66 99,66 Z M102,75 L99,78 L95,75 C89.9421531,76.3724575 90.0000169,81 90,81 L98,81 L107,81 C107.003686,81 107.06155,76.3724575 102,75 Z M32,67 L77,67 L77,70 L32,70 L32,67 Z M32,78 L77,78 L77,81 L32,81 L32,78 Z" id="prototype" fill="#B13C2A"></path>
    </g>
</svg>