<?xml version="1.0" encoding="UTF-8" standalone="no"?>
<svg width="116px" height="76px" viewBox="0 0 116 76" version="1.1" xmlns="http://www.w3.org/2000/svg" xmlns:xlink="http://www.w3.org/1999/xlink">
    <!-- Generator: Sketch 3.6.1 (26313) - http://www.bohemiancoding.com/sketch -->
    <title>wireframes</title>
    <desc>Created with Sketch.</desc>
    <defs></defs>
    <g id="Page-1" stroke="none" stroke-width="1" fill="none" fill-rule="evenodd">
        <path d="M3.99484381,0 C1.7885525,0 0,1.78185079 0,3.99484381 L0,34.0051562 C0,36.2114475 1.78185079,38 3.99484381,38 L34.0051562,38 C36.2114475,38 38,36.2181492 38,34.0051562 L38,3.99484381 C38,1.7885525 36.2181492,0 34.0051562,0 L3.99484381,0 Z M36,32.9976416 C36,34.6557983 34.6566876,36 32.9976416,36 L5.00235843,36 C3.34420165,36 2,34.6566876 2,32.9976416 L2,5.00235843 C2,3.34420165 3.34331243,2 5.00235843,2 L32.9976416,2 C34.6557983,2 36,3.34331243 36,5.00235843 L36,32.9976416 Z M46,8 L100,8 L100,12 L46,12 L46,8 Z M46,21 L100,21 L100,25 L46,25 L46,21 Z M81.9948438,38 C79.7885525,38 78,39.7818508 78,41.9948438 L78,72.0051562 C78,74.2114475 79.7818508,76 81.9948438,76 L112.005156,76 C114.211448,76 116,74.2181492 116,72.0051562 L116,41.9948438 C116,39.7885525 114.218149,38 112.005156,38 L81.9948438,38 Z M114,40 C114,40 114,41.3433124 114,43.0023584 L114,70.9976416 C114,72.6557983 112.656688,74 110.997642,74 L83.0023584,74 C81.3442017,74 80,72.6566876 80,70.9976416 L80,43.0023584 C80,41.3442017 81.3433124,40 83.0023584,40 L110.997642,40 C112.655798,40 114,40 114,40 Z M16,51 L70,51 L70,55 L16,55 L16,51 Z M16,63 L70,63 L70,67 L16,67 L16,63 Z" id="wireframes" fill="#C33C21"></path>
    </g>
</svg>