<?xml version="1.0" encoding="utf-8"?>
<!-- Generator: Adobe Illustrator 19.0.0, SVG Export Plug-In . SVG Version: 6.00 Build 0)  -->
<svg version="1.1" xmlns="http://www.w3.org/2000/svg" xmlns:xlink="http://www.w3.org/1999/xlink" x="0px" y="0px"
	 viewBox="-35 37 128 128" style="enable-background:new -35 37 128 128;" xml:space="preserve">
<style type="text/css">
	.st0{fill:#FFAB00;}
	.st1{fill:#37474F;}
	.st2{fill:#FFECB3;}
	.st3{fill:none;}
	.st4{fill:#FFFFFF;}
</style>
<g id="Layer_1">
	<g>
		<g>
			<g>
				<rect x="-27.9" y="57.9" class="st0" width="102.5" height="95.8"/>
				<path class="st1" d="M74.6,155.2H-27.9c-0.8,0-1.4-0.7-1.4-1.4V57.9c0-0.8,0.7-1.4,1.4-1.4H74.6c0.8,0,1.4,0.7,1.4,1.4v95.8
					C76,154.5,75.3,155.2,74.6,155.2z M-26.5,152.3h99.6v-93h-99.6V152.3z"/>
			</g>
			<g>
				<g>
					<g>
						<rect x="-33.6" y="57.9" class="st2" width="15.2" height="15.2"/>
						<path class="st1" d="M-18.4,74.5h-15.2c-0.8,0-1.4-0.7-1.4-1.4V57.9c0-0.8,0.7-1.4,1.4-1.4h15.2c0.8,0,1.4,0.7,1.4,1.4v15.2
							C-17,73.9-17.6,74.5-18.4,74.5z M-32.2,71.7h12.3V59.3h-12.3V71.7z"/>
					</g>
					<g>
						<rect x="-33.6" y="74" class="st2" width="15.2" height="15.2"/>
						<path class="st1" d="M-18.4,90.6h-15.2c-0.8,0-1.4-0.7-1.4-1.4V74c0-0.8,0.7-1.4,1.4-1.4h15.2c0.8,0,1.4,0.7,1.4,1.4v15.2
							C-17,90-17.6,90.6-18.4,90.6z M-32.2,87.8h12.3V75.5h-12.3V87.8z"/>
					</g>
					<g>
						<rect x="-33.6" y="90.2" class="st2" width="15.2" height="15.2"/>
						<path class="st1" d="M-18.4,106.8h-15.2c-0.8,0-1.4-0.7-1.4-1.4V90.2c0-0.8,0.7-1.4,1.4-1.4h15.2c0.8,0,1.4,0.7,1.4,1.4v15.2
							C-17,106.1-17.6,106.8-18.4,106.8z M-32.2,103.9h12.3V91.6h-12.3V103.9z"/>
					</g>
					<g>
						<rect x="-33.6" y="106.3" class="st2" width="15.2" height="15.2"/>
						<path class="st1" d="M-18.4,122.9h-15.2c-0.8,0-1.4-0.7-1.4-1.4v-15.2c0-0.8,0.7-1.4,1.4-1.4h15.2c0.8,0,1.4,0.7,1.4,1.4v15.2
							C-17,122.2-17.6,122.9-18.4,122.9z M-32.2,120.1h12.3v-12.3h-12.3V120.1z"/>
					</g>
					<g>
						<rect x="-33.6" y="122.4" class="st2" width="15.2" height="15.2"/>
						<path class="st1" d="M-18.4,139h-15.2c-0.8,0-1.4-0.7-1.4-1.4v-15.2c0-0.8,0.7-1.4,1.4-1.4h15.2c0.8,0,1.4,0.7,1.4,1.4v15.2
							C-17,138.4-17.6,139-18.4,139z M-32.2,136.2h12.3v-12.3h-12.3V136.2z"/>
					</g>
					<g>
						<rect x="-33.6" y="138.6" class="st2" width="15.2" height="15.2"/>
						<path class="st1" d="M-18.4,155.2h-15.2c-0.8,0-1.4-0.7-1.4-1.4v-15.2c0-0.8,0.7-1.4,1.4-1.4h15.2c0.8,0,1.4,0.7,1.4,1.4v15.2
							C-17,154.5-17.6,155.2-18.4,155.2z M-32.2,152.3h12.3V140h-12.3V152.3z"/>
					</g>
				</g>
				<g>
					<g>
						<rect x="65.1" y="57.9" class="st2" width="15.2" height="15.2"/>
						<path class="st1" d="M80.3,74.5H65.1c-0.8,0-1.4-0.7-1.4-1.4V57.9c0-0.8,0.7-1.4,1.4-1.4h15.2c0.8,0,1.4,0.7,1.4,1.4v15.2
							C81.7,73.9,81,74.5,80.3,74.5z M66.5,71.7h12.3V59.3H66.5V71.7z"/>
					</g>
					<g>
						<rect x="65.1" y="74" class="st2" width="15.2" height="15.2"/>
						<path class="st1" d="M80.3,90.6H65.1c-0.8,0-1.4-0.7-1.4-1.4V74c0-0.8,0.7-1.4,1.4-1.4h15.2c0.8,0,1.4,0.7,1.4,1.4v15.2
							C81.7,90,81,90.6,80.3,90.6z M66.5,87.8h12.3V75.5H66.5V87.8z"/>
					</g>
					<g>
						<rect x="65.1" y="90.2" class="st2" width="15.2" height="15.2"/>
						<path class="st1" d="M80.3,106.8H65.1c-0.8,0-1.4-0.7-1.4-1.4V90.2c0-0.8,0.7-1.4,1.4-1.4h15.2c0.8,0,1.4,0.7,1.4,1.4v15.2
							C81.7,106.1,81,106.8,80.3,106.8z M66.5,103.9h12.3V91.6H66.5V103.9z"/>
					</g>
					<g>
						<rect x="65.1" y="106.3" class="st2" width="15.2" height="15.2"/>
						<path class="st1" d="M80.3,122.9H65.1c-0.8,0-1.4-0.7-1.4-1.4v-15.2c0-0.8,0.7-1.4,1.4-1.4h15.2c0.8,0,1.4,0.7,1.4,1.4v15.2
							C81.7,122.2,81,122.9,80.3,122.9z M66.5,120.1h12.3v-12.3H66.5V120.1z"/>
					</g>
					<g>
						<rect x="65.1" y="122.4" class="st2" width="15.2" height="15.2"/>
						<path class="st1" d="M80.3,139H65.1c-0.8,0-1.4-0.7-1.4-1.4v-15.2c0-0.8,0.7-1.4,1.4-1.4h15.2c0.8,0,1.4,0.7,1.4,1.4v15.2
							C81.7,138.4,81,139,80.3,139z M66.5,136.2h12.3v-12.3H66.5V136.2z"/>
					</g>
					<g>
						<rect x="65.1" y="138.6" class="st2" width="15.2" height="15.2"/>
						<path class="st1" d="M80.3,155.2H65.1c-0.8,0-1.4-0.7-1.4-1.4v-15.2c0-0.8,0.7-1.4,1.4-1.4h15.2c0.8,0,1.4,0.7,1.4,1.4v15.2
							C81.7,154.5,81,155.2,80.3,155.2z M66.5,152.3h12.3V140H66.5V152.3z"/>
					</g>
				</g>
			</g>
			<g>
				<g>
					<g>
						<g>
							<path class="st2" d="M13.5,125.3c1.8,2.8,0,7.2-4.1,9.8c-4,2.5-8.7,2.3-10.5-0.7c-1.8-2.8,0-7.2,4-9.8
								C6.9,122.1,11.7,122.4,13.5,125.3z"/>
							<path class="st1" d="M3.8,138.2c-2.7,0-4.9-1.1-6.1-3c-2.3-3.6-0.3-8.7,4.5-11.7c2-1.2,4.3-1.9,6.4-1.9c2.7,0,4.9,1.1,6.1,3
								c2.3,3.5,0.3,8.7-4.5,11.7C8.2,137.5,5.9,138.2,3.8,138.2z M8.5,124.4c-1.6,0-3.3,0.6-4.8,1.5c-3.3,2.1-4.9,5.6-3.6,7.8
								c0.7,1,2,1.7,3.7,1.7c1.6,0,3.3-0.6,4.8-1.5c3.3-2.1,4.9-5.6,3.6-7.8C11.6,125,10.3,124.4,8.5,124.4z"/>
						</g>
						<g>
							<line class="st3" x1="13.9" y1="88.8" x2="13.9" y2="125.7"/>
							<path class="st1" d="M13.9,127.2c-0.8,0-1.4-0.7-1.4-1.4v-37c0-0.8,0.7-1.4,1.4-1.4s1.4,0.7,1.4,1.4v37
								C15.3,126.5,14.6,127.2,13.9,127.2z"/>
						</g>
					</g>
				</g>
				<g>
					<g>
						<g>
							<path class="st2" d="M47.6,115.4c1.8,2.8,0,7.2-4.1,9.7c-4,2.5-8.7,2.3-10.5-0.7c-1.8-2.8,0-7.2,4.1-9.7
								C41.1,112.3,45.8,112.5,47.6,115.4z"/>
							<path class="st1" d="M38,128.2c-2.7,0-4.9-1.1-6.1-3c-1.1-1.8-1.2-4-0.3-6.3c0.9-2.1,2.6-4,4.7-5.4c2-1.2,4.3-2,6.4-2
								c2.7,0,4.9,1.1,6.1,3c1.1,1.8,1.2,4,0.3,6.3c-0.9,2.1-2.6,4-4.7,5.4C42.3,127.6,40,128.2,38,128.2z M42.7,114.5
								c-1.6,0-3.3,0.6-4.8,1.5c-1.7,1-3,2.5-3.6,4.1c-0.6,1.4-0.6,2.8,0,3.7c0.7,1,2,1.7,3.7,1.7c1.6,0,3.3-0.6,4.8-1.5
								c1.7-1,3-2.5,3.6-4.1c0.6-1.4,0.6-2.8-0.1-3.7C45.7,115,44.4,114.5,42.7,114.5z"/>
						</g>
						<g>
							<line class="st3" x1="48" y1="78.3" x2="48" y2="116.3"/>
							<path class="st1" d="M48,117.7c-0.8,0-1.4-0.7-1.4-1.4V78.3c0-0.8,0.7-1.4,1.4-1.4s1.4,0.7,1.4,1.4v37.9
								C49.4,117,48.8,117.7,48,117.7z"/>
						</g>
					</g>
				</g>
				<g>
					<polyline class="st2" points="14,88.1 48,74.9 48,80.2 					"/>
					<path class="st1" d="M14,89.5c-0.6,0-1.1-0.4-1.3-0.9c-0.3-0.8,0.1-1.5,0.9-1.8l34.1-13.2c0.5-0.2,0.9-0.1,1.3,0.2
						c0.4,0.3,0.7,0.7,0.7,1.1v5.3c0,0.8-0.7,1.4-1.4,1.4s-1.4-0.7-1.4-1.4V77L14.4,89.4C14.2,89.5,14.1,89.5,14,89.5z"/>
				</g>
				<g>
					<polyline class="st2" points="14,97.3 48,85 48,89.7 					"/>
					<path class="st1" d="M14,98.7c-0.6,0-1.1-0.4-1.3-0.9c-0.3-0.8,0.1-1.5,0.9-1.8l34.1-12.3c0.5-0.2,0.9-0.1,1.3,0.2
						c0.4,0.3,0.6,0.7,0.6,1.1v4.7c0,0.8-0.7,1.4-1.4,1.4s-1.4-0.7-1.4-1.4V87L14.4,98.6C14.2,98.7,14.1,98.7,14,98.7z"/>
				</g>
			</g>
		</g>
		<g>
			<g>
				<path class="st1" d="M1.6,110.3c1.1,0,2.1,0.9,2.1,2.1s-0.9,2.1-2.1,2.1s-2.1-0.9-2.1-2.1C-0.6,111.2,0.4,110.3,1.6,110.3z"/>
				<path class="st1" d="M1.6,114.9c-1.4,0-2.6-1.1-2.6-2.6s1.1-2.6,2.6-2.6s2.6,1.1,2.6,2.6S3,114.9,1.6,114.9z M1.6,110.8
					c-0.9,0-1.6,0.8-1.6,1.6c0,0.9,0.8,1.6,1.6,1.6s1.6-0.8,1.6-1.6C3.2,111.5,2.5,110.8,1.6,110.8z"/>
			</g>
			<g>
				<path class="st1" d="M1.6,95.6c1.1,0,2.1,0.9,2.1,2.1c0,1.2-0.9,2.2-2.1,2.2s-2.1-0.9-2.1-2.2C-0.6,96.4,0.4,95.6,1.6,95.6z"/>
				<path class="st1" d="M1.6,100.2c-1.4,0-2.6-1.1-2.6-2.7c0-1.4,1.1-2.6,2.6-2.6s2.6,1.1,2.6,2.6C4.2,99.1,3,100.2,1.6,100.2z
					 M1.6,96.1c-0.9,0-1.6,0.8-1.6,1.6c0,0.9,0.8,1.7,1.6,1.7s1.6-0.8,1.6-1.7S2.5,96.1,1.6,96.1z"/>
			</g>
			<g>
				<path class="st1" d="M1.6,80.8c1.1,0,2.1,0.9,2.1,2.1C3.7,84,2.8,85,1.6,85s-2.1-0.9-2.1-2.1C-0.6,81.7,0.4,80.8,1.6,80.8z"/>
				<path class="st1" d="M1.6,85.5c-1.4,0-2.6-1.1-2.6-2.6c0-1.4,1.1-2.6,2.6-2.6s2.6,1.1,2.6,2.6C4.2,84.3,3,85.5,1.6,85.5z
					 M1.6,81.3C0.7,81.3,0,82,0,82.9c0,0.9,0.8,1.6,1.6,1.6s1.6-0.8,1.6-1.6S2.5,81.3,1.6,81.3z"/>
			</g>
		</g>
	</g>
</g>
<g id="Layer_2">
	<g>
		<path class="st0" d="M71.2,52.2c-9,0-16.4,7.4-16.4,16.4S62.2,85,71.2,85s16.4-7.4,16.4-16.4S80.3,52.2,71.2,52.2z M79.4,70h-6.8
			v6.8h-2.8V70h-6.8v-2.8h6.8v-6.8h2.8v6.8h6.8V70z"/>
		<path class="st1" d="M71.2,50.6c-9.9,0-18,8.1-18,18s8.1,18,18,18s18-8.1,18-18S81.2,50.6,71.2,50.6z M71.2,85
			c-9,0-16.4-7.4-16.4-16.4s7.4-16.4,16.4-16.4s16.4,7.4,16.4,16.4S80.3,85,71.2,85z"/>
		<path class="st4" d="M71.2,46.8c-12,0-21.8,9.8-21.8,21.8s9.8,21.8,21.8,21.8S93,80.6,93,68.6S83.2,46.8,71.2,46.8z M71.2,86.7
			c-9.9,0-18-8.1-18-18s8.1-18,18-18s18,8.1,18,18S81.2,86.7,71.2,86.7z"/>
		<polygon class="st4" points="72.6,60.5 69.8,60.5 69.8,67.2 63.1,67.2 63.1,70 69.8,70 69.8,76.8 72.6,76.8 72.6,70 79.4,70 
			79.4,67.2 72.6,67.2 		"/>
	</g>
</g>
</svg>
