<?xml version="1.0" encoding="UTF-8"?>
<svg width="59px" height="25px" viewBox="0 0 59 25" version="1.1" xmlns="http://www.w3.org/2000/svg" xmlns:xlink="http://www.w3.org/1999/xlink">
    <!-- Generator: Sketch 47.1 (45422) - http://www.bohemiancoding.com/sketch -->
    <title>Ambulance</title>
    <desc>Created with Sketch.</desc>
    <defs></defs>
    <style>

		#wheel1, #wheel2 {
		transform-origin: center;
		animation: rotate 0.6s linear infinite;
		-webkit-animation: rotate 0.6s linear infinite;
		}

		#wheel2 {
		animation-delay: 0.3s;
		-webkit-animation-delay: 0.3s;
		}

		#line {
		animation: draw-line 4s infinite;
		-webkit-animation: draw-line 4s infinite;
		}

		@keyframes rotate {
		0% {
		transform: rotate(0deg);
		}
		100% {
		transform: rotate(-360deg);
		}
		}

		@webkit-keyframes rotate {
		0% {
		transform: rotate(0deg);
		}
		100% {
		transform: rotate(-360deg);
		}
		}

		@keyframes draw-line {
		0% {
		transform-origin: left;
		transform: scaleX(1) translateX(-120px);
		}
		54% {
		transform-origin: left;
		transform: scale(1) translateX(-67.2px);
		}
		56% {
		transform-origin: right;
		transform: scale(1) translateX(-64.8px);
		}
		100% {
		transform-origin: right;
		transform: scaleX(0) translate(0px)
		}
		}

	</style>
    <g id="Page-1" stroke="none" stroke-width="1" fill="none" fill-rule="evenodd">
        <g id="Ambulance" fill-rule="nonzero">
            <g id="Group" transform="translate(13.000000, 18.000000)">
                <rect id="Rectangle-path" fill="#B0BEC5" x="1" y="0.5" width="30" height="2"></rect>
                <path d="M31,3 L1,3 C0.7,3 0.5,2.8 0.5,2.5 L0.5,0.5 C0.5,0.2 0.7,0 1,0 L31,0 C31.3,0 31.5,0.2 31.5,0.5 L31.5,2.5 C31.5,2.8 31.3,3 31,3 Z M1.5,2 L30.5,2 L30.5,1 L1.5,1 L1.5,2 Z" id="Shape" fill="#37474F"></path>
            </g>
            <g id="Group" transform="translate(13.000000, 3.000000)">
                <polygon id="Shape" fill="#FFFFFF" points="5.9 0.5 1 10 1 15.5 31 15.5 31 0.5"></polygon>
                <path d="M31,16 L1,16 C0.7,16 0.5,15.8 0.5,15.5 L0.5,10 C0.5,9.9 0.5,9.8 0.6,9.8 L5.5,0.3 C5.6,0.1 5.7,0 5.9,0 L31,0 C31.3,0 31.5,0.2 31.5,0.5 L31.5,15.5 C31.5,15.8 31.3,16 31,16 Z M1.5,15 L30.5,15 L30.5,1 L6.2,1 L1.5,10.2 L1.5,15 Z" id="Shape" fill="#37474F"></path>
            </g>
            <g id="Group" transform="translate(16.000000, 15.000000)">
                <g id="Shape" fill="#37474F">
                    <path d="M8.7,4.9 C8.7,6.9 7.1,8.6 5,8.6 C2.9,8.6 1.3,7 1.3,4.9 C1.3,2.9 2.9,1.2 5,1.2 C7.1,1.2 8.7,2.9 8.7,4.9 Z"></path>
                    <path d="M5,9.1 C2.7,9.1 0.8,7.2 0.8,4.9 C0.8,2.6 2.7,0.7 5,0.7 C7.3,0.7 9.2,2.6 9.2,4.9 C9.2,7.2 7.3,9.1 5,9.1 Z M5,1.8 C3.3,1.8 1.8,3.2 1.8,5 C1.8,6.7 3.2,8.2 5,8.2 C6.7,8.2 8.2,6.8 8.2,5 C8.2,3.2 6.7,1.8 5,1.8 Z"></path>
                </g>
                <g id="wheel1">
	                <path d="M2.8,5 C2.5,5 2.3,4.8 2.3,4.5 C2.3,3.2 3.3,2.2 4.6,2.2 C4.9,2.2 5.1,2.4 5.1,2.7 C5.1,3 4.9,3.2 4.6,3.2 C3.9,3.2 3.3,3.8 3.3,4.5 C3.3,4.8 3.1,5 2.8,5 Z" id="Shape" fill="#B0BEC5"></path>
	                <path d="M5.4,7.5 C5.1,7.5 4.9,7.3 4.9,7 C4.9,6.7 5.1,6.5 5.4,6.5 C6.1,6.5 6.7,5.9 6.7,5.2 C6.7,4.9 6.9,4.7 7.2,4.7 C7.5,4.7 7.7,4.9 7.7,5.2 C7.7,6.5 6.6,7.5 5.4,7.5 Z" id="Shape" fill="#B0BEC5"></path>
		        </g>
            </g>
            <g id="Group" transform="translate(33.000000, 15.000000)">
                <g id="Shape" fill="#37474F">
                    <path d="M8.3,3.6 C9,5.5 8.1,7.6 6.2,8.3 C4.3,9 2.2,8.1 1.5,6.2 C0.8,4.3 1.7,2.2 3.6,1.5 C5.4,0.8 7.6,1.7 8.3,3.6 Z"></path>
                    <path d="M4.8,9.1 C3.1,9.1 1.5,8 0.9,6.4 C0.1,4.3 1.2,1.8 3.3,1 C3.8,0.8 4.3,0.7 4.8,0.7 C6.5,0.7 8.1,1.8 8.7,3.4 C9.5,5.5 8.4,8 6.3,8.8 C5.9,9 5.4,9.1 4.8,9.1 Z M4.8,1.8 C4.4,1.8 4,1.9 3.7,2 C2.1,2.6 1.2,4.5 1.9,6.1 C2.4,7.3 3.6,8.1 4.9,8.1 C5.3,8.1 5.7,8 6,7.9 C7.6,7.3 8.5,5.4 7.8,3.8 C7.3,2.6 6.2,1.8 4.8,1.8 Z"></path>
                </g>
                <g id="wheel2">
	                <path d="M2.2,5.5 C1.7,4.3 2.3,3 3.5,2.5 C3.8,2.4 4,2.5 4.1,2.8 C4.2,3.1 4.1,3.3 3.8,3.4 C3.1,3.7 2.8,4.4 3,5.1 C3.1,5.4 3,5.6 2.7,5.7 C2.49926598,5.74086861 2.3,5.7 2.2,5.5 Z" id="Shape" fill="#B0BEC5"></path>
	                <path d="M5.9,7.3 C5.7,7.3 5.5,7.2 5.4,7 C5.3,6.7 5.4,6.5 5.7,6.4 C6,6.3 6.3,6 6.4,5.7 C6.5,5.4 6.5,5 6.4,4.7 C6.3,4.4 6.4,4.2 6.7,4.1 C7,4 7.2,4.1 7.3,4.4 C7.5,5 7.5,5.6 7.3,6.2 C7.1,6.8 6.25999015,7.3 5.9,7.3 Z" id="Shape" fill="#B0BEC5"></path>
		        </g>
            </g>
            <g id="Group" transform="translate(13.000000, 13.000000)">
                <rect id="Rectangle-path" fill="#FFAB00" x="1" y="0.5" width="3" height="2"></rect>
                <path d="M4,3 L1,3 C0.7,3 0.5,2.8 0.5,2.5 L0.5,0.5 C0.5,0.2 0.7,0 1,0 L4,0 C4.3,0 4.5,0.2 4.5,0.5 L4.5,2.5 C4.5,2.8 4.3,3 4,3 Z M1.5,2 L3.5,2 L3.5,1 L1.5,1 L1.5,2 Z" id="Shape" fill="#37474F"></path>
            </g>
            <g id="Group" transform="translate(41.000000, 13.000000)">
                <rect id="Rectangle-path" fill="#FFAB00" x="1.1" y="0.7" width="2" height="2"></rect>
                <path d="M3.1,3.2 L1.1,3.2 C0.8,3.2 0.6,3 0.6,2.7 L0.6,0.7 C0.6,0.4 0.8,0.2 1.1,0.2 L3.1,0.2 C3.4,0.2 3.6,0.4 3.6,0.7 L3.6,2.7 C3.6,3 3.3,3.2 3.1,3.2 Z M1.6,2.2 L2.6,2.2 L2.6,1.2 L1.6,1.2 L1.6,2.2 Z" id="Shape" fill="#37474F"></path>
            </g>
            <g id="Group" transform="translate(15.000000, 5.000000)">
                <polyline id="Shape" fill="#B0BEC5" points="0.5 5.5 6 5.5 6 0.5 4.5 0.5"></polyline>
                <path d="M6,6 L0.5,6 C0.2,6 0,5.8 0,5.5 C0,5.2 0.2,5 0.5,5 L5.5,5 L5.5,1 L4.5,1 C4.2,1 4,0.8 4,0.5 C4,0.2 4.2,0 4.5,0 L6,0 C6.3,0 6.5,0.2 6.5,0.5 L6.5,5.5 C6.5,5.8 6.3,6 6,6 Z" id="Shape" fill="#37474F"></path>
            </g>
            <g id="Group" transform="translate(23.000000, 6.000000)">
                <path d="M0.5,0.5 L2.5,0.5" id="Shape" fill="#B0BEC5"></path>
                <path d="M2.5,1 L0.5,1 C0.2,1 0,0.8 0,0.5 C0,0.2 0.2,0 0.5,0 L2.5,0 C2.8,0 3,0.2 3,0.5 C3,0.8 2.8,1 2.5,1 Z" id="Shape" fill="#37474F"></path>
            </g>
            <g id="Group" transform="translate(23.000000, 8.000000)">
                <path d="M0.5,0.5 L2.5,0.5" id="Shape" fill="#B0BEC5"></path>
                <path d="M2.5,1 L0.5,1 C0.2,1 0,0.8 0,0.5 C0,0.2 0.2,0 0.5,0 L2.5,0 C2.8,0 3,0.2 3,0.5 C3,0.8 2.8,1 2.5,1 Z" id="Shape" fill="#37474F"></path>
            </g>
            <g id="Group" transform="translate(23.000000, 10.000000)">
                <path d="M0.5,0.5 L2.5,0.5" id="Shape" fill="#B0BEC5"></path>
                <path d="M2.5,1 L0.5,1 C0.2,1 0,0.8 0,0.5 C0,0.2 0.2,0 0.5,0 L2.5,0 C2.8,0 3,0.2 3,0.5 C3,0.8 2.8,1 2.5,1 Z" id="Shape" fill="#37474F"></path>
            </g>
            <g id="Group" transform="translate(27.000000, 7.000000)" fill="#37474F">
                <polygon id="Shape" points="6 0.5 6 3.5 9 3.5 9 5.5 6 5.5 6 8.5 4 8.5 4 5.5 1 5.5 1 3.5 4 3.5 4 0.5"></polygon>
                <path d="M6,9 L4,9 C3.7,9 3.5,8.8 3.5,8.5 L3.5,6 L1,6 C0.7,6 0.5,5.8 0.5,5.5 L0.5,3.5 C0.5,3.2 0.7,3 1,3 L3.5,3 L3.5,0.5 C3.5,0.2 3.7,0 4,0 L6,0 C6.3,0 6.5,0.2 6.5,0.5 L6.5,3 L9,3 C9.3,3 9.5,3.2 9.5,3.5 L9.5,5.5 C9.5,5.8 9.3,6 9,6 L6.5,6 L6.5,8.5 C6.5,8.8 6.3,9 6,9 Z M4.5,8 L5.5,8 L5.5,5.5 C5.5,5.2 5.7,5 6,5 L8.5,5 L8.5,4 L6,4 C5.7,4 5.5,3.8 5.5,3.5 L5.5,1 L4.5,1 L4.5,3.5 C4.5,3.8 4.3,4 4,4 L1.5,4 L1.5,5 L4,5 C4.3,5 4.5,5.2 4.5,5.5 L4.5,8 Z" id="Shape"></path>
            </g>
            <g id="Group" transform="translate(25.000000, 0.000000)">
                <g id="Shape">
                    <path d="M10.9,2 C10.9,2.9 10.2,3.5 9.3,3.5 L2.8,3.5 C1.9,3.5 1.2,2.9 1.2,2 L1.2,2 C1.2,1.1 1.9,0.5 2.8,0.5 L9.3,0.5 C10.1,0.5 10.9,1.1 10.9,2 L10.9,2 Z" fill="#FFFFFF"></path>
                    <path d="M9.2,4 L2.7,4 C1.5,4 0.6,3.1 0.6,2 C0.6,0.9 1.5,0 2.7,0 L9.2,0 C10.4,0 11.3,0.9 11.3,2 C11.4,3.1 10.4,4 9.2,4 Z M2.7,1 C2.1,1 1.6,1.3 1.6,2 C1.6,2.7 2.2,3 2.7,3 L9.2,3 C9.7,3 10.3,2.7 10.3,2 C10.3,1.3 9.7,1 9.2,1 L2.7,1 Z" fill="#37474F"></path>
                </g>
                <g transform="translate(5.000000, 0.000000)" id="Shape">
                    <path d="M4.2,0.5 L1,0.5 L1,3.5 L4.2,3.5 C5.1,3.5 5.8,2.9 5.8,2 C5.9,1.1 5.1,0.5 4.2,0.5 Z" fill="#FFAB00"></path>
                    <path d="M4.2,4 L1,4 C0.7,4 0.5,3.8 0.5,3.5 L0.5,0.5 C0.5,0.2 0.7,0 1,0 L4.2,0 C5.4,0 6.3,0.9 6.3,2 C6.4,3.1 5.4,4 4.2,4 Z M1.5,3 L4.2,3 C4.7,3 5.3,2.7 5.3,2 C5.3,1.3 4.7,1 4.2,1 L1.5,1 L1.5,3 Z" fill="#37474F"></path>
                </g>
            </g>
            <g transform="translate(0.000000, 23.000000)" fill="#37474F">
                <path d="M58.5,1.4 L41.5,1.4 C41.2,1.4 41,1.2 41,0.9 C41,0.6 41.2,0.4 41.5,0.4 L58.5,0.4 C58.8,0.4 59,0.6 59,0.9 C59,1.2 58.8,1.4 58.5,1.4 Z" id="line"></path>
            </g>
        </g>
    </g>
</svg>