<svg xmlns="http://www.w3.org/2000/svg" viewBox="0 0 1600 1200"><defs><style>.cls-1{fill:#173c4a;}.cls-2{fill:#edeeef;}.cls-3{fill:#d5e8f8;}.cls-4{fill:#8baadb;}.cls-5{fill:#fdfdfc;}.cls-6{fill:#badef6;}.cls-7{fill:#fdfefe;}.cls-8{fill:#90b7e2;}.cls-9{fill:#6e96ce;}.cls-10{fill:#dcddde;}.cls-11{fill:#fbc89b;}.cls-12{fill:#cfd0d3;}.cls-13{fill:#cfd3d5;}.cls-14{fill:#e6edf7;}.cls-15{fill:#bb8386;}.cls-16{fill:#0b2f3d;}.cls-17{fill:#f0ba93;}.cls-18{fill:#fedcb8;}.cls-19{fill:#183d4b;}.cls-20{fill:#183d4a;}.cls-21{fill:#193d4b;}.cls-22{fill:#6acef7;}.cls-23{fill:#738891;}.cls-24{fill:#6e848d;}.cls-25{fill:#d5d6d7;}.cls-26{fill:#b5865b;}.cls-27{fill:#85c743;}.cls-28{fill:#f8a129;}.cls-29{fill:#f4f4f4;}</style></defs><title>Asset 1</title><g id="Layer_2" data-name="Layer 2"><g id="Layer_1-2" data-name="Layer 1"><path class="cls-1" d="M0,1200Q0,600,0,0H1600q0,600,0,1200Z"/><path class="cls-2" d="M968,681.79l-.4.28-.49,0c-.84,1-2.25,1-3.11,1.9l0,0c-6.09,3.1-7.89,2-7.9-5.07q-.06-52.34,0-104.69c0-4.34-.23-8.61-1.84-12.7,5.65-13.27,1.47-27,2.91-41.22-5.73,1.75-9.72,4.42-13.82,6.81q-55.37,32.37-111,64.27c-4.76,2.74-9.4,5.68-14.16,8.42a7.47,7.47,0,0,0-4.11,7.31c.15,9.32.2,18.65,0,28-.08,3.22,1.5,5.56,2.75,8.18-2.67,4.86-2.6,10.13-2.59,15.46q.08,53.13,0,106.26c0,4.05-.26,7.78-5.19,8.87a1.16,1.16,0,0,1-.88.21c-1.83,1.63-4.27,2.27-6.16,3.81l-.11,0c-.82,1.53-2.91.74-3.83,2.07h0c-.74,1-2.15,1-3,1.89a1,1,0,0,1-.83.2c-1.24.65-2.28,2.22-4,.89v-66.3c-4.57,2.44-8.26,4.28-11.81,6.34q-49,28.4-98,56.86-49.25,28.53-98.54,57-19.65,11.38-39.21,22.92c-1.74,1-3.06,2.86-4.86,3.68-1.56.72-4,1.37-5.25.63-8.39-5.08-16.35-10.89-24.82-15.81Q409.5,791.18,311.18,734.36q-33.83-19.58-67.82-38.87c-3.63-2.07-5.2-4.54-5.19-9q.22-163.47-.11-326.95c0-7.86,2.49-11.81,9.07-15.53,36.43-20.61,72.64-41.62,108.86-62.61,35.07-20.32,70-40.82,105.09-61.14,23.53-13.63,47.19-27,70.68-40.73,2.42-1.41,3.75-1.41,6.13,0q65.38,38.1,130.9,76c1.39.81,2.88,1.46,5.1,2.57.18-1.93.45-3.59.46-5.25,0-14,.12-28-.05-42a6.84,6.84,0,0,1,3.85-6.75Q753.59,160.35,829,116.58c9.15-5.3,18.3-10.61,27.49-15.82,1.23-.7,2.75-.89,5-1.59,0,2.18,0,3.75,0,5.31q0,102,.05,204c0,3.87-1.08,6.16-4.76,8.18-12.41,6.81-24.53,14.17-36.73,21.37a37.09,37.09,0,0,0-3.73,3.09c4.89,2.33,9.05,4,12.89,6.28a7.07,7.07,0,0,1,2.85,4.55c.34,2.21-.54,4.57-.54,6.86q-.06,89.74,0,179.47V545l144.31-83.51c.14,2.47.32,4.19.32,5.92q0,102.48-.08,205c0,1.89-1.35,3.77-2.07,5.65a10.1,10.1,0,0,1-2.08,1.64l-1.75.45C969.37,680.56,968.76,681.3,968,681.79Z"/><path class="cls-3" d="M1059.78,412c-2.56-5.74-8.76-6.63-13.16-9.9a31.7,31.7,0,0,1-3-2.83c-1.34-2.77-.93-5.41.41-8.07a65.68,65.68,0,0,0,4.72-11.49c2.92-5.91,6-11.73,8.18-18,1-2.78,2.35-5.49,5.23-7,2.72-1.15,5.54-1,8.35-.51a288.27,288.27,0,0,0,35,3.77c9.39.39,18-1.75,26.72-4.78,13.94-4.85,28.11-9,42.33-13,4.11-1.14,6.76-4.94,11.17-5a20.6,20.6,0,0,1,6.93,6.3,83.72,83.72,0,0,0,39,28.29c6.13,2.18,12.09,4.41,17.5,8.21,9.23,6.47,14.19,15.38,17,26.06,3.33,12.51,2.95,25.39,1.3,37.66-1.37,10.17-.66,20.44-2.81,30.64-1.49,7.09-2.06,14.71-2.79,22.12a262.57,262.57,0,0,1-4.32,25.94c-2,10.06-4.41,20.05-7.1,30-5.15,19-11.3,37.53-20.72,54.87a94.67,94.67,0,0,1-19.94,25.92A215.84,215.84,0,0,1,1170,638.5c-10.41.89-20.75,1.65-31.18,1.6-2.14,0-4.32.19-6.39-.65-1.67-1.2-3.7-1.9-5-3.6-1.05-2.68.74-5.2.47-7.85-.68-6.74-1.84-13.41-2.68-20.13-1-7.85-3.11-15.58-3.21-23.51-.23-18.12-.29-36.26,0-54.38.2-11.85-1.77-23.35-3.78-34.94-2.87-16.56-6.87-32.73-14.16-47.92-2.1-4.37-3.39-9.38-7.67-12.44-3.76-1.39-5-5.46-8.22-7.61C1079.15,421.13,1069.11,417.27,1059.78,412Z"/><path class="cls-4" d="M1132.14,637.92c15.58-.67,31.18-1,46.72-2.18,7.5-.58,14.87-2.85,22.31-4.32,2.92-.57,5.86-1,8.78-1.55,10.48-6.07,22.68-7.21,33.73-11.68a147.32,147.32,0,0,1,15.12-5c2.35-.67,4.6-1,6.32,1.33,1.92,4.84.47,9.92,1.07,14.83,2.88,23.51.23,47.27,2.45,70.67,1.9,20-.48,40,1.82,59.72,2.42,20.79.17,41.58,1.89,62.23,3.93,47.21.76,94.47,1.74,141.69.42,20,.07,40,.08,60a3.81,3.81,0,0,1-1.41,3c-4.86,4-18.49-.31-20.53-6.45,1.66-3.63,1.28-7.12.5-11.08-1.69-8.6-3.17-17.25-4.73-25.88-1.76-9.77-3.65-19.51-5.3-29.29-1.57-9.3-3.88-18.48-4.78-27.89-.44-4.64-1.66-9.14-2.48-13.68-2.6-14.49-5-29-7.85-43.46-2.57-12.82-4.56-25.73-7-38.56-1.79-9.23-3.17-18.62-5-27.85-1.89-9.71-2.81-19.56-4.87-29.25-1.06-5-2.42-10.15-2.25-15.43.06-1.91.44-4.16-2.34-4.75l-1.87-9.42a3.15,3.15,0,0,1,2.46.35c-.92-1.19-1.41-2-2.47-2l0-1.67c1-1.52,1.26-3-.34-4.29-.56-1.35-1.49-2.66-1.62-4-.91-9.22-1.65-18.46-2.45-27.69a11.1,11.1,0,0,1-1.35-6c-4.44,1.3-6.79,4.49-8.12,8.49-5.23,15.77-11.76,31-17.48,46.63-8.36,22.76-17.27,45.3-25.36,68.16-1,2.82-2.29,5.54-3.54,8.24-3.81,8.29-3.95,17-3.92,25.87.14,37,1.49,74.07-.39,111-1.56,30.63-.88,61.19-1.55,91.77a35.07,35.07,0,0,0,.84,9.43,3.69,3.69,0,0,1-4.33,3.73c-6-.48-11.64-2.25-16.23-6.44a3.9,3.9,0,0,1-1.24-3.6c.93-4.37-1.74-8.29-1.37-12.7,1-11.81-1.89-23.44-2.49-35.2-.37-7.36.06-15.15-1.79-22.19-2.71-10.32.32-21-3.4-31.08-.23-.61-.1.16,0-.49,1-11.85-1.5-23.53-2.58-35.2-1-11.16-1.81-22.42-2.84-33.58-1.14-12.32-4.36-24.83-2.34-37.13,1.31-8,.77-16.17,3.08-24.11,1.64-5.63,1.44-11.85,1.92-17.71.7-8.59,1.92-17.14,2.87-25.67s.79-17.55,3.27-26a5.52,5.52,0,0,0,.3-2c-.76-9,1.62-17.86,2.64-26.69.9-7.81.24-16,3.1-23.56a5.74,5.74,0,0,0,.3-2.47c-.75-9,1.53-17.89,2.66-26.68,1-7.81.31-15.92,3-23.6,1.25-3.56.19-7.63.59-11.43C1124.62,638.58,1127.26,636.62,1132.14,637.92Z"/><path class="cls-5" d="M1082,170.2a.63.63,0,0,1,.83-.27c10.15-4.13,18.19,1.29,26.53,5.7,5.84,3.09,9.14,8.55,13.21,13.31a7.75,7.75,0,0,1,1,2.11c.4,1.27,1.5,2.08,2.19,3.16,2.16,3.34,2.86,7.43,5.27,10.69,6.38-.2,11.61-3.49,17-5.7q27.71-11.23,55.5-22.26c24.7-9.8,49.36-19.72,74.07-29.5,17-6.73,33.92-13.64,50.88-20.46a33.17,33.17,0,0,1,4.24-1.48c2.69-.68,4.2.29,4.19,3.21,0,1.33,0,2.67,0,4q0,54.5,0,109c0,2.13-.49,4.35.77,6.35.79,34.44,1.43,68.89,2.42,103.33,1.17,40.59,2.67,81.16,4,121.74.07,2,0,4,0,5.85-14,6.36-27.55,12.57-41.16,18.72a11.63,11.63,0,0,1-2.94.5c-2.53.95-3.27-.84-3.84-2.64a9.59,9.59,0,0,1-.24-5.44c2.08-7.05,1.48-14.47,3.23-21.6a138,138,0,0,0,2.42-15.19c1.72-13.3,4.81-26,11.06-38A82.16,82.16,0,0,0,1322,384c.2-2.37,1.38-4.45,1.7-6.76.95-6.72-1.1-12.82-4.06-18.7-.79-1.56-2.37-2.25-3.82-3.08-8.9-5.1-18.8-6.95-28.71-7.12s-18.67-2.55-27.5-6.12c-5.2-2.1-10.28-4.81-16.24-3.42a2.23,2.23,0,0,1-1.79-.76,2.69,2.69,0,0,1-.73-1.81c1.49-8.95,0-18.17,2.45-27,.59-2.09.39-4.29,1.07-6.33.2-2.9,2.12-4.36,4.56-5.34,16.72-6.76,25.53-20.43,32-36.27,1-2.51.83-5.26,2.05-7.67,1.46-9.17,9-11,16.11-13.2,4-1.24,7.91-2.53,11.81-3.95,5.18-1.89,5.84-3.26,4-9.48-6.25,1.47-12.09,4.28-18.25,6-4.74,1.34-9.22,4-14.46,3a6.14,6.14,0,0,1-3.67-3.85c-3.69-10-10.83-17.38-18.71-24.15-1.27-1.09-2.61-2.07-3.21-3.72-1.06-3.61,1-5.18,4-6.3,12.9-4.93,25.92-9.5,39-13.8,4.59-1.5,9-3.54,13.56-5s5.67-4.13,4.17-8.63c-3.62-1.07-6.63,1.23-9.74,2.34-20.36,7.28-40.81,14.28-61.2,21.48-2.94,1-5.9.87-8.82,1.43-4.12,1.14-7.75-1.43-11.66-1.57-8.94-.31-17.9-.39-26.83,0-9.65.41-16.77,10.12-14.58,19.5.49,2.11,1.28,4.12.54,6.31-10.26,16.32-16.83,34.12-20.67,52.9-2.29,11.2-3.44,22.56.12,33.82.61,1.93,1.23,4-.74,5.48-1.8,1.32-3.63,0-5.09-.86-3.42-2.08-7.89-3.29-8.14-8.45-.39-3.5,2.95-5.32,3.9-8.11a5.62,5.62,0,0,0-4.65-3.73c-4,3.54-6.26,8.67-10.43,12.13a9.69,9.69,0,0,0-2.94,1.67,4.93,4.93,0,0,1-1.27.55,38.31,38.31,0,0,0-21.8,12.55c-1,1.14-2.91,2-1.71,4.09,2.32,2.53,6.2,1.3,8.6,3.59,1.84,3.86-2.14,5.65-3,8.56-1.53,2.27-1.65,4.94-2.39,8.13,3.33-1.49,6.17-2.84,8.56-5a7.67,7.67,0,0,1,1.2-1c.5-.46,1.07-1,1.69-1,8.62,1,17.51-.33,25.84,3.08,1.84.75,3,2,2.9,4.12-1.65,4.93-6.58,4.05-10,5.11-11.76,3.59-23.84,5.55-36.23,4.54a239.11,239.11,0,0,1-27.43-3.58c-5.56-1.11-11.29.1-16.89-.78-1.54,0-3.12.15-4.54-.71a9.34,9.34,0,0,1-3.15-3.4c-1.47-3.83-1.2-7.89-.75-11.76,1.17-10.21.85-20.42.57-30.63,4.78-8.64,9.34-17.4,16.65-24.39,3.12-3,7.54-4.18,10-7.92,2.18-2.62,6.4-3.06,7.66-7.45-3.89-2.4-7.87-2-11.7-.38-6.42,2.67-12,1.27-17.25-2.8-2.39-1.86-3.84-4.13-3.43-7.3.36-4.26-1.19-8.74,1.45-12.73-.54-15.63.15-31.13,6-45.89,3.11-7.81,6.67-15.43,14-20.43A24,24,0,0,1,1082,170.2Z"/><path class="cls-6" d="M1242.29,337.95c5.38-4.39,10.61-1,15.29,1,10.1,4.34,20.2,7.06,31.38,7.34,10.25.26,20.56,2.46,29.64,8a8.54,8.54,0,0,1,3.29,3.52c3.43,7.78,5.59,15.47,2.62,24.29s-3.86,18.23-6.64,27.08c-2.15,6.85-6.51,13-8.64,19.85-2.46,7.9-3.58,16.23-5.22,24.38-1.23,6.07-2.37,12.16-3.55,18.24,0,.16-.15.31-.16.47-.76,7.36-1.64,14.71-2.17,22.09-.09,1.27,1.32,2.65,2,4-3.33,3.32-4,7.36-4.3,12-.71,9.82-2.28,19.57-3.49,29.35-.08.66-.21,1.31-.26,2-.74,10.38-1.27,20.77-2.26,31.12-1,10.15-2.32,20.27-3.69,30.37-.19,1.39-1.49,2.64-2.28,3.95-5.48,5.44-12.23,7.44-19.78,7.2-7.14,2.17-14.28,4.31-21.41,6.5-7.91,2.43-15.78,5-23.71,7.33-2.93.87-6,1.3-9,1.92,4.49-6.09,9.56-11.84,13.34-18.34a263.4,263.4,0,0,0,14.51-28.61,269,269,0,0,0,9.61-27.78c1.94-6.38,3.12-13,4.58-19.52,1.89-8.42,3.79-16.84,5.56-25.29.91-4.32,1.74-8.68,2.26-13.06.87-7.34,1.37-14.73,2.21-22.08,1.19-10.39,3.33-20.74,3.62-31.14.34-12.34-.69-24.73-1.44-37.08-.53-8.76-4.66-16.06-10.58-22.31s-13.9-9.53-21.9-12.78a144.46,144.46,0,0,1-22.52-11.9,75.39,75.39,0,0,1-13.53-11.51c-3.64-3.76-6.49-8.28-9.69-12.46l.53-.63c3.51-1.82,6.48.38,9.44,1.54,8.25,3.23,16.6,5.32,25.58,5.12a45.5,45.5,0,0,0,15-3C1238.42,338.29,1240.23,337.59,1242.29,337.95Z"/><path class="cls-7" d="M1059.78,412c1.62.05,3.52-.43,4.82.24,8.88,4.57,17.76,9.19,26.36,14.25,2.19,1.29,3.4,4.26,5.05,6.45,5.85,6.53,7.92,14.75,9.83,22.91,2.14,9.15,3.28,18.52,4.78,27.79a122.24,122.24,0,0,1,1.07,33.68c-1.33,11.31,0,22.87-3.3,34a12.36,12.36,0,0,0-.24,5c1.08,8.72-2.36,17-2.26,25.67,0,3.73-3.2,4.65-5.91,5.88l-1.62.32a12.26,12.26,0,0,0-2.39,1.59l-28.64,12.45c-1.09.59-2.38.8-3.33,1.69l-1.66.32a1.55,1.55,0,0,1-2-.23c-.15-22.6-.36-45.2-.45-67.8q-.25-59.59-.37-119.19C1059.49,415.35,1059.68,413.7,1059.78,412Z"/><path class="cls-8" d="M1132.14,637.92c-4.6,0-5.82,3.1-6.11,6.87-.73,9.37-1.19,18.76-2.1,28.1-1.14,11.75-2.62,23.46-4,35.19q-2,17.32-4,34.64l-4,35.14c-1.31,11.4-2.48,22.81-4,34.18-1,7.59-2.48,15.11-3.74,22.67-.05.33-.12.66-.14,1-.69,8.7-2.18,17.44-1.85,26.1.43,10.95,2.35,21.83,3.62,32.74,0,.33.1.66.12,1,.69,11.35,1.34,22.71,2.06,34.06.64,10,1.31,20.08,2.07,30.11.55,7.21,1.14,14.43,2,21.61,1.14,10.08,2.52,20.13,3.79,30.2,0,.33.1.66.12,1,.69,11.7,1.29,23.41,2.11,35.1.22,3.22,1.34,6.39,1.5,9.61.08,1.6-1.11,3.26-1.73,4.89-3.86,0-10-4.73-11.17-9.29-.86-3.24-1.73-6.72.51-9.91-.93-6.38-2.08-12.74-2.73-19.15-1-9.73-1.49-19.5-2.47-29.23-1-9.53-2.3-19-3.39-28.54q-1.19-10.36-2.14-20.75c-.85-9.24-1.49-18.5-2.43-27.73-1-10.36-2.79-20.67-3.39-31-1-17.87-1.66-35.78-2-53.68-.13-6.59.94-13.2,1.54-19.79q1.74-19.31,3.55-38.62c.06-.66.15-1.32.18-2,.79-14.09,1.44-28.18,2.38-42.26q1.91-28.54,4.18-57.06c1.09-13.71,2.45-27.4,3.69-41.1,4.07-2.79,7.74.7,11.64.72,1.6.87,3.11,2.07,5.14,1.39,2.61-.2,5.19-.29,7.11,2Z"/><path class="cls-9" d="M1264.06,614.13l19.78-7.2q.07,38.95.13,77.89,0,165.05,0,330.11c0,2.39-1.21,4.78-1.86,7.18-2.4,3-5,5.18-8.79,2-.42-2.21-1.21-4.42-1.21-6.64-.08-59.76.82-119.54-.55-179.27-.51-22.15.41-44.5-2-66.48-2.15-19.78.54-39.53-1.84-59-2.64-21.72.15-43.49-2.16-65C1264.33,636.45,1264.64,625.32,1264.06,614.13Z"/><path class="cls-9" d="M1138.11,1068.08c-.7-1.49-2-3-2-4.48-.12-27.33-1.62-54.76.28-82,3.13-44.89.59-89.73,1.47-134.58.15-7.76,3-14.42,5.44-21.32,4.77-13.28,9.84-26.45,14.82-39.65,3.48-9.22,7.08-18.4,10.54-27.63,4.53-12.12,8.93-24.29,13.48-36.4,2.54-6.75,4.59-13.82,8.16-20,2-3.46,6.61-5.45,10.17-7.93.55-.38,1.78.21,2,.25l-2.68,9.9-3.4-2.8c-1.44,3.09-3.18,5.8-4,8.76-3,10.87-5.59,21.85-8.54,32.74-2.3,8.5-5,16.89-7.34,25.39s-4.33,17.12-6.63,25.65-5,16.93-7.12,25.49c-2,7.92-4.14,15.92-4.8,24-1.3,15.71-1.59,31.5-2.31,47.26q-.94,20.41-1.9,40.83-1.07,23.41-2.13,46.82-.92,19.91-1.88,39.81c-.73,14.6-1.52,29.19-2.29,43.79C1145.15,1068.17,1142.74,1069.72,1138.11,1068.08Z"/><path class="cls-10" d="M1122,190c-1.4-1.12-3.12-2-4.15-3.4-8.72-11.77-20.65-16.65-34.94-16.67,5.07-2,10.06-4.18,15.24-5.8,8.8-2.74,17.7-5.16,26.58-7.61,8.14-2.24,16.34-4.27,24.47-6.54,8.41-2.34,16.76-4.91,25.16-7.29,5.78-1.64,11.62-3.07,17.4-4.7,8.41-2.37,16.79-4.85,25.19-7.25,5.62-1.6,11.28-3.11,16.9-4.71,6.37-1.81,12.71-3.72,19.1-5.47,5.79-1.6,11.63-3,17.42-4.58,8.28-2.28,16.51-4.75,24.81-7,6.88-1.83,13.83-3.4,20.75-5.08,1.09-1.26,3-.66,4.12-1.73l2-.13c1.54-.13,2.73-1,4-1.78l4-.34a26.58,26.58,0,0,0,4-1.74l3.74-.33c1.2-1.12,3-.63,4.26-1.66l3,0a45.81,45.81,0,0,0,5.28,3.54l0,0c1.19,3.77-1.94,4.63-4.17,5.63-6.81,3.07-13.88,5.54-20.86,8.2q-29.08,11.11-58.11,22.35c-22.45,8.71-44.95,17.32-67.42,26q-35.32,13.62-70.67,27.18C1126.76,189.94,1124.56,191.77,1122,190Z"/><path class="cls-11" d="M1060,252c1.8,6.25,11.24,10.23,17.32,8.05,3.86-1.39,8.23-1.65,12.39-1.78,1.33,0,3.15,1.74,3.9,3.15.39.72-.75,2.84-1.75,3.63a93,93,0,0,1-7.8,5.08c-6.39,3.38-12.35,7.33-17.27,12.74a15.6,15.6,0,0,1-8.09,4.53c-.67.06-1.34.09-2,.14-1.16-.07-2.38-.43-3.3.68a5.52,5.52,0,0,1-.84.85,7.23,7.23,0,0,0-1.7,1.74,9.25,9.25,0,0,1-1,.88c-9.13,12.65-20,23.79-30.56,35.19-1.2,1.3-2.79,2.38-3.23,5.08,5.07.3,8,6.11,13.81,4.89a4.66,4.66,0,0,1,2,.25c1.43.83,2.74,2,4.62,1.51a6.15,6.15,0,0,1,2.55.47c1.58,1.13,3.25,2,5.3,1.66a5.45,5.45,0,0,1,1.9.49c1.5,1.26,3,2.48,5.17,1.43a5.76,5.76,0,0,1,2.69.46c1.57,1.82,4,1.83,6,2.85l3.69.18c2.72,4,2.51,5.21-1.68,9.85-3.39,7.48-6.77,15-10.21,22.42-.31.67-1.05,1.13-1.6,1.69-1.75,1.24-3.47.66-5.2-.08-21.29-9-42.65-17.88-63.09-28.74-5-2.67-9.69-5.79-12.16-11.36-1.53-3.44-1.91-6.65.16-9.93v0a15.65,15.65,0,0,0,1.89-2.1l0,.08a10.47,10.47,0,0,0,2-2.17l1.78-1.87c9.11-7.94,17.8-16.44,28.53-22.25,7.59-4.1,15-8.54,22.25-13.17a30.49,30.49,0,0,0,11.21-12.37c5.18-10.39,11.69-20,17.27-30.18.52-1,1.19-1.62,2.34-1.39s1.5,1.13,1.63,2.2C1059.17,248.53,1058.5,250.47,1060,252Z"/><path class="cls-12" d="M1122,190c11.6-4.64,23.16-9.37,34.8-13.9,12.86-5,25.81-9.78,38.69-14.74,13-5,26-10.18,39.05-15.23q16.78-6.5,33.6-12.89c15.34-5.82,30.72-11.52,46-17.4q16.1-6.18,32-12.75c1.54-.63,2.69-2.21,4-3.35,6.79,3.8,8.67,9.74,7.4,17.54-5.05,2.13-10.17,4.76-15.59,6.41-3.86,1.17-4.28,3.46-4.28,6.68q.08,40.65.07,81.29,0,18.19,0,36.38c-.57-1.92-1.62-3.84-1.63-5.76q-.28-55-.34-110c0-1.78,0-3.56,0-6-12.55,5-24.39,9.86-36.27,14.57-18,7.14-36,14.18-54,21.34-8.24,3.28-16.38,6.8-24.62,10.08-15.08,6-30.21,11.87-45.28,17.91-8.54,3.42-17,7.09-25.48,10.57-5.76,2.36-11.54,4.67-17.38,6.83-1.13.42-2.55.06-3.75.06l-5-13.7a20.81,20.81,0,0,1-1.85-2.05Z"/><path class="cls-13" d="M809,773.83c2.81-2.48,3.17-5.63,3.16-9.24q-.18-52.33-.06-104.67c0-6.39-1.43-13.13,3.85-18.45-.86-3.4,2-4.3,4-5.44,13.15-7.5,26.13-15.27,39.25-22.82,18.74-10.78,37.52-21.49,56.12-32.5,11.16-6.61,22.6-12.73,33.74-19.4,1.77-1.06,3.64-2.57,6-1.13,3,2.22,3.12,5.35,3.11,8.76q-.11,54.7,0,109.41c0,2,0,3.91,0,6.33l5.89-.73c-4.33,2.45-4.67,6.36-4.63,10.89.2,20,0,40,.12,60,0,3.46-1,5.6-4.3,7.5q-68,39.23-135.86,78.8c-1.88,1.09-3.92,1.89-6.89,3.3,0-2.86,0-4.61,0-6.37q0-30,0-60C812.36,775.8,812.89,773,809,773.83Z"/><path class="cls-14" d="M1115.72,634.16l-11.6-2.21c-7.59-5.3-3.39-12.91-3.56-19.52-.13-5.07,1-10.17,1.59-15.26.33-2.78.78-5.54,1.25-8.79l-3.4-.54c4.37-3.12,3.74-7.72,4.14-12.31.84-9.76,2.39-19.45,3.65-29.17.06-.49.16-1,.18-1.48.68-17.35,1.8-34.7,1.83-52.05,0-7.39-2.17-14.8-3.52-22.17s-2.52-14.49-4.4-21.57c-1.45-5.5-3.86-10.74-5.85-16.1,2.37,2.41,5.4,4.45,7,7.3a122.29,122.29,0,0,1,13.07,35c1.65,8,4,15.83,5.59,23.83a100.65,100.65,0,0,1,2.22,18.08c.26,22.15-.22,44.32.27,66.46.18,7.93,2.31,15.81,3.55,23.71,0,.16.1.32.12.48.72,5.87,1.82,11.72,2,17.6.12,3.5-1.18,7-1.84,10.57l-8-.18C1118.8,634.73,1117,635.18,1115.72,634.16Z"/><path class="cls-15" d="M1138.11,1068.08l9.36-6q.4,10.5.8,21a6.83,6.83,0,0,1,1.51,5.63c-.16.53-.33,1.07-.49,1.6-5.62,6.28-13.49,8.23-21,10.75-.75.25-1.56-.36-2.23-.86-14.77-10.2-29.63-20.28-44.26-30.67-5.36-3.81-10.79-7.84-15.12-12.71-4.61-5.19-3.55-16,.9-21.25,5.06-6,11.71-7.12,20.21-2.88,3.79,1.89,7.07,4.79,10.8,6.84,2.68,1.47,5.72,2.28,8.61,3.39.26,1.12.85,2.28.71,3.34-1.07,8.09,4.57,11.88,10,15.87,4.48,4.84,10.5,6.46,16.63,7.62C1135.53,1069.92,1136.89,1068.66,1138.11,1068.08Z"/><path class="cls-15" d="M1273.28,1024.14l8.79-2,1.76,28.35c-.54,2.27-2.23,3.2-4.3,3.49a74.47,74.47,0,0,0-10.48,2.73c-6.5,1.91-11.15-.25-14.91-5.38-7.4-5.07-14.88-10-22.19-15.24s-14.39-10.43-21.41-15.88c-5.66-4.4-7.16-11.1-7.8-17.62-.6-6.1,5.7-12.21,12-12.29,9.49-.11,18.75,1.31,27.33,5.76,1.7-.42,2.41.76,3.13,1.92,1.32,2.74.73,5.79,1.42,8.68,1.19,4.95,2.74,9.62,6.09,13.54C1258.48,1025.83,1268.28,1027.72,1273.28,1024.14Z"/><path class="cls-16" d="M1254.14,1051.29c.79.25,1.79.27,2.34.78,4.75,4.39,10.12,3.18,15.48,1.78,4-1,7.91-2.26,11.87-3.41,4.69,3.37,9.3,6.85,14.08,10.1,10.45,7.09,21,14,31.47,21.1,5.64,3.8,5.94,5.9,1,10.4-8.34,7.59-16.87,15-25.35,22.38-3.39,3-6.17,1.54-8.41-1.53-4.89-6.7-9.65-13.51-14.51-20.23-8.54-11.82-17.16-23.59-25.61-35.48C1255.31,1055.51,1254.91,1053.27,1254.14,1051.29Z"/><path class="cls-8" d="M1252.71,1020.17c-4.2-.86-6.44-3.23-6.79-7.7-.38-4.82-1.27-9.6-1.95-14.4-1.16-1.86-.52-4.23-1.71-6.08l-.41-5.93c-.82-1.95-.55-4.19-1.62-6.07l-.33-5c-1.1-2.22-.42-4.86-1.69-7l-.24-4c-.88-2.26-.63-4.81-1.75-7l-.33-5a23.9,23.9,0,0,0-1.65-6l-.44-5.9c-1-1.92-.38-4.24-1.58-6.1l-.41-5.52c-1.36-2-.22-4.53-1.62-6.48l-.27-4a28,28,0,0,0-1.67-6l-.42-5.93c-.8-2-.54-4.19-1.61-6.07l-.39-5.62c-1.46-1.89-.22-4.48-1.63-6.38l-.24-4c-.88-2.26-.63-4.81-1.75-7l-.33-5a23.9,23.9,0,0,0-1.65-6l-.45-5.89c-1-1.92-.39-4.24-1.56-6.11l-.43-7.91c-1.22-2.56-.23-5.55-1.58-8.09l-.45-7.9c-1.18-2.57-.21-5.56-1.56-8.1l-.35-6.94c-1.16-2.91-.28-6.19-1.66-9.06l-.37-6.93c-1.52-2.85-.07-6.23-1.63-9.07l-.27-6c-1.1-3.25-.44-6.81-1.73-10l-.29-6c-1.14-3.3-.39-6.92-1.71-10.19q0-2.37-.09-4.75c1.23.84,3.34,1.5,3.56,2.55,1.05,4.95,1.46,10,2.35,15,1,5.77,2.34,11.49,3.49,17.24.83,4.16,1.72,8.31,2.36,12.5.82,5.33,1.18,10.75,2.18,16,1.69,9,3.77,17.85,5.59,26.79.84,4.16,1.52,8.35,2.15,12.54.8,5.34,1.3,10.73,2.25,16s2.39,10.79,3.52,16.19c.86,4.15,1.69,8.32,2.33,12.51.81,5.35,1.19,10.77,2.17,16.09,1.71,9.28,3.77,18.49,5.63,27.74.83,4.16,1.62,8.34,2.24,12.54.79,5.34,1.19,10.74,2.15,16,.92,5.11,2.42,10.11,3.53,15.19.8,3.66,1.46,7.35,2,11.06.86,5.68,1.8,11.36,2.18,17.08C1255.91,1017.47,1253.81,1018.85,1252.71,1020.17Z"/><path class="cls-16" d="M1148.18,1089l.1-6c3.75,2.1,7.6,4,11.22,6.32,11.19,7.14,22.31,14.39,33.41,21.67,3.76,2.46,3.76,5.07.08,7.61-6.82,4.72-13.65,9.43-20.54,14.05-4.1,2.75-8,3.37-12.16-.44-7.77-7.2-15.88-14-23.68-21.21-3.72-3.42-7.07-7.24-10.58-10.88l21.92-10.19a.6.6,0,0,0,.38-.58Q1148.28,1089,1148.18,1089Z"/><path class="cls-17" d="M970,330c-.49,8.39,3.18,14.55,10.63,18,20.46,9.57,41,18.87,61.58,28.28,2.71,1.24,5.39,2.52,8.09,3.78-1.47,4.11-3,8.21-4.39,12.33-.79,2.28-1.49,4.59-2.24,6.88-4.89-3.07-9.56-6.57-14.7-9.12-17.68-8.79-35.06-18.08-50.8-30.09A73.86,73.86,0,0,1,967.58,350c-4.62-5.27-4.84-9.42-1.37-15.21A45.53,45.53,0,0,1,970,330Z"/><path class="cls-18" d="M1060,252l-3-6.23c-6.48,11.78-12.56,23.74-19.52,35.16-4.3,7-11.86,10.76-18.83,14.93q-13.29,8-26.13,16.67c-4.2,2.85-7.81,6.57-11.88,9.64-1.32,1-3.26,1.19-4.91,1.76,4.48-4.58,8.6-9.63,13.54-13.65q13.63-11.1,28.08-21.19c11.13-7.75,18.77-18.56,26.85-29,5.47-7.09,10.53-14.5,15.77-21.77Q1060,245.15,1060,252Z"/><path class="cls-4" d="M1208.22,774l1.73,10Z"/><path class="cls-4" d="M1206.22,757.83l1.71,10.19Z"/><path class="cls-4" d="M1212.23,806l1.66,9.06Z"/><path class="cls-4" d="M1210.22,790l1.63,9.07Z"/><path class="cls-4" d="M1214.24,822l1.56,8.1Z"/><path class="cls-4" d="M1216.24,838l1.58,8.09Z"/><path class="cls-8" d="M1204.25,742c5.12.48,3.41,4.06,2.88,7.14l-2.87-5.48Q1204.25,742.84,1204.25,742Z"/><path class="cls-4" d="M1238.22,968l1.69,7Z"/><path class="cls-4" d="M1232.23,934l1.58,6.1Z"/><path class="cls-4" d="M1218.25,854l1.56,6.11Z"/><path class="cls-4" d="M1222.23,877l1.75,7Z"/><path class="cls-4" d="M1236.23,957l1.75,7Z"/><path class="cls-4" d="M1240.24,980l1.62,6.07Z"/><path class="cls-4" d="M1226.24,900l1.61,6.07Z"/><path class="cls-13" d="M801.93,777.86l6.16-3.81Z"/><path class="cls-4" d="M1228.27,912l1.67,6Z"/><path class="cls-4" d="M1224.22,888l1.63,6.38Z"/><path class="cls-4" d="M1220.25,866l1.65,6Z"/><path class="cls-4" d="M1234.25,946l1.65,6Z"/><path class="cls-4" d="M1230.21,922l1.62,6.48Z"/><path class="cls-12" d="M1350.25,99.8,1345,96.27Z"/><path class="cls-12" d="M1334,98.23l-4,1.74Z"/><path class="cls-4" d="M1242.27,992l1.71,6.08-1.91-2Z"/><path class="cls-8" d="M1203.89,736c2.76.68,2.82,1.46.34,4.29Q1204.06,738.19,1203.89,736Z"/><path class="cls-12" d="M1326,100.31l-4,1.78Z"/><path class="cls-12" d="M1320,102.22,1315.9,104Z"/><path class="cls-13" d="M790.18,783l4-.89Z"/><path class="cls-12" d="M1342,96.23l-4.26,1.66Z"/><path class="cls-13" d="M798,780l3.83-2.07Z"/><path class="cls-3" d="M1064,603.9l3.33-1.69Z"/><path class="cls-13" d="M795,781.87l3-1.89Z"/><path class="cls-13" d="M964,683.93l3.11-1.9Z"/><path class="cls-10" d="M1082,170.2,1080,172Z"/><path class="cls-18" d="M973.95,325.8l-2,2.17Z"/><path class="cls-17" d="M971.9,327.89,970,330Z"/><path class="cls-14" d="M1096,589.76l2.39-1.59Z"/><path class="cls-3" d="M1060.32,604l2,.23-1.51,1.44Z"/><path class="cls-13" d="M971.94,679.65,974,678Z"/><path class="cls-13" d="M968,681.79l2.23-1.69Z"/><path class="cls-19" d="M532.16,476.17c-4.7,3.06-9.32,6.24-14.11,9.14-5.43,3.28-10.94,6.46-16.59,9.35a6.45,6.45,0,0,1-5.25.19q-63.93-36.68-127.69-73.65Q308.94,386.69,249.45,352c-.4-.23-.82-.43-2.13-1.12,6.09-3.72,11.61-7.27,17.28-10.53,32.86-18.93,65.81-37.72,98.63-56.71Q418,252,472.54,220.08q27.41-15.94,54.85-31.82a6.28,6.28,0,0,1,1.43-.42c3-1.36,4.37.38,5,2.94a20,20,0,0,1,.3,5q0,136.22,0,272.44C534.15,471,534.46,473.92,532.16,476.17Z"/><path class="cls-20" d="M244.08,683.95q0-137.66-.07-275.33,0-23,0-46c0-1.8,0-3.61,0-6.55,8,4.67,15.14,8.91,22.35,13.05,29.56,17,59.17,33.92,88.69,51,29.22,16.92,58.31,34.07,87.51,51,14.53,8.44,29.19,16.65,43.73,25.06,1.57.91,2.78,2.44,4.16,3.69-1.36,1.26-2.55,2.82-4.12,3.73-14.36,8.31-28.8,16.5-43.19,24.77-.51.29-.77,1-1.15,1.55-1.45,1.53-1,3.46-1,5.24,0,11-.13,22,0,32.95a8.26,8.26,0,0,1-4.15,7.84c-10.47,6.79-21.53,12.57-32.26,18.91-18.46,10.9-37.08,21.54-55.67,32.23-20.32,11.68-40.52,23.56-60.88,35.18-11.69,6.67-23.27,13.57-35,20.25C250.46,684.12,247.59,686.85,244.08,683.95Z"/><path class="cls-19" d="M628.2,571.87c-.06-33-.16-66-.05-99,0-1.49,1.6-3.55,3-4.38Q676,442.33,720.92,416.4q48.92-28.26,97.9-56.39c2-1.18,4.2-2.17,7.07-3.64V363c0,59.66-.07,119.31.12,179,0,4.83-1.55,7.56-5.62,9.76-8.88,4.8-17.55,10-26.41,14.85-3.1,1.69-4.12,3.79-4.1,7.39.18,28.16.1,56.32.1,84.49,0,1.83-.08,3.66-.12,5.49-2,2.12-3.94,1-5.85-.07Q744.75,641,705.42,618.3c-23.18-13.42-46.29-27-69.63-40.12C632.85,576.52,630.06,574.77,628.2,571.87Z"/><path class="cls-19" d="M789.85,672.1c0,11.49.21,23,0,34.47a7,7,0,0,1-2.8,5.08q-60.31,35.18-120.8,70.05-61.49,35.53-123,71c-1.37.79-2.84,1.39-4.9,2.4-.15-2.27-.34-3.85-.34-5.42q0-77.46-.07-154.92c0-3.46.81-5.56,4.14-7.46,27.41-15.63,54.64-31.58,82-47.32,2.89-1.66,4.09-3.47,4.05-6.93-.17-17.65,0-35.31,0-53,2.81-2.66,5.42-.64,7.73.67,10.84,6.16,21.72,12.27,32.48,18.56,23.53,13.77,47.2,27.29,70.74,41,15.36,9,30.92,17.59,46.14,26.81A10.8,10.8,0,0,1,789.85,672.1Z"/><path class="cls-21" d="M540.28,187.7c10.07,5.65,20.21,11.19,30.21,17,33,19,65.83,38.26,98.87,57.18,3.86,2.21,5.12,4.6,5.1,8.92-.14,48-.09,96-.09,144,0,2,0,3.94,0,7.24,7.1-4,13.32-7.32,19.44-10.85q56.69-32.7,113.27-65.58c2.67-1.56,4.25-1.51,6.55.09,2.62,1.81,5.48,3.26,8.77,5.17L628,463.34V421.62c-18.58,10.71-36.3,20.94-54,31.14q-16.9,9.72-33.84,19.38c-3.18.89-3.69-1.41-4.08-3.58a33.47,33.47,0,0,1-.23-6q0-132.65,0-265.29a34.6,34.6,0,0,1,.24-6C536.47,189,537.26,187,540.28,187.7Z"/><path class="cls-21" d="M444,744.07l87.56-50.72v162.4l-283.46-164c-1.54-3.67,1.59-4.71,3.68-5.86,8.45-4.67,16.56-9.93,25-14.65,23.05-13,45.83-26.41,68.73-39.64q37.59-21.72,75.13-43.53c4.45-2.6,8.79-5.41,13.44-7.65,5.26-2.52,6.88-1.48,6.88,4.35q0,76.47,0,152.93c0,2.08-.71,4.37,1.06,6.19h0C442.68,744.77,443.34,744.69,444,744.07Z"/><path class="cls-22" d="M955,560.19q-45.41,26.25-90.83,52.49c-14.7,8.49-29.44,16.92-44.12,25.45a32.58,32.58,0,0,0-4.09,3.34c-2.57.72-3.72-.17-3.71-2.92.05-11.66-.16-23.33.22-35,.06-1.84,2.35-4.18,4.21-5.29,14.75-8.81,29.63-17.4,44.5-26q42.47-24.6,85-49.14c3.78-2.18,7.67-4.18,12.14-6.6a36.68,36.68,0,0,1,.73,4.67c0,10.83,0,21.65,0,32.48C959,556.76,958.52,559.41,955,560.19Z"/><path class="cls-23" d="M442.09,743.91c-.58-2-1.66-4.1-1.66-6.15q-.14-75.45-.07-150.89c0-2.09,0-4.19,0-7.57-7.4,4.16-13.7,7.61-19.91,11.21Q355,628.34,289.63,666.23c-12.72,7.37-25.47,14.68-38.15,22.13-1.32.78-2.23,2.27-3.33,3.42-4.08-1.19-4.48-4.3-4.07-7.83,4-1.74,8.18-3.12,11.93-5.27q49.46-28.33,98.79-56.91,36.68-21.22,73.28-42.59c12.28-7.14,12.27-7.14,12.27-21.42,0-7.66-.09-15.32.08-23,0-1.6,1-3.19,1.56-4.78q-.09,21.73-.16,43.46c0,2.49.31,5,.31,7.48Q442.13,662.42,442.09,743.91Z"/><path class="cls-24" d="M540.28,187.7c-.79.9-1.92,1.68-2.28,2.73a12.77,12.77,0,0,0-.15,4q0,135.73.09,271.45c0,2.1,1.43,4.19,2.2,6.29l-8,4c-.07-2.16-.19-4.32-.2-6.48q0-138-.06-276c0-2.3,1.44-5.76-3.08-5.84C533.11,183.77,536.55,183.74,540.28,187.7Z"/><path class="cls-25" d="M607.08,494c2,8,1.52,9.22-4.92,12.93-17,9.79-34.05,19.54-51,29.42-22.94,13.37-45.8,26.87-68.73,40.27-6.36,3.72-12.82,7.29-19.31,11-2.55-7.85-1.35-11,5.74-15.14q32.57-18.82,65.22-37.5c14.88-8.51,29.86-16.84,44.76-25.33,8.45-4.82,16.79-9.81,25.21-14.68A16,16,0,0,1,607.08,494Z"/><path class="cls-25" d="M463,635.62c-2.39-8.38-1.61-9.71,5.52-13.87,14.1-8.23,28-16.82,42.08-25.06,10.69-6.26,21.61-12.12,32.33-18.33,14.55-8.44,29-17.12,43.5-25.55,6.62-3.84,13.45-7.33,20.25-11,2.69,7,2,9.62-3.65,12.9-15.81,9.24-31.72,18.32-47.54,27.55C540.35,591,525.35,600,510.24,608.8c-14.11,8.22-28.3,16.3-42.47,24.42C466.23,634.11,464.59,634.81,463,635.62Z"/><path class="cls-25" d="M463,684.06c-2.22-8.56-1.08-10.6,5.56-14.32,11.8-6.61,23.36-13.66,35.09-20.4,15-8.61,30.16-17,45.11-25.68,18.66-10.87,37.17-22,55.76-33a7.55,7.55,0,0,1,2.24-.52c2.74,6.51,1.43,10.48-3.91,13.56-15.83,9.15-31.56,18.46-47.4,27.59-10.86,6.26-21.9,12.2-32.75,18.48-14.39,8.34-28.62,17-43,25.31C474.34,678.23,468.8,681,463,684.06Z"/><path class="cls-23" d="M789.85,672.1q-39.56-23-79.13-45.93-30.18-17.49-60.41-34.9c-5.86-3.38-11.72-6.75-17.66-10-1.35-.73-3-.84-4.56-1.23l.11-8.19c8.92,5,17.9,9.87,26.75,15q44.22,25.51,88.36,51.16c14.29,8.3,28.52,16.71,42.82,25,1.06.62,2.48.62,3.73.91Q789.86,668,789.85,672.1Z"/><path class="cls-25" d="M767.29,218.19c2,7.24.44,11.87-5.71,15.22-15.36,8.37-30.5,17.15-45.75,25.74-6.27,3.53-12.57,7-19,10.6-2.05-9.14-1.74-9.92,5.39-14Q729.9,239.85,757.62,224C760.73,222.19,763.77,220.29,767.29,218.19Z"/><path class="cls-25" d="M782,317.94c-4.39,2.19-8.89,4.2-13.16,6.62-8.88,5-17.64,10.28-26.44,15.46q-21.3,12.54-42.61,25.07a12,12,0,0,1-2.84.79c-1.31-2.8-1.46-4.69,1.53-6.35,7.21-4,14.28-8.24,21.38-12.43,14.89-8.79,29.72-17.66,44.66-26.37,6.4-3.73,13-7.11,19.51-10.66C787.15,313.68,785.27,316,782,317.94Z"/><path class="cls-25" d="M758.3,274,838.9,228c2.1,3.53.95,5.92-1.78,7.5-21.69,12.55-43.45,25-65.12,37.55-4.68,2.72-9.07,5.94-13.6,8.93C755.86,279.35,756,276.67,758.3,274Z"/><path class="cls-22" d="M758.3,274q0,4,.09,8.05c-.71,6.42-2.77,12.28-7.88,16.51-1.79,1.49-4.19,2.23-6.32,3.32-4.64-1.44-6.37-4.72-6.28-9.41s-.11-9.18,2.07-13.55c1.45-2.9,3-5.47,6-6.87h0a24.33,24.33,0,0,1,2.06-1.92C754.14,267.58,756,268.28,758.3,274Z"/><path class="cls-22" d="M810.36,300.1c-2.21,5.23-4,10.68-6.78,15.62a8.19,8.19,0,0,1-9.36,4.12c-3.06-1.1-4.3-3.34-4.27-6.51,0-5.75-.66-11.55,2.22-17,1.43-2.71,3-5.13,6-6.27,7.07-4.06,10.36-3,12.17,3.86A4.54,4.54,0,0,1,810.36,300.1Z"/><path class="cls-25" d="M730,297.93c-6.45,3.53-12.92,7-19.35,10.59-4.39,2.43-8.73,5-13.28,7.54-2.51-3.43-1.31-5.94,1.57-7.58,11-6.24,22-12.28,33.08-18.4C735.2,293.68,733.27,296,730,297.93Z"/><path class="cls-10" d="M730,297.93l2-7.86c1.77-4.52,3.27-9.17,5.41-13.5A7.74,7.74,0,0,1,746,272c-2,5.63-4.48,11.15-6,16.92a12.27,12.27,0,0,0,4.15,12.92A16,16,0,0,1,730,297.93Z"/><path class="cls-10" d="M798.12,290.08c-4.23,6.51-7.43,13.36-6.23,21.38a67.46,67.46,0,0,0,2.33,8.38c-2.84,1-5.51,1.66-8.11-.9-.87-.85-2.72-.7-4.13-1l2-7.87c.15-7.28,3.21-13.39,8.2-18.41C793.44,290.41,796.11,290.57,798.12,290.08Z"/><path class="cls-25" d="M810.36,300.1q0-3.08-.08-6.15c4.64-2.42,9.34-4.74,13.91-7.28,4.87-2.71,9.62-5.64,14.69-8.62,2,3.25,1.19,5.66-1.29,7.16-8.18,5-16.49,9.72-24.79,14.49A7.28,7.28,0,0,1,810.36,300.1Z"/><path class="cls-10" d="M748.06,270.07,746,272Z"/><path class="cls-23" d="M444,744.07l-1.12,1.32-.84-1.47Z"/><path class="cls-14" d="M1062.1,356l1.68-9.85c11.3.65,22.85.05,33.81,2.32,9.47,2,18.74,1.59,28,1.24,6.84-.25,13.61-2.93,20.36-4.75a77.22,77.22,0,0,0,8.16-3.18c3.82-2.81,8.54-3.18,12.85-4.6,5.58-1.84,11.12-4,17.07-4.45,1.51.41,2.7,1.07,2.21,3l-.26.32c-9,7.8-20.59,8.68-31.24,12.1s-21.53,7.07-32.31,10.56a21.43,21.43,0,0,1-5.68,1.27,114.39,114.39,0,0,1-15,0c-10.58-1-21.11-2.55-31.67-3.74C1067.45,355.88,1064.77,356,1062.1,356Z"/><path class="cls-26" d="M1258,204c10.85,8.13,19.39,18.05,24.13,30.95,3.8,3.2,4.8,7.28,3.4,11.89-.72,2.37.08,4.94-1.21,7.17-4,21.46-15.57,37-35.66,46a18.31,18.31,0,0,0-2.74,1.86c-5.62,4-11.56,2.75-17.27.59-5.48-2.07-8.85-6.61-11.52-11.65-1.11-1.84-1.89-3.86-2.91-5.76-2.2-4.09-1.91-7.53,1.23-11.37,3.31-4.05,5.84-8.87,3.85-14.55-2.66-1.08-4.68.72-6.93.92-4.34.39-6.26-.72-7.25-4.88a23.22,23.22,0,0,1-1-7.37c.8-9.28-3.53-15.14-12-18.34-3.12-2.78-6.73-5.15-8-9.51-.68-3.65-1.38-7.29-2-10.94-1.4-7.63,7.66-16.32,15.46-16.78,10.06-.6,20.19-.24,30.28,0,3.38.09,6.74,1.21,10.1,1.85,3.82,1.5,8.12.88,11.86,3.16C1252.83,199.17,1256.18,200.58,1258,204Z"/><path class="cls-17" d="M1218.13,289.81c2.47,2.78,4.78,5.74,7.44,8.32,5.88,5.7,13.33,3.58,20.3,3.72q-1.8,18-3.59,36.1c-5.64,2-11.13,5.06-16.94,5.85-12.39,1.69-24.12-1.73-35.29-7.12a19.93,19.93,0,0,0-3.81-1l-2.23-1.84c-2.68-2.44.31-4.88,0-7.32-.17-9.64-.17-9.64-9.42-10.55a11,11,0,0,1-2.39-.64,3.45,3.45,0,0,1-1.29-.84c-1.31-4.86,3-5,5.51-5.87,6.73-2.31,13.3-4.92,19.83-7.73a114.85,114.85,0,0,0,15.55-8.65C1213.76,291,1215.64,289.67,1218.13,289.81Z"/><path class="cls-11" d="M1185.84,326.75l-1.83,7.11-29.89,7.92c-3.63-1.23-7.18-2.9-10.91-3.59a132.13,132.13,0,0,0-15.65-1.63c-1.11-.07-2.3,1-3.45,1.53-3.87-4.66-2.79-8.93,2.81-10.84a13,13,0,0,1,5.75-.84c4.76,1,3.59-2.63,3.87-5.1,2.26-6,5.1-11.49,11.47-14.14,7.41,3.1,15.16,5.4,22.32,9.12C1176.49,318.31,1180.52,323.48,1185.84,326.75Z"/><path class="cls-21" d="M1046,342.25l-2-.21c-1.63-.71-3.42-.94-5-1.78l-3-.32a33.21,33.21,0,0,1-4-1.64l-2-.22a11.82,11.82,0,0,1-2.45-.4c-5.21-1.57-6-3.46-3.23-8.31,2.07-3.58,4.51-7,6.53-10.57,5.68-10.09,13.06-19,19.33-28.7l-.05.07A13.12,13.12,0,0,1,1052,288h0a10.94,10.94,0,0,1,4-2l2,.14c2.7,2.25,2.14,5.29,1.94,8.2-.13,1.93-1.12,3.8-.41,5.79-.17,1.94-.48,3.88-.5,5.82q-.18,16.41-.21,32.83a46.65,46.65,0,0,0,.6,5.38c-1.76,1.38-3.58,1-5.43.23l-3-.33A16.7,16.7,0,0,1,1046,342.25Z"/><path class="cls-18" d="M1170.14,317.9c-6.65-2.61-13.32-5.18-19.92-7.88-.93-.38-1.57-1.46-2.35-2.21-.77-3.42-.49-6.12,4-5.92-.28,5.09,5.08,4.91,7.31,7.69.81,1,2.6,1.22,4.26,1.93-1.18-6.12-3.61-12.07-3.16-17.79.89-11.17,3.22-22.25,5.29-33.31,2.45-13,8.49-24.74,14.5-36.39.83-1.61,2.61-2.73,3.94-4.07l8.21,7.93a8,8,0,0,1-1.34,5.2c-9.39,16.07-14.57,33.72-18.37,51.7-1.83,8.64-3.27,17.56-2.73,26.56a3.51,3.51,0,0,0,1.22,2.57l1.11.27C1173.43,316.47,1171.16,316.84,1170.14,317.9Z"/><path class="cls-10" d="M1258,204l-20.1-9.92c9.21-2.85,18.48-5.5,27.61-8.59,12.72-4.31,25.33-9,38-13.43,5.22-1.85,10.47-3.64,16.21-5.63V179c-19.13,6.95-38.06,13.83-57,20.67C1260.42,200.5,1256.66,199.47,1258,204Z"/><path class="cls-27" d="M1123.5,279.74l-15.8-18.55c1.37-1.28,2.5-2.38,3.67-3.43,5.69-5.08,5.76-5.13,11.08.5,2.19,2.32,3.75,2.23,6.15,0,5.43-5,11.42-9.38,16.77-14.44,3.07-2.9,5.13-2.91,7.48.42,1.5,2.12,3.12,4.15,4.87,6.48Z"/><path class="cls-28" d="M1151.91,301.89l-4,5.92L1138,322c-1.81,1.75-1.06,5.46-4.54,5.93a7.76,7.76,0,0,0-1.83,0c-8,2.1-8,2.11-7.5,10.16l-1.7,1.07a6.91,6.91,0,0,1-6.41-4.75l4.31-8.38c1.62-6.82,6.87-11.29,10.69-16.7a26.48,26.48,0,0,1,5.16-5.17h0a5.75,5.75,0,0,1,2-2c2.83-3.51,6-6.84,8.42-10.6,2.22-3.41,4.1-4.31,7.07-1a27.63,27.63,0,0,0,3.86,2.92Z"/><path class="cls-10" d="M1284.27,254,1282.08,235l35.81-11.06c0,3.7.55,6.8-.2,9.53-.49,1.78-2.62,3.69-4.46,4.4-7.16,2.77-14.46,5.23-21.79,7.49-3.64,1.12-5.86,2.86-5.67,6.95C1285.79,252.86,1284.79,253.46,1284.27,254Z"/><path class="cls-12" d="M1059.52,300.09l-1.53-14c3.81-2.8,7.45-5.89,11.47-8.34,4.68-2.84,9.7-5.12,14.58-7.65-2.46,2.05-4.95,4.09-7.39,6.16C1069,282.8,1064,291.28,1059.52,300.09Z"/><path class="cls-11" d="M1132.08,310l-11.78,16c-3.64-.31-7.71.86-10.33-3a1.73,1.73,0,0,1,.23-1.86A41.5,41.5,0,0,1,1125.74,309C1127.9,308.07,1130.29,307.71,1132.08,310Z"/><path class="cls-18" d="M1132.08,310c-7.54-.68-12,5-17.53,8.51-1.76,1.11-3.06,3-4.57,4.46-.33-1-1.25-2.47-.92-2.82,6.5-7.06,13-14.17,23.11-16.06a20.71,20.71,0,0,1,4,0Z"/><path class="cls-21" d="M1116,334.4l6.41,4.75-8.58,5.75-1-.89Z"/><path class="cls-17" d="M1054,344.34l5.43-.23.69,1.86C1057.79,346.42,1055.27,347.7,1054,344.34Z"/><path class="cls-10" d="M1122.15,192,1124,194Z"/><path class="cls-18" d="M1138.17,302.13l-2,2Z"/><path class="cls-3" d="M1115.72,634.16l4.3,1.69Z"/><path class="cls-17" d="M1050.16,290.1c-1.75,3.27-3.32,6.66-5.28,9.8-6.73,10.81-13.6,21.53-20.37,32.31a11.23,11.23,0,0,0-.84,2.86l6.29,3c-1.54,0-3.26.5-4.6,0-4.22-1.59-8.31-3.56-13.3-5.75,3.43-3.89,7-7.9,10.53-11.95q12.73-14.59,25.46-29.17A6.82,6.82,0,0,1,1050.16,290.1Z"/><path class="cls-17" d="M1046,342.25l5,1.76Z"/><path class="cls-17" d="M1039,340.26l5,1.78Z"/><path class="cls-17" d="M1032,338.3l4,1.64Z"/><path class="cls-17" d="M1056,286l-4,2Z"/><path class="cls-17" d="M1052,288l-1.87,2.18Z"/><path class="cls-29" d="M953.68,570c.13,2.41.29,4,.29,5.62q0,87,.08,173.92c0,5.37-2.24,8.33-6.85,10.92-16.65,9.37-33,19.24-49.57,28.79-11,6.35-22.19,12.36-33.18,18.72-14.25,8.25-28.38,16.72-42.58,25.05a18.83,18.83,0,0,1-3.35,1.06c-.2-2.17-.5-3.9-.5-5.62Q818,741,818,653.53c0-3.65.91-5.9,4.49-7.89,17.75-9.85,35.25-20.13,52.84-30.27,12.57-7.25,25.15-14.49,37.68-21.82,11.82-6.91,23.56-13.94,35.36-20.89C949.74,571.82,951.27,571.18,953.68,570Z"/><path class="cls-1" d="M1148.18,1089a3.74,3.74,0,0,1,.1.73c0,.08-.22.15-.34.22A1.25,1.25,0,0,1,1148.18,1089Z"/><path class="cls-5" d="M829,619.7c-2.38-8.54-1.52-11.05,5.15-14.88q39.75-22.78,79.53-45.49c4-2.29,5.79-1.28,5.77,3.35,0,3.4-1,6.05-4.53,8.07-28,15.89-55.83,32.07-83.73,48.14A14,14,0,0,1,829,619.7Z"/><path class="cls-14" d="M942.56,546.92l-4.75,11.16-7.46-5.58,10.55-6.79Z"/><path class="cls-11" d="M1171,313.9l-3.81-.39c1-9.77,1.17-19.35,3-28.61a213.1,213.1,0,0,1,8.64-30.46c3-8.28,7.33-16.07,11.16-24a12.36,12.36,0,0,1,2.23-2.53c8.58,1.94,13.41,7.74,13.8,16.17.22,4.73.83,9.44,1.33,14.78l13.36-2.95c2.51,6.73.94,16.11-3.89,19.71-3.35,2.49-3.12,4.32-1.28,7.37,1.24,2,1.72,4.55,2.54,6.85-7.81,4.68-15.38,9.83-23.49,13.89-6.86,3.43-14.37,5.55-21.55,8.34C1172.28,312.36,1171.72,313.27,1171,313.9Z"/><path class="cls-5" d="M1170.14,317.9l2-3.72c.33,0,.67,0,1,0,15.23-.17,12.92-2.07,12.7,12.62-1.71-.29-3.73-.1-5.07-1C1177.08,323.39,1173.67,320.56,1170.14,317.9Z"/><path class="cls-2" d="M1133.43,327.89,1138,322c0,1.47.31,3.11-.22,4.38C1137,328.07,1136.12,330.93,1133.43,327.89Z"/><path class="cls-25" d="M832.76,739.72C830.54,729,831.23,728,839.89,723c15-8.61,29.75-17.62,44.69-26.31,10.83-6.29,21.82-12.33,32.74-18.47l18.85-10.59c3.63,6.2,2.28,11-3,14-15.85,9.08-31.59,18.36-47.42,27.47-11.13,6.4-22.37,12.61-33.51,19C845.87,731.76,839.58,735.64,832.76,739.72Z"/><path class="cls-25" d="M937.36,722.26c1.78,10.58.9,12.17-7.34,16.75q-22.68,12.62-45.21,25.52c-12.59,7.19-25.11,14.5-37.63,21.81-4.5,2.63-8.9,5.41-13.37,8.13-3.62-6.56-2.27-11,3-14.1,14.55-8.4,28.94-17.06,43.48-25.48,11-6.36,22.12-12.45,33.14-18.73C921.29,731.69,929.06,727.09,937.36,722.26Z"/><path class="cls-25" d="M937.32,612.49c1.8,9.2,1.6,10.26-5.46,14.64-8.12,5.05-16.52,9.65-24.78,14.5-14.48,8.49-28.89,17.11-43.43,25.49-10,5.74-20.09,11.18-30.15,16.75-3.37-5.93-2.12-11,3.4-14.1,15.48-8.8,31-17.51,46.43-26.4C899.61,634,915.78,624.45,932,615,933.57,614.11,935.26,613.46,937.32,612.49Z"/></g></g></svg>