<?xml version="1.0" encoding="utf-8"?>
<!-- Generator: Adobe Illustrator 20.0.0, SVG Export Plug-In . SVG Version: 6.00 Build 0)  -->
<svg version="1.1" id="Layer_1" xmlns="http://www.w3.org/2000/svg" xmlns:xlink="http://www.w3.org/1999/xlink" x="0px" y="0px"
	 viewBox="0 0 100 100" style="enable-background:new 0 0 100 100;" xml:space="preserve">
<style type="text/css">
	.st0{fill:#FFFFFF;}
</style>
<path class="st0" d="M85.5,26.8c-0.5-0.2-1.1,0.1-1.3,0.6c-1.3,3.8-4.5,3.8-5.5,3.8c-0.3-2.4-1.3-4.6-3-6.3
	c-1.6-1.6-3.7-2.6-5.9-2.9c-0.1-1.2,0.1-4.2,3.8-5.4c0.5-0.2,0.8-0.7,0.6-1.3c-0.2-0.5-0.7-0.8-1.3-0.6c-4.3,1.4-5.2,4.9-5.1,7.2
	c-2.6,0.1-5.1,1.1-7,3.1c-1.6,1.6-2.6,3.6-2.9,5.8c-3.8-1.2-8.2-1.3-12.6-0.2c-4.5-2.6-9.3-4.8-12.7-4.7
	c-8.3,0.3-14.9,7.4-14.5,15.7c0.2,4.6,2.4,8.6,5.8,11.3c-0.2,0.9-0.4,1.8-0.7,2.8c-1.8,7-4.2,16.4-0.7,21.1L20,79.2
	c-0.4,0.4-0.4,1,0,1.4c0.2,0.2,0.5,0.3,0.7,0.3s0.5-0.1,0.7-0.3l2.5-2.5c1.9,1.5,4.6,2,7.5,2c5.4,0,11.8-1.9,16.7-3.4l1.2-0.4
	c0.3,0.4,0.7,0.8,1.1,1.1c2.8,2.6,6.4,4,10.3,4c0.2,0,0.4,0,0.6,0c4-0.2,7.8-1.9,10.5-4.9c2.7-3,4.2-6.8,4-10.9
	c-0.1-2.2-1.2-5-3.2-8.4c-0.7-1.1-1.4-2.2-2.1-3.3c0.8-4,0.6-7.9-0.5-11.3c2.2-0.4,4.2-1.4,5.8-2.9c1.8-1.8,2.8-4.1,3-6.6
	c0.1,0,0.3,0,0.5,0c2.3,0,5.5-1,6.9-5.2C86.3,27.5,86.1,27,85.5,26.8z M20.1,41.5c-0.3-7.2,5.4-13.4,12.6-13.7c0.1,0,0.2,0,0.2,0
	c6.4,0,19.3,9.5,22.9,12.2c-2.3,2.1-8.7,7.6-14.6,11.1C38,53,35.5,54,33.7,54C26.5,54.4,20.4,48.7,20.1,41.5z M45.9,63.7l-8.4-8.4
	c1.4-0.5,3-1.3,4.7-2.3c0.5-0.3,0.9-0.6,1.4-0.9l5,5C47.5,59.3,46.5,61.6,45.9,63.7z M49.7,55.2l-4.3-4.3c1.9-1.3,3.7-2.6,5.4-4
	l2.5,2.5C52,51.2,50.8,53.2,49.7,55.2z M24.6,57.9L43,76.2c-2.6,0.7-5.3,1.4-8,1.7l-12-12C23.4,63.2,24,60.4,24.6,57.9z M24.5,76.1
	c-1.6-1.6-2-4.4-1.8-7.6l9.7,9.7C29.1,78.3,26.3,77.8,24.5,76.1z M47.5,74.9c-0.7,0.2-1.5,0.5-2.3,0.7c0,0,0,0,0-0.1l-20-19.9
	c0.1-0.5,0.3-1.1,0.4-1.6c2.2,1.3,4.8,2.1,7.6,2.1c0.2,0,0.4,0,0.6,0c0.5,0,1-0.1,1.5-0.2L45.4,66c0,0.3,0,0.7,0,1
	c0.1,2.8,1,5.4,2.5,7.7L47.5,74.9z M73.8,65.9c0.1,3.5-1.1,6.9-3.5,9.4c-2.4,2.6-5.6,4.1-9.1,4.2s-6.9-1.1-9.4-3.5
	c-2.6-2.4-4.1-5.6-4.2-9.1c-0.3-6.3,9.5-19.5,12.2-23.1c2.1,2.3,7.6,8.7,11.1,14.6C72.7,61.6,73.7,64.1,73.8,65.9z M60.4,41.6
	c-0.2-0.2-0.5-0.3-0.8-0.3s-0.6,0.1-0.7,0.4c-0.2,0.3-2.1,2.7-4.5,6.1l-2-2c3.2-2.6,5.5-4.8,5.7-5s0.3-0.5,0.3-0.8s-0.1-0.6-0.4-0.7
	c-0.4-0.3-4.8-3.9-10.2-7.2c6.3-1,12.2,0.6,16.2,4.6c3.8,3.8,5.5,9.2,4.8,15.1C64.8,46.4,60.6,41.8,60.4,41.6z M74.3,38.4
	c-1.4,1.4-3.2,2.2-5.1,2.4c-0.9-2.1-2.2-4-3.8-5.6c-1.6-1.6-3.5-2.9-5.6-3.8c0.2-2,1.1-3.7,2.4-5.1c3.3-3.3,8.7-3.3,12.1,0
	c1.6,1.6,2.5,3.8,2.5,6S75.9,36.8,74.3,38.4z"/>
</svg>
