<?xml version="1.0" encoding="utf-8"?>
<!-- Generator: Adobe Illustrator 16.0.0, SVG Export Plug-In . SVG Version: 6.00 Build 0)  -->
<!DOCTYPE svg PUBLIC "-//W3C//DTD SVG 1.1//EN" "http://www.w3.org/Graphics/SVG/1.1/DTD/svg11.dtd">
<svg version="1.1" id="Layer_1" xmlns="http://www.w3.org/2000/svg" xmlns:xlink="http://www.w3.org/1999/xlink" x="0px" y="0px"
	 width="128px" height="128px" viewBox="0 0 128 128" enable-background="new 0 0 128 128" xml:space="preserve">
<g>
	<g>
		<g>
			<rect x="4.5" y="31.5" fill="#B0BEC5" width="120" height="83"/>
			<path fill="#37474F" d="M126,116H3V30h123V116z M6,113h117V33H6V113z"/>
		</g>
		<g>
			<rect x="4.5" y="80.5" fill="#FFFFFF" width="120" height="34"/>
			<path fill="#37474F" d="M124.5,116H4.5c-0.8,0-1.5-0.7-1.5-1.5v-34C3,79.7,3.7,79,4.5,79h120c0.8,0,1.5,0.7,1.5,1.5v34
				C126,115.3,125.3,116,124.5,116z M6,113h117V82H6V113z"/>
		</g>
		<g>
			<rect x="4.5" y="31.5" fill="#FFAB00" width="120" height="38"/>
			<path fill="#37474F" d="M126,71H3V30h123V71z M6,68h117V33H6V68z"/>
		</g>
		<g>
			<g>
				<path fill="#37474F" d="M56,55.4c0,0.7-0.6,1.4-1.4,1.4c-0.8,0-1.4-0.6-1.4-1.4c0-0.8,0.6-1.4,1.4-1.4C55.3,54,56,54.6,56,55.4z
					"/>
				<path fill="#37474F" d="M54.6,57.3c-1,0-1.9-0.8-1.9-1.9c0-1,0.9-1.9,1.9-1.9c1,0,1.9,0.9,1.9,1.9
					C56.5,56.4,55.6,57.3,54.6,57.3z M54.6,54.5c-0.5,0-0.9,0.4-0.9,0.9c0,0.5,0.4,0.9,0.9,0.9c0.5,0,0.9-0.4,0.9-0.9
					C55.5,54.9,55.1,54.5,54.6,54.5z"/>
			</g>
			<g>
				<path fill="#37474F" d="M65.6,55.4c0,0.7-0.6,1.4-1.4,1.4c-0.8,0-1.4-0.6-1.4-1.4c0-0.8,0.6-1.4,1.4-1.4
					C65,54,65.6,54.6,65.6,55.4z"/>
				<path fill="#37474F" d="M64.2,57.3c-1,0-1.9-0.8-1.9-1.9c0-1,0.8-1.9,1.9-1.9c1,0,1.9,0.9,1.9,1.9
					C66.1,56.4,65.3,57.3,64.2,57.3z M64.2,54.5c-0.5,0-0.9,0.4-0.9,0.9c0,0.5,0.4,0.9,0.9,0.9c0.5,0,0.9-0.4,0.9-0.9
					C65.1,54.9,64.7,54.5,64.2,54.5z"/>
			</g>
			<g>
				<path fill="#37474F" d="M75.3,55.4c0,0.7-0.6,1.4-1.4,1.4c-0.8,0-1.4-0.6-1.4-1.4c0-0.8,0.6-1.4,1.4-1.4
					C74.7,54,75.3,54.6,75.3,55.4z"/>
				<path fill="#37474F" d="M73.9,57.3c-1,0-1.9-0.8-1.9-1.9c0-1,0.8-1.9,1.9-1.9c1,0,1.9,0.9,1.9,1.9
					C75.8,56.4,74.9,57.3,73.9,57.3z M73.9,54.5c-0.5,0-0.9,0.4-0.9,0.9c0,0.5,0.4,0.9,0.9,0.9c0.5,0,0.9-0.4,0.9-0.9
					C74.8,54.9,74.4,54.5,73.9,54.5z"/>
			</g>
		</g>
		<g>
			<g>
				<g>
					<rect x="20.5" y="49.5" fill="#FFECB3" width="16" height="37"/>
					<path fill="#37474F" d="M36.5,88h-16c-0.8,0-1.5-0.7-1.5-1.5v-37c0-0.8,0.7-1.5,1.5-1.5h16c0.8,0,1.5,0.7,1.5,1.5v37
						C38,87.3,37.3,88,36.5,88z M22,85h13V51H22V85z"/>
				</g>
				<g>
					<rect x="20.5" y="62.5" fill="#78909C" width="16" height="12"/>
					<path fill="#37474F" d="M38,76H19V61h19V76z M22,73h13v-9H22V73z"/>
				</g>
				<g>
					<rect x="20.5" y="92.5" fill="#FFFFFF" width="16" height="5"/>
					<path fill="#37474F" d="M38,99H19v-8h19V99z M22,96h13v-2H22V96z"/>
				</g>
			</g>
			<g>
				<g>
					<rect x="91.5" y="49.5" fill="#FFECB3" width="16" height="37"/>
					<path fill="#37474F" d="M107.5,88h-16c-0.8,0-1.5-0.7-1.5-1.5v-37c0-0.8,0.7-1.5,1.5-1.5h16c0.8,0,1.5,0.7,1.5,1.5v37
						C109,87.3,108.3,88,107.5,88z M93,85h13V51H93V85z"/>
				</g>
				<g>
					<rect x="91.5" y="62.5" fill="#78909C" width="16" height="12"/>
					<path fill="#37474F" d="M109,76H90V61h19V76z M93,73h13v-9H93V73z"/>
				</g>
				<g>
					<rect x="91.5" y="92.5" fill="#FFFFFF" width="16" height="5"/>
					<path fill="#37474F" d="M109,99H90v-8h19V99z M93,96h13v-2H93V96z"/>
				</g>
			</g>
		</g>
		<g>
			<rect x="45.5" y="14.5" fill="#FFAB00" width="37" height="9"/>
			<path fill="#37474F" d="M84,25H44V13h40V25z M47,22h34v-6H47V22z"/>
		</g>
		<g>
			<g>
				<rect x="46.5" y="23.5" fill="#78909C" width="9" height="8"/>
				<path fill="#37474F" d="M57,33H45V22h12V33z M48,30h6v-5h-6V30z"/>
			</g>
			<g>
				<polygon fill="#78909C" points="81.6,31.5 72.6,31.5 72.5,23.5 81.5,23.5 				"/>
				<path fill="#37474F" d="M83.1,33h-12L71,22h12L83.1,33z M74.1,30h6l0-5h-6L74.1,30z"/>
			</g>
		</g>
	</g>
	<g>
		<g>
			<line fill="#B0BEC5" x1="5.4" y1="113.9" x2="21" y2="98.3"/>
			<path fill="#37474F" d="M5.4,115.4c-0.4,0-0.8-0.1-1.1-0.4c-0.6-0.6-0.6-1.5,0-2.1L20,97.2c0.6-0.6,1.5-0.6,2.1,0
				c0.6,0.6,0.6,1.5,0,2.1L6.5,115C6.2,115.3,5.8,115.4,5.4,115.4z"/>
		</g>
		<g>
			<line fill="#B0BEC5" x1="123.1" y1="113.9" x2="107.5" y2="98.3"/>
			<path fill="#37474F" d="M123.1,115.4c-0.4,0-0.8-0.1-1.1-0.4l-15.6-15.6c-0.6-0.6-0.6-1.5,0-2.1c0.6-0.6,1.5-0.6,2.1,0l15.6,15.6
				c0.6,0.6,0.6,1.5,0,2.1C123.8,115.3,123.5,115.4,123.1,115.4z"/>
		</g>
	</g>
	<g>
		<line fill="#B0BEC5" x1="38" y1="94.5" x2="92" y2="94.5"/>
		<rect x="38" y="93" fill="#37474F" width="54" height="3"/>
	</g>
</g>
</svg>
