<?xml version="1.0" encoding="utf-8"?>
<!-- Generator: Adobe Illustrator 16.0.0, SVG Export Plug-In . SVG Version: 6.00 Build 0)  -->
<!DOCTYPE svg PUBLIC "-//W3C//DTD SVG 1.1//EN" "http://www.w3.org/Graphics/SVG/1.1/DTD/svg11.dtd">
<svg version="1.1" id="Layer_1" xmlns="http://www.w3.org/2000/svg" xmlns:xlink="http://www.w3.org/1999/xlink" x="0px" y="0px"
	 width="128px" height="128px" viewBox="0 0 128 128" enable-background="new 0 0 128 128" xml:space="preserve">
<g>
	<g>
		
			<polygon fill="#FFFFFF" stroke="#37474F" stroke-width="3" stroke-linecap="round" stroke-linejoin="round" stroke-miterlimit="10" points="
			3.9,97.9 31,124.9 123.8,32.1 96.7,5.1 		"/>
		
			<line fill="#FFFFFF" stroke="#37474F" stroke-width="3" stroke-linecap="round" stroke-linejoin="round" stroke-miterlimit="10" x1="102.8" y1="36.6" x2="31" y2="108.5"/>
		
			<line fill="#FFFFFF" stroke="#37474F" stroke-width="3" stroke-linecap="round" stroke-linejoin="round" stroke-miterlimit="10" x1="89.5" y1="28.7" x2="99.1" y2="38.4"/>
		
			<line fill="#FFFFFF" stroke="#37474F" stroke-width="3" stroke-linecap="round" stroke-linejoin="round" stroke-miterlimit="10" x1="87.5" y1="41.3" x2="91.9" y2="45.7"/>
		
			<line fill="#FFFFFF" stroke="#37474F" stroke-width="3" stroke-linecap="round" stroke-linejoin="round" stroke-miterlimit="10" x1="75.5" y1="42.7" x2="85.1" y2="52.4"/>
		
			<line fill="#FFFFFF" stroke="#37474F" stroke-width="3" stroke-linecap="round" stroke-linejoin="round" stroke-miterlimit="10" x1="73.5" y1="55.3" x2="77.9" y2="59.7"/>
		
			<line fill="#FFFFFF" stroke="#37474F" stroke-width="3" stroke-linecap="round" stroke-linejoin="round" stroke-miterlimit="10" x1="61.5" y1="56.7" x2="71.2" y2="66.4"/>
		
			<line fill="#FFFFFF" stroke="#37474F" stroke-width="3" stroke-linecap="round" stroke-linejoin="round" stroke-miterlimit="10" x1="59.5" y1="69.3" x2="63.9" y2="73.7"/>
		
			<line fill="#FFFFFF" stroke="#37474F" stroke-width="3" stroke-linecap="round" stroke-linejoin="round" stroke-miterlimit="10" x1="47.5" y1="70.7" x2="57.2" y2="80.4"/>
		
			<line fill="#FFFFFF" stroke="#37474F" stroke-width="3" stroke-linecap="round" stroke-linejoin="round" stroke-miterlimit="10" x1="45.5" y1="83.3" x2="49.9" y2="87.7"/>
		
			<line fill="#FFFFFF" stroke="#37474F" stroke-width="3" stroke-linecap="round" stroke-linejoin="round" stroke-miterlimit="10" x1="33.5" y1="84.7" x2="43.2" y2="94.4"/>
		
			<line fill="#FFFFFF" stroke="#37474F" stroke-width="3" stroke-linecap="round" stroke-linejoin="round" stroke-miterlimit="10" x1="31.6" y1="97.3" x2="35.9" y2="101.6"/>
	</g>
	<g>
		
			<path fill="#37474F" stroke="#37474F" stroke-width="3" stroke-linecap="round" stroke-linejoin="round" stroke-miterlimit="10" d="
			M75.7,98.4c2.8,2.8,9.8,0.3,15.6-5.6l0,0c5.9-5.8,8.4-12.9,5.6-15.6L29.6,9.8c-2.8-2.8-9.8-0.3-15.6,5.6l0,0
			C8,21.3,5.6,28.3,8.3,31L75.7,98.4z"/>
		
			<polygon fill="#FFFFFF" stroke="#37474F" stroke-width="3" stroke-linecap="round" stroke-linejoin="round" stroke-miterlimit="10" points="
			120.4,121.3 108.3,93.1 91.6,109.8 		"/>
		
			<polygon fill="#37474F" stroke="#37474F" stroke-width="3" stroke-linecap="round" stroke-linejoin="round" stroke-miterlimit="10" points="
			120.5,121.2 115.5,110.1 109.2,116.4 		"/>
		
			<path fill="#FFAB00" stroke="#37474F" stroke-width="3" stroke-linecap="round" stroke-linejoin="round" stroke-miterlimit="10" d="
			M85.6,108.3c2.8,2.8,9.8,0.3,15.6-5.6l0,0c5.9-5.9,8.4-12.9,5.6-15.7L39.5,19.8c-2.8-2.8-9.8-0.3-15.6,5.6l0,0
			C18,31.2,15.5,38.2,18.3,41L85.6,108.3z"/>
		
			<path fill="#FFECB3" stroke="#37474F" stroke-width="3" stroke-linecap="round" stroke-linejoin="round" stroke-miterlimit="10" d="
			M91.2,102.8c2.8,2.8,7.3,2.8,10.1,0l0,0c2.8-2.8,2.8-7.3,0-10.1L33.9,25.3c-2.8-2.8-7.3-2.8-10.1,0l0,0c-2.8,2.8-2.8,7.3,0,10.1
			L91.2,102.8z"/>
	</g>
	<g>
		<path fill="#37474F" stroke="#37474F" stroke-miterlimit="10" d="M73.9,7c0,0.9,0.8,1.7,1.7,1.7c0.9,0,1.7-0.7,1.7-1.7
			c0-0.9-0.8-1.7-1.7-1.7C74.6,5.4,73.9,6.1,73.9,7z"/>
		<path fill="#37474F" stroke="#37474F" stroke-miterlimit="10" d="M62.2,7c0,0.9,0.7,1.7,1.7,1.7c0.9,0,1.7-0.7,1.7-1.7
			c0-0.9-0.8-1.7-1.7-1.7C62.9,5.4,62.2,6.1,62.2,7z"/>
		<path fill="#37474F" stroke="#37474F" stroke-miterlimit="10" d="M50.5,7c0,0.9,0.8,1.7,1.7,1.7c0.9,0,1.7-0.7,1.7-1.7
			c0-0.9-0.7-1.7-1.7-1.7C51.2,5.4,50.5,6.1,50.5,7z"/>
	</g>
</g>
</svg>
