<?xml version="1.0" encoding="utf-8"?>
<!-- Generator: Adobe Illustrator 19.0.0, SVG Export Plug-In . SVG Version: 6.00 Build 0)  -->
<svg version="1.1" xmlns="http://www.w3.org/2000/svg" xmlns:xlink="http://www.w3.org/1999/xlink" x="0px" y="0px"
	 viewBox="-35 37 128 128" style="enable-background:new -35 37 128 128;" xml:space="preserve">
<style type="text/css">
	.st0{fill:none;}
	.st1{fill:#FFECB3;}
	.st2{fill:#FFFFFF;}
	.st3{fill:#FFAB00;}
	.st4{fill:#78909C;}
	.st5{fill:#B0BEC5;}
	.st6{fill:#37474F;}
</style>
<g id="Layer_1">
</g>
<g id="Layer_2">
	<g>
		<path class="st0" d="M29.3,71.4c-0.5,0.3-1.1,0.7-1.7,1h2.8C29.9,71.7,29.6,71.5,29.3,71.4z"/>
		<polygon class="st0" points="28,115.2 28,117.9 28.4,119.6 28.2,115.6 		"/>
		<path class="st0" d="M8,119.9l0.5-2v-3l-0.3,0.6L8,119.9C8,119.9,8,119.9,8,119.9z"/>
		<path class="st0" d="M24.5,118.6c0-0.2-0.1-0.3-0.1-0.4v-12.4c-1.9,1-4,1.6-6.2,1.6c-2.2,0-4.2-0.5-6.1-1.5v12.3
			c0,0.2,0,0.3-0.1,0.4l-1.1,3.9l7.3,16.2l7.3-16.1L24.5,118.6z"/>
		<path class="st1" d="M-1.5,82.8c-0.9-0.1-1.6-0.8-1.6-1.8c0-0.2,0-0.4,0.1-0.6c-0.2-0.1-0.4-0.1-0.6-0.2
			c-1.6,7.5-3.4,15.3-4.7,19.9c3,0.8,9.3,2.3,15.4,1.9C2.9,97.4-0.1,90.4-1.5,82.8z"/>
		<path class="st1" d="M38.6,78.6c0,0.3-0.1,0.6-0.1,0.9c0.6,0.3,1.1,0.9,1.1,1.6c0,0.9-0.7,1.7-1.6,1.8c-1.4,7.6-4.4,14.5-8.6,19.1
			c6,0.4,12.3-1.1,15.2-1.9c-1.4-4.8-3.3-13.3-5-21.1C39.2,78.8,38.9,78.7,38.6,78.6z"/>
		<path class="st2" d="M32.4,89.7C31.9,89.9,31.5,90,31,90h-5.1c-2.7,0-6.8-2.6-6.8-5.8v-2c0-3.1,2.2-5.5,5.1-5.5H31
			c1.7,0,3.1,0.8,4,2.1c0.1-0.6,0.1-1.1,0.2-1.7c-2.2-1.4-3.4-2.9-4.3-4.1c-0.2-0.2-0.3-0.4-0.4-0.5h-2.8c-2.5,1.4-5.9,2.7-10,4.1
			l-0.2,0.2c-0.8,0.3-1.7,0.6-2.5,0.8c1.4,1,2.4,2.7,2.4,4.7v2c0,3.2-4.1,5.8-6.8,5.8H5.4c-0.5,0-0.9-0.1-1.4-0.2
			c2.9,8.1,7.9,14.1,14.2,14.1C24.5,103.8,29.4,97.8,32.4,89.7z"/>
		<path class="st1" d="M0.5,62.3l-1,5.9L-0.9,72c0,0.4-0.1,0.7-0.2,1c0,0.2-0.1,0.4-0.1,0.5c0,0.4-0.2,0.9-0.4,2
			c-0.1,0.4-0.3,1-0.4,1.3c0.6,0.4,2.3,0.7,5.5,0.1c0.6-0.2,1.2-0.4,1.8-0.4c3.5-0.8,7.5-2.2,11.1-3.4l0.2-0.1
			c4.6-1.5,8.3-3.1,10.7-4.6c0.4-0.4,0.8-0.7,1.3-0.7c0.1,0,0.2,0,0.2,0h0.3c2.3,0,3.5,1.5,4.5,2.9c1.2,1.6,2.6,3.4,6.4,4.6
			l-1.3-7.9c0,0-0.1,0-0.1,0c-1,0.1-1.9-0.6-2-1.6c-0.6-7.8-2.2-7.7-3.9-7.6c-1.1,0.1-2.3,0.2-3.5-0.8c-0.4-0.3-0.6-0.7-0.6-1.2
			c-0.7-5.3-3.2-6.2-10.5-6.2c-6.4,0-12.1,2.1-14.6,5.5c-0.1,0.1-0.2,0.3-0.3,0.4c-1.8,1.5-2.8,3.6-2.8,6
			C0.5,62.1,0.5,62.2,0.5,62.3z"/>
		<path class="st3" d="M4.2,135.5l-5.3-0.9c-0.5-0.1-1-0.4-1.2-0.9c-0.3-0.4-0.3-1.1-0.1-1.5l1.2-2.9c-11.8,2.9-18.4,4.6-21.6,7.1
			c-2.8,2.3-3.2,5.8-3.4,13.1h8.7l-1.7-7.2c-0.2-1,0.4-1.9,1.3-2.1c1-0.3,1.9,0.4,2.1,1.3l1.8,7.7c0,0.1,0,0.2,0,0.3H9.9l-5.6-13
			C4.2,136.2,4.2,135.9,4.2,135.5z"/>
		<path class="st1" d="M7.8,120c0,0,0.1,0,0.2-0.1l0.3-4.4l-6.6,15.9l5.5,0.9l0.6-8.4l-0.8-1.7C6.5,121.4,6.9,120.3,7.8,120z"/>
		<path class="st3" d="M41.8,130.3c-1.3-0.3-2.6-0.6-4.1-1l1.2,2.9c0.2,0.5,0.2,1.1-0.1,1.5c-0.3,0.4-0.7,0.8-1.2,0.9l-5.4,0.9
			c0,0.3,0,0.6-0.2,0.9l-5.4,13h15.2V130.3z"/>
		<path class="st1" d="M34.7,131.4l-6.6-15.8l0.3,4l0.2,0.9c0.8,0.5,1.1,1.4,0.7,2.2l-0.7,1.5l0.5,8.2L34.7,131.4z"/>
		<path class="st2" d="M5.4,80.2c-0.9,0-1.4,1-1.4,2v2c0,1.2,0.7,2.2,1.4,2.2h5.1c1.2,0,3.3-1.4,3.3-2.2v-2c0-0.9-0.5-2-1.5-2H5.4z"
			/>
		<path class="st2" d="M32.4,84.2v-2c0-1-0.4-2-1.4-2h-6.8c-1,0-1.5,1-1.5,2v2c0,0.8,2.1,2.2,3.3,2.2H31
			C31.7,86.4,32.4,85.3,32.4,84.2z"/>
		<polygon class="st4" points="48.7,128.3 48.7,125.7 44.3,125.7 		"/>
		<polygon class="st4" points="86.3,128.1 90.4,125.7 86.3,125.7 		"/>
		<polygon class="st2" points="67.4,139.3 68,138.9 66.8,138.9 		"/>
		<polygon class="st2" points="58.4,134 64.7,137.7 70,137.7 76.3,134 		"/>
		<path class="st2" d="M50,129l6.3,3.7h22.1l6.7-4v-14.7H50C50,114.1,50,121.7,50,129z M78.9,129H55.8c-0.3,0-0.6-0.3-0.6-0.6
			c0-0.3,0.3-0.6,0.6-0.6h23.1c0.3,0,0.6,0.3,0.6,0.6C79.5,128.7,79.2,129,78.9,129z M55.8,122.4h23.1c0.3,0,0.6,0.3,0.6,0.6
			c0,0.3-0.3,0.6-0.6,0.6H55.8c-0.3,0-0.6-0.3-0.6-0.6C55.2,122.7,55.5,122.4,55.8,122.4z"/>
		<path class="st5" d="M55.8,123.6h23.1c0.3,0,0.6-0.3,0.6-0.6c0-0.3-0.3-0.6-0.6-0.6H55.8c-0.3,0-0.6,0.3-0.6,0.6
			C55.2,123.3,55.5,123.6,55.8,123.6z"/>
		<path class="st5" d="M78.9,127.8H55.8c-0.3,0-0.6,0.3-0.6,0.6c0,0.3,0.3,0.6,0.6,0.6h23.1c0.3,0,0.6-0.3,0.6-0.6
			C79.5,128.1,79.2,127.8,78.9,127.8z"/>
		<polygon class="st5" points="56.3,132.7 58.4,134 76.3,134 78.4,132.7 		"/>
		<polygon class="st5" points="66.8,138.9 68,138.9 70,137.7 64.7,137.7 		"/>
		<path class="st3" d="M43,153.7L66.1,140L43,126.4C43,127.7,43,152.8,43,153.7z M51.4,140.2c0-0.4,0.4-0.8,0.8-0.8
			c0.4,0,0.8,0.4,0.8,0.8c0,0.4-0.3,0.7-0.8,0.7C51.7,140.9,51.4,140.6,51.4,140.2z M56,140.9c-0.4,0-0.8-0.3-0.8-0.7
			c0-0.4,0.3-0.8,0.8-0.8c0.4,0,0.8,0.4,0.8,0.8C56.8,140.6,56.5,140.9,56,140.9z M49,140.2c-0.1,0.4-0.4,0.7-0.8,0.7
			c-0.4,0-0.8-0.3-0.8-0.7c0-0.4,0.3-0.8,0.8-0.8C48.6,139.4,49,139.8,49,140.2z"/>
		<path class="st1" d="M91.7,154.2v-27.8l-47,27.8h45.5H91.7z M81.1,150.4c-3.5,0-6.5-2.9-6.5-6.5s2.9-6.5,6.5-6.5s6.5,2.9,6.5,6.5
			S84.8,150.4,81.1,150.4z"/>
		<path class="st6" d="M92.9,124.9c-0.1-0.3-0.3-0.5-0.6-0.5h-6v-10.9c0-0.3-0.3-0.6-0.6-0.6H49.3c-0.3,0-0.6,0.3-0.6,0.6v10.9h-6.3
			c-0.3,0-0.6,0.3-0.6,0.6v0.2v1.4c-1.8-0.4-3.6-0.9-5.6-1.4l-0.1,0l-6.5-15.7c-0.3-0.6-0.9-1-1.5-1.1v-3.1c1.1,0.1,2.2,0.2,3.3,0.2
			c8.1,0,15.7-2.6,15.9-2.8c1-0.3,1.4-1.3,1.2-2.2c-2.1-6.7-6.4-27.3-8.2-36.3c-0.9-8.3-3.5-9.9-7.5-9.6c-0.2,0-0.4,0-0.5,0
			c-1.5-7.5-7.2-8.1-13.9-8.1c-7.5,0-14,2.6-17.4,6.7c-2.3,1.9-3.7,4.7-4,7.7c-0.9,4.7-6.4,31.9-8.9,39.8c-0.3,0.9,0.3,1.9,1.2,2.2
			c0.4,0.1,8,2.7,16.1,2.7c1.1,0,2.2,0,3.2-0.1c0.1,0,0.1,0,0.2,0v2.9c-0.7,0-1.3,0.4-1.6,1.1l-6.5,15.8l-0.2,0
			c-27.4,6.6-29.5,7.1-30,24.1c-0.7,0.1-1.8,0.1-3.5,0.1c-1,0-1.8,0.8-1.8,1.8c0,1,0.8,1.8,1.8,1.8h45.8c0.6,0,1.2-0.3,1.4-0.8
			c0.4-0.5,0.4-1.2,0.2-1.7l-6.4-14.8c0.5-0.3,0.8-0.7,0.9-1.3c0.2-1-0.4-1.9-1.4-2l-0.2,0l-5.5-0.9l6.6-15.9l0.3-0.6v3l-0.5,2
			c0,0,0,0,0,0c-0.1,0-0.1,0-0.2,0.1c-0.9,0.4-1.3,1.4-0.9,2.3l0.8,1.7l8.6,19l-0.3,0.7c-0.4,0.9,0,1.9,0.9,2.3
			c0.2,0.1,0.4,0.2,0.7,0.2c0.2,0,0.4,0,0.6-0.1c0.2,0.1,0.4,0.1,0.6,0.1c0.3,0,0.4-0.1,0.7-0.2c0.9-0.4,1.3-1.4,0.9-2.3l-0.3-0.7
			l8.6-18.8l0.7-1.5c0.3-0.8,0-1.7-0.7-2.2l-0.2-0.9l-0.5-1.7v-2.7l0.2,0.4l6.6,15.8l-5.5,0.9l-0.2,0c-1,0.2-1.6,1.1-1.4,2
			c0.1,0.6,0.4,1,0.9,1.3l-6.4,14.8c-0.2,0.5-0.2,1.2,0.2,1.7c0.4,0.5,0.9,0.8,1.5,0.8h18v1.8c0,0.1,0,0.2,0.1,0.3c0,0,0,0,0,0.1
			c0,0,0,0.1,0.1,0.1c0,0,0.1,0,0.1,0.1c0,0,0.1,0,0.1,0.1c0.1,0,0.1,0,0.2,0h49.9h0.2l0,0c0.2-0.1,0.4-0.3,0.4-0.6v-29.6
			C93,125.1,93,125,92.9,124.9z M32,136.5c0.2-0.3,0.2-0.6,0.2-0.9l5.4-0.9c0.5-0.1,1-0.4,1.2-0.9c0.3-0.4,0.3-1,0.1-1.5l-1.2-2.9
			c1.4,0.3,2.8,0.7,4.1,1v19.1H26.6L32,136.5z M43,126.4L66.1,140L43,153.7C43,152.8,43,127.7,43,126.4z M85.1,114.1v14.7l-6.7,4
			l-2.1,1.2l-6.3,3.7l-2.1,1.2l-0.6,0.3l-0.6-0.3l-2.1-1.2l-6.3-3.7l-2.1-1.2L50,129c0-7.3,0-14.9,0-14.9H85.1z M86.3,128.1v-2.4h4
			L86.3,128.1z M48.7,128.3l-4.4-2.6h4.4V128.3z M91.7,126.3v27.8h-1.5H44.7L91.7,126.3z M-8.3,100.1c1.3-4.6,3.1-12.4,4.7-19.9
			c0.2,0.1,0.4,0.2,0.6,0.2c-0.1,0.2-0.1,0.4-0.1,0.6c0,0.9,0.7,1.7,1.6,1.8c1.4,7.6,4.4,14.6,8.6,19.2
			C1.1,102.4-5.3,100.9-8.3,100.1z M3.4,56c0.1-0.1,0.2-0.3,0.3-0.4c2.5-3.4,8.2-5.5,14.6-5.5c7.3,0,9.8,0.9,10.5,6.2
			c0,0.4,0.3,0.9,0.6,1.2c1.2,1,2.4,0.9,3.5,0.8c1.7-0.2,3.3-0.3,3.9,7.6c0.1,1,1,1.7,2,1.6c0,0,0.1,0,0.1,0l1.3,7.9
			c-3.8-1.2-5.2-3.1-6.4-4.6c-1.1-1.4-2.2-2.9-4.5-2.9h-0.3c0,0-0.1,0-0.2,0c-0.5,0-1,0.3-1.3,0.7c-2.3,1.5-6,3.1-10.7,4.6l-0.2,0.1
			c-3.6,1.2-7.6,2.6-11.1,3.4c-0.7,0-1.3,0.1-1.8,0.4c-3.3,0.6-4.9,0.3-5.5-0.1c0.1-0.4,0.3-1,0.4-1.3c0.3-1.2,0.4-1.7,0.4-2
			c0-0.2,0.1-0.4,0.1-0.5c0.1-0.3,0.2-0.6,0.2-1l0.4-3.8l1-5.9c0-0.1,0-0.2,0-0.3C0.5,59.7,1.6,57.5,3.4,56z M29.3,101.9
			c4.2-4.6,7.1-11.5,8.6-19.1c0.9-0.1,1.6-0.8,1.6-1.8c0-0.7-0.4-1.4-1.1-1.6c0-0.3,0.1-0.6,0.1-0.9c0.3,0.1,0.6,0.2,1,0.3
			c1.7,7.8,3.6,16.3,5,21.1C41.7,100.8,35.3,102.3,29.3,101.9z M4,89.7C4.5,89.9,4.9,90,5.4,90h5.1c2.8,0,6.8-2.6,6.8-5.8v-2
			c0-2-0.9-3.7-2.4-4.7c0.8-0.3,1.7-0.6,2.5-0.8l0.2-0.2c4.1-1.4,7.5-2.7,10-4.1c0.6-0.3,1.2-0.7,1.7-1c0.3,0.1,0.6,0.3,1.1,1
			c0.1,0.2,0.3,0.3,0.4,0.5c0.9,1.2,2.1,2.8,4.3,4.1c-0.1,0.6-0.1,1.1-0.2,1.7c-0.9-1.3-2.3-2.1-4-2.1h-6.8c-2.8,0-5.1,2.4-5.1,5.5
			v2c0,3.2,4.2,5.8,6.8,5.8H31c0.5,0,0.9-0.1,1.4-0.2c-2.9,8.1-7.9,14.1-14.2,14.1C12,103.8,7,97.8,4,89.7z M31,86.4h-5.1
			c-1.2,0-3.3-1.4-3.3-2.2v-2c0-1,0.5-2,1.5-2H31c1,0,1.4,1,1.4,2v2C32.4,85.3,31.7,86.4,31,86.4z M13.8,82.1v2
			c0,0.8-2.1,2.2-3.3,2.2H5.4c-0.7,0-1.4-1.1-1.4-2.2v-2c0-1,0.5-2,1.4-2h6.8C13.2,80.2,13.8,81.2,13.8,82.1z M-13.9,149.5
			c0-0.1,0-0.2,0-0.3l-1.8-7.7c-0.3-1-1.2-1.6-2.1-1.3c-1,0.3-1.5,1.2-1.3,2.1l1.7,7.2h-8.7c0.2-7.3,0.5-10.7,3.4-13.1
			c3.2-2.5,9.8-4.2,21.6-7.1l-1.2,2.9c-0.2,0.4-0.2,1.1,0.1,1.5c0.3,0.4,0.7,0.8,1.2,0.9l5.3,0.9c0,0.3,0,0.6,0.1,1l5.6,13H-13.9z
			 M10.9,122.6l1.1-3.9c0.1-0.2,0.1-0.3,0.1-0.4v-12.3c1.9,1,3.9,1.5,6.1,1.5c2.2,0,4.3-0.6,6.2-1.6v12.4c0,0.2,0.1,0.3,0.1,0.4
			l1,4.1l-7.3,16.1L10.9,122.6z"/>
		<path class="st6" d="M48.2,139.4c-0.4,0-0.8,0.4-0.8,0.8c0,0.4,0.4,0.7,0.8,0.7c0.4,0,0.7-0.3,0.8-0.7
			C49,139.8,48.6,139.4,48.2,139.4z"/>
		<path class="st6" d="M52.1,140.9c0.4,0,0.8-0.3,0.8-0.7c0-0.4-0.4-0.8-0.8-0.8c-0.4,0-0.8,0.4-0.8,0.8
			C51.4,140.6,51.7,140.9,52.1,140.9z"/>
		<path class="st6" d="M56.8,140.2c0-0.4-0.4-0.8-0.8-0.8c-0.4,0-0.8,0.4-0.8,0.8c0,0.4,0.4,0.7,0.8,0.7
			C56.5,140.9,56.8,140.6,56.8,140.2z"/>
		<path class="st4" d="M81.1,149.2c2.8,0,5.2-2.3,5.2-5.2s-2.3-5.2-5.2-5.2S76,141.2,76,144S78.3,149.2,81.1,149.2z M78.2,144
			c0-1.6,1.3-2.9,2.9-2.9s2.9,1.3,2.9,2.9c0.1,1.6-1.2,2.9-2.9,2.9C79.5,146.9,78.2,145.6,78.2,144z"/>
		<path class="st6" d="M87.6,144c0-3.6-2.9-6.5-6.5-6.5s-6.5,2.9-6.5,6.5s3,6.5,6.5,6.5C84.8,150.4,87.6,147.5,87.6,144z M76,144
			c0-2.8,2.3-5.2,5.2-5.2s5.2,2.3,5.2,5.2s-2.3,5.2-5.2,5.2S76,146.9,76,144z"/>
		<path class="st5" d="M81.1,145.7c0.9,0,1.7-0.8,1.7-1.7c0.1-0.9-0.7-1.7-1.7-1.7s-1.7,0.8-1.7,1.7
			C79.5,144.9,80.2,145.7,81.1,145.7z"/>
		<path class="st6" d="M81.1,146.9c1.7,0,3-1.3,2.9-2.9c0-1.6-1.3-2.9-2.9-2.9s-2.9,1.3-2.9,2.9C78.2,145.6,79.5,146.9,81.1,146.9z
			 M81.1,142.3c0.9,0,1.7,0.8,1.7,1.7c0,0.9-0.7,1.7-1.7,1.7c-0.9,0-1.7-0.7-1.7-1.7C79.5,143.1,80.2,142.3,81.1,142.3z"/>
	</g>
</g>
</svg>
