<?xml version="1.0" encoding="utf-8"?>
<!-- Generator: Adobe Illustrator 19.0.0, SVG Export Plug-In . SVG Version: 6.00 Build 0)  -->
<svg version="1.1" id="Layer_1" xmlns="http://www.w3.org/2000/svg" xmlns:xlink="http://www.w3.org/1999/xlink" x="0px" y="0px"
	 viewBox="-67 69 64 64" style="enable-background:new -67 69 64 64;" xml:space="preserve">
<style type="text/css">
	.st0{fill:#F9B01D;}
	.st1{fill:#4495CC;}
	.st2{fill:#3F2D13;}
	.st3{fill:#604813;}
</style>
<path class="st0" d="M-65,101c0,16.6,13.4,30,30,30s30-13.4,30-30s-13.4-30-30-30S-65,84.4-65,101z"/>
<path class="st1" d="M-19.3,106.6c0,8.6,11.7,8.6,11.7,0c0-6.3-5.8-12.4-5.8-12.4S-19.3,100.3-19.3,106.6"/>
<g>
	<circle class="st2" cx="-28.5" cy="104" r="5"/>
	<circle class="st2" cx="-51.5" cy="104" r="5"/>
</g>
<g>
	<path class="st3" d="M-46.4,88.9c-3.2,2.7-7.5,3.9-11.7,3.1c-0.6-0.1-1.1,2-0.4,2.2c4.8,0.9,9.8-0.5,13.5-3.6
		C-44.5,90.1-46,88.5-46.4,88.9"/>
	<path class="st3" d="M-21.9,91.9c-4.2,0.7-8.5-0.4-11.7-3.1c-0.4-0.4-2,1.2-1.4,1.7c3.7,3.2,8.7,4.5,13.5,3.6
		C-20.8,93.9-21.3,91.8-21.9,91.9"/>
</g>
<path class="st2" d="M-28.9,116.3c-5.8-1.5-12-0.4-16.9,3c-1.2,0.9,1.1,4,2.3,3.2c3.2-2.3,8.4-3.8,13.7-2.4
	C-28.5,120.4-27.4,116.8-28.9,116.3"/>
</svg>
