<?xml version="1.0" encoding="utf-8"?>
<!-- Generator: Adobe Illustrator 19.0.0, SVG Export Plug-In . SVG Version: 6.00 Build 0)  -->
<svg version="1.1" id="Layer_1" xmlns="http://www.w3.org/2000/svg" xmlns:xlink="http://www.w3.org/1999/xlink" x="0px" y="0px"
	 viewBox="-35 37 128 128" style="enable-background:new -35 37 128 128;" xml:space="preserve">
<style type="text/css">
	.st0{fill:#78909C;}
	.st1{fill:#FFFFFF;}
	.st2{fill:#37474F;}
	.st3{fill:#FFAB00;}
	.st4{fill:#FFECB3;}
</style>
<g>
	<rect x="-11.3" y="153" class="st0" width="10.3" height="4.6"/>
	<path class="st0" d="M59.9,153c0,1.6,0,4.6,0,4.6h9.4V153H59.9z"/>
	<path class="st1" d="M43.7,53.6c0,0.1,0,0.1,0,0.2c0,0,0,0.1,0,0.1v3.7c0,0,0,0.1,0,0.1c0,0,0,0.1,0,0.1v0.6h13.8
		c0.7,0,1.4,0.7,1.4,1.4v22.5c0.1,0.7-0.6,1.4-1.3,1.4H0.4c-0.7,0-1.4-0.7-1.4-1.4V59.9c0-0.7,0.7-1.4,1.4-1.4h14.5v-0.6
		c0,0,0-0.1,0-0.1c0,0,0-0.1,0-0.1v-3.7c0-0.1,0-0.1,0-0.1c0,0,0-0.1,0-0.2v-3.7h-31.8v100.2h91.8V49.9H43.7V53.6z M-1,89.7
		c0-0.7,0.7-1.4,1.4-1.4h57.1c0.7,0,1.4,0.7,1.4,1.4v22.5c0.1,0.8-0.6,1.4-1.3,1.4H0.4c-0.7,0-1.4-0.7-1.4-1.4V89.7z M57.6,143.6
		H0.4c-0.7,0-1.4-0.7-1.4-1.4V137v-17.3c0-0.7,0.7-1.4,1.4-1.4h57.1c0.7,0,1.4,0.7,1.4,1.4v22.5C59,142.9,58.3,143.6,57.6,143.6z"/>
	<path class="st2" d="M77.7,47.1h-34v-1.2c0,0,0-0.1,0-0.1c0,0,0-0.1,0-0.2v-3.7c0-0.2-0.2-0.4-0.4-0.4h-3.7c-0.1,0-0.2,0-0.2,0.1
		H19.2c-0.1-0.1-0.2-0.1-0.2-0.1h-3.7c-0.2,0-0.4,0.2-0.4,0.4v3.7c0,0.1,0,0.1,0,0.2c0,0,0,0.1,0,0.1v1.2h-34.6V153h5.7v7.4H1.9V153
		h55.2v7.4h15V153h5.6V47.1z M74.9,150.1h-91.8V49.9h31.8v3.7c0,0.1,0,0.1,0,0.2c0,0,0,0.1,0,0.1v3.7c0,0,0,0.1,0,0.1
		c0,0,0,0.1,0,0.1v0.6H0.4c-0.7,0-1.4,0.7-1.4,1.4v22.5c0,0.7,0.7,1.4,1.4,1.4h57.2c0.7,0,1.4-0.7,1.3-1.4V59.9
		c0-0.7-0.7-1.4-1.4-1.4H43.7v-0.6c0,0,0-0.1,0-0.1c0,0,0-0.1,0-0.1v-3.7c0-0.1,0-0.1,0-0.1c0,0,0-0.1,0-0.2v-3.7h31.2V150.1z
		 M59.9,157.6c0,0,0-3,0-4.6h9.4v4.6H59.9z M-11.3,157.6V153H-1v4.6H-11.3z M15.6,42.4H17h1.6v3h-3V42.4z M42.9,49.4h-3v-3h3V49.4z
		 M42.9,58.4h-3v-0.2h3V58.4z M42.9,57.4h-3v-3h3V57.4z M42.9,53.4h-3v-3h3V53.4z M35,57.2c-0.2,0.4-0.5,0.7-0.9,1
		c-0.1,0.1-0.2,0.1-0.3,0.2h-1.6c-0.1-0.1-0.1-0.1-0.2-0.2c-0.1-0.2-0.1-0.5,0-0.9c0.2-0.4,0.5-0.7,0.9-1c0.4-0.3,0.8-0.4,1.2-0.4
		c0.4,0,0.7,0.1,0.9,0.4C35.1,56.6,35.1,56.9,35,57.2z M27.4,58.4v-6.5l1.7-0.6l5.8-2.1v0.7c0,0,0,0.1,0,0.1c0,0,0,0.1,0.1,0.1v5.5
		c-0.2-0.1-0.5-0.2-0.9-0.2c-0.5,0-1.1,0.2-1.6,0.5c-0.6,0.3-1,0.8-1.2,1.3c-0.2,0.4-0.2,0.9,0,1.3H27.4z M25,58.4
		c0.2-0.1,0.4-0.1,0.6-0.1c0.2,0,0.4,0,0.5,0.1H25z M27.4,49.7l2.2-0.9l5.4-2.1v0.2v0.6c0,0,0,0.1,0,0.1l0,0v0.9l-7.6,2.7V49.7z
		 M18.6,50.4v3h-3v-3H18.6z M15.6,54.4h3v3h-3V54.4z M15.6,58.2h3v0.2h-3V58.2z M18.6,61.2h21.3h3h13.3v19.7H1.9V61.2h13.7H18.6z
		 M39.2,45.8c0,0,0,0.1,0,0.1v3.7c0,0.1,0,0.1,0,0.2c0,0,0,0.1,0,0.1v3.7c0,0.1,0,0.1,0,0.2c0,0,0,0.1,0,0.1v3.7c0,0,0,0.1,0,0.1
		c0,0,0,0.1,0,0.1v0.6h-4.1c0.3-0.3,0.5-0.6,0.6-0.9c0.1-0.4,0.2-0.8,0.1-1.1c0,0,0,0,0-0.1v-8.8v-0.6v-0.7c0-0.1-0.1-0.3-0.2-0.3
		c-0.1,0-0.2,0-0.3,0l-8.4,3.2c-0.2,0-0.3,0.1-0.2,0.3c0,0.1-0.1,0.1-0.1,0.2v8.2c-0.2-0.1-0.5-0.2-0.9-0.2c-0.5,0-1.1,0.2-1.6,0.5
		c-0.2,0.1-0.3,0.2-0.4,0.3h-4.3v-0.6c0,0,0-0.1,0-0.1c0,0,0-0.1,0-0.1v-3.7c0-0.1,0-0.1,0-0.1c0,0,0-0.1,0-0.2v-3.7
		c0,0,0-0.1,0-0.1c0,0,0-0.1,0-0.2v-3.7c0,0,0-0.1,0-0.1c0,0,0-0.1,0-0.2v-3.3h19.8v3.3C39.2,45.7,39.2,45.8,39.2,45.8z M42.9,45.4
		h-3v-3h1.6h1.4V45.4z M15.6,46.4h3v3h-3V46.4z"/>
	<path class="st3" d="M56.2,91.2H1.9v19.6h54.3V91.2z M19.7,103.1c-1,0-1.9-0.8-1.9-1.8s0.8-1.9,1.9-1.9s1.8,0.8,1.8,1.9
		C21.6,102.2,20.8,103.1,19.7,103.1z M29.3,103.1c-1,0-1.9-0.8-1.9-1.8s0.8-1.9,1.9-1.9c1,0,1.9,0.8,1.9,1.9
		C31.2,102.2,30.3,103.1,29.3,103.1z M38.8,103.1c-1,0-1.9-0.8-1.9-1.8s0.8-1.9,1.9-1.9c1.1,0,1.8,0.8,1.8,1.9
		C40.6,102.2,39.9,103.1,38.8,103.1z"/>
	<path class="st2" d="M0.4,113.6h57.2c0.7,0,1.4-0.6,1.3-1.4V89.7c0-0.7-0.7-1.4-1.4-1.4H0.4c-0.7,0-1.4,0.7-1.4,1.4v22.5
		C-1,112.9-0.3,113.6,0.4,113.6z M1.9,91.2h54.3v19.6H1.9V91.2z"/>
	<path class="st2" d="M19.7,99.4c-1.1,0-1.9,0.9-1.9,1.9s0.9,1.8,1.9,1.8c1.1,0,1.9-0.8,1.8-1.8C21.5,100.1,20.8,99.4,19.7,99.4z"/>
	<path class="st2" d="M29.3,99.4c-1.1,0-1.9,0.9-1.9,1.9s0.9,1.8,1.9,1.8s1.9-0.8,1.9-1.8C31.2,100.1,30.3,99.4,29.3,99.4z"/>
	<path class="st2" d="M38.8,99.4c-1.1,0-1.9,0.9-1.9,1.9s0.9,1.8,1.9,1.8c1.1,0,1.8-0.8,1.8-1.8C40.6,100.1,39.9,99.4,38.8,99.4z"/>
	<path class="st3" d="M1.9,134.2v6.6h54.3v-19.7H1.9V134.2z M38.8,129.2c1.1,0,1.8,0.8,1.8,1.9s-0.7,1.8-1.8,1.8
		c-1,0-1.9-0.8-1.9-1.8S37.7,129.2,38.8,129.2z M29.3,129.2c1,0,1.9,0.8,1.9,1.9s-0.9,1.8-1.9,1.8s-1.9-0.8-1.9-1.8
		S28.2,129.2,29.3,129.2z M19.7,129.2c1.1,0,1.8,0.8,1.8,1.9c0.1,1.1-0.7,1.8-1.8,1.8c-1,0-1.9-0.8-1.9-1.8S18.6,129.2,19.7,129.2z"
		/>
	<path class="st2" d="M58.9,119.7c0-0.7-0.7-1.4-1.4-1.4H0.4c-0.7,0-1.4,0.7-1.4,1.4V137v5.2c0,0.7,0.7,1.4,1.4,1.4h57.2
		c0.7,0,1.4-0.7,1.3-1.4V119.7z M56.2,140.9H1.9v-6.6v-13.1h54.3V140.9z"/>
	<path class="st2" d="M19.7,132.9c1.1,0,1.9-0.7,1.8-1.8c0-1.1-0.7-1.9-1.8-1.9s-1.9,0.9-1.9,1.9S18.7,132.9,19.7,132.9z"/>
	<path class="st2" d="M29.3,132.9c1,0,1.9-0.7,1.9-1.8s-0.9-1.9-1.9-1.9c-1.1,0-1.9,0.9-1.9,1.9S28.3,132.9,29.3,132.9z"/>
	<path class="st2" d="M38.8,132.9c1.1,0,1.8-0.7,1.8-1.8s-0.7-1.9-1.8-1.9c-1.1,0-1.9,0.9-1.9,1.9S37.8,132.9,38.8,132.9z"/>
	<path class="st3" d="M19.4,42.4v3.3c0,0.1,0,0.1,0,0.2c0,0,0,0.1,0,0.1v3.7c0,0.1,0,0.1,0,0.2c0,0,0,0.1,0,0.1v3.7
		c0,0.1,0,0.1,0,0.2c0,0,0,0.1,0,0.1v3.7c0,0,0,0.1,0,0.1c0,0,0,0.1,0,0.1v0.6h4.3c0.1-0.1,0.3-0.2,0.4-0.3c0.5-0.3,1.1-0.5,1.6-0.5
		c0.4,0,0.7,0.1,0.9,0.2v-8.2c0-0.1,0-0.1,0.1-0.2c0-0.2,0.1-0.3,0.2-0.3l8.4-3.2c0.1,0,0.2,0,0.3,0c0.1,0,0.2,0.2,0.2,0.3v0.7v0.6
		v8.8c0,0,0,0,0,0.1c0.1,0.4,0.1,0.8-0.1,1.1c-0.1,0.3-0.3,0.6-0.6,0.9h4.1v-0.6c0,0,0-0.1,0-0.1c0,0,0-0.1,0-0.1v-3.7
		c0-0.1,0-0.1,0-0.1c0,0,0-0.1,0-0.2v-3.7c0-0.1,0-0.1,0-0.1c0,0,0-0.1,0-0.2v-3.7c0-0.1,0-0.1,0-0.1c0,0,0-0.1,0-0.2v-3.3H19.4z
		 M23.9,56.1c-0.4,0-0.6-0.3-0.6-0.6c0-0.4,0.3-0.6,0.6-0.6c0.4,0,0.6,0.3,0.6,0.6C24.6,55.7,24.3,56.1,23.9,56.1z M23.9,52.4
		c-0.4,0-0.6-0.3-0.6-0.7c0-0.4,0.3-0.6,0.6-0.6c0.4,0,0.6,0.3,0.6,0.6C24.6,52.1,24.3,52.4,23.9,52.4z M23.9,48.9
		c-0.4,0-0.6-0.3-0.6-0.6c0-0.4,0.3-0.6,0.6-0.6c0.1,0,0.2,0,0.2,0c0.3,0.1,0.4,0.3,0.4,0.6C24.6,48.6,24.3,48.9,23.9,48.9z"/>
	<polygon class="st3" points="35,48.6 35,47.6 29.6,48.9 27.4,49.7 27.4,51.3 	"/>
	<path class="st3" d="M31.3,57.1c0.2-0.5,0.6-1,1.2-1.3c0.5-0.3,1.1-0.5,1.6-0.5c0.3,0,0.6,0.1,0.9,0.2v-5.5c0,0-0.1-0.1-0.1-0.1
		l-5.8,1.3l-1.7,0.6v6.5h3.9C31.1,58.1,31.1,57.6,31.3,57.1z"/>
	<polygon class="st4" points="18.6,45.4 18.6,42.4 17,42.4 15.6,42.4 15.6,45.4 	"/>
	<rect x="15.6" y="46.4" class="st4" width="3" height="3"/>
	<rect x="15.6" y="50.4" class="st4" width="3" height="3"/>
	<rect x="15.6" y="54.4" class="st4" width="3" height="3"/>
	<rect x="15.6" y="58.2" class="st4" width="3" height="0.2"/>
	<polygon class="st4" points="41.5,42.4 39.9,42.4 39.9,45.4 42.9,45.4 42.9,42.4 	"/>
	<rect x="39.9" y="46.4" class="st4" width="3" height="3"/>
	<rect x="39.9" y="50.4" class="st4" width="3" height="3"/>
	<rect x="39.9" y="54.4" class="st4" width="3" height="3"/>
	<rect x="39.9" y="58.2" class="st4" width="3" height="0.2"/>
	<path class="st4" d="M25,58.4h1.2c-0.1-0.1-0.3-0.1-0.5-0.1C25.4,58.4,25.2,58.4,25,58.4z"/>
	<path class="st4" d="M34.1,55.9c-0.4,0-0.8,0.1-1.2,0.4c-0.4,0.3-0.7,0.6-0.9,1c-0.1,0.4-0.1,0.7,0,0.9c0.1,0.1,0.1,0.1,0.2,0.2
		h1.6c0.1-0.1,0.2-0.1,0.3-0.2c0.4-0.3,0.7-0.6,0.9-1c0.1-0.4,0.1-0.7,0-0.9C34.8,56.1,34.5,55.9,34.1,55.9z"/>
	<path class="st4" d="M35,47.6L35,47.6C35,47.6,35,47.6,35,47.6v-0.7v-0.2l-5.4,2.1L35,47.6z"/>
	<path class="st4" d="M34.9,49.9v-0.7l-5.8,2.1l5.8-1.3C34.9,49.9,34.9,49.9,34.9,49.9z"/>
	<path class="st2" d="M23.9,54.9c-0.3,0-0.6,0.2-0.6,0.6c0,0.3,0.2,0.6,0.6,0.6c0.4,0,0.7-0.3,0.6-0.6
		C24.5,55.1,24.3,54.9,23.9,54.9z"/>
	<path class="st2" d="M23.9,51.1c-0.3,0-0.6,0.2-0.6,0.6c0,0.4,0.2,0.7,0.6,0.7c0.4,0,0.7-0.3,0.6-0.7
		C24.5,51.4,24.3,51.1,23.9,51.1z"/>
	<path class="st2" d="M24.5,48.2c0-0.2-0.1-0.5-0.4-0.6c-0.1,0-0.1,0-0.2,0c-0.3,0-0.6,0.2-0.6,0.6c0,0.3,0.2,0.6,0.6,0.6
		C24.3,48.9,24.6,48.6,24.5,48.2z"/>
	<path class="st3" d="M1.9,61.2v19.7h54.3V61.2H42.9h-3H18.6h-3H1.9z M19.7,73.1c-1,0-1.9-0.8-1.9-1.8s0.8-1.9,1.9-1.9
		s1.8,0.8,1.8,1.9C21.6,72.4,20.8,73.1,19.7,73.1z M29.3,73.1c-1,0-1.9-0.8-1.9-1.8s0.8-1.9,1.9-1.9c1,0,1.9,0.8,1.9,1.9
		C31.2,72.4,30.3,73.1,29.3,73.1z M38.8,73.1c-1,0-1.9-0.8-1.9-1.8s0.8-1.9,1.9-1.9c1.1,0,1.8,0.8,1.8,1.9
		C40.6,72.4,39.9,73.1,38.8,73.1z"/>
	<path class="st2" d="M19.7,69.4c-1.1,0-1.9,0.9-1.9,1.9s0.9,1.8,1.9,1.8c1.1,0,1.9-0.8,1.8-1.8C21.5,70.2,20.8,69.4,19.7,69.4z"/>
	<path class="st2" d="M29.3,69.4c-1.1,0-1.9,0.9-1.9,1.9s0.9,1.8,1.9,1.8s1.9-0.8,1.9-1.8C31.2,70.2,30.3,69.4,29.3,69.4z"/>
	<path class="st2" d="M38.8,69.4c-1.1,0-1.9,0.9-1.9,1.9s0.9,1.8,1.9,1.8c1.1,0,1.8-0.8,1.8-1.8C40.6,70.2,39.9,69.4,38.8,69.4z"/>
</g>
</svg>
