<?xml version="1.0" encoding="utf-8"?>
<!-- Generator: Adobe Illustrator 19.0.0, SVG Export Plug-In . SVG Version: 6.00 Build 0)  -->
<svg version="1.1" id="Layer_1" xmlns="http://www.w3.org/2000/svg" xmlns:xlink="http://www.w3.org/1999/xlink" x="0px" y="0px"
	 viewBox="-35 37 128 128" style="enable-background:new -35 37 128 128;" xml:space="preserve">
<style type="text/css">
	.st0{fill:#FFFFFF;}
	.st1{fill:#37474F;}
	.st2{fill:#FFAB00;}
	.st3{fill:#FFECB3;}
	.st4{clip-path:url(#SVGID_2_);fill:#FFFFFF;}
	.st5{clip-path:url(#SVGID_4_);fill:#37474F;}
	.st6{clip-path:url(#SVGID_6_);fill:#B0BEC5;}
	.st7{clip-path:url(#SVGID_8_);fill:#37474F;}
	.st8{clip-path:url(#SVGID_10_);fill:#37474F;}
	.st9{clip-path:url(#SVGID_12_);fill:#37474F;}
	.st10{clip-path:url(#SVGID_14_);fill:#37474F;}
	.st11{clip-path:url(#SVGID_16_);fill:#37474F;}
	.st12{clip-path:url(#SVGID_18_);fill:#37474F;}
	.st13{clip-path:url(#SVGID_20_);fill:#37474F;}
	.st14{clip-path:url(#SVGID_22_);fill:#37474F;}
	.st15{clip-path:url(#SVGID_24_);fill:#37474F;}
	.st16{clip-path:url(#SVGID_26_);fill:#37474F;}
	.st17{clip-path:url(#SVGID_28_);fill:#37474F;}
	.st18{clip-path:url(#SVGID_30_);fill:#37474F;}
	.st19{clip-path:url(#SVGID_32_);fill:#37474F;}
	.st20{clip-path:url(#SVGID_34_);fill:#37474F;}
	.st21{clip-path:url(#SVGID_36_);fill:#37474F;}
	.st22{clip-path:url(#SVGID_38_);fill:#FFAB00;}
	.st23{clip-path:url(#SVGID_40_);fill:#37474F;}
	.st24{clip-path:url(#SVGID_42_);fill:#FFAB00;}
	.st25{clip-path:url(#SVGID_44_);fill:#37474F;}
	.st26{clip-path:url(#SVGID_46_);fill:#37474F;}
	.st27{clip-path:url(#SVGID_48_);fill:#37474F;}
	.st28{clip-path:url(#SVGID_50_);fill:#37474F;}
	.st29{clip-path:url(#SVGID_52_);fill:#37474F;}
	.st30{clip-path:url(#SVGID_54_);fill:#37474F;}
	.st31{clip-path:url(#SVGID_56_);fill:#37474F;}
	.st32{clip-path:url(#SVGID_58_);fill:#37474F;}
	.st33{fill:#78909C;}
</style>
<g id="Layer_1_1_">
	<g>
		<g>
			<path class="st0" d="M-17,42.3h66.9c7.3,0,13.1,5.4,13.1,11.8v96.3c0,6.4-5.8,10.9-13.1,10.9H-17V42.3z"/>
			<path class="st1" d="M49.9,163.4H-17c-1.1,0-2-0.9-2-2v-119c0-1.1,0.9-2,2-2h66.9c8.3,0,15.1,6.2,15.1,13.8v96.3
				C65,157.8,58.5,163.4,49.9,163.4z M-15,159.4h64.9c6.3,0,11.1-3.8,11.1-8.9V54.1c0-5.3-5.1-9.8-11.1-9.8H-15V159.4z"/>
		</g>
		<g>
			<g>
				<path class="st2" d="M63,50.3h8.6c2.1,0,3.4,1.7,3.4,3.5V81c0,1.8-1.4,3.3-3.4,3.3H63V50.3z"/>
				<path class="st1" d="M71.6,86.3H63c-1.1,0-2-0.9-2-2v-34c0-1.1,0.9-2,2-2h8.6c3,0,5.4,2.4,5.4,5.5V81C77,84,74.6,86.3,71.6,86.3
					z M65,82.3h6.6c1,0,1.4-0.7,1.4-1.3V53.8c0-0.7-0.5-1.5-1.4-1.5H65V82.3z"/>
			</g>
			<g>
				<path class="st3" d="M63,85.3h8.6c2.1,0,3.4,1.5,3.4,3.3v27.2c0,1.8-1.4,3.5-3.4,3.5H63V85.3z"/>
				<path class="st1" d="M71.6,121.3H63c-1.1,0-2-0.9-2-2v-34c0-1.1,0.9-2,2-2h8.6c3,0,5.4,2.3,5.4,5.3v27.2
					C77,118.9,74.6,121.3,71.6,121.3z M65,117.3h6.6c0.9,0,1.4-0.8,1.4-1.5V88.7c0-0.7-0.4-1.3-1.4-1.3H65V117.3z"/>
			</g>
			<g>
				<path class="st3" d="M63,120.3h8.6c2.1,0,3.4,1.4,3.4,3.2v27.2c0,1.8-1.4,2.6-3.4,2.6H63V120.3z"/>
				<path class="st1" d="M71.6,155.4H61v-37h10.6c3.1,0,5.4,2.2,5.4,5.2v27.2C77,152.9,75.6,155.4,71.6,155.4z M65,151.4h6.6
					c1.4,0,1.4-0.4,1.4-0.6v-27.2c0-0.7-0.5-1.2-1.4-1.2H65V151.4z"/>
			</g>
		</g>
	</g>
</g>
<g id="Layer_2">
</g>
<g id="Layer_4">
	<g id="Layer_1_2_">
		<g>
			<g>
				<g>
					<g>
						<defs>
							<rect id="SVGID_1_" x="-10.7" y="65.2" width="67.4" height="67.4"/>
						</defs>
						<clipPath id="SVGID_2_">
							<use xlink:href="#SVGID_1_"  style="overflow:visible;"/>
						</clipPath>
						<path class="st4" d="M51.3,76.8l-2.5-1.9l-3.9-3l-3.7,2.6h-0.8l-3.7-2.5L33,74.4h-0.9l-3.7-2.5l-3.7,2.5h-0.9l-3.7-2.5
							l-3.7,2.5h-0.9l-3.7-2.5l-3.7,2.5H7.5v39H-6.7v5.4c0,3.9,3.5,7.3,7.4,7.3h45.5c3.9,0,7.1-3.3,7.1-7.3V81.5
							C53.3,78.3,53.6,78.8,51.3,76.8"/>
					</g>
				</g>
			</g>
			<g>
				<g>
					<g>
						<defs>
							<rect id="SVGID_3_" x="-10.7" y="65.2" width="67.4" height="67.4"/>
						</defs>
						<clipPath id="SVGID_4_">
							<use xlink:href="#SVGID_3_"  style="overflow:visible;"/>
						</clipPath>
						<path class="st5" d="M46.2,126.8H0.7c-4.5,0-8.2-3.7-8.2-8.1v-5.4c0-0.4,0.4-0.8,0.8-0.8H6.7V74.4c0-0.4,0.4-0.8,0.8-0.8H8
							l3.5-2.4c0.3-0.2,0.6-0.2,0.9,0l3.5,2.4h0.4l3.5-2.4c0.3-0.2,0.6-0.2,0.9,0l3.5,2.4h0.4l3.5-2.4c0.3-0.2,0.6-0.2,0.9,0
							l3.5,2.4h0.4l3.5-2.4c0.3-0.2,0.6-0.2,0.9,0l3.5,2.4H41l3.5-2.4c0.3-0.2,0.7-0.2,0.9,0l3.9,2.9l2.4,1.9l0,0l0.1,0.1
							c2,1.7,2.2,1.9,2.2,4.2c0,0.3,0,0.7,0,1.1v37.3C54.1,123.2,50.5,126.8,46.2,126.8z M-6,114.2v4.6c0,3.4,3.1,6.5,6.6,6.5h45.5
							c3.5,0,6.3-2.9,6.3-6.5V81.5c0-0.4,0-0.8,0-1.1c0-1.6,0-1.6-1.6-3l-0.1-0.1l-2.4-1.9l-3.4-2.6l-3.2,2.3
							c-0.1,0.1-0.3,0.1-0.5,0.1h-0.8c-0.2,0-0.3,0-0.4-0.1l-3.3-2.3L33.5,75c-0.1,0.1-0.3,0.1-0.4,0.1h-0.9c-0.2,0-0.3,0-0.4-0.1
							l-3.4-2.2L25.2,75c-0.1,0.1-0.3,0.1-0.4,0.1h-0.9c-0.2,0-0.3,0-0.4-0.1l-3.3-2.2L17,75c-0.1,0.1-0.3,0.1-0.4,0.1h-0.9
							c-0.2,0-0.3,0-0.4-0.1l-3.4-2.2L8.7,75c-0.1,0.1-0.3,0.1-0.4,0.1v38.2c0,0.4-0.4,0.8-0.8,0.8L-6,114.2L-6,114.2z"/>
					</g>
				</g>
			</g>
			<g>
				<g>
					<g>
						<defs>
							<rect id="SVGID_5_" x="-10.7" y="65.2" width="67.4" height="67.4"/>
						</defs>
						<clipPath id="SVGID_6_">
							<use xlink:href="#SVGID_5_"  style="overflow:visible;"/>
						</clipPath>
						<path class="st6" d="M-7.3,86.5v31c0,4.2,3.2,7.5,7.4,7.5s7.4-3.4,7.4-7.5v-31H-7.3z"/>
					</g>
				</g>
			</g>
			<g>
				<g>
					<g>
						<defs>
							<rect id="SVGID_7_" x="-10.7" y="65.2" width="67.4" height="67.4"/>
						</defs>
						<clipPath id="SVGID_8_">
							<use xlink:href="#SVGID_7_"  style="overflow:visible;"/>
						</clipPath>
						<path class="st7" d="M0.1,125.8c-4.6,0-8.2-3.7-8.2-8.3v-31c0-0.4,0.4-0.8,0.8-0.8H7.5c0.4,0,0.8,0.4,0.8,0.8v31
							C8.3,122.2,4.7,125.8,0.1,125.8z M-6.5,87.3v30.2c0,3.8,2.9,6.7,6.6,6.7s6.6-3,6.6-6.7V87.3H-6.5z"/>
					</g>
				</g>
			</g>
			<g>
				<g>
					<g>
						<defs>
							<rect id="SVGID_9_" x="-10.7" y="65.2" width="67.4" height="67.4"/>
						</defs>
						<clipPath id="SVGID_10_">
							<use xlink:href="#SVGID_9_"  style="overflow:visible;"/>
						</clipPath>
						<path class="st8" d="M15.5,81.8c0,0.4-0.3,0.7-0.7,0.7s-0.7-0.3-0.7-0.7s0.3-0.7,0.7-0.7C15.1,80.9,15.5,81.3,15.5,81.8"/>
					</g>
				</g>
			</g>
			<g>
				<g>
					<g>
						<defs>
							<rect id="SVGID_11_" x="-10.7" y="65.2" width="67.4" height="67.4"/>
						</defs>
						<clipPath id="SVGID_12_">
							<use xlink:href="#SVGID_11_"  style="overflow:visible;"/>
						</clipPath>
						<path class="st9" d="M14.7,82.8c-0.6,0-1-0.4-1-1s0.4-1,1-1c0.5,0,1,0.5,1,1S15.3,82.8,14.7,82.8z M14.7,81.2
							c-0.3,0-0.5,0.2-0.5,0.5s0.2,0.5,0.5,0.5s0.5-0.2,0.5-0.5C15.2,81.5,15,81.2,14.7,81.2z"/>
					</g>
				</g>
			</g>
			<g>
				<g>
					<g>
						<defs>
							<rect id="SVGID_13_" x="-10.7" y="65.2" width="67.4" height="67.4"/>
						</defs>
						<clipPath id="SVGID_14_">
							<use xlink:href="#SVGID_13_"  style="overflow:visible;"/>
						</clipPath>
						<path class="st10" d="M20.6,81.8c0,0.4-0.4,0.7-0.7,0.7c-0.4,0-0.7-0.3-0.7-0.7s0.3-0.7,0.7-0.7S20.6,81.3,20.6,81.8"/>
					</g>
				</g>
			</g>
			<g>
				<g>
					<g>
						<defs>
							<rect id="SVGID_15_" x="-10.7" y="65.2" width="67.4" height="67.4"/>
						</defs>
						<clipPath id="SVGID_16_">
							<use xlink:href="#SVGID_15_"  style="overflow:visible;"/>
						</clipPath>
						<path class="st11" d="M19.8,82.8c-0.6,0-1-0.4-1-1s0.4-1,1-1c0.5,0,1,0.5,1,1S20.4,82.8,19.8,82.8z M19.8,81.2
							c-0.3,0-0.5,0.2-0.5,0.5s0.2,0.5,0.5,0.5c0.2,0,0.5-0.2,0.5-0.5C20.3,81.5,20.1,81.2,19.8,81.2z"/>
					</g>
				</g>
			</g>
			<g>
				<g>
					<g>
						<defs>
							<rect id="SVGID_17_" x="-10.7" y="65.2" width="67.4" height="67.4"/>
						</defs>
						<clipPath id="SVGID_18_">
							<use xlink:href="#SVGID_17_"  style="overflow:visible;"/>
						</clipPath>
						<path class="st12" d="M25.7,81.8c0,0.4-0.3,0.7-0.7,0.7s-0.7-0.3-0.7-0.7s0.3-0.7,0.7-0.7S25.7,81.3,25.7,81.8"/>
					</g>
				</g>
			</g>
			<g>
				<g>
					<g>
						<defs>
							<rect id="SVGID_19_" x="-10.7" y="65.2" width="67.4" height="67.4"/>
						</defs>
						<clipPath id="SVGID_20_">
							<use xlink:href="#SVGID_19_"  style="overflow:visible;"/>
						</clipPath>
						<path class="st13" d="M25,82.8c-0.6,0-1-0.4-1-1s0.4-1,1-1c0.5,0,1,0.5,1,1S25.6,82.8,25,82.8z M25,81.2
							c-0.3,0-0.5,0.2-0.5,0.5s0.2,0.5,0.5,0.5s0.5-0.2,0.5-0.5C25.5,81.5,25.3,81.2,25,81.2z"/>
					</g>
				</g>
			</g>
			<g>
				<g>
					<g>
						<defs>
							<rect id="SVGID_21_" x="-10.7" y="65.2" width="67.4" height="67.4"/>
						</defs>
						<clipPath id="SVGID_22_">
							<use xlink:href="#SVGID_21_"  style="overflow:visible;"/>
						</clipPath>
						<path class="st14" d="M48.8,108.9H14.6c-0.4,0-0.8-0.4-0.8-0.8s0.4-0.8,0.8-0.8h34.2c0.4,0,0.8,0.4,0.8,0.8
							S49.2,108.9,48.8,108.9z"/>
					</g>
				</g>
			</g>
			<g>
				<g>
					<g>
						<defs>
							<rect id="SVGID_23_" x="-10.7" y="65.2" width="67.4" height="67.4"/>
						</defs>
						<clipPath id="SVGID_24_">
							<use xlink:href="#SVGID_23_"  style="overflow:visible;"/>
						</clipPath>
						<path class="st15" d="M48.8,113.2H14.6c-0.4,0-0.8-0.4-0.8-0.8s0.4-0.8,0.8-0.8h34.2c0.4,0,0.8,0.4,0.8,0.8
							S49.2,113.2,48.8,113.2z"/>
					</g>
				</g>
			</g>
			<g>
				<g>
					<g>
						<defs>
							<rect id="SVGID_25_" x="-10.7" y="65.2" width="67.4" height="67.4"/>
						</defs>
						<clipPath id="SVGID_26_">
							<use xlink:href="#SVGID_25_"  style="overflow:visible;"/>
						</clipPath>
						<path class="st16" d="M48.8,116.8H14.6c-0.4,0-0.8-0.4-0.8-0.8s0.4-0.8,0.8-0.8h34.2c0.4,0,0.8,0.4,0.8,0.8
							S49.2,116.8,48.8,116.8z"/>
					</g>
				</g>
			</g>
			<g>
				<g>
					<g>
						<defs>
							<rect id="SVGID_27_" x="-10.7" y="65.2" width="67.4" height="67.4"/>
						</defs>
						<clipPath id="SVGID_28_">
							<use xlink:href="#SVGID_27_"  style="overflow:visible;"/>
						</clipPath>
						<path class="st17" d="M48.8,120.5H14.6c-0.4,0-0.8-0.4-0.8-0.8c0-0.4,0.4-0.8,0.8-0.8h34.2c0.4,0,0.8,0.4,0.8,0.8
							C49.6,120.2,49.2,120.5,48.8,120.5z"/>
					</g>
				</g>
			</g>
			<g>
				<g>
					<g>
						<defs>
							<rect id="SVGID_29_" x="-10.7" y="65.2" width="67.4" height="67.4"/>
						</defs>
						<clipPath id="SVGID_30_">
							<use xlink:href="#SVGID_29_"  style="overflow:visible;"/>
						</clipPath>
						<path class="st18" d="M48.8,94.2H29.3c-0.4,0-0.8-0.4-0.8-0.8s0.4-0.8,0.8-0.8h19.5c0.4,0,0.8,0.4,0.8,0.8
							S49.2,94.2,48.8,94.2z"/>
					</g>
				</g>
			</g>
			<g>
				<g>
					<g>
						<defs>
							<rect id="SVGID_31_" x="-10.7" y="65.2" width="67.4" height="67.4"/>
						</defs>
						<clipPath id="SVGID_32_">
							<use xlink:href="#SVGID_31_"  style="overflow:visible;"/>
						</clipPath>
						<path class="st19" d="M48.8,97.8H29.3c-0.4,0-0.8-0.4-0.8-0.8s0.4-0.8,0.8-0.8h19.5c0.4,0,0.8,0.4,0.8,0.8
							S49.2,97.8,48.8,97.8z"/>
					</g>
				</g>
			</g>
			<g>
				<g>
					<g>
						<defs>
							<rect id="SVGID_33_" x="-10.7" y="65.2" width="67.4" height="67.4"/>
						</defs>
						<clipPath id="SVGID_34_">
							<use xlink:href="#SVGID_33_"  style="overflow:visible;"/>
						</clipPath>
						<path class="st20" d="M48.8,101.5H29.3c-0.4,0-0.8-0.4-0.8-0.8s0.4-0.8,0.8-0.8h19.5c0.4,0,0.8,0.4,0.8,0.8
							S49.2,101.5,48.8,101.5z"/>
					</g>
				</g>
			</g>
			<g>
				<g>
					<g>
						<defs>
							<rect id="SVGID_35_" x="-10.7" y="65.2" width="67.4" height="67.4"/>
						</defs>
						<clipPath id="SVGID_36_">
							<use xlink:href="#SVGID_35_"  style="overflow:visible;"/>
						</clipPath>
						<path class="st21" d="M48.8,105.8H29.3c-0.4,0-0.8-0.4-0.8-0.8s0.4-0.8,0.8-0.8h19.5c0.4,0,0.8,0.4,0.8,0.8
							S49.2,105.8,48.8,105.8z"/>
					</g>
				</g>
			</g>
			<g>
				<g>
					<g>
						<defs>
							<rect id="SVGID_37_" x="-10.7" y="65.2" width="67.4" height="67.4"/>
						</defs>
						<clipPath id="SVGID_38_">
							<use xlink:href="#SVGID_37_"  style="overflow:visible;"/>
						</clipPath>
						<rect x="14.8" y="93.4" class="st22" width="11.1" height="11.1"/>
					</g>
				</g>
			</g>
			<g>
				<g>
					<g>
						<defs>
							<rect id="SVGID_39_" x="-10.7" y="65.2" width="67.4" height="67.4"/>
						</defs>
						<clipPath id="SVGID_40_">
							<use xlink:href="#SVGID_39_"  style="overflow:visible;"/>
						</clipPath>
						<path class="st23" d="M25.9,105.2H14.8c-0.4,0-0.8-0.4-0.8-0.8V93.3c0-0.4,0.4-0.8,0.8-0.8h11.1c0.4,0,0.8,0.4,0.8,0.8v11.1
							C26.7,104.9,26.3,105.2,25.9,105.2z M15.6,103.7h9.5v-9.5h-9.5V103.7z"/>
					</g>
				</g>
			</g>
			<g>
				<g>
					<g>
						<defs>
							<rect id="SVGID_41_" x="-10.7" y="65.2" width="67.4" height="67.4"/>
						</defs>
						<clipPath id="SVGID_42_">
							<use xlink:href="#SVGID_41_"  style="overflow:visible;"/>
						</clipPath>
						<rect x="45.1" y="84.8" class="st24" width="3.2" height="4.7"/>
					</g>
				</g>
			</g>
			<g>
				<g>
					<g>
						<defs>
							<rect id="SVGID_43_" x="-10.7" y="65.2" width="67.4" height="67.4"/>
						</defs>
						<clipPath id="SVGID_44_">
							<use xlink:href="#SVGID_43_"  style="overflow:visible;"/>
						</clipPath>
						<path class="st25" d="M16.9,85.2v4.2c0,0.2-0.2,0.4-0.4,0.4s-0.4-0.2-0.4-0.4v-1.7h-1.8v1.7c0,0.2-0.2,0.4-0.4,0.4
							s-0.4-0.2-0.4-0.4v-4.2c0-0.2,0.2-0.4,0.4-0.4s0.4,0.2,0.4,0.4v1.7h1.8v-1.7c0-0.2,0.2-0.4,0.4-0.4
							C16.7,84.8,16.9,84.9,16.9,85.2"/>
					</g>
				</g>
			</g>
			<g>
				<g>
					<g>
						<defs>
							<rect id="SVGID_45_" x="-10.7" y="65.2" width="67.4" height="67.4"/>
						</defs>
						<clipPath id="SVGID_46_">
							<use xlink:href="#SVGID_45_"  style="overflow:visible;"/>
						</clipPath>
						<path class="st26" d="M20.6,89.3c0,0.2-0.2,0.4-0.4,0.4h-2.3c-0.3,0-0.4-0.2-0.4-0.4v-4.2c0-0.2,0.2-0.4,0.4-0.4h2.3
							c0.3,0,0.4,0.2,0.4,0.4s-0.2,0.4-0.4,0.4h-1.9v1.3h1.5c0.2,0,0.4,0.2,0.4,0.4c0,0.2-0.2,0.4-0.4,0.4h-1.5V89h1.8
							C20.4,88.8,20.6,89,20.6,89.3"/>
					</g>
				</g>
			</g>
			<g>
				<g>
					<g>
						<defs>
							<rect id="SVGID_47_" x="-10.7" y="65.2" width="67.4" height="67.4"/>
						</defs>
						<clipPath id="SVGID_48_">
							<use xlink:href="#SVGID_47_"  style="overflow:visible;"/>
						</clipPath>
						<path class="st27" d="M25.3,89.2c0,0.1,0,0.1,0,0.2c0,0.2-0.2,0.4-0.4,0.4c-0.2,0-0.3-0.1-0.4-0.3l-0.3-0.8h-1.9L22,89.4
							c-0.1,0.2-0.2,0.3-0.4,0.3c-0.3,0-0.4-0.2-0.4-0.4c0-0.1,0-0.1,0-0.2l1.7-4.2c0.1-0.2,0.2-0.3,0.4-0.3c0.2,0,0.3,0.1,0.4,0.3
							L25.3,89.2z M23.8,87.8l-0.6-1.6l-0.6,1.6H23.8z"/>
					</g>
				</g>
			</g>
			<g>
				<g>
					<g>
						<defs>
							<rect id="SVGID_49_" x="-10.7" y="65.2" width="67.4" height="67.4"/>
						</defs>
						<clipPath id="SVGID_50_">
							<use xlink:href="#SVGID_49_"  style="overflow:visible;"/>
						</clipPath>
						<path class="st28" d="M26.2,89.8c-0.2,0-0.4-0.2-0.4-0.4v-4.2c0-0.2,0.2-0.4,0.4-0.4h1.2c0.1,0,2.1,0,2.1,2.5
							s-2.1,2.5-2.1,2.5H26.2z M26.6,88.8h0.8c0,0,0.4,0,0.7-0.2c0.4-0.3,0.6-0.7,0.6-1.4c0-0.7-0.2-1.2-0.6-1.5
							c-0.3-0.2-0.6-0.2-0.6-0.2h-0.8L26.6,88.8L26.6,88.8z"/>
					</g>
				</g>
			</g>
			<g>
				<g>
					<g>
						<defs>
							<rect id="SVGID_51_" x="-10.7" y="65.2" width="67.4" height="67.4"/>
						</defs>
						<clipPath id="SVGID_52_">
							<use xlink:href="#SVGID_51_"  style="overflow:visible;"/>
						</clipPath>
						<path class="st29" d="M30.5,89.8c-0.2,0-0.4-0.2-0.4-0.4v-4.2c0-0.2,0.2-0.4,0.4-0.4s0.4,0.2,0.4,0.4v3.7h1.5
							c0.2,0,0.4,0.2,0.4,0.4c0,0.2-0.2,0.4-0.4,0.4C32.4,89.8,30.5,89.8,30.5,89.8z"/>
					</g>
				</g>
			</g>
			<g>
				<g>
					<g>
						<defs>
							<rect id="SVGID_53_" x="-10.7" y="65.2" width="67.4" height="67.4"/>
						</defs>
						<clipPath id="SVGID_54_">
							<use xlink:href="#SVGID_53_"  style="overflow:visible;"/>
						</clipPath>
						<path class="st30" d="M33.4,89.3v-4.2c0-0.2,0.2-0.4,0.4-0.4s0.4,0.2,0.4,0.4v4.2c0,0.2-0.2,0.4-0.4,0.4S33.4,89.5,33.4,89.3"
							/>
					</g>
				</g>
			</g>
			<g>
				<g>
					<g>
						<defs>
							<rect id="SVGID_55_" x="-10.7" y="65.2" width="67.4" height="67.4"/>
						</defs>
						<clipPath id="SVGID_56_">
							<use xlink:href="#SVGID_55_"  style="overflow:visible;"/>
						</clipPath>
						<path class="st31" d="M37.7,89.5l-2.2-3.1v2.8c0,0.2-0.2,0.4-0.4,0.4c-0.3,0-0.4-0.2-0.4-0.4v-4.2c0-0.2,0.2-0.4,0.4-0.4
							c0.1,0,0.3,0.1,0.3,0.2l2.2,3.1v-2.8c0-0.2,0.2-0.4,0.4-0.4s0.4,0.2,0.4,0.4v4.2c0,0.2-0.2,0.4-0.4,0.4
							C37.9,89.8,37.8,89.7,37.7,89.5"/>
					</g>
				</g>
			</g>
			<g>
				<g>
					<g>
						<defs>
							<rect id="SVGID_57_" x="-10.7" y="65.2" width="67.4" height="67.4"/>
						</defs>
						<clipPath id="SVGID_58_">
							<use xlink:href="#SVGID_57_"  style="overflow:visible;"/>
						</clipPath>
						<path class="st32" d="M42.2,89.3c0,0.2-0.2,0.4-0.4,0.4h-2.3c-0.3,0-0.4-0.2-0.4-0.4v-4.2c0-0.2,0.2-0.4,0.4-0.4h2.3
							c0.3,0,0.4,0.2,0.4,0.4s-0.2,0.4-0.4,0.4h-1.9v1.3h1.5c0.2,0,0.4,0.2,0.4,0.4c0,0.2-0.2,0.4-0.4,0.4h-1.5V89h1.8
							C41.9,88.8,42.2,89,42.2,89.3"/>
					</g>
				</g>
			</g>
		</g>
	</g>
</g>
<g id="Layer_3">
	<g>
		<path class="st2" d="M3.2,56.4c0-9-7.4-16.4-16.4-16.4s-16.4,7.3-16.4,16.4s7.4,16.4,16.4,16.4S3.2,65.4,3.2,56.4z M-20.4,59v-5.3
			h6.8v-4.1l8,6.8l-8,6.8v-4.1h-6.8V59z"/>
		<path class="st1" d="M4.8,56.4c0-9.9-8.1-18-18-18s-18,8.1-18,18s8.1,18,18,18S4.8,66.3,4.8,56.4z M-29.6,56.4
			c0-9,7.4-16.4,16.4-16.4S3.2,47.3,3.2,56.4s-7.4,16.4-16.4,16.4S-29.6,65.4-29.6,56.4z"/>
		<path class="st0" d="M8.6,56.4c0-12-9.8-21.8-21.8-21.8S-35,44.4-35,56.4s9.8,21.8,21.8,21.8S8.6,68.4,8.6,56.4z M-31.2,56.4
			c0-9.9,8.1-18,18-18s18,8.1,18,18s-8.1,18-18,18S-31.2,66.3-31.2,56.4z"/>
		<polygon class="st0" points="-5.6,56.4 -13.6,49.6 -13.6,53.8 -20.4,53.8 -20.4,59 -13.6,59 -13.6,63.2 		"/>
	</g>
</g>
<g id="Layer_3_1_">
	<g>
		<g>
			<path class="st33" d="M45.1,147.9c-1.9,1.9-6.6,0.2-10.7-3.8l0,0c-4-4-5.6-8.7-3.8-10.7l45.7-45.7c1.9-1.9,6.6-0.2,10.7,3.7l0,0
				c4,4,5.6,8.7,3.8,10.7L45.1,147.9z"/>
			<path class="st1" d="M42.9,150.2c-2.7,0-6.3-1.8-9.6-5c-4.6-4.6-6.3-10.1-3.9-12.8l45.8-45.8c2.5-2.5,7.9-1,12.8,3.7
				c4.6,4.6,6.3,10.1,3.9,12.8L46.1,149C45.3,149.8,44.2,150.2,42.9,150.2z M78.4,88.4c-0.5,0-0.9,0.1-1.1,0.3l-45.7,45.7
				c-0.9,1,0,4.8,3.8,8.6c3.9,3.8,7.6,4.8,8.6,3.8L89.7,101c0.9-1,0-4.8-3.8-8.6C82.9,89.6,80.1,88.4,78.4,88.4z"/>
		</g>
		<g>
			<polygon class="st3" points="14.8,163.5 23,144.3 34.4,155.6 			"/>
			<path class="st1" d="M14.8,165c-0.4,0-0.8-0.2-1.1-0.5c-0.4-0.4-0.5-1.1-0.3-1.6l8.2-19.2c0.2-0.5,0.6-0.8,1.1-0.9
				c0.5-0.1,1,0.1,1.3,0.4l11.4,11.3c0.4,0.4,0.5,0.9,0.4,1.4s-0.4,0.9-0.9,1.1l-19.6,7.9C15.2,165,15,165,14.8,165z M23.5,146.9
				l-5.9,13.8l14.1-5.7L23.5,146.9z"/>
		</g>
		<g>
			<polygon class="st1" points="14.8,163.4 18.2,155.8 22.5,160.2 			"/>
			<path class="st1" d="M14.8,164.9c-0.4,0-0.8-0.2-1.1-0.5c-0.4-0.4-0.5-1.1-0.3-1.7l3.4-7.6c0.2-0.5,0.6-0.8,1.1-0.9
				c0.5-0.1,1,0.1,1.3,0.4l4.3,4.4c0.3,0.4,0.5,0.9,0.4,1.3c-0.1,0.5-0.4,0.9-0.9,1.1l-7.7,3.2C15.2,164.9,15,164.9,14.8,164.9z
				 M18.6,158.4l-1,2.1l2.2-0.9L18.6,158.4z"/>
		</g>
		<g>
			<path class="st3" d="M38.4,154.6c-1.9,1.9-6.6,0.2-10.7-3.7l0,0c-4-4-5.6-8.7-3.7-10.7l45.7-45.7c1.9-1.9,6.6-0.2,10.7,3.7l0,0
				c4,4,5.6,8.7,3.8,10.7L38.4,154.6z"/>
			<path class="st1" d="M36.2,156.9c-2.7,0-6.3-1.7-9.6-4.9c-4.7-4.7-6.3-10.1-3.8-12.8l45.7-45.7c2.5-2.5,7.9-1,12.8,3.7
				c4.6,4.6,6.3,10.1,3.9,12.8l-45.9,45.8C38.6,156.5,37.5,156.9,36.2,156.9z M71.8,95.2c-0.5,0-0.9,0.1-1.1,0.3L25,141.3
				c-1,1-0.1,4.8,3.7,8.6c3.9,3.7,7.6,4.7,8.6,3.7l0,0l45.8-45.7c0.9-1,0-4.8-3.8-8.6C76.3,96.4,73.5,95.2,71.8,95.2z"/>
		</g>
		<g>
			<path class="st2" d="M34.7,150.9c-1.9,1.9-4.9,1.9-6.8,0l0,0c-1.9-1.9-1.9-4.9,0-6.8l45.7-45.8c1.9-1.9,4.9-1.9,6.8,0l0,0
				c1.9,1.9,1.9,5,0,6.8L34.7,150.9z"/>
			<path class="st1" d="M31.3,153.8c-1.7,0-3.3-0.7-4.5-1.9s-1.9-2.8-1.9-4.5s0.7-3.3,1.9-4.5l45.7-45.8c2.5-2.5,6.4-2.5,8.9,0
				c1.2,1.2,1.9,2.9,1.9,4.6s-0.7,3.2-1.9,4.4L35.7,152C34.5,153.2,32.9,153.8,31.3,153.8z M77,98.4c-0.8,0-1.7,0.3-2.3,1L29,145.2
				c-0.6,0.6-1,1.5-1,2.3s0.4,1.7,1,2.3c1.3,1.3,3.4,1.3,4.7,0L79.3,104c0.6-0.6,1-1.4,1-2.3s-0.3-1.8-1-2.4
				C78.7,98.7,77.8,98.4,77,98.4z"/>
		</g>
	</g>
</g>
</svg>
