<?xml version="1.0" encoding="utf-8"?>
<!-- Generator: Adobe Illustrator 19.0.0, SVG Export Plug-In . SVG Version: 6.00 Build 0)  -->
<svg version="1.1" id="Layer_1" xmlns="http://www.w3.org/2000/svg" xmlns:xlink="http://www.w3.org/1999/xlink" x="0px" y="0px"
	 viewBox="0 0 128 128" style="enable-background:new 0 0 128 128;" xml:space="preserve">
<style type="text/css">
	.st0{clip-path:url(#SVGID_2_);fill:#FFFFFF;}
	
		.st1{clip-path:url(#SVGID_2_);fill:none;stroke:#37474F;stroke-width:3;stroke-linecap:round;stroke-linejoin:round;stroke-miterlimit:10;}
	.st2{clip-path:url(#SVGID_2_);fill:#B0BEC5;}
	.st3{clip-path:url(#SVGID_2_);fill:#37474F;}
	.st4{clip-path:url(#SVGID_2_);fill:none;stroke:#37474F;stroke-miterlimit:10;}
	.st5{clip-path:url(#SVGID_2_);fill:none;stroke:#37474F;stroke-width:3;stroke-linecap:round;stroke-miterlimit:10;}
	.st6{clip-path:url(#SVGID_2_);fill:#FFAB00;}
	.st7{clip-path:url(#SVGID_2_);fill:none;stroke:#37474F;stroke-width:3;stroke-linejoin:round;stroke-miterlimit:10;}
</style>
<g>
	<defs>
		<rect id="SVGID_1_" width="128" height="128"/>
	</defs>
	<clipPath id="SVGID_2_">
		<use xlink:href="#SVGID_1_"  style="overflow:visible;"/>
	</clipPath>
	<path class="st0" d="M117.7,21.8l-4.6-3.6l-7.5-5.6l-7,4.9H97l-7-4.8l-7,4.8h-1.7l-7-4.8l-7,4.8h-1.7l-7-4.8l-7,4.8h-1.7l-7-4.8
		l-7,4.8h-1.4v74h-27v10.2c0,7.5,6.6,13.8,14.1,13.8H108c7.5,0,13.5-6.3,13.5-13.8V30.9C121.5,24.9,122.2,25.6,117.7,21.8"/>
	<path class="st1" d="M117.7,21.8l-4.6-3.6l-7.5-5.6l-7,4.9H97l-7-4.8l-7,4.8h-1.7l-7-4.8l-7,4.8h-1.7l-7-4.8l-7,4.8h-1.7l-7-4.8
		l-7,4.8h-1.4v74h-27v10.2c0,7.5,6.6,13.8,14.1,13.8H108c7.5,0,13.5-6.3,13.5-13.8V30.9C121.5,24.9,122.2,25.6,117.7,21.8z"/>
	<path class="st2" d="M6.5,40.5v58.9c0,7.9,6.1,14.3,14,14.3c7.9,0,14-6.4,14-14.3V40.5H6.5z"/>
	<path class="st1" d="M6.5,40.5v58.9c0,7.9,6.1,14.3,14,14.3c7.9,0,14-6.4,14-14.3V40.5H6.5z"/>
	<path class="st3" d="M49.7,31.3c0,0.8-0.6,1.4-1.4,1.4c-0.8,0-1.4-0.6-1.4-1.4c0-0.8,0.6-1.4,1.4-1.4C49,29.9,49.7,30.6,49.7,31.3"
		/>
	<path class="st4" d="M49.7,31.3c0,0.8-0.6,1.4-1.4,1.4c-0.8,0-1.4-0.6-1.4-1.4c0-0.8,0.6-1.4,1.4-1.4C49,29.9,49.7,30.6,49.7,31.3z
		"/>
	<path class="st3" d="M59.4,31.3c0,0.8-0.7,1.4-1.4,1.4c-0.8,0-1.4-0.6-1.4-1.4c0-0.8,0.6-1.4,1.4-1.4
		C58.8,29.9,59.4,30.6,59.4,31.3"/>
	<path class="st4" d="M59.4,31.3c0,0.8-0.7,1.4-1.4,1.4c-0.8,0-1.4-0.6-1.4-1.4c0-0.8,0.6-1.4,1.4-1.4
		C58.8,29.9,59.4,30.6,59.4,31.3z"/>
	<path class="st3" d="M69.2,31.3c0,0.8-0.6,1.4-1.4,1.4c-0.8,0-1.4-0.6-1.4-1.4c0-0.8,0.6-1.4,1.4-1.4
		C68.6,29.9,69.2,30.6,69.2,31.3"/>
	<path class="st4" d="M69.2,31.3c0,0.8-0.6,1.4-1.4,1.4c-0.8,0-1.4-0.6-1.4-1.4c0-0.8,0.6-1.4,1.4-1.4
		C68.6,29.9,69.2,30.6,69.2,31.3z"/>
	<line class="st5" x1="48" y1="81.5" x2="113" y2="81.5"/>
	<line class="st5" x1="48" y1="89.5" x2="113" y2="89.5"/>
	<line class="st5" x1="48" y1="96.5" x2="113" y2="96.5"/>
	<line class="st5" x1="48" y1="103.5" x2="113" y2="103.5"/>
	<line class="st5" x1="76" y1="53.5" x2="113" y2="53.5"/>
	<line class="st5" x1="76" y1="60.5" x2="113" y2="60.5"/>
	<line class="st5" x1="76" y1="67.5" x2="113" y2="67.5"/>
	<line class="st5" x1="76" y1="75.5" x2="113" y2="75.5"/>
	<rect x="48.5" y="53.5" class="st6" width="21" height="21"/>
	<rect x="48.5" y="53.5" class="st7" width="21" height="21"/>
	<rect x="106" y="37" class="st6" width="6" height="9"/>
	<path class="st3" d="M52.4,37.8v7.9c0,0.4-0.3,0.8-0.8,0.8c-0.5,0-0.8-0.3-0.8-0.8v-3.2h-3.5v3.2c0,0.4-0.4,0.8-0.8,0.8
		c-0.4,0-0.8-0.3-0.8-0.8v-7.9c0-0.4,0.3-0.8,0.8-0.8c0.4,0,0.8,0.4,0.8,0.8V41h3.5v-3.2c0-0.4,0.4-0.8,0.8-0.8
		C52.1,37,52.4,37.4,52.4,37.8"/>
	<path class="st3" d="M59.4,45.7c0,0.4-0.3,0.8-0.8,0.8h-4.3c-0.5,0-0.8-0.3-0.8-0.8v-7.9c0-0.4,0.3-0.8,0.8-0.8h4.3
		c0.5,0,0.8,0.4,0.8,0.8c0,0.4-0.3,0.8-0.8,0.8H55V41h2.8c0.4,0,0.8,0.3,0.8,0.8c0,0.4-0.4,0.8-0.8,0.8H55v2.4h3.5
		C59,44.9,59.4,45.3,59.4,45.7"/>
	<path class="st3" d="M68.3,45.4c0,0.1,0,0.2,0,0.3c0,0.4-0.3,0.8-0.8,0.8c-0.3,0-0.6-0.2-0.7-0.5l-0.6-1.5h-3.7L61.9,46
		c-0.1,0.3-0.4,0.5-0.7,0.5c-0.5,0-0.8-0.4-0.8-0.8c0-0.1,0-0.2,0-0.3l3.2-7.9c0.1-0.3,0.4-0.5,0.7-0.5c0.3,0,0.6,0.2,0.7,0.5
		L68.3,45.4z M65.6,42.9l-1.2-3l-1.2,3H65.6z"/>
	<path class="st3" d="M70.1,46.5c-0.4,0-0.8-0.3-0.8-0.8v-7.9c0-0.4,0.4-0.8,0.8-0.8h2.3c0.1,0,4,0,4,4.8c0,4.7-4,4.7-4,4.7H70.1z
		 M70.9,44.9h1.5c0,0,0.7,0,1.3-0.4c0.8-0.5,1.2-1.4,1.2-2.7c0-1.4-0.4-2.3-1.2-2.8c-0.6-0.4-1.2-0.4-1.2-0.4h-1.5V44.9z"/>
	<path class="st3" d="M78.3,46.5c-0.4,0-0.8-0.3-0.8-0.8v-7.9c0-0.4,0.3-0.8,0.8-0.8c0.5,0,0.8,0.4,0.8,0.8v7.1h2.8
		c0.4,0,0.8,0.3,0.8,0.8c0,0.4-0.3,0.8-0.8,0.8H78.3z"/>
	<path class="st3" d="M83.7,45.7v-7.9c0-0.4,0.4-0.8,0.8-0.8c0.4,0,0.8,0.4,0.8,0.8v7.9c0,0.4-0.3,0.8-0.8,0.8
		C84,46.5,83.7,46.1,83.7,45.7"/>
	<path class="st3" d="M92,46.2l-4.1-5.9v5.4c0,0.4-0.4,0.8-0.8,0.8c-0.5,0-0.8-0.3-0.8-0.8v-7.9c0-0.4,0.3-0.8,0.8-0.8
		c0.2,0,0.5,0.1,0.6,0.3l4.1,5.9v-5.4c0-0.4,0.4-0.8,0.8-0.8c0.4,0,0.8,0.4,0.8,0.8v7.9c0,0.4-0.3,0.8-0.8,0.8
		C92.4,46.5,92.1,46.4,92,46.2"/>
	<path class="st3" d="M100.4,45.7c0,0.4-0.3,0.8-0.8,0.8h-4.3c-0.5,0-0.8-0.3-0.8-0.8v-7.9c0-0.4,0.3-0.8,0.8-0.8h4.3
		c0.5,0,0.8,0.4,0.8,0.8c0,0.4-0.3,0.8-0.8,0.8H96V41h2.8c0.4,0,0.8,0.3,0.8,0.8c0,0.4-0.4,0.8-0.8,0.8H96v2.4h3.5
		C100,44.9,100.4,45.3,100.4,45.7"/>
</g>
</svg>
