<?xml version="1.0" encoding="utf-8"?>
<!-- Generator: Adobe Illustrator 20.0.0, SVG Export Plug-In . SVG Version: 6.00 Build 0)  -->
<svg version="1.1" id="Layer_1" xmlns="http://www.w3.org/2000/svg" xmlns:xlink="http://www.w3.org/1999/xlink" x="0px" y="0px"
	 viewBox="0 0 128 128" style="enable-background:new 0 0 128 128;" xml:space="preserve">
<style type="text/css">
	.st0{fill:#B0BEC5;}
	.st1{fill:#37474F;}
	.st2{fill:#78909C;}
	.st3{fill:#FFAB00;}
	.st4{fill:#FFECB3;}
	.st5{fill:none;}
</style>
<g>
	<g>
		<polyline class="st0" points="20,54.5 10.5,54.5 10.5,75 		"/>
		<path class="st1" d="M10.5,76.5C9.7,76.5,9,75.8,9,75V54.5c0-0.8,0.7-1.5,1.5-1.5H20c0.8,0,1.5,0.7,1.5,1.5S20.8,56,20,56h-8v19
			C12,75.8,11.3,76.5,10.5,76.5z"/>
	</g>
	<g>
		<polyline class="st0" points="70,54.5 78.5,54.5 78.5,75 		"/>
		<path class="st1" d="M78.5,76.5c-0.8,0-1.5-0.7-1.5-1.5V56h-7c-0.8,0-1.5-0.7-1.5-1.5S69.2,53,70,53h8.5c0.8,0,1.5,0.7,1.5,1.5V75
			C80,75.8,79.3,76.5,78.5,76.5z"/>
	</g>
	<g>
		<path class="st2" d="M70.5,87.7c0,2-1.5,3.8-3.1,3.8H22.7c-1.6,0-3.2-1.8-3.2-3.8v-3.8c0-2,1.6-3.4,3.2-3.4h44.6
			c1.7,0,3.1,1.4,3.1,3.4L70.5,87.7L70.5,87.7z"/>
		<path class="st1" d="M67.4,93H22.7c-2.5,0-4.7-2.5-4.7-5.3v-3.8c0-2.7,2.1-4.9,4.7-4.9h44.6c2.6,0,4.6,2.2,4.6,4.9v3.8
			C72,90.6,69.9,93,67.4,93z M22.7,82c-0.8,0-1.7,0.8-1.7,1.9v3.8c0,1.2,0.9,2.3,1.7,2.3h44.6c0.7,0,1.6-1,1.6-2.3v-3.8
			c0-1.2-0.8-1.9-1.6-1.9H22.7z"/>
	</g>
	<g>
		<path class="st3" d="M68.5,66.1c0,6.8-5,12.4-11.8,12.4H33.4c-6.8,0-11.9-5.6-11.9-12.4v-50c0-6.8,5.1-12.6,11.9-12.6h23.3
			c6.8,0,11.8,5.9,11.8,12.6V66.1z"/>
		<path class="st1" d="M56.7,80H33.4C25.9,80,20,73.9,20,66.1v-50C20,8.3,26,2,33.4,2h23.3C64,2,70,8.3,70,16.1v50
			C70,73.9,64.2,80,56.7,80z M33.4,5C27.7,5,23,10,23,16.1v50C23,72.2,27.6,77,33.4,77h23.3C62.5,77,67,72.2,67,66.1v-50
			C67,9.9,62.5,5,56.7,5H33.4z"/>
	</g>
	<g>
		<path class="st4" d="M78.5,79.6c0,2.7-1.2,4.9-3.4,4.9H15c-2.2,0-4.5-2.2-4.5-4.9v-5.1c0-2.7,2.3-5,4.5-5h60c2.2,0,3.4,2.3,3.4,5
			L78.5,79.6L78.5,79.6z"/>
		<path class="st1" d="M75.1,86H15c-3.2,0-6-3.1-6-6.4v-5.1c0-3.4,2.9-6.5,6-6.5h60c2.9,0,4.9,2.7,4.9,6.5v5.1
			C80,83.4,78,86,75.1,86z M15,71c-1.4,0-3,1.6-3,3.5v5.1c0,1.9,1.7,3.4,3,3.4h60c1.5,0,1.9-2.2,1.9-3.4v-5.1c0-1.7-0.6-3.5-1.9-3.5
			H15z"/>
	</g>
	<g>
		<g>
			<path class="st1" d="M36.6,21.5c0-0.8-0.6-1.5-1.4-1.5c-0.8,0-1.4,0.7-1.4,1.5s0.6,1.5,1.4,1.5S36.6,22.3,36.6,21.5z"/>
			<path class="st1" d="M35.3,23.5c-1.1,0-1.9-0.9-1.9-2s0.9-2,1.9-2s1.9,0.9,1.9,2C37.1,22.6,36.3,23.5,35.3,23.5z M35.3,20.5
				c-0.5,0-0.9,0.4-0.9,1s0.4,1,0.9,1s0.9-0.5,0.9-1C36.1,20.9,35.7,20.5,35.3,20.5z"/>
		</g>
		<g>
			<path class="st1" d="M46.5,21.5c0-0.8-0.6-1.5-1.4-1.5s-1.4,0.7-1.4,1.5s0.7,1.5,1.4,1.5S46.5,22.3,46.5,21.5z"/>
			<path class="st1" d="M45.1,23.5c-1,0-1.9-0.9-1.9-2s0.9-2,1.9-2c1.1,0,1.9,0.9,1.9,2S46.1,23.5,45.1,23.5z M45.1,20.5
				c-0.5,0-0.9,0.4-0.9,1s0.4,1,0.9,1s0.9-0.5,0.9-1S45.6,20.5,45.1,20.5z"/>
		</g>
		<g>
			<path class="st1" d="M56.3,21.5c0-0.8-0.6-1.5-1.4-1.5s-1.4,0.7-1.4,1.5s0.6,1.5,1.4,1.5C55.7,23,56.3,22.3,56.3,21.5z"/>
			<path class="st1" d="M54.9,23.5c-1,0-1.9-0.9-1.9-2s0.9-2,1.9-2s1.9,0.9,1.9,2S55.9,23.5,54.9,23.5z M54.9,20.5
				c-0.5,0-0.9,0.4-0.9,1s0.4,1,0.9,1s0.9-0.5,0.9-1C55.8,20.9,55.4,20.5,54.9,20.5z"/>
		</g>
	</g>
	<g>
		<g>
			<path class="st1" d="M36.6,33.9c0-0.8-0.6-1.5-1.4-1.5c-0.8,0-1.4,0.7-1.4,1.5s0.6,1.5,1.4,1.5S36.6,34.8,36.6,33.9z"/>
			<path class="st1" d="M35.3,35.9c-1.1,0-1.9-0.9-1.9-2s0.9-2,1.9-2s1.9,0.9,1.9,2C37.1,35,36.3,35.9,35.3,35.9z M35.3,32.9
				c-0.5,0-0.9,0.4-0.9,1s0.4,1,0.9,1s0.9-0.4,0.9-1C36.1,33.4,35.7,32.9,35.3,32.9z"/>
		</g>
		<g>
			<path class="st1" d="M46.5,33.9c0-0.8-0.6-1.5-1.4-1.5s-1.4,0.7-1.4,1.5s0.7,1.5,1.4,1.5S46.5,34.8,46.5,33.9z"/>
			<path class="st1" d="M45.1,35.9c-1.1,0-1.9-0.9-1.9-2s0.9-2,1.9-2c1.1,0,1.9,0.9,1.9,2S46.1,35.9,45.1,35.9z M45.1,32.9
				c-0.5,0-0.9,0.5-0.9,1s0.4,1,0.9,1s0.9-0.5,0.9-1S45.6,32.9,45.1,32.9z"/>
		</g>
		<g>
			<path class="st1" d="M56.3,33.9c0-0.8-0.6-1.5-1.4-1.5s-1.4,0.7-1.4,1.5s0.6,1.5,1.4,1.5C55.7,35.4,56.3,34.8,56.3,33.9z"/>
			<path class="st1" d="M54.9,35.9c-1,0-1.9-0.9-1.9-2s0.9-2,1.9-2s1.9,0.9,1.9,2S55.9,35.9,54.9,35.9z M54.9,32.9
				c-0.5,0-0.9,0.4-0.9,1c0,0.5,0.4,1,0.9,1s0.9-0.4,0.9-1C55.8,33.4,55.4,32.9,54.9,32.9z"/>
		</g>
	</g>
	<g>
		<g>
			<path class="st1" d="M36.6,46.4c0-0.8-0.6-1.5-1.4-1.5c-0.8,0-1.4,0.7-1.4,1.5s0.6,1.5,1.4,1.5S36.6,47.2,36.6,46.4z"/>
			<path class="st1" d="M35.3,48.4c-1.1,0-1.9-0.9-1.9-2s0.8-2,1.9-2c1,0,1.9,0.9,1.9,2C37.1,47.5,36.3,48.4,35.3,48.4z M35.3,45.4
				c-0.5,0-0.9,0.4-0.9,1s0.4,1,0.9,1s0.9-0.4,0.9-1C36.1,45.8,35.7,45.4,35.3,45.4z"/>
		</g>
		<g>
			<path class="st1" d="M46.5,46.4c0-0.8-0.6-1.5-1.4-1.5s-1.4,0.7-1.4,1.5s0.7,1.5,1.4,1.5S46.5,47.2,46.5,46.4z"/>
			<path class="st1" d="M45.1,48.4c-1.1,0-1.9-0.9-1.9-2s0.9-2,1.9-2c1.1,0,1.9,0.9,1.9,2S46.1,48.4,45.1,48.4z M45.1,45.4
				c-0.5,0-0.9,0.4-0.9,1c0,0.5,0.4,1,0.9,1s0.9-0.5,0.9-1C46,45.8,45.6,45.4,45.1,45.4z"/>
		</g>
		<g>
			<path class="st1" d="M56.3,46.4c0-0.8-0.6-1.5-1.4-1.5s-1.4,0.7-1.4,1.5s0.6,1.5,1.4,1.5C55.7,47.9,56.3,47.2,56.3,46.4z"/>
			<path class="st1" d="M54.9,48.4c-1,0-1.9-0.9-1.9-2s0.9-2,1.9-2s1.9,0.9,1.9,2S55.9,48.4,54.9,48.4z M54.9,45.4
				c-0.5,0-0.9,0.4-0.9,1s0.4,1,0.9,1s0.9-0.4,0.9-1C55.8,45.8,55.4,45.4,54.9,45.4z"/>
		</g>
	</g>
	<g>
		<g>
			<path class="st1" d="M36.6,58.8c0-0.8-0.6-1.5-1.4-1.5c-0.8,0-1.4,0.7-1.4,1.5s0.6,1.5,1.4,1.5S36.6,59.6,36.6,58.8z"/>
			<path class="st1" d="M35.3,60.8c-1.1,0-1.9-0.9-1.9-2s0.9-2,1.9-2s1.9,0.9,1.9,2C37.1,59.9,36.3,60.8,35.3,60.8z M35.3,57.8
				c-0.5,0-0.9,0.4-0.9,1s0.4,1,0.9,1s0.9-0.4,0.9-1C36.1,58.3,35.7,57.8,35.3,57.8z"/>
		</g>
		<g>
			<path class="st1" d="M46.5,58.8c0-0.8-0.6-1.5-1.4-1.5s-1.4,0.7-1.4,1.5s0.7,1.5,1.4,1.5S46.5,59.6,46.5,58.8z"/>
			<path class="st1" d="M45.1,60.8c-1.1,0-1.9-0.9-1.9-2s0.9-2,1.9-2c1.1,0,1.9,0.9,1.9,2C47,59.9,46.1,60.8,45.1,60.8z M45.1,57.8
				c-0.5,0-0.9,0.5-0.9,1s0.4,1,0.9,1s0.9-0.5,0.9-1S45.6,57.8,45.1,57.8z"/>
		</g>
		<g>
			<path class="st1" d="M56.3,58.8c0-0.8-0.6-1.5-1.4-1.5s-1.4,0.7-1.4,1.5s0.6,1.5,1.4,1.5C55.7,60.3,56.3,59.6,56.3,58.8z"/>
			<path class="st1" d="M54.9,60.8c-1,0-1.9-0.9-1.9-2s0.9-2,1.9-2s1.9,0.9,1.9,2C56.8,59.9,55.9,60.8,54.9,60.8z M54.9,57.8
				c-0.5,0-0.9,0.4-0.9,1c0,0.5,0.4,1,0.9,1s0.9-0.4,0.9-1C55.8,58.3,55.4,57.8,54.9,57.8z"/>
		</g>
	</g>
	<g>
		<g>
			<polyline class="st0" points="14.5,119 14.5,112.4 20.1,106.9 44.5,105.4 44.5,92 			"/>
			<path class="st1" d="M14.5,120.5c-0.8,0-1.5-0.7-1.5-1.5v-6.6c0-0.4,0.2-0.8,0.4-1.1l5.6-5.5c0.3-0.3,0.6-0.4,1-0.4l23-1.4V92
				c0-0.8,0.7-1.5,1.5-1.5c0.8,0,1.5,0.7,1.5,1.5v13.4c0,0.8-0.6,1.4-1.4,1.5l-23.9,1.4L16,113v6C16,119.8,15.3,120.5,14.5,120.5z"
				/>
		</g>
		<g>
			<polyline class="st0" points="75.5,119 75.5,112.4 69.9,106.9 45.5,105.4 45.5,92 			"/>
			<path class="st1" d="M75.5,120.5c-0.8,0-1.5-0.7-1.5-1.5v-6l-4.7-4.7l-23.9-1.4c-0.8,0-1.4-0.7-1.4-1.5V92c0-0.8,0.7-1.5,1.5-1.5
				S47,91.2,47,92v12l23,1.4c0.4,0,0.7,0.2,1,0.4l5.6,5.5c0.3,0.3,0.4,0.7,0.4,1.1v6.6C77,119.8,76.3,120.5,75.5,120.5z"/>
		</g>
	</g>
	<g>
		<path class="st3" d="M18.4,121.6c0,1.8-1.4,3.2-3.2,3.2s-3.2-1.4-3.2-3.2c0-1.8,1.4-3.2,3.2-3.2S18.4,119.8,18.4,121.6z"/>
		<path class="st1" d="M15.2,126.3c-2.6,0-4.7-2.1-4.7-4.7s2.1-4.7,4.7-4.7c2.6,0,4.7,2.1,4.7,4.7C19.9,124.2,17.8,126.3,15.2,126.3
			z M15.2,119.9c-0.9,0-1.7,0.8-1.7,1.7c0,0.9,0.8,1.7,1.7,1.7s1.7-0.8,1.7-1.7C16.9,120.7,16.2,119.9,15.2,119.9z"/>
	</g>
	<g>
		<path class="st3" d="M78.6,121.6c0,1.8-1.4,3.2-3.2,3.2c-1.8,0-3.2-1.4-3.2-3.2c0-1.8,1.4-3.2,3.2-3.2S78.6,119.8,78.6,121.6z"/>
		<path class="st1" d="M75.4,126.3c-2.6,0-4.7-2.1-4.7-4.7s2.1-4.7,4.7-4.7s4.7,2.1,4.7,4.7C80.1,124.2,78,126.3,75.4,126.3z
			 M75.4,119.9c-0.9,0-1.7,0.8-1.7,1.7c0,0.9,0.8,1.7,1.7,1.7s1.7-0.8,1.7-1.7C77.1,120.7,76.4,119.9,75.4,119.9z"/>
	</g>
	<g>
		<path class="st3" d="M48.2,121.6c0,1.8-1.4,3.2-3.2,3.2c-1.8,0-3.2-1.4-3.2-3.2c0-1.8,1.4-3.2,3.2-3.2
			C46.8,118.4,48.2,119.8,48.2,121.6z"/>
		<path class="st1" d="M45.1,126.3c-2.6,0-4.7-2.1-4.7-4.7s2.1-4.7,4.7-4.7c2.6,0,4.7,2.1,4.7,4.7C49.7,124.2,47.6,126.3,45.1,126.3
			z M45.1,119.9c-0.9,0-1.7,0.8-1.7,1.7c0,0.9,0.8,1.7,1.7,1.7s1.7-0.8,1.7-1.7C46.7,120.7,46,119.9,45.1,119.9z"/>
	</g>
	<g>
		<line class="st5" x1="44.5" y1="118" x2="44.5" y2="105"/>
		<rect x="43" y="105" class="st1" width="3" height="13"/>
	</g>
</g>
<g>
	<polygon class="st4" points="87.4,5 64.5,64.5 90.9,64.5 73.4,122.2 122.2,45.5 101.3,45.5 118.4,5.3 	"/>
	<path class="st1" d="M73.4,123.7c-0.2,0-0.4,0-0.6-0.1c-0.7-0.3-1-1.1-0.8-1.8L88.9,66H64.5c-0.5,0-1-0.2-1.2-0.7s-0.3-0.9-0.2-1.4
		L86,4.5c0.2-0.6,0.7-1,1.4-1l31,0.3c0.5,0,1,0.3,1.2,0.7c0.3,0.4,0.3,0.9,0.1,1.4L103.6,44h18.6c0.5,0,1.1,0.3,1.3,0.8
		c0.3,0.5,0.2,1.1,0,1.5L74.7,123C74.4,123.4,73.9,123.7,73.4,123.7z M66.7,63h24.2c0.5,0,0.9,0.2,1.2,0.6c0.3,0.4,0.4,0.9,0.2,1.3
		L78,112.1L119.5,47h-18.2c-0.5,0-1-0.3-1.3-0.7s-0.3-1-0.1-1.4l16.3-38.1L88.4,6.5L66.7,63z"/>
</g>
</svg>
