<?xml version="1.0" encoding="utf-8"?>
<!-- Generator: Adobe Illustrator 19.0.0, SVG Export Plug-In . SVG Version: 6.00 Build 0)  -->
<svg version="1.1" xmlns="http://www.w3.org/2000/svg" xmlns:xlink="http://www.w3.org/1999/xlink" x="0px" y="0px"
	 viewBox="-35 37 128 128" style="enable-background:new -35 37 128 128;" xml:space="preserve">
<style type="text/css">
	.st0{fill:#FFFFFF;}
	.st1{fill:#37474F;}
	.st2{fill:#B0BEC5;}
	.st3{clip-path:url(#SVGID_2_);}
	.st4{fill:#FFAB00;}
	.st5{clip-path:url(#SVGID_4_);}
	.st6{fill:#FFECB3;}
	.st7{fill:#3F3F3F;}
	.st8{fill:#B0BEC5;stroke:#37474F;stroke-width:3;stroke-miterlimit:10;}
	.st9{fill:#FFECB3;stroke:#37474F;stroke-width:3;stroke-linecap:round;stroke-linejoin:round;stroke-miterlimit:10;}
	.st10{fill:#78909C;stroke:#37474F;stroke-width:3;stroke-miterlimit:10;}
	.st11{fill:#FFAB00;stroke:#37474F;stroke-width:3;stroke-linecap:round;stroke-linejoin:round;stroke-miterlimit:10;}
	.st12{fill:#FFFFFF;stroke:#37474F;stroke-width:3;stroke-linecap:round;stroke-miterlimit:10;}
	.st13{fill:none;stroke:#37474F;stroke-width:3;stroke-linecap:round;stroke-linejoin:round;stroke-miterlimit:10;}
	.st14{fill:#37474F;stroke:#37474F;stroke-miterlimit:10;}
</style>
<g id="Layer_1">
	<g>
		<g>
			<rect x="-32.1" y="70" class="st0" width="93.7" height="93.7"/>
			<path class="st1" d="M62.8,165h-96.2V68.8h96.2V165z M-30.9,162.5h91.2V71.3h-91.2V162.5z"/>
		</g>
		<g>
			<rect x="-20.1" y="82.9" class="st2" width="69.7" height="67.2"/>
		</g>
		<g>
			<g>
				<defs>
					<rect id="SVGID_1_" x="-20.1" y="82.9" width="69.7" height="67.2"/>
				</defs>
				<clipPath id="SVGID_2_">
					<use xlink:href="#SVGID_1_"  style="overflow:visible;"/>
				</clipPath>
				<g class="st3">
					<polygon class="st4" points="-19.8,150.4 6.2,124.4 19.1,137.1 43.1,113.1 56.5,126.4 71.9,141.9 59.4,167.3 0.9,157.6 
						-19.4,156.4 -21,151.9 					"/>
					<path class="st1" d="M59.4,168.6c-0.1,0-0.2,0-0.2,0l-58.4-9.7l-20.2-1.2c-0.5,0-0.9-0.3-1.1-0.8l-1.7-4.5
						c-0.2-0.4-0.1-0.8,0.2-1.2l1.2-1.5l0.1-0.1l26-26c0.5-0.5,1.3-0.5,1.7,0L19,135.4l23.2-23.2c0.5-0.5,1.3-0.5,1.7,0l28.8,28.8
						c0.4,0.4,0.5,0.9,0.2,1.4l-12.5,25.5C60.3,168.3,59.8,168.6,59.4,168.6z M-18.5,155.1L1,156.3c0.1,0,0.1,0,0.2,0l57.6,9.6
						l11.6-23.8l-27.2-27.3L19.9,138c-0.2,0.2-0.6,0.3-0.9,0.3l0,0c-0.3,0-0.7-0.2-0.9-0.3L6.2,126.1l-25.1,25.1l-0.7,0.9
						L-18.5,155.1z"/>
				</g>
			</g>
			<g>
				<defs>
					<rect id="SVGID_3_" x="-20.1" y="82.9" width="69.7" height="67.2"/>
				</defs>
				<clipPath id="SVGID_4_">
					<use xlink:href="#SVGID_3_"  style="overflow:visible;"/>
				</clipPath>
				<g class="st5">
					<path class="st0" d="M75.9,108.4c0-2.6-1.8-4.6-4.2-5.1c-0.5-2.4-2.5-4.2-5.1-4.2c-2.2,0-4,1.3-4.8,3.2
						c-0.6-0.2-1.2-0.5-1.7-0.6c0-0.2,0.1-0.2,0.1-0.3c0-4.3-3.5-7.9-7.9-7.9c-1.9-5-6.6-8.5-12.3-8.5c-5.9,0-10.8,4-12.4,9.4
						c-0.1,0-0.1,0-0.2,0c-4.4,0-7.9,3.6-7.9,7.9c0,0.8,0.2,1.5,0.5,2.2c-1.9,0.7-3.3,2.7-3.3,4.9c0,2.1,1.2,3.6,3,4.6l-0.9,0.3h2.6
						c0.2,0,0.4,0.2,0.7,0.2c0.2,0,0.4-0.2,0.7-0.2h51.3l-2.7-0.7C73.8,113,75.9,111,75.9,108.4z M62.3,110.8c0.7-0.5,1.3-1.2,1.7-2
						c0.5,0.2,0.9,0.4,1.5,0.5c0.2,1.2,0.8,2.2,1.7,3L62.3,110.8z"/>
					<path class="st1" d="M21.9,115.4c-0.3,0-0.6-0.1-0.7-0.1l0,0H10.8l6.1-2c-1-1.2-1.6-2.6-1.6-4.1c0-2.2,1.2-4.3,3.1-5.5
						c-0.1-0.5-0.2-1-0.2-1.6c0-4.8,3.7-8.8,8.5-9.1c2.2-5.6,7.4-9.4,13.3-9.4c5.7,0,10.8,3.3,13.1,8.5c4.4,0.4,7.9,4,8.2,8.4
						c1.2-1.7,3.2-2.7,5.3-2.7c2.8,0,5.2,1.8,6.1,4.5c2.7,0.9,4.5,3.3,4.5,6.1c0,1.8-0.8,3.5-2.2,4.6l9.3,2.2H22.6
						C22.4,115.3,22.1,115.4,21.9,115.4z M20.5,112.8h0.7c0.2,0,0.5,0.1,0.7,0.1c0.2-0.1,0.4-0.1,0.7-0.1h41.8l-4.6-1.4l1.9-1.5
						c0.7-0.5,1.1-1,1.3-1.6l0.6-1.2l1.2,0.7c0.3,0.2,0.7,0.3,1.2,0.4l0.8,0.2l0.2,0.8c0.2,0.9,0.6,1.7,1.3,2.2l1.2,1l1.8-0.2
						c2.2-0.2,3.6-1.8,3.6-3.8c0-1.9-1.3-3.5-3.2-3.8l-0.8-0.2l-0.2-0.8c-0.4-1.9-2-3.2-3.8-3.2c-1.6,0-3,0.9-3.6,2.4l-0.6,1.2
						l-1.2-0.6c-0.4-0.2-0.8-0.3-1.3-0.4l-1.2-0.2l0.2-1.2c0-0.1,0-0.2,0.1-0.3c-0.1-3.6-3-6.5-6.6-6.6h-0.8l-0.3-0.8
						C49.4,89,45,86,40,86c-5.1,0-9.6,3.4-11.2,8.5l-0.2,0.9h-0.9c-0.1,0-0.2,0-0.2,0c-3.6,0.1-6.6,3.1-6.6,6.6
						c0,0.6,0.2,1.2,0.4,1.8l0.3,1.1l-1.1,0.4c-1.5,0.7-2.5,2.1-2.5,3.7c0,1.5,0.8,2.7,2.2,3.4L20.5,112.8z"/>
				</g>
			</g>
		</g>
		<g>
			<path class="st1" d="M51.2,151.7h-72.2V82.1h72.2V151.7z M-18.4,149.2h67.2V84.6h-67.2V149.2z"/>
		</g>
		<g>
			<polyline class="st6" points="-17.8,148.5 8.2,140.1 7.1,127.4 			"/>
			<path class="st1" d="M-17.8,149.7c-0.5,0-1-0.3-1.2-0.8c-0.2-0.7,0.2-1.3,0.8-1.6l25-8l-1-11.8c-0.1-0.7,0.4-1.3,1.2-1.3
				c0.7-0.1,1.3,0.4,1.3,1.2L9.4,140c0.1,0.6-0.3,1.1-0.8,1.3l-26,8.4C-17.5,149.7-17.6,149.7-17.8,149.7z"/>
		</g>
		<g>
			<polyline class="st6" points="19.1,137.1 42.6,125.3 42.9,115.7 			"/>
			<path class="st1" d="M19.1,138.4c-0.4,0-0.9-0.2-1.1-0.7c-0.3-0.6-0.1-1.3,0.6-1.7l22.9-11.6l0.2-8.7c0-0.7,0.6-1.2,1.2-1.2
				s1.2,0.6,1.2,1.2l-0.4,9.5c0,0.4-0.2,0.8-0.7,1.1l-23.6,11.9C19.4,138.4,19.2,138.4,19.1,138.4z"/>
		</g>
		<g>
			<path class="st0" d="M8.6,116.9c-7.3,0-13.2-5.9-13.2-13.2c0-4.3,2.1-8,5.2-10.4c-7,0.9-12.4,6.8-12.4,14
				c0,7.8,6.3,14.2,14.2,14.2c4.6,0,8.6-2.2,11.2-5.6C12.2,116.6,10.5,116.9,8.6,116.9z"/>
			<path class="st1" d="M2.5,122.7c-8.5,0-15.4-6.9-15.4-15.4c0-7.6,5.7-14.2,13.4-15.2l4.6-0.6l-3.7,2.8c-3,2.3-4.7,5.7-4.7,9.5
				c0,6.6,5.3,11.9,11.9,11.9c1.6,0,3.2-0.3,4.6-0.9l4.4-1.9l-3,3.7C11.8,120.5,7.4,122.7,2.5,122.7z M-3.4,95.9
				c-4.1,2.2-7,6.5-7,11.4c0,7.1,5.8,12.9,12.9,12.9c2.5,0,4.9-0.7,7-2.1c-0.3,0-0.6,0-0.9,0c-8,0-14.4-6.5-14.4-14.4
				C-5.7,100.9-4.9,98.2-3.4,95.9z"/>
		</g>
		<g>
			<g>
				<path class="st1" d="M23.9,76.4c0-0.8,0.7-1.5,1.5-1.5s1.5,0.7,1.5,1.5s-0.7,1.5-1.5,1.5S23.9,77.3,23.9,76.4z"/>
				<path class="st7" d="M25.4,78.3c-1.1,0-1.9-0.8-1.9-1.9s0.8-1.9,1.9-1.9c1.1,0,1.9,0.8,1.9,1.9C27.3,77.5,26.4,78.3,25.4,78.3z
					 M25.4,75.3c-0.6,0-1.1,0.5-1.1,1.1c0,0.6,0.5,1.1,1.1,1.1c0.6,0,1.1-0.5,1.1-1.1C26.4,75.8,25.9,75.3,25.4,75.3z"/>
			</g>
			<g>
				<path class="st1" d="M13.5,76.4c0-0.8,0.7-1.5,1.5-1.5c0.8,0,1.5,0.7,1.5,1.5s-0.7,1.5-1.5,1.5C14.2,77.9,13.5,77.3,13.5,76.4z"
					/>
				<path class="st7" d="M15,78.3c-1.1,0-1.9-0.8-1.9-1.9s0.8-1.9,1.9-1.9c1.1,0,1.9,0.8,1.9,1.9C16.9,77.4,16,78.3,15,78.3z
					 M15,75.3c-0.6,0-1.1,0.5-1.1,1.1c0,0.6,0.5,1.1,1.1,1.1c0.6,0,1.1-0.5,1.1-1.1C16.1,75.8,15.6,75.3,15,75.3z"/>
			</g>
			<g>
				<path class="st1" d="M3,76.4c0-0.8,0.7-1.5,1.5-1.5S6,75.6,6,76.4s-0.7,1.5-1.5,1.5S3,77.3,3,76.4z"/>
				<path class="st7" d="M4.5,78.3c-1.1,0-1.9-0.8-1.9-1.9s0.8-1.9,1.9-1.9s1.9,0.8,1.9,1.9S5.6,78.3,4.5,78.3z M4.5,75.3
					c-0.6,0-1.1,0.5-1.1,1.1c0,0.6,0.5,1.1,1.1,1.1s1.1-0.5,1.1-1.1C5.6,75.8,5.1,75.3,4.5,75.3z"/>
			</g>
		</g>
	</g>
</g>
<g id="Layer_2">
	<g>
		<g>
			<polygon class="st8" points="75,74.3 80.8,80.3 60.8,97.3 53.8,94.7 			"/>
			<path class="st9" d="M87.3,70.6c3.2,1.2,4.9,4.9,3.7,8.1c-1.2,3.2-4.8,4.9-8.1,3.7c-3.2-1.2-4.9-4.9-3.7-8.1
				C80.5,71,84.1,69.4,87.3,70.6z"/>
			<path class="st10" d="M58.1,76.6c0.9-2.3,3.5-3.5,5.8-2.6l11.4,4.3c2.4,0.9,3.5,3.5,2.6,5.8l0,0c-0.9,2.3-3.5,3.5-5.8,2.6
				l-11.4-4.3C58.4,81.5,57.2,78.9,58.1,76.6L58.1,76.6z"/>
			<path class="st11" d="M47.6,53.2c1.1-3,4.5-4.6,7.5-3.5l25.5,15.9c3,1.1,4.5,4.5,3.3,7.6l-1.8,4.9c-1.1,3-4.5,4.6-7.5,3.5
				L45,76.8c-3-1.1-4.5-4.5-3.4-7.6L47.6,53.2z"/>
			<path class="st12" d="M83.4,69.6c0.3-0.9,1.4-1.3,2.3-1l0,0c0.9,0.3,1.4,1.4,1.1,2.3l-4.1,10.9c-0.3,0.9-1.4,1.3-2.3,1l0,0
				c-0.9-0.3-1.4-1.4-1.1-2.3L83.4,69.6z"/>
			<path class="st12" d="M48.3,47.9c0.5-1.3,1.8-2,3.1-1.5l0,0c1.3,0.5,1.9,1.9,1.4,3.2l-9.7,25.8c-0.5,1.3-1.8,2-3.1,1.5l0,0
				c-1.3-0.5-1.9-1.9-1.4-3.2L48.3,47.9z"/>
			<line class="st13" x1="61.7" y1="88.6" x2="67.9" y2="90.9"/>
			<line class="st13" x1="57.4" y1="91.5" x2="63.6" y2="93.8"/>
			<polygon class="st9" points="73.1,61 63.6,55.2 54.9,78.4 65.9,80.1 			"/>
			<g>
				<path class="st14" d="M56,61c0.1-0.3,0-0.6-0.4-0.8c-0.3-0.1-0.6,0-0.8,0.4c-0.1,0.3,0.1,0.7,0.4,0.8C55.5,61.5,55.9,61.3,56,61
					z"/>
				<path class="st14" d="M54.5,65c0.1-0.3,0-0.6-0.4-0.8c-0.3-0.1-0.6,0-0.8,0.4c-0.1,0.3,0.1,0.7,0.4,0.8
					C54,65.4,54.4,65.3,54.5,65z"/>
				<path class="st14" d="M53,68.9c0.1-0.3,0-0.6-0.4-0.8c-0.3-0.1-0.6,0-0.8,0.4c-0.1,0.3,0.1,0.7,0.4,0.8
					C52.5,69.3,52.9,69.2,53,68.9z"/>
			</g>
		</g>
		<g>
			<line class="st13" x1="43" y1="43.6" x2="40.1" y2="37"/>
			<line class="st13" x1="32.4" y1="71.9" x2="25.8" y2="74.9"/>
			<line class="st13" x1="30" y1="54.7" x2="23.2" y2="52.2"/>
		</g>
	</g>
</g>
</svg>
