<?xml version="1.0" encoding="utf-8"?>
<!-- Generator: Adobe Illustrator 16.0.0, SVG Export Plug-In . SVG Version: 6.00 Build 0)  -->
<!DOCTYPE svg PUBLIC "-//W3C//DTD SVG 1.1//EN" "http://www.w3.org/Graphics/SVG/1.1/DTD/svg11.dtd">
<svg version="1.1" id="Layer_1" xmlns="http://www.w3.org/2000/svg" xmlns:xlink="http://www.w3.org/1999/xlink" x="0px" y="0px"
	 width="128px" height="128px" viewBox="0 0 128 128" enable-background="new 0 0 128 128" xml:space="preserve">
<g>
	<g>
		<rect x="7.5" y="5.5" fill="#FFFFFF" width="113" height="113"/>
		<path fill="#37474F" d="M122,120H6V4h116V120z M9,117h110V7H9V117z"/>
	</g>
	<g>
		<rect x="22" y="21" fill="#B0BEC5" width="84" height="81"/>
	</g>
	<g>
		<defs>
			<rect id="SVGID_17_" x="22" y="21" width="84" height="81"/>
		</defs>
		<clipPath id="SVGID_2_">
			<use xlink:href="#SVGID_17_"  overflow="visible"/>
		</clipPath>
		<g clip-path="url(#SVGID_2_)">
			<polygon fill="#FFAB00" points="22.3,102.4 53.7,71 69.2,86.4 98.2,57.4 114.3,73.5 132.9,92.1 117.8,122.8 47.3,111.1 
				22.8,109.6 20.9,104.2 			"/>
			<path fill="#37474F" d="M117.8,124.3c-0.1,0-0.2,0-0.2,0l-70.4-11.7l-24.4-1.5c-0.6,0-1.1-0.4-1.3-1l-2-5.4
				c-0.2-0.5-0.1-1,0.2-1.5l1.4-1.8c0,0,0.1-0.1,0.1-0.1l31.4-31.4c0.6-0.6,1.6-0.6,2.1,0l14.4,14.4l28-28c0.6-0.6,1.6-0.6,2.1,0
				L133.9,91c0.5,0.5,0.6,1.1,0.3,1.7l-15.1,30.7C118.9,124,118.3,124.3,117.8,124.3z M23.9,108.1l23.5,1.4c0.1,0,0.1,0,0.2,0
				l69.4,11.6L131,92.4L98.2,59.5l-28,28c-0.3,0.3-0.7,0.4-1.1,0.4l0,0c-0.4,0-0.8-0.2-1.1-0.4L53.7,73.1l-30.3,30.3l-0.9,1.1
				L23.9,108.1z"/>
		</g>
		<g clip-path="url(#SVGID_2_)">
			<path fill="#FFFFFF" d="M137.7,51.7c0-3.1-2.2-5.5-5.1-6.1c-0.6-2.9-3-5.1-6.1-5.1c-2.6,0-4.8,1.6-5.8,3.8
				c-0.7-0.3-1.4-0.6-2.1-0.7c0-0.2,0.1-0.3,0.1-0.4c0-5.2-4.2-9.5-9.5-9.5c-2.3-6-8-10.3-14.8-10.3c-7.1,0-13,4.8-15,11.3
				c-0.1,0-0.1,0-0.2,0c-5.3,0-9.5,4.3-9.5,9.5c0,1,0.3,1.8,0.6,2.7c-2.3,0.9-4,3.2-4,5.9c0,2.5,1.5,4.4,3.6,5.5l-1.1,0.4h3.1
				c0.3,0,0.5,0.2,0.8,0.2s0.5-0.2,0.8-0.2h61.8l-3.2-0.8C135.2,57.3,137.7,54.9,137.7,51.7z M121.4,54.7c0.8-0.6,1.6-1.4,2-2.4
				c0.6,0.3,1.1,0.5,1.8,0.6c0.3,1.4,1,2.7,2.1,3.6L121.4,54.7z"/>
			<path fill="#37474F" d="M72.6,60.2c-0.4,0-0.7-0.1-0.8-0.1c0,0,0,0,0,0H59.3l7.3-2.4c-1.2-1.4-1.9-3.1-1.9-4.9
				c0-2.7,1.4-5.2,3.7-6.6c-0.1-0.6-0.3-1.2-0.3-1.9c0-5.8,4.5-10.6,10.2-11c2.6-6.8,8.9-11.3,16-11.3c6.9,0,13,4,15.8,10.3
				c5.3,0.5,9.5,4.8,9.9,10.1c1.5-2,3.8-3.3,6.4-3.3c3.4,0,6.3,2.2,7.3,5.4c3.2,1.1,5.4,4,5.4,7.3c0,2.2-1,4.2-2.6,5.6l11.2,2.7
				H73.5C73.2,60.1,72.9,60.2,72.6,60.2z M70.9,57h0.9c0.3,0,0.6,0.1,0.8,0.1c0.2-0.1,0.5-0.1,0.8-0.1h50.4l-5.6-1.7l2.3-1.8
				c0.8-0.6,1.3-1.2,1.6-1.9l0.7-1.5l1.4,0.8c0.4,0.2,0.8,0.4,1.4,0.5l1,0.2l0.2,1c0.2,1.1,0.7,2,1.6,2.7l1.4,1.2l2.2-0.3
				c2.6-0.3,4.3-2.2,4.3-4.6c0-2.3-1.6-4.2-3.9-4.6l-1-0.2l-0.2-1c-0.5-2.3-2.4-3.9-4.6-3.9c-1.9,0-3.6,1.1-4.4,2.9l-0.7,1.5
				l-1.4-0.7c-0.5-0.3-1-0.4-1.6-0.5l-1.5-0.2l0.2-1.5c0-0.1,0-0.3,0.1-0.4c-0.1-4.3-3.6-7.8-8-7.9l-1,0l-0.4-1
				c-2.1-5.7-7.4-9.3-13.4-9.3c-6.2,0-11.6,4.1-13.5,10.2l-0.3,1.1h-1.1c-0.1,0-0.3,0-0.3,0c-4.4,0.1-7.9,3.7-7.9,8
				c0,0.7,0.2,1.4,0.5,2.2l0.4,1.3l-1.3,0.5c-1.8,0.8-3,2.5-3,4.5c0,1.8,1,3.3,2.7,4.1L70.9,57z"/>
		</g>
	</g>
	<g>
		<path fill="#37474F" d="M108,104H21V20h87V104z M24,101h81V23H24V101z"/>
	</g>
	<g>
		<polyline fill="#FFECB3" points="24.8,100.1 56.1,90 54.8,74.7 		"/>
		<path fill="#37474F" d="M24.8,101.6c-0.6,0-1.2-0.4-1.4-1c-0.3-0.8,0.2-1.6,1-1.9L54.5,89l-1.2-14.2c-0.1-0.8,0.5-1.6,1.4-1.6
			c0.8-0.1,1.6,0.5,1.6,1.4l1.3,15.3c0.1,0.7-0.4,1.3-1,1.6l-31.3,10.1C25.1,101.6,25,101.6,24.8,101.6z"/>
	</g>
	<g>
		<polyline fill="#FFECB3" points="69.2,86.4 97.6,72.1 97.9,60.6 		"/>
		<path fill="#37474F" d="M69.2,87.9c-0.5,0-1.1-0.3-1.3-0.8c-0.4-0.7-0.1-1.6,0.7-2l27.6-14l0.3-10.5c0-0.8,0.7-1.5,1.5-1.5
			c0.8,0,1.5,0.7,1.5,1.5L99,72.1c0,0.5-0.3,1-0.8,1.3L69.8,87.8C69.6,87.9,69.4,87.9,69.2,87.9z"/>
	</g>
	<g>
		<path fill="#FFFFFF" d="M56.6,62c-8.8,0-15.9-7.1-15.9-15.9c0-5.2,2.5-9.7,6.3-12.6c-8.4,1.1-14.9,8.2-14.9,16.9
			c0,9.4,7.6,17.1,17.1,17.1c5.5,0,10.4-2.7,13.5-6.8C60.9,61.6,58.9,62,56.6,62z"/>
		<path fill="#37474F" d="M49.3,69c-10.2,0-18.6-8.3-18.6-18.6c0-9.2,6.9-17.1,16.2-18.3l5.6-0.7L48,34.8c-3.6,2.8-5.7,6.9-5.7,11.4
			c0,7.9,6.4,14.4,14.4,14.4c1.9,0,3.8-0.4,5.6-1.1l5.3-2.3L64,61.7C60.5,66.3,55.1,69,49.3,69z M42.1,36.7c-5,2.6-8.4,7.8-8.4,13.7
			c0,8.6,7,15.6,15.6,15.6c3,0,5.9-0.9,8.4-2.5c-0.4,0-0.7,0-1.1,0c-9.6,0-17.4-7.8-17.4-17.4C39.3,42.7,40.3,39.5,42.1,36.7z"/>
	</g>
	<g>
		<g>
			<path fill="#37474F" d="M75,13.2c0-1,0.8-1.8,1.8-1.8c1,0,1.8,0.8,1.8,1.8c0,1-0.8,1.8-1.8,1.8C75.8,15,75,14.2,75,13.2z"/>
			<path fill="#3F3F3F" d="M76.8,15.5c-1.3,0-2.3-1-2.3-2.3c0-1.3,1-2.3,2.3-2.3c1.3,0,2.3,1,2.3,2.3C79.1,14.5,78.1,15.5,76.8,15.5
				z M76.8,11.9c-0.7,0-1.3,0.6-1.3,1.3c0,0.7,0.6,1.3,1.3,1.3c0.7,0,1.3-0.6,1.3-1.3C78.1,12.5,77.5,11.9,76.8,11.9z"/>
		</g>
		<g>
			<path fill="#37474F" d="M62.5,13.2c0-1,0.8-1.8,1.8-1.8c1,0,1.8,0.8,1.8,1.8c0,1-0.8,1.8-1.8,1.8C63.3,15,62.5,14.2,62.5,13.2z"
				/>
			<path fill="#3F3F3F" d="M64.3,15.5c-1.3,0-2.3-1-2.3-2.3c0-1.3,1-2.3,2.3-2.3c1.3,0,2.3,1,2.3,2.3C66.6,14.4,65.5,15.5,64.3,15.5
				z M64.3,11.9c-0.7,0-1.3,0.6-1.3,1.3c0,0.7,0.6,1.3,1.3,1.3c0.7,0,1.3-0.6,1.3-1.3C65.6,12.5,65,11.9,64.3,11.9z"/>
		</g>
		<g>
			<path fill="#37474F" d="M49.9,13.2c0-1,0.8-1.8,1.8-1.8c1,0,1.8,0.8,1.8,1.8c0,1-0.8,1.8-1.8,1.8C50.7,15,49.9,14.2,49.9,13.2z"
				/>
			<path fill="#3F3F3F" d="M51.7,15.5c-1.3,0-2.3-1-2.3-2.3c0-1.3,1-2.3,2.3-2.3c1.3,0,2.3,1,2.3,2.3C54,14.5,53,15.5,51.7,15.5z
				 M51.7,11.9c-0.7,0-1.3,0.6-1.3,1.3c0,0.7,0.6,1.3,1.3,1.3c0.7,0,1.3-0.6,1.3-1.3C53,12.5,52.4,11.9,51.7,11.9z"/>
		</g>
	</g>
</g>
</svg>
