<?xml version="1.0" encoding="utf-8"?>

<!DOCTYPE svg PUBLIC "-//W3C//DTD SVG 1.1//EN" "http://www.w3.org/Graphics/SVG/1.1/DTD/svg11.dtd">
<svg version="1.1" id="Layer_1" xmlns="http://www.w3.org/2000/svg" xmlns:xlink="http://www.w3.org/1999/xlink" x="0px" y="0px"
	 viewBox="0 0 2560 1600" enable-background="new 0 0 2560 1600" xml:space="preserve">
<pattern  width="70" height="121.2" patternUnits="userSpaceOnUse" id="New_Pattern" viewBox="71 -162.337 70 121.2" overflow="visible">
	<g>
		<polygon fill="none" points="71,-162.337 141,-162.337 141,-41.137 71,-41.137 		"/>
		<g>
			<polygon fill="none" stroke="#000000" stroke-miterlimit="10" points="176,-61.487 141.001,-41.281 140.999,-41.281 106,-61.487 
				140.999,-81.696 			"/>
			<polygon fill="none" stroke="#000000" stroke-miterlimit="10" points="176,-61.487 176,-21.074 140.999,-0.866 140.999,-41.281 
				141.001,-41.281 			"/>
			<polygon fill="none" stroke="#000000" stroke-miterlimit="10" points="140.999,-41.281 140.999,-0.866 106,-21.074 106,-61.487 
							"/>
		</g>
		<g>
			<polygon fill="none" stroke="#000000" stroke-miterlimit="10" points="106,-61.487 71.001,-41.281 70.999,-41.281 36,-61.487 
				70.999,-81.696 			"/>
			<polygon fill="none" stroke="#000000" stroke-miterlimit="10" points="106,-61.487 106,-21.074 70.999,-0.866 70.999,-41.281 
				71.001,-41.281 			"/>
			<polygon fill="none" stroke="#000000" stroke-miterlimit="10" points="70.999,-41.281 70.999,-0.866 36,-21.074 36,-61.487 			
				"/>
		</g>
		<g>
			<polygon fill="none" stroke="#000000" stroke-miterlimit="10" points="211,-122.087 176.001,-101.881 175.999,-101.881 
				141,-122.087 175.999,-142.296 			"/>
			<polygon fill="none" stroke="#000000" stroke-miterlimit="10" points="175.999,-101.881 175.999,-61.466 141,-81.674 
				141,-122.087 			"/>
		</g>
		<g>
			<polygon fill="none" stroke="#000000" stroke-miterlimit="10" points="141,-122.087 106.001,-101.881 105.999,-101.881 
				71,-122.087 105.999,-142.296 			"/>
			<polygon fill="none" stroke="#000000" stroke-miterlimit="10" points="141,-122.087 141,-81.674 105.999,-61.466 
				105.999,-101.881 106.001,-101.881 			"/>
			<polygon fill="none" stroke="#000000" stroke-miterlimit="10" points="105.999,-101.881 105.999,-61.466 71,-81.674 71,-122.087 
							"/>
		</g>
		<g>
			<polygon fill="none" stroke="#000000" stroke-miterlimit="10" points="71,-122.087 36.001,-101.881 35.999,-101.881 1,-122.087 
				35.999,-142.296 			"/>
			<polygon fill="none" stroke="#000000" stroke-miterlimit="10" points="71,-122.087 71,-81.674 35.999,-61.466 35.999,-101.881 
				36.001,-101.881 			"/>
		</g>
		<g>
			<polygon fill="none" stroke="#000000" stroke-miterlimit="10" points="176,-182.687 141.001,-162.481 140.999,-162.481 
				106,-182.687 140.999,-202.896 			"/>
			<polygon fill="none" stroke="#000000" stroke-miterlimit="10" points="176,-182.687 176,-142.274 140.999,-122.066 
				140.999,-162.481 141.001,-162.481 			"/>
			<polygon fill="none" stroke="#000000" stroke-miterlimit="10" points="140.999,-162.481 140.999,-122.066 106,-142.274 
				106,-182.687 			"/>
		</g>
		<g>
			<polygon fill="none" stroke="#000000" stroke-miterlimit="10" points="106,-182.687 71.001,-162.481 70.999,-162.481 
				36,-182.687 70.999,-202.896 			"/>
			<polygon fill="none" stroke="#000000" stroke-miterlimit="10" points="106,-182.687 106,-142.274 70.999,-122.066 
				70.999,-162.481 71.001,-162.481 			"/>
			<polygon fill="none" stroke="#000000" stroke-miterlimit="10" points="70.999,-162.481 70.999,-122.066 36,-142.274 36,-182.687 
							"/>
		</g>
	</g>
</pattern>
<rect x="0.089" y="-0.383" fill="url(#New_Pattern)" width="2560" height="1600"/>
</svg>
