<?xml version="1.0" encoding="UTF-8"?>
<svg width="8px" height="9px" viewBox="0 0 8 9" version="1.1" xmlns="http://www.w3.org/2000/svg" xmlns:xlink="http://www.w3.org/1999/xlink">
    <!-- Generator: Sketch 47.1 (45422) - http://www.bohemiancoding.com/sketch -->
    <title>lock</title>
    <desc>Created with Sketch.</desc>
    <defs></defs>
    <g id="Page-1" stroke="none" stroke-width="1" fill="none" fill-rule="evenodd">
        <g id="editing-1" transform="translate(-6.000000, -6.000000)" fill="#FFFFFF">
            <path d="M7.68878747,9.90548513 C7.6887356,9.87084492 7.68872588,9.85238969 7.68869398,9.79182474 C7.68882124,7.33684303 8.19381202,6.21111475 10.2272939,6.21111475 C12.0365357,6.21111475 12.6852986,7.31098705 12.7547054,9.25178674 C12.7613643,9.43798885 12.7633859,9.58313875 12.7654858,9.90548513 L13.4626405,9.90548513 L13.4626405,14.4061107 L6.85958693,14.4061107 L6.85958693,9.90548513 L7.68878747,9.90548513 Z M8.8887889,9.90548513 L11.5654601,9.90548513 C11.5634552,9.60037707 11.5615229,9.4638753 11.555472,9.29467365 C11.5061386,7.91517968 11.2088144,7.41111475 10.2272939,7.41111475 C9.11939355,7.41111475 8.88879075,7.92517582 8.88869398,9.79188695 C8.88872573,9.85223877 8.88873504,9.86992696 8.8887889,9.90548513 Z" id="lock"></path>
        </g>
    </g>
</svg>