<?xml version="1.0" encoding="UTF-8"?>
<svg width="1570px" height="1132px" viewBox="0 0 1570 1132" version="1.1" xmlns="http://www.w3.org/2000/svg" xmlns:xlink="http://www.w3.org/1999/xlink">
    <!-- Generator: Sketch 47.1 (45422) - http://www.bohemiancoding.com/sketch -->
    <title>man-gathering-requirements</title>
    <desc>Created with Sketch.</desc>
    <defs>
        <polygon id="path-1" points="0 600.0001 0 1200 1600 1200 1600 600.0001 1600 0.0002 0 0.0002 0 600.0001"></polygon>
        <linearGradient x1="18.5363257%" y1="10.0585277%" x2="50%" y2="100%" id="linearGradient-3">
            <stop stop-color="#002331" offset="0%"></stop>
            <stop stop-color="#002331" stop-opacity="0.738141326" offset="37.2358824%"></stop>
            <stop stop-color="#002331" stop-opacity="0" offset="100%"></stop>
        </linearGradient>
        <linearGradient x1="7.15964893%" y1="7.79372678%" x2="50%" y2="100%" id="linearGradient-4">
            <stop stop-color="#002331" offset="0%"></stop>
            <stop stop-color="#002331" stop-opacity="0" offset="100%"></stop>
        </linearGradient>
    </defs>
    <g id="Page-1" stroke="none" stroke-width="1" fill="none" fill-rule="evenodd">
        <g id="man-gathering-requirements2">
            <g id="man-gathering-requirements" transform="translate(-28.000000, -67.000000)">
                <g id="Group-3">
                    <mask id="mask-2" fill="white">
                        <use xlink:href="#path-1"></use>
                    </mask>
                    <g id="Clip-2"></g>
                    <path d="M0,1200.0002 L0,0.0002 C533.333,0.0002 1066.666,0.0002 1600,0.0002 L1600,1199.9992 C1066.667,1200.0002 533.333,1200.0002 0,1200.0002" id="Fill-1" fill="#173C4A" mask="url(#mask-2)"></path>
                </g>
                <path d="M967.9599,681.7903 L967.5579,682.0713 L967.0679,682.0353 C966.2289,682.9873 964.8149,683.0013 963.9619,683.9323 L963.9159,683.9493 C957.8289,687.0483 956.0239,685.9433 956.0169,678.8833 C955.9799,643.9873 955.9889,609.0923 956.0179,574.1963 C956.0209,569.8543 955.7829,565.5823 954.1789,561.4983 C959.8289,548.2293 955.6499,534.4783 957.0929,520.2773 C951.3589,522.0273 947.3699,524.6983 943.2769,527.0913 C906.3619,548.6693 869.3419,570.0633 832.2629,591.3573 C827.4989,594.0933 822.8619,597.0403 818.1039,599.7783 C815.2149,601.4413 813.9389,603.6623 813.9929,607.0843 C814.1439,616.4073 814.1899,625.7383 813.9659,635.0583 C813.8879,638.2813 815.4649,640.6203 816.7109,643.2403 C814.0419,648.0993 814.1139,653.3663 814.1229,658.6993 C814.1759,694.1203 814.1679,729.5423 814.1579,764.9633 C814.1569,769.0143 813.8979,772.7453 808.9679,773.8323 C808.7039,774.0223 808.4109,774.0933 808.0899,774.0453 C806.2579,775.6733 803.8169,776.3183 801.9299,777.8573 L801.8179,777.9013 C800.9929,779.4303 798.9129,778.6373 797.9859,779.9763 L797.9719,779.9813 C797.2309,781.0193 795.8209,781.0003 794.9759,781.8733 C794.7289,782.0633 794.4519,782.1313 794.1449,782.0733 C792.9019,782.7263 791.8659,784.2933 790.1779,782.9663 L790.1779,716.6673 C785.6039,719.1113 781.9179,720.9443 778.3639,723.0033 C745.6799,741.9363 713.0309,760.9303 680.3469,779.8623 C647.5139,798.8823 614.6439,817.8373 581.8079,836.8513 C568.7069,844.4363 555.6359,852.0773 542.5969,859.7693 C540.8559,860.7983 539.5409,862.6253 537.7389,863.4533 C536.1759,864.1713 533.7039,864.8203 532.4899,864.0853 C524.1009,859.0033 516.1389,853.1993 507.6659,848.2713 C442.2199,810.2133 376.7029,772.2753 311.1749,734.3563 C288.6219,721.3063 265.9969,708.3763 243.3509,695.4863 C239.7159,693.4173 238.1549,690.9503 238.1609,686.4823 C238.3079,577.4993 238.3809,468.5173 238.0539,359.5353 C238.0299,351.6753 240.5419,347.7263 247.1269,344.0013 C283.5609,323.3953 319.7659,302.3803 355.9849,281.3953 C391.0509,261.0803 426.0099,240.5793 461.0749,220.2593 C484.6019,206.6263 508.2689,193.2343 531.7549,179.5333 C534.1779,178.1203 535.5079,178.1233 537.8859,179.5083 C581.4709,204.9103 625.1339,230.1793 668.7889,255.4613 C670.1829,256.2683 671.6659,256.9203 673.8879,258.0363 C674.0629,256.1033 674.3399,254.4433 674.3439,252.7833 C674.3789,238.7853 674.4629,224.7863 674.2929,210.7903 C674.2539,207.5303 675.4269,205.6153 678.1449,204.0413 C728.4419,174.9163 778.7079,145.7383 828.9839,116.5783 C838.1309,111.2733 847.2799,105.9713 856.4769,100.7543 C857.7089,100.0553 859.2299,99.8643 861.5219,99.1603 L861.5219,104.4743 C861.5219,172.4633 861.5029,240.4533 861.5729,308.4413 C861.5779,312.3113 860.4899,314.6033 856.8089,316.6233 C844.3949,323.4343 832.2819,330.7953 820.0789,337.9903 C819.0439,338.6003 818.1979,339.5313 816.3519,341.0783 C821.2399,343.4033 825.4039,345.1003 829.2389,347.3573 C830.6419,348.1833 831.8369,350.2503 832.0919,351.9103 C832.4319,354.1163 831.5549,356.4783 831.5529,358.7733 C831.5149,418.5973 831.5229,478.4203 831.5229,538.2443 L831.5229,544.9843 C880.0429,516.9063 927.5629,489.4083 975.8369,461.4713 C975.9779,463.9453 976.1599,465.6663 976.1599,467.3873 C976.1749,535.7093 976.1889,604.0313 976.0819,672.3543 C976.0789,674.2403 974.7349,676.1233 974.0169,678.0083 C973.3919,678.6413 972.7059,679.1953 971.9379,679.6453 C971.3559,679.7963 970.7729,679.9463 970.1899,680.0973 C969.3699,680.5613 968.7619,681.3033 967.9599,681.7903" id="Fill-4" fill="#EDEEEF"></path>
                <path d="M1059.7842,412.0466 C1057.2242,406.3076 1051.0272,405.4216 1046.6212,402.1456 C1045.5342,401.3376 1044.6422,400.2646 1043.6622,399.3136 C1042.3242,396.5466 1042.7302,393.9026 1044.0682,391.2386 C1045.9302,387.5326 1047.6492,383.7576 1048.7872,379.7486 C1051.7072,373.8416 1054.7932,368.0236 1056.9672,361.7606 C1057.9312,358.9806 1059.3192,356.2656 1062.1982,354.7956 C1064.9232,353.6426 1067.7372,353.8176 1070.5522,354.2816 C1082.1402,356.1896 1093.7562,357.5606 1105.5282,358.0466 C1114.9202,358.4356 1123.5552,356.2936 1132.2472,353.2686 C1146.1902,348.4176 1160.3592,344.2226 1174.5732,340.2706 C1178.6822,339.1276 1181.3302,335.3296 1185.7402,335.3156 C1188.6382,336.7626 1190.7272,339.0906 1192.6722,341.6136 C1202.8842,354.8666 1215.9262,364.3146 1231.6462,369.9086 C1237.7772,372.0896 1243.7342,374.3186 1249.1462,378.1136 C1258.3772,384.5886 1263.3422,393.4966 1266.1812,404.1776 C1269.5102,416.6906 1269.1292,429.5636 1267.4812,441.8386 C1266.1172,452.0116 1266.8242,462.2816 1264.6772,472.4766 C1263.1842,479.5646 1262.6122,487.1866 1261.8882,494.5976 C1261.0382,503.3066 1259.2902,511.9516 1257.5702,520.5366 C1255.5552,530.5956 1253.1652,540.5896 1250.4702,550.5186 C1245.3182,569.4956 1239.1732,588.0516 1229.7542,605.3886 C1224.4902,615.0756 1218.1002,623.9206 1209.8182,631.3106 C1196.7592,634.9616 1183.5612,637.3336 1169.9652,638.5016 C1159.5592,639.3946 1149.2132,640.1556 1138.7892,640.0986 C1136.6482,640.0876 1134.4652,640.2876 1132.3992,639.4446 C1130.7322,638.2436 1128.6962,637.5436 1127.3802,635.8436 C1126.3302,633.1596 1128.1212,630.6486 1127.8542,627.9956 C1127.1792,621.2576 1126.0112,614.5866 1125.1772,607.8696 C1124.2042,600.0236 1122.0632,592.2846 1121.9652,584.3556 C1121.7372,566.2316 1121.6712,548.0986 1121.9712,529.9766 C1122.1682,518.1226 1120.2062,506.6296 1118.1932,495.0326 C1115.3192,478.4706 1111.3252,462.2996 1104.0372,447.1106 C1101.9392,442.7406 1100.6452,437.7356 1096.3652,434.6716 C1092.6062,433.2796 1091.3982,429.2106 1088.1402,427.0606 C1079.1472,421.1296 1069.1142,417.2706 1059.7842,412.0466" id="Fill-6" fill="#D5E8F8"></path>
                <path d="M1132.1436,637.9202 C1147.7206,637.2482 1163.3266,636.9412 1178.8626,635.7452 C1186.3656,635.1672 1193.7356,632.8942 1201.1736,631.4302 C1204.0906,630.8552 1207.0306,630.3932 1209.9586,629.8792 C1220.4426,623.8072 1232.6386,622.6722 1243.6936,618.1992 C1248.5936,616.2172 1253.6986,614.6582 1258.8096,613.2102 C1261.1586,612.5452 1263.4066,612.2302 1265.1286,614.5372 C1267.0446,619.3762 1265.5986,624.4522 1266.1996,629.3652 C1269.0746,652.8782 1266.4316,676.6342 1268.6536,700.0372 C1270.5516,720.0312 1268.1746,740.0222 1270.4686,759.7592 C1272.8846,780.5492 1270.6386,801.3372 1272.3576,821.9892 C1276.2856,869.2032 1273.1136,916.4552 1274.0956,963.6752 C1274.5116,983.6562 1274.1696,1003.6522 1274.1716,1023.6422 C1274.1416,1024.8542 1273.7216,1025.8782 1272.7606,1026.6642 C1267.8976,1030.6432 1254.2686,1026.3572 1252.2286,1020.2132 C1253.8876,1016.5832 1253.5066,1013.0942 1252.7296,1009.1372 C1251.0406,1000.5402 1249.5566,991.8872 1247.9986,983.2542 C1246.2366,973.4882 1244.3486,963.7412 1242.6986,953.9632 C1241.1276,944.6622 1238.8206,935.4802 1237.9226,926.0732 C1237.4806,921.4352 1236.2616,916.9382 1235.4466,912.3892 C1232.8486,897.8992 1230.4876,883.3542 1227.5986,868.9292 C1225.0316,856.1132 1223.0396,843.1972 1220.5506,830.3712 C1218.7606,821.1412 1217.3846,811.7512 1215.5886,802.5192 C1213.7006,792.8122 1212.7806,782.9632 1210.7226,773.2692 C1209.6666,768.2982 1208.3006,763.1182 1208.4686,757.8402 C1208.5296,755.9322 1208.9096,753.6782 1206.1246,753.0902 C1205.5026,749.9512 1204.8806,746.8122 1204.2576,743.6732 C1204.9546,743.6102 1205.6386,743.3552 1206.7206,744.0242 C1205.8046,742.8302 1205.3126,742.0322 1204.2486,742.0092 C1204.2426,741.4522 1204.2346,740.8962 1204.2276,740.3392 C1205.2706,738.8162 1205.4836,737.3582 1203.8866,736.0442 C1203.3266,734.6982 1202.4006,733.3892 1202.2636,732.0012 C1201.3516,722.7802 1200.6096,713.5432 1199.8116,704.3122 C1198.8306,702.5212 1198.3776,700.6032 1198.4626,698.3582 C1194.0206,699.6592 1191.6736,702.8462 1190.3456,706.8452 C1185.1136,722.6132 1178.5866,737.8932 1172.8656,753.4752 C1164.5106,776.2312 1155.5966,798.7772 1147.5066,821.6322 C1146.5086,824.4522 1145.2136,827.1692 1143.9686,829.8752 C1140.1556,838.1602 1140.0196,846.8642 1140.0526,855.7422 C1140.1926,892.7392 1141.5476,929.8102 1139.6656,966.7122 C1138.1046,997.3372 1138.7866,1027.8982 1138.1126,1058.4792 C1138.0426,1061.6522 1138.1676,1064.8072 1138.9516,1067.9102 C1138.7966,1070.6512 1136.9076,1071.8222 1134.6176,1071.6412 C1128.5976,1071.1642 1122.9746,1069.3942 1118.3886,1065.1992 C1117.3616,1064.2602 1116.9446,1063.0142 1117.1516,1061.6012 C1118.0836,1057.2322 1115.4146,1053.3152 1115.7826,1048.8982 C1116.7686,1037.0882 1113.8926,1025.4622 1113.2936,1013.6932 C1112.9196,1006.3372 1113.3516,998.5452 1111.5046,991.5052 C1108.7976,981.1872 1111.8246,970.4672 1108.0996,960.4272 C1107.8726,959.8152 1107.9976,960.5882 1108.0516,959.9382 C1109.0346,948.0842 1106.5526,936.4062 1105.4726,924.7372 C1104.4396,913.5782 1103.6646,902.3142 1102.6336,891.1582 C1101.4956,878.8352 1098.2776,866.3312 1100.2926,854.0312 C1101.6056,846.0242 1101.0626,837.8612 1103.3696,829.9232 C1105.0066,824.2882 1104.8106,818.0772 1105.2896,812.2152 C1105.9926,803.6272 1107.2106,795.0712 1108.1646,786.5432 C1109.1326,777.8722 1108.9556,768.9922 1111.4376,760.4972 C1111.6246,759.8562 1111.7886,759.1812 1111.7326,758.5272 C1110.9716,749.4882 1113.3496,740.6672 1114.3726,731.8402 C1115.2776,724.0302 1114.6156,715.8652 1117.4726,708.2762 C1117.7656,707.4992 1117.8436,706.6282 1117.7756,705.8072 C1117.0256,696.7692 1119.3026,687.9142 1120.4366,679.1262 C1121.4446,671.3142 1120.7416,663.2082 1123.4396,655.5232 C1124.6886,651.9652 1123.6246,647.8982 1124.0296,644.0882 C1124.6156,638.5752 1127.2576,636.6242 1132.1436,637.9202" id="Fill-8" fill="#8BAADB"></path>
                <path d="M1082.042,170.2053 C1082.244,169.8893 1082.521,169.7983 1082.872,169.9323 C1093.019,165.7993 1101.063,171.2253 1109.404,175.6373 C1115.244,178.7263 1118.547,184.1833 1122.616,188.9503 C1123.071,189.5963 1123.358,190.3213 1123.6,191.0643 C1124.003,192.3383 1125.103,193.1413 1125.785,194.2283 C1127.947,197.5663 1128.647,201.6553 1131.055,204.9133 C1137.433,204.7133 1142.663,201.4193 1148.105,199.2133 C1166.577,191.7243 1185.08,184.2983 1203.605,176.9493 C1228.309,167.1493 1252.965,157.2273 1277.676,147.4483 C1294.67,140.7233 1311.596,133.8093 1328.555,126.9853 C1329.95,126.4233 1331.343,125.8723 1332.791,125.5063 C1335.481,124.8273 1336.99,125.7993 1336.984,128.7203 C1336.982,130.0533 1336.999,131.3863 1336.999,132.7203 C1337,169.0503 1336.991,205.3803 1337.021,241.7103 C1337.023,243.8373 1336.527,246.0643 1337.788,248.0553 C1338.582,282.4993 1339.214,316.9493 1340.211,351.3873 C1341.386,391.9733 1342.879,432.5503 1344.222,473.1323 C1344.287,475.1073 1344.23,477.0863 1344.23,478.9823 C1330.266,485.3463 1316.682,491.5523 1303.07,497.7013 C1302.195,498.0963 1301.118,498.0413 1300.135,498.1963 C1297.602,499.1443 1296.864,497.3603 1296.292,495.5553 C1295.73,493.7853 1295.553,491.7943 1296.049,490.1123 C1298.132,483.0583 1297.53,475.6473 1299.284,468.5153 C1300.498,463.5773 1301.048,458.3923 1301.703,453.3243 C1303.423,440.0283 1306.518,427.2933 1312.766,415.3053 C1317.86,405.5273 1321.071,395.0493 1321.991,383.9803 C1322.188,381.6083 1323.371,379.5263 1323.696,377.2203 C1324.645,370.4963 1322.596,364.3973 1319.634,358.5243 C1318.849,356.9683 1317.268,356.2773 1315.811,355.4413 C1306.915,350.3373 1297.006,348.4963 1287.104,348.3233 C1277.346,348.1533 1268.433,345.7753 1259.605,342.2053 C1254.403,340.1013 1249.322,337.3963 1243.363,338.7863 C1242.726,338.9343 1242.097,338.4683 1241.576,338.0233 C1241.19,337.4753 1240.742,336.8503 1240.848,336.2173 C1242.334,327.2713 1240.804,318.0503 1243.294,309.2083 C1243.882,307.1193 1243.68,304.9233 1244.364,302.8743 C1244.561,299.9743 1246.482,298.5183 1248.921,297.5333 C1265.639,290.7763 1274.454,277.0993 1280.897,261.2603 C1281.918,258.7523 1281.727,255.9973 1282.951,253.5943 C1284.406,244.4223 1291.923,242.6333 1299.057,240.3933 C1303.019,239.1483 1306.965,237.8633 1310.869,236.4443 C1316.053,234.5593 1316.704,233.1873 1314.896,226.9683 C1308.646,228.4343 1302.806,231.2443 1296.646,232.9853 C1291.903,234.3253 1287.428,237.0143 1282.186,236.0263 C1280.334,235.3453 1279.166,233.9303 1278.52,232.1733 C1274.832,222.1393 1267.689,214.7973 1259.811,208.0253 C1258.545,206.9373 1257.197,205.9583 1256.602,204.3063 C1255.544,200.6993 1257.648,199.1283 1260.586,198.0053 C1273.483,193.0743 1286.509,188.5083 1299.628,184.2093 C1304.218,182.7053 1308.614,180.6723 1313.188,179.1643 C1317.611,177.7053 1318.854,175.0363 1317.362,170.5323 C1313.738,169.4643 1310.735,171.7623 1307.626,172.8743 C1287.27,180.1583 1266.814,187.1583 1246.43,194.3583 C1243.494,195.3953 1240.532,195.2323 1237.605,195.7913 C1233.484,196.9353 1229.857,194.3593 1225.944,194.2263 C1217.005,193.9203 1208.047,193.8313 1199.115,194.2133 C1189.461,194.6263 1182.346,204.3383 1184.538,213.7093 C1185.031,215.8183 1185.818,217.8283 1185.074,220.0143 C1174.818,236.3293 1168.246,254.1313 1164.406,272.9143 C1162.115,284.1203 1160.961,295.4773 1164.524,306.7403 C1165.136,308.6723 1165.754,310.7723 1163.781,312.2203 C1161.98,313.5423 1160.153,312.2433 1158.695,311.3573 C1155.28,309.2793 1150.81,308.0683 1150.561,302.9053 C1150.172,299.4023 1153.506,297.5803 1154.461,294.7943 C1153.597,292.5833 1152.106,291.5033 1149.811,291.0663 C1145.827,294.6023 1143.549,299.7343 1139.38,303.1943 C1138.317,303.5993 1137.309,304.1053 1136.436,304.8593 C1136.039,305.1063 1135.614,305.2853 1135.168,305.4133 C1126.536,307.2213 1119.169,311.2483 1113.37,317.9583 C1112.382,319.1023 1110.463,319.9633 1111.66,322.0513 C1113.978,324.5803 1117.859,323.3503 1120.266,325.6433 C1122.106,329.4993 1118.121,331.2983 1117.258,334.1993 C1115.724,336.4653 1115.605,339.1403 1114.867,342.3283 C1118.199,340.8373 1121.034,339.4893 1123.425,337.2843 C1123.789,336.8933 1124.188,336.5673 1124.621,336.2603 C1125.121,335.7993 1125.691,335.2163 1126.313,335.2863 C1134.933,336.2543 1143.826,334.9603 1152.153,338.3613 C1153.997,339.1143 1155.188,340.3283 1155.054,342.4823 C1153.401,347.4163 1148.472,346.5343 1145.012,347.5893 C1133.254,351.1753 1121.169,353.1353 1108.778,352.1263 C1099.579,351.3773 1090.421,350.3543 1081.352,348.5463 C1075.789,347.4363 1070.065,348.6483 1064.459,347.7673 C1062.915,347.7303 1061.335,347.9163 1059.918,347.0563 C1058.684,346.0973 1057.43,345.1513 1056.766,343.6613 C1055.293,339.8263 1055.566,335.7673 1056.012,331.9003 C1057.186,321.6873 1056.86,311.4853 1056.578,301.2733 C1061.359,292.6353 1065.916,283.8713 1073.229,276.8833 C1076.346,273.9033 1080.773,272.6983 1083.222,268.9653 C1085.399,266.3473 1089.624,265.9043 1090.887,261.5123 C1086.997,259.1083 1083.013,259.5373 1079.184,261.1303 C1072.761,263.8033 1067.181,262.4023 1061.934,258.3293 C1059.541,256.4713 1058.091,254.2033 1058.503,251.0323 C1058.86,246.7683 1057.31,242.2963 1059.958,238.3053 C1059.415,222.6713 1060.11,207.1743 1065.985,192.4153 C1069.096,184.6013 1072.658,176.9813 1079.961,171.9803 C1080.626,171.3553 1081.309,170.7513 1082.042,170.2053" id="Fill-10" fill="#FDFDFC"></path>
                <polygon id="Path" fill="url(#linearGradient-3)" opacity="0.8" points="1149.72524 1081 1149.72524 1089.65103 1123 1102.15508 1183.79042 1157 1268 1157"></polygon>
                <polygon id="Path-Copy" fill="url(#linearGradient-4)" opacity="0.8" points="1283.95163 1049.14849 1264.26814 1057.08112 1254.61944 1053.92717 1329.30709 1125.55406 1371.71118 1095.58177"></polygon>
                <path d="M1242.2861,337.9485 C1247.6631,333.5585 1252.8971,336.9495 1257.5721,338.9595 C1267.6681,343.3015 1277.7701,346.0195 1288.9511,346.2985 C1299.1971,346.5545 1309.5071,348.7625 1318.5871,354.2945 C1319.9201,355.1065 1321.2571,356.4185 1321.8731,357.8165 C1325.2991,365.5955 1327.4651,373.2825 1324.4881,382.1075 C1321.5291,390.8805 1320.6301,400.3365 1317.8461,409.1835 C1315.6901,416.0305 1311.3341,422.1865 1309.2031,429.0375 C1306.7441,436.9425 1305.6261,445.2665 1303.9791,453.4195 C1302.7541,459.4915 1301.6131,465.5815 1300.4321,471.6635 C1300.4001,471.8245 1300.2851,471.9725 1300.2681,472.1335 C1299.5041,479.4915 1298.6271,486.8435 1298.1021,494.2195 C1298.0121,495.4895 1299.4211,496.8665 1300.1361,498.1965 C1296.8071,501.5135 1296.1621,505.5525 1295.8321,510.1565 C1295.1261,519.9745 1293.5571,529.7295 1292.3401,539.5105 C1292.2581,540.1685 1292.1251,540.8225 1292.0781,541.4825 C1291.3381,551.8585 1290.8051,562.2535 1289.8191,572.6055 C1288.8531,582.7555 1287.5021,592.8715 1286.1261,602.9755 C1285.9361,604.3695 1284.6321,605.6115 1283.8431,606.9245 C1278.3581,612.3675 1271.6161,614.3595 1264.0641,614.1285 C1256.9271,616.2945 1249.7811,618.4375 1242.6511,620.6305 C1234.7461,623.0605 1226.8761,625.6105 1218.9451,627.9555 C1216.0161,628.8215 1212.9591,629.2525 1209.9591,629.8805 C1214.4531,623.7925 1219.5171,618.0375 1223.3041,611.5385 C1228.6801,602.3105 1233.5981,592.7415 1237.8081,582.9305 C1241.6651,573.9475 1244.5631,564.5225 1247.4201,555.1505 C1249.3641,548.7695 1250.5371,542.1525 1252.0011,535.6285 C1253.8901,527.2065 1255.7871,518.7845 1257.5581,510.3375 C1258.4651,506.0145 1259.3021,501.6585 1259.8231,497.2765 C1260.6961,489.9325 1261.1891,482.5455 1262.0291,475.1975 C1263.2161,464.8075 1265.3621,454.4605 1265.6501,444.0545 C1265.9931,431.7175 1264.9571,419.3275 1264.2151,406.9795 C1263.6871,398.2215 1259.5571,390.9145 1253.6321,384.6725 C1247.5981,378.3175 1239.7361,375.1375 1231.7301,371.8915 C1223.8921,368.7125 1216.3791,364.5105 1209.2081,359.9875 C1204.2421,356.8555 1199.7931,352.7165 1195.6821,348.4745 C1192.0431,344.7175 1189.1891,340.1975 1185.9881,336.0135 C1186.1671,335.8055 1186.3451,335.5975 1186.5201,335.3865 C1190.0341,333.5645 1193.0011,335.7695 1195.9561,336.9265 C1204.2041,340.1555 1212.5521,342.2495 1221.5351,342.0435 C1226.8021,341.9235 1231.7001,340.7885 1236.5181,338.9995 C1238.4191,338.2935 1240.2301,337.5895 1242.2861,337.9485" id="Fill-12" fill="#BADEF6"></path>
                <path d="M1059.7842,412.0466 C1061.4052,412.0966 1063.3022,411.6136 1064.6042,412.2836 C1073.4892,416.8536 1082.3642,421.4706 1090.9692,426.5366 C1093.1602,427.8266 1094.3652,430.7926 1096.0222,432.9886 C1101.8702,439.5186 1103.9472,447.7346 1105.8542,455.8986 C1107.9932,465.0526 1109.1352,474.4176 1110.6342,483.6846 C1112.4662,495.0096 1112.9922,506.3576 1111.7032,517.3596 C1110.3772,528.6666 1111.6802,540.2346 1108.4032,551.3236 C1107.9352,552.9106 1107.9602,554.6526 1108.1632,556.2876 C1109.2442,565.0116 1105.8052,573.3206 1105.9052,581.9626 C1105.9492,585.6926 1102.7002,586.6126 1099.9932,587.8426 C1099.4522,587.9506 1098.9122,588.0586 1098.3712,588.1666 C1097.4312,588.4816 1096.8012,589.2586 1095.9852,589.7596 L1067.3502,602.2086 C1066.2562,602.8006 1064.9662,603.0086 1064.0222,603.8986 C1063.4702,604.0056 1062.9172,604.1126 1062.3642,604.2196 C1061.6272,604.6206 1060.9352,604.6286 1060.3172,603.9876 C1060.1642,581.3886 1059.9612,558.7906 1059.8672,536.1916 C1059.7042,496.4616 1059.6042,456.7316 1059.4972,417.0016 C1059.4922,415.3496 1059.6832,413.6976 1059.7842,412.0466" id="Fill-14" fill="#FDFEFE"></path>
                <path d="M1132.1436,637.9211 C1127.5406,637.9241 1126.3246,641.0251 1126.0296,644.7861 C1125.2956,654.1511 1124.8356,663.5411 1123.9266,672.8891 C1122.7836,684.6351 1121.3086,696.3501 1119.9656,708.0761 C1118.6436,719.6241 1117.3076,731.1711 1115.9776,742.7191 C1114.6276,754.4321 1113.2786,766.1451 1111.9296,777.8581 C1110.6176,789.2541 1109.4466,800.6671 1107.9426,812.0371 C1106.9396,819.6251 1105.4626,827.1511 1104.1996,834.7051 C1104.1446,835.0331 1104.0836,835.3611 1104.0576,835.6921 C1103.3716,844.3941 1101.8726,853.1281 1102.2096,861.7911 C1102.6366,872.7361 1104.5576,883.6241 1105.8346,894.5361 C1105.8726,894.8661 1105.9316,895.1951 1105.9516,895.5271 C1106.6376,906.8821 1107.2886,918.2381 1108.0126,929.5901 C1108.6536,939.6281 1109.3196,949.6661 1110.0816,959.6951 C1110.6306,966.9071 1111.2226,974.1211 1112.0396,981.3061 C1113.1836,991.3871 1114.5546,1001.4411 1115.8286,1011.5071 C1115.8706,1011.8361 1115.9296,1012.1661 1115.9496,1012.4971 C1116.6356,1024.1981 1117.2426,1035.9051 1118.0546,1047.5981 C1118.2786,1050.8211 1119.3986,1053.9881 1119.5506,1057.2071 C1119.6256,1058.8071 1118.4396,1060.4651 1117.8236,1062.0961 C1113.9596,1062.1441 1107.8646,1057.3651 1106.6546,1052.8101 C1105.7916,1049.5651 1104.9226,1046.0911 1107.1646,1042.9021 C1106.2376,1036.5211 1105.0886,1030.1621 1104.4356,1023.7531 C1103.4446,1014.0281 1102.9416,1004.2531 1101.9616,994.5261 C1101.0016,984.9951 1099.6606,975.5041 1098.5716,965.9841 C1097.7806,959.0781 1097.0706,952.1611 1096.4296,945.2391 C1095.5766,935.9991 1094.9366,926.7381 1094.0016,917.5071 C1092.9536,907.1491 1091.2146,896.8401 1090.6076,886.4611 C1089.5626,868.5871 1088.9526,850.6801 1088.5986,832.7771 C1088.4686,826.1921 1089.5426,819.5781 1090.1356,812.9831 C1091.2926,800.1091 1092.4976,787.2391 1093.6826,774.3671 C1093.7436,773.7041 1093.8296,773.0431 1093.8666,772.3781 C1094.6526,758.2901 1095.3066,744.1931 1096.2466,730.1161 C1097.5156,711.0871 1098.9176,692.0661 1100.4286,673.0541 C1101.5176,659.3421 1102.8766,645.6501 1104.1156,631.9501 C1108.1856,629.1621 1111.8596,632.6501 1115.7566,632.6681 C1117.3576,633.5421 1118.8686,634.7351 1120.8986,634.0581 C1123.5086,633.8551 1126.0876,633.7641 1128.0066,636.0291 C1129.3856,636.6601 1130.7646,637.2901 1132.1436,637.9211" id="Fill-16" fill="#90B7E2"></path>
                <path d="M1264.0645,614.1282 L1283.8425,606.9242 C1283.8865,632.8882 1283.9635,658.8522 1283.9695,684.8162 C1283.9965,794.8532 1284.0135,904.8892 1283.9335,1014.9252 C1283.9315,1017.3172 1282.7225,1019.7092 1282.0765,1022.1012 C1279.6755,1025.0652 1277.1015,1027.2832 1273.2835,1024.1422 C1272.8625,1021.9302 1272.0765,1019.7192 1272.0735,1017.5072 C1271.9965,957.7462 1272.8925,897.9642 1271.5255,838.2342 C1271.0175,816.0802 1271.9315,793.7312 1269.5445,771.7592 C1267.3965,751.9822 1270.0815,732.2262 1267.7075,712.7262 C1265.0625,691.0062 1267.8565,669.2322 1265.5435,647.7262 C1264.3315,636.4512 1264.6445,625.3162 1264.0645,614.1282" id="Fill-18" fill="#6E96CE"></path>
                <path d="M1138.1123,1068.0823 C1137.4123,1066.5903 1136.1073,1065.0993 1136.1003,1063.6033 C1135.9853,1036.2783 1134.4833,1008.8453 1136.3823,981.6513 C1139.5153,936.7663 1136.9713,891.9193 1137.8533,847.0683 C1138.0063,839.3093 1140.8123,832.6453 1143.2893,825.7453 C1148.0563,812.4683 1153.1253,799.2983 1158.1093,786.0993 C1161.5913,776.8773 1165.1943,767.7013 1168.6493,758.4693 C1173.1843,746.3533 1177.5803,734.1843 1182.1283,722.0723 C1184.6633,715.3213 1186.7163,708.2543 1190.2873,702.0823 C1192.2903,698.6213 1196.8983,696.6273 1200.4603,694.1543 C1201.0083,693.7723 1202.2383,694.3693 1202.4903,694.4083 C1201.5443,697.9073 1200.6773,701.1083 1199.8113,704.3113 C1198.9383,703.5913 1198.0653,702.8703 1196.4143,701.5063 C1194.9703,704.6003 1193.2293,707.3073 1192.4123,710.2693 C1189.4103,721.1403 1186.8203,732.1243 1183.8733,743.0113 C1181.5713,751.5123 1178.8593,759.9013 1176.5323,768.3953 C1174.1983,776.9123 1172.1993,785.5203 1169.8993,794.0453 C1167.6013,802.5633 1164.8843,810.9753 1162.7773,819.5373 C1160.8273,827.4623 1158.6403,835.4583 1157.9743,843.5403 C1156.6793,859.2503 1156.3833,875.0433 1155.6613,890.8013 C1155.0373,904.4103 1154.3883,918.0183 1153.7643,931.6263 C1153.0493,947.2313 1152.3553,962.8383 1151.6363,978.4433 C1151.0243,991.7143 1150.4193,1004.9843 1149.7563,1018.2533 C1149.0263,1032.8513 1148.2343,1047.4453 1147.4693,1062.0423 C1145.1463,1068.1663 1142.7383,1069.7213 1138.1123,1068.0823" id="Fill-20" fill="#6E96CE"></path>
                <path d="M1121.9629,190.0081 C1120.5629,188.8861 1118.8449,188.0011 1117.8129,186.6071 C1109.0929,174.8411 1097.1599,169.9531 1082.8719,169.9321 C1087.9459,167.9801 1092.9339,165.7531 1098.1129,164.1371 C1106.9089,161.3931 1115.8099,158.9801 1124.6939,156.5301 C1132.8329,154.2871 1141.0299,152.2571 1149.1619,149.9891 C1157.5699,147.6461 1165.9179,145.0841 1174.3169,142.7041 C1180.0979,141.0671 1185.9359,139.6371 1191.7189,138.0091 C1200.1289,135.6401 1208.5069,133.1551 1216.9089,130.7601 C1222.5339,129.1561 1228.1859,127.6471 1233.8119,126.0521 C1240.1839,124.2471 1246.5259,122.3371 1252.9099,120.5781 C1258.6989,118.9831 1264.5439,117.5901 1270.3339,115.9971 C1278.6159,113.7201 1286.8449,111.2461 1295.1449,109.0381 C1302.0249,107.2071 1308.9769,105.6401 1315.8969,103.9561 C1316.9829,102.6941 1318.8539,103.2971 1320.0189,102.2211 C1320.6889,102.1771 1321.3589,102.1321 1322.0289,102.0881 C1323.5669,101.9551 1324.7569,101.0451 1326.0249,100.3091 C1327.3469,100.1961 1328.6669,100.0831 1329.9879,99.9701 C1331.3219,99.3671 1332.7809,99.0561 1334.0199,98.2311 C1335.2679,98.1201 1336.5149,98.0091 1337.7629,97.8991 C1338.9599,96.7781 1340.7869,97.2661 1342.0199,96.2341 C1343.0049,96.2451 1343.9909,96.2571 1344.9769,96.2681 C1346.7429,97.4351 1348.3219,98.8821 1350.2529,99.8041 L1350.2039,99.7541 C1351.3979,103.5251 1348.2659,104.3821 1346.0319,105.3871 C1339.2199,108.4551 1332.1539,110.9241 1325.1759,113.5891 C1305.7879,120.9951 1286.4119,128.4301 1267.0639,135.9381 C1244.6099,144.6511 1222.1149,153.2561 1199.6439,161.9221 C1176.0979,171.0031 1152.5459,180.0711 1128.9789,189.0971 C1126.7649,189.9451 1124.5629,191.7711 1121.9629,190.0081" id="Fill-22" fill="#DCDDDE"></path>
                <path d="M1059.9717,251.9929 C1061.7677,258.2399 1071.2147,262.2279 1077.2897,260.0479 C1081.1557,258.6599 1085.5207,258.3959 1089.6817,258.2679 C1091.0087,258.2269 1092.8287,260.0119 1093.5817,261.4129 C1093.9717,262.1379 1092.8357,264.2539 1091.8367,265.0399 C1089.4097,266.9499 1086.6607,268.4499 1084.0417,270.1149 C1077.6487,273.4989 1071.6937,277.4419 1066.7687,282.8569 C1064.6327,285.2059 1061.8037,286.6429 1058.6797,287.3909 C1058.0117,287.4529 1057.3377,287.4769 1056.6717,287.5329 C1055.5127,287.4579 1054.2937,287.0999 1053.3687,288.2129 C1053.1197,288.5319 1052.8327,288.8049 1052.5257,289.0599 C1051.8257,289.5049 1051.3367,290.1569 1050.8277,290.7979 C1050.5267,291.1219 1050.1977,291.4069 1049.8557,291.6819 C1040.7297,304.3369 1029.8617,315.4689 1019.2997,326.8699 C1018.0987,328.1669 1016.5097,329.2519 1016.0727,331.9509 C1021.1397,332.2459 1024.0657,338.0609 1029.8857,336.8389 C1030.5757,336.7709 1031.2467,336.8659 1031.8987,337.0929 C1033.3267,337.9239 1034.6397,339.1169 1036.5187,338.5999 C1037.4057,338.5719 1038.2527,338.7379 1039.0697,339.0719 C1040.6537,340.1979 1042.3167,341.0759 1044.3677,340.7359 C1045.0337,340.7809 1045.6657,340.9519 1046.2717,341.2279 C1047.7757,342.4899 1049.2897,343.7109 1051.4457,342.6609 C1052.3797,342.6009 1053.2767,342.7479 1054.1367,343.1189 C1055.7027,344.9419 1058.1457,344.9449 1060.0947,345.9739 C1061.3247,346.0329 1062.5527,346.0919 1063.7827,346.1509 C1066.4977,350.1809 1066.2967,351.3599 1062.1017,355.9989 C1058.7087,363.4789 1055.3357,370.9669 1051.8947,378.4229 C1051.5867,379.0899 1050.8397,379.5539 1050.2967,380.1119 C1048.5427,381.3559 1046.8267,380.7699 1045.0917,380.0349 C1023.8027,371.0219 1002.4467,362.1529 981.9997,351.2979 C976.9617,348.6229 972.3107,345.5089 969.8377,339.9399 C968.3107,336.5009 967.9247,333.2919 969.9957,330.0129 L970.0077,329.9929 C970.6617,329.3129 971.3747,328.6859 971.9017,327.8909 L971.9387,327.9659 C972.6857,327.3159 973.4047,326.6389 973.9467,325.7999 C974.5397,325.1759 975.1327,324.5509 975.7257,323.9269 C984.8307,315.9899 993.5207,307.4849 1004.2597,301.6809 C1011.8537,297.5769 1019.2357,293.1439 1026.5097,288.5089 C1031.3887,285.3999 1035.1157,281.3599 1037.7167,276.1399 C1042.8947,265.7549 1049.4047,256.1199 1054.9857,245.9569 C1055.5077,245.0039 1056.1737,244.3329 1057.3257,244.5639 C1058.4867,244.7959 1058.8247,245.6979 1058.9557,246.7629 C1059.1747,248.5279 1058.5027,250.4709 1059.9717,251.9929" id="Fill-24" fill="#FBC89B"></path>
                <path d="M1121.9629,190.0081 C1133.5609,185.3671 1145.1239,180.6381 1156.7649,176.1101 C1169.6269,171.1051 1182.5789,166.3321 1195.4589,161.3711 C1208.4959,156.3491 1221.4829,151.1931 1234.5099,146.1451 C1245.6939,141.8111 1256.8929,137.5151 1268.1069,133.2581 C1283.4419,127.4371 1298.8209,121.7341 1314.1349,115.8571 C1324.8669,111.7371 1335.5469,107.4751 1346.1799,103.1081 C1347.7209,102.4751 1348.8719,100.8961 1350.2029,99.7541 C1356.9919,103.5581 1358.8759,109.4931 1357.5989,117.2991 C1352.5449,119.4281 1347.4269,122.0621 1342.0089,123.7061 C1338.1479,124.8781 1337.7269,127.1651 1337.7329,130.3861 C1337.7829,157.4841 1337.7879,184.5821 1337.7999,211.6791 C1337.8049,223.8041 1337.7919,235.9301 1337.7879,248.0551 C1337.2219,246.1341 1336.1709,244.2161 1336.1609,242.2921 C1335.9739,205.6391 1335.9089,168.9861 1335.8199,132.3331 C1335.8169,130.5541 1335.8199,128.7751 1335.8199,126.3371 C1323.2699,131.3831 1311.4299,136.1931 1299.5519,140.9071 C1281.5539,148.0491 1263.5149,155.0881 1245.5219,162.2431 C1237.2809,165.5201 1229.1389,169.0401 1220.9009,172.3241 C1205.8239,178.3351 1190.6879,184.1971 1175.6189,190.2291 C1167.0819,193.6471 1158.6469,197.3171 1150.1369,200.8041 C1144.3759,203.1641 1138.5919,205.4741 1132.7559,207.6381 C1131.6249,208.0571 1130.2049,207.6981 1129.0019,207.6981 C1127.2669,202.9451 1125.6329,198.4731 1123.9999,194.0011 C1123.3429,193.3551 1122.7189,192.6791 1122.1529,191.9511 C1122.0899,191.3031 1122.0259,190.6551 1121.9629,190.0081" id="Fill-26" fill="#CFD0D3"></path>
                <path d="M808.9677,773.8323 C811.7827,771.3483 812.1407,768.2013 812.1277,764.5893 C812.0057,729.7003 812.0377,694.8113 812.0707,659.9233 C812.0757,653.5283 810.6367,646.7883 815.9157,641.4753 C815.0587,638.0773 817.9057,637.1753 819.8987,636.0383 C833.0447,628.5413 846.0277,620.7663 859.1457,613.2213 C877.8827,602.4413 896.6597,591.7313 915.2617,580.7183 C926.4237,574.1083 937.8637,567.9823 948.9987,561.3223 C950.7657,560.2653 952.6367,558.7523 954.9627,560.1883 C957.9687,562.4133 958.0797,565.5433 958.0717,568.9453 C957.9977,605.4133 958.0267,641.8823 958.0267,678.3513 C958.0267,680.3073 958.0257,682.2623 958.0257,684.6833 C960.4427,684.3823 962.1797,684.1663 963.9157,683.9493 C959.5847,686.4033 959.2427,690.3073 959.2887,694.8383 C959.4897,714.8333 959.3377,734.8313 959.4117,754.8283 C959.4247,758.2933 958.4087,760.4243 955.1137,762.3253 C909.7617,788.4793 864.5307,814.8423 819.2537,841.1253 C817.3777,842.2133 815.3357,843.0153 812.3677,844.4273 L812.3677,838.0603 C812.3667,818.0623 812.3727,798.0663 812.3587,778.0693 C812.3577,775.7963 812.8927,773.0053 808.9677,773.8323" id="Fill-28" fill="#CFD3D5"></path>
                <path d="M1115.7178,634.1584 C1111.8498,633.4234 1107.9828,632.6864 1104.1148,631.9504 C1096.5298,626.6494 1100.7208,619.0434 1100.5508,612.4294 C1100.4208,607.3604 1101.5308,602.2554 1102.1448,597.1734 C1102.4798,594.3984 1102.9278,591.6364 1103.3938,588.3854 C1102.3958,588.2264 1101.1948,588.0344 1099.9928,587.8434 C1104.3668,584.7254 1103.7368,580.1254 1104.1328,575.5344 C1104.9768,565.7784 1106.5258,556.0824 1107.7848,546.3614 C1107.8488,545.8674 1107.9468,545.3744 1107.9668,544.8794 C1108.6498,527.5284 1109.7658,510.1784 1109.7918,492.8264 C1109.8028,485.4384 1107.6188,478.0304 1106.2698,470.6604 C1104.9468,463.4404 1103.7458,456.1704 1101.8708,449.0864 C1100.4168,443.5894 1098.0078,438.3454 1096.0228,432.9894 C1098.3918,435.4004 1101.4218,437.4424 1103.0118,440.2884 C1109.1378,451.2574 1113.5268,462.9314 1116.0858,475.2964 C1117.7388,483.2814 1120.1018,491.1224 1121.6728,499.1214 C1122.8418,505.0694 1123.8258,511.1594 1123.8968,517.1984 C1124.1558,539.3494 1123.6808,561.5134 1124.1708,583.6574 C1124.3458,591.5834 1126.4778,599.4674 1127.7188,607.3694 C1127.7438,607.5324 1127.8188,607.6894 1127.8388,607.8534 C1128.5598,613.7204 1129.6558,619.5734 1129.8518,625.4584 C1129.9678,628.9574 1128.6688,632.5044 1128.0068,636.0294 C1125.3438,635.9694 1122.6798,635.9084 1120.0168,635.8474 C1118.8018,634.7294 1116.9698,635.1814 1115.7178,634.1584" id="Fill-30" fill="#E6EDF7"></path>
                <path d="M1138.1123,1068.0823 C1141.2323,1066.0683 1144.3513,1064.0553 1147.4703,1062.0413 C1147.7373,1069.0403 1148.0053,1076.0383 1148.2713,1083.0363 C1149.4893,1084.7223 1150.2533,1086.5293 1149.7873,1088.6663 C1149.6273,1089.1973 1149.4543,1089.7303 1149.2963,1090.2663 C1143.6723,1096.5493 1135.8093,1098.5003 1128.2543,1101.0203 C1127.5023,1101.2713 1126.6913,1100.6563 1126.0193,1100.1633 C1111.2513,1089.9623 1096.3943,1079.8853 1081.7583,1069.4953 C1076.3943,1065.6863 1070.9673,1061.6593 1066.6353,1056.7843 C1062.0213,1051.5923 1063.0843,1040.8203 1067.5403,1035.5353 C1072.6013,1029.5313 1079.2523,1028.4143 1087.7493,1032.6603 C1091.5413,1034.5553 1094.8203,1037.4543 1098.5503,1039.5003 C1101.2313,1040.9703 1104.2733,1041.7803 1107.1593,1042.8943 C1107.4183,1044.0143 1108.0093,1045.1703 1107.8703,1046.2283 C1106.8013,1054.3163 1112.4353,1058.1123 1117.8243,1062.0963 C1122.3033,1066.9403 1128.3213,1068.5533 1134.4533,1069.7123 C1135.5313,1069.9163 1136.8853,1068.6633 1138.1123,1068.0823" id="Fill-32" fill="#BB8386"></path>
                <path d="M1273.2832,1024.1418 C1276.2142,1023.4608 1279.1452,1022.7808 1282.0762,1022.1008 L1283.8342,1050.4488 C1283.2982,1052.7148 1281.6032,1053.6438 1279.5342,1053.9378 C1275.9322,1054.4488 1272.4962,1055.6588 1269.0542,1056.6698 C1262.5572,1058.5808 1257.9082,1056.4238 1254.1412,1051.2948 C1246.7382,1046.2228 1239.2602,1041.2568 1231.9532,1036.0508 C1224.7192,1030.8958 1217.5612,1025.6208 1210.5482,1020.1708 C1204.8852,1015.7708 1203.3882,1009.0688 1202.7482,1002.5488 C1202.1482,996.4468 1208.4502,990.3388 1214.7342,990.2638 C1224.2282,990.1498 1233.4862,991.5778 1242.0602,996.0268 C1243.7612,995.6038 1244.4672,996.7888 1245.1952,997.9478 C1246.5182,1000.6878 1245.9242,1003.7408 1246.6172,1006.6318 C1247.8042,1011.5788 1249.3552,1016.2488 1252.7122,1020.1688 C1258.4762,1025.8288 1268.2772,1027.7208 1273.2832,1024.1418" id="Fill-34" fill="#BB8386"></path>
                <path d="M1252.7119,1020.1692 C1248.5169,1019.3072 1246.2699,1016.9382 1245.9199,1012.4712 C1245.5419,1007.6492 1244.6449,1002.8692 1243.9749,998.0712 C1242.8179,996.2082 1243.4519,993.8432 1242.2689,991.9872 C1242.1329,990.0112 1241.9959,988.0332 1241.8599,986.0572 C1241.0389,984.1092 1241.3119,981.8702 1240.2419,979.9882 L1239.9109,975.0342 C1238.8089,972.8152 1239.4879,970.1702 1238.2219,967.9902 C1238.1419,966.6622 1238.0629,965.3332 1237.9829,964.0042 C1237.0999,961.7402 1237.3489,959.1932 1236.2289,956.9892 C1236.1199,955.3382 1236.0119,953.6882 1235.9019,952.0362 C1235.5609,949.9642 1235.1279,947.9162 1234.2539,945.9882 C1234.1059,944.0232 1233.9579,942.0582 1233.8099,940.0922 C1232.8479,938.1712 1233.4289,935.8502 1232.2329,933.9892 C1232.0969,932.1502 1231.9619,930.3122 1231.8269,928.4732 C1230.4669,926.5172 1231.6079,923.9382 1230.2109,921.9912 C1230.1199,920.6682 1230.0289,919.3452 1229.9399,918.0222 C1229.5319,915.9692 1229.1279,913.9152 1228.2709,911.9872 C1228.1289,910.0132 1227.9879,908.0372 1227.8479,906.0632 C1227.0509,904.1062 1227.3089,901.8732 1226.2419,899.9882 C1226.1119,898.1162 1225.9829,896.2442 1225.8539,894.3722 C1224.3969,892.4792 1225.6359,889.8962 1224.2219,887.9912 C1224.1419,886.6622 1224.0629,885.3332 1223.9829,884.0042 C1223.0999,881.7402 1223.3489,879.1932 1222.2289,876.9892 C1222.1199,875.3382 1222.0119,873.6882 1221.9019,872.0362 C1221.5609,869.9642 1221.1279,867.9162 1220.2539,865.9882 C1220.1049,864.0232 1219.9559,862.0592 1219.8069,860.0952 C1218.8529,858.1702 1219.4179,855.8572 1218.2459,853.9882 C1218.1049,851.3512 1217.9619,848.7132 1217.8199,846.0752 C1216.5999,843.5162 1217.5909,840.5242 1216.2429,837.9892 C1216.0939,835.3552 1215.9449,832.7212 1215.7959,830.0862 C1214.6159,827.5152 1215.5899,824.5272 1214.2349,821.9892 C1214.1169,819.6762 1213.9999,817.3612 1213.8829,815.0482 C1212.7239,812.1402 1213.6079,808.8582 1212.2259,805.9902 C1212.1029,803.6802 1211.9809,801.3692 1211.8579,799.0582 C1210.3409,796.2112 1211.7889,792.8292 1210.2249,789.9902 C1210.1339,787.9992 1210.0429,786.0082 1209.9509,784.0172 C1208.8489,780.7662 1209.5159,777.2092 1208.2219,773.9902 C1208.1239,772.0022 1208.0259,770.0152 1207.9279,768.0262 C1206.7909,764.7252 1207.5389,761.1072 1206.2219,757.8352 C1206.1919,756.2522 1206.1629,754.6702 1206.1289,753.0892 C1207.3629,753.9302 1209.4679,754.5852 1209.6919,755.6412 C1210.7469,760.5852 1211.1509,765.6642 1212.0399,770.6502 C1213.0689,776.4232 1214.3819,782.1452 1215.5309,787.8962 C1216.3629,792.0562 1217.2489,796.2102 1217.8949,800.4002 C1218.7169,805.7322 1219.0739,811.1462 1220.0719,816.4402 C1221.7609,825.4012 1223.8439,834.2882 1225.6599,843.2262 C1226.5039,847.3812 1227.1829,851.5732 1227.8109,855.7682 C1228.6099,861.1062 1229.1069,866.4942 1230.0579,871.8032 C1231.0309,877.2362 1232.4489,882.5892 1233.5749,887.9972 C1234.4399,892.1512 1235.2689,896.3182 1235.9069,900.5122 C1236.7209,905.8592 1237.0929,911.2832 1238.0729,916.5972 C1239.7849,925.8722 1241.8459,935.0822 1243.6989,944.3322 C1244.5319,948.4942 1245.3189,952.6712 1245.9429,956.8682 C1246.7369,962.2052 1247.1329,967.6072 1248.0919,972.9112 C1249.0159,978.0192 1250.5119,983.0202 1251.6189,988.0982 C1252.4179,991.7572 1253.0819,995.4512 1253.6429,999.1542 C1254.5019,1004.8312 1255.4389,1010.5152 1255.8259,1016.2312 C1255.9099,1017.4672 1253.8079,1018.8532 1252.7119,1020.1692" id="Fill-36" fill="#90B7E2"></path>
                <path d="M969.996,330.0125 C969.505,338.4035 973.173,344.5675 980.627,348.0535 C1001.086,357.6205 1021.671,366.9205 1042.202,376.3325 C1044.908,377.5735 1047.597,378.8505 1050.295,380.1115 C1048.829,384.2215 1047.338,388.3235 1045.902,392.4455 C1045.108,394.7245 1044.408,397.0365 1043.664,399.3245 C1038.775,396.2505 1034.102,392.7565 1028.962,390.2035 C1011.277,381.4175 993.905,372.1275 978.165,360.1135 C974.308,357.1695 970.778,353.6795 967.576,350.0235 C962.959,344.7515 962.739,340.6065 966.207,334.8115 C967.245,333.0775 968.721,331.6055 969.996,330.0125" id="Fill-38" fill="#F0BA93"></path>
                <path d="M1059.9717,251.9929 C1058.9957,249.9519 1058.0217,247.9119 1056.9947,245.7649 C1050.5147,257.5459 1044.4347,269.5029 1037.4727,280.9229 C1033.1757,287.9719 1025.6157,291.6799 1018.6417,295.8559 C1009.7807,301.1619 1001.0657,306.7359 992.5147,312.5289 C988.3097,315.3769 984.7057,319.0979 980.6377,322.1699 C979.3137,323.1699 977.3807,323.3639 975.7257,323.9269 C980.2097,319.3429 984.3217,314.2999 989.2607,310.2749 C998.3477,302.8709 1007.7247,295.7829 1017.3457,289.0879 C1028.4767,281.3429 1036.1197,270.5249 1044.1917,260.0679 C1049.6627,252.9779 1054.7167,245.5649 1059.9577,238.3009 C1059.9627,242.8679 1059.9667,247.4309 1059.9717,251.9929" id="Fill-40" fill="#FEDCB8"></path>
                <path d="M1208.2217,773.9905 C1208.7987,777.3325 1209.3747,780.6755 1209.9507,784.0165 C1209.3747,780.6755 1208.7987,777.3325 1208.2217,773.9905" id="Fill-42" fill="#8BAADB"></path>
                <path d="M1206.2217,757.8352 C1206.7907,761.2322 1207.3597,764.6292 1207.9277,768.0262 C1207.3597,764.6292 1206.7907,761.2322 1206.2217,757.8352" id="Fill-44" fill="#8BAADB"></path>
                <path d="M1212.2256,805.9905 C1212.7786,809.0105 1213.3296,812.0295 1213.8826,815.0485 C1213.3296,812.0285 1212.7786,809.0105 1212.2256,805.9905" id="Fill-46" fill="#8BAADB"></path>
                <path d="M1210.2246,789.9905 C1210.7686,793.0125 1211.3126,796.0355 1211.8576,799.0575 C1211.3126,796.0355 1210.7686,793.0125 1210.2246,789.9905" id="Fill-48" fill="#8BAADB"></path>
                <path d="M1214.2354,821.9895 C1214.7554,824.6885 1215.2754,827.3875 1215.7964,830.0865 C1215.2754,827.3875 1214.7564,824.6885 1214.2354,821.9895" id="Fill-50" fill="#8BAADB"></path>
                <path d="M1216.2441,837.9895 L1217.8201,846.0755 L1216.2441,837.9895 Z" id="Fill-52" fill="#8BAADB"></path>
                <path d="M1204.249,742.009 C1209.367,742.492 1207.656,746.069 1207.125,749.153 C1206.17,747.326 1205.215,745.5 1204.259,743.674 C1204.255,743.118 1204.252,742.564 1204.249,742.009" id="Fill-54" fill="#90B7E2"></path>
                <path d="M1238.2217,967.9905 C1238.7847,970.3395 1239.3477,972.6865 1239.9107,975.0345 C1239.3477,972.6865 1238.7847,970.3395 1238.2217,967.9905" id="Fill-56" fill="#8BAADB"></path>
                <path d="M1232.2324,933.9895 C1232.7574,936.0235 1233.2844,938.0575 1233.8094,940.0925 C1233.2844,938.0575 1232.7574,936.0235 1232.2324,933.9895" id="Fill-58" fill="#8BAADB"></path>
                <path d="M1218.2461,853.9885 C1218.7671,856.0235 1219.2861,858.0595 1219.8071,860.0945 C1219.2861,858.0595 1218.7671,856.0235 1218.2461,853.9885" id="Fill-60" fill="#8BAADB"></path>
                <path d="M1222.2285,876.9895 C1222.8135,879.3275 1223.3975,881.6665 1223.9825,884.0045 C1223.3975,881.6665 1222.8135,879.3275 1222.2285,876.9895" id="Fill-62" fill="#8BAADB"></path>
                <path d="M1236.2285,956.9895 C1236.8135,959.3275 1237.3975,961.6665 1237.9825,964.0045 C1237.3985,961.6665 1236.8135,959.3275 1236.2285,956.9895" id="Fill-64" fill="#8BAADB"></path>
                <path d="M1240.2422,979.9885 C1240.7822,982.0115 1241.3212,984.0345 1241.8602,986.0565 C1241.3212,984.0345 1240.7822,982.0115 1240.2422,979.9885" id="Fill-66" fill="#8BAADB"></path>
                <path d="M1226.2422,899.9885 C1226.7772,902.0125 1227.3122,904.0385 1227.8472,906.0625 C1227.3122,904.0385 1226.7772,902.0125 1226.2422,899.9885" id="Fill-68" fill="#8BAADB"></path>
                <path d="M801.9296,777.8577 C803.9836,776.5867 806.0366,775.3157 808.0896,774.0447 C806.0366,775.3157 803.9836,776.5867 801.9296,777.8577" id="Fill-70" fill="#CFD3D5"></path>
                <path d="M1228.2705,911.9875 C1228.8265,913.9995 1229.3825,916.0095 1229.9395,918.0215 C1229.3825,916.0095 1228.8265,913.9995 1228.2705,911.9875" id="Fill-72" fill="#8BAADB"></path>
                <path d="M1224.2217,887.9915 C1224.7657,890.1175 1225.3097,892.2445 1225.8537,894.3715 C1225.3097,892.2455 1224.7657,890.1185 1224.2217,887.9915" id="Fill-74" fill="#8BAADB"></path>
                <path d="M1220.2539,865.9885 C1220.8039,868.0045 1221.3539,870.0205 1221.9019,872.0365 C1221.3539,870.0205 1220.8039,868.0045 1220.2539,865.9885" id="Fill-76" fill="#8BAADB"></path>
                <path d="M1234.2539,945.9885 C1234.8039,948.0045 1235.3539,950.0205 1235.9019,952.0365 C1235.3539,950.0205 1234.8039,948.0045 1234.2539,945.9885" id="Fill-78" fill="#8BAADB"></path>
                <path d="M1230.2109,921.9915 C1230.7499,924.1505 1231.2879,926.3105 1231.8269,928.4705 C1231.2879,926.3125 1230.7489,924.1515 1230.2109,921.9915" id="Fill-80" fill="#8BAADB"></path>
                <path d="M1350.2529,99.804 C1348.4939,98.625 1346.7349,97.447 1344.9769,96.268 C1346.7349,97.447 1348.4939,98.625 1350.2529,99.804" id="Fill-82" fill="#CFD0D3"></path>
                <path d="M1334.0195,98.2307 C1332.6755,98.8107 1331.3315,99.3907 1329.9885,99.9707 C1331.3315,99.3907 1332.6755,98.8107 1334.0195,98.2307" id="Fill-84" fill="#CFD0D3"></path>
                <path d="M1242.2686,991.9875 C1242.8366,994.0155 1243.4066,996.0435 1243.9746,998.0705 C1243.3366,997.3895 1242.6986,996.7085 1242.0606,996.0265 C1242.1296,994.6795 1242.1996,993.3345 1242.2686,991.9875" id="Fill-86" fill="#8BAADB"></path>
                <path d="M1203.8867,736.0442 C1206.6497,736.7282 1206.7117,737.5052 1204.2287,740.3382 C1204.1147,738.9072 1203.9997,737.4762 1203.8867,736.0442" id="Fill-88" fill="#90B7E2"></path>
                <path d="M1326.0254,100.3088 C1324.6934,100.9018 1323.3614,101.4948 1322.0294,102.0878 C1323.3614,101.4948 1324.6934,100.9018 1326.0254,100.3088" id="Fill-90" fill="#CFD0D3"></path>
                <path d="M1320.0186,102.2214 C1318.6446,102.7994 1317.2706,103.3784 1315.8966,103.9564 C1317.2706,103.3784 1318.6446,102.8004 1320.0186,102.2214" id="Fill-92" fill="#CFD0D3"></path>
                <path d="M790.1777,782.9651 C791.4997,782.6681 792.8227,782.3711 794.1447,782.0731 C792.8227,782.3711 791.4997,782.6681 790.1777,782.9651" id="Fill-94" fill="#CFD3D5"></path>
                <path d="M1342.0195,96.2341 C1340.6005,96.7891 1339.1815,97.3441 1337.7625,97.8991 C1339.1815,97.3441 1340.6005,96.7891 1342.0195,96.2341" id="Fill-96" fill="#CFD0D3"></path>
                <path d="M797.9858,779.9758 C799.2638,779.2848 800.5408,778.5928 801.8188,777.9018 C800.5408,778.5928 799.2638,779.2848 797.9858,779.9758" id="Fill-98" fill="#CFD3D5"></path>
                <path d="M1064.0225,603.8987 C1065.1325,603.3357 1066.2425,602.7717 1067.3515,602.2087 C1066.2415,602.7717 1065.1315,603.3357 1064.0225,603.8987" id="Fill-100" fill="#D5E8F8"></path>
                <path d="M794.9755,781.8733 C795.9745,781.2433 796.9725,780.6123 797.9715,779.9813 C796.9725,780.6123 795.9745,781.2433 794.9755,781.8733" id="Fill-102" fill="#CFD3D5"></path>
                <path d="M963.9619,683.9319 C964.9979,683.2989 966.0329,682.6669 967.0679,682.0359 C966.0329,682.6669 964.9969,683.2989 963.9619,683.9319" id="Fill-104" fill="#CFD3D5"></path>
                <path d="M1082.042,170.2053 C1081.348,170.7973 1080.654,171.3893 1079.961,171.9803 C1080.654,171.3893 1081.348,170.7973 1082.042,170.2053" id="Fill-106" fill="#DCDDDE"></path>
                <path d="M973.9462,325.7996 C973.2772,326.5216 972.6072,327.2436 971.9382,327.9656 C972.6082,327.2436 973.2772,326.5216 973.9462,325.7996" id="Fill-108" fill="#FEDCB8"></path>
                <path d="M971.9013,327.8909 C971.2703,328.5919 970.6393,329.2929 970.0073,329.9939 C970.6393,329.2929 971.2703,328.5919 971.9013,327.8909" id="Fill-110" fill="#F0BA93"></path>
                <path d="M1095.9854,589.76 C1096.7814,589.229 1097.5764,588.698 1098.3714,588.167 C1097.5764,588.698 1096.7814,589.229 1095.9854,589.76" id="Fill-112" fill="#E6EDF7"></path>
                <path d="M1060.3174,603.9875 C1061.0004,604.0645 1061.6824,604.1415 1062.3644,604.2195 C1061.8614,604.7015 1061.3594,605.1815 1060.8564,605.6635 L1060.3174,603.9875 Z" id="Fill-114" fill="#D5E8F8"></path>
                <path d="M971.9374,679.6458 C972.6304,679.0998 973.3244,678.5538 974.0164,678.0078 C973.3244,678.5538 972.6304,679.0998 971.9374,679.6458" id="Fill-116" fill="#CFD3D5"></path>
                <path d="M967.9599,681.7903 C968.7029,681.2263 969.4469,680.6613 970.1899,680.0973 C969.4469,680.6613 968.7029,681.2263 967.9599,681.7903" id="Fill-118" fill="#CFD3D5"></path>
                <path d="M532.1601,476.1736 C527.4621,479.2326 522.8401,482.4176 518.0451,485.3176 C512.6131,488.6016 507.1011,491.7766 501.4551,494.6696 C500.0141,495.4076 497.5241,495.6146 496.2081,494.8606 C453.5901,470.4066 411.0311,445.8486 368.5161,421.2146 C328.7971,398.2016 289.1381,375.0846 249.4501,352.0166 C249.0481,351.7826 248.6281,351.5816 247.3241,350.8986 C253.4161,347.1756 258.9331,343.6326 264.6081,340.3636 C297.4711,321.4326 330.4161,302.6476 363.2431,283.6566 C399.7261,262.5496 436.1091,241.2676 472.5431,220.0756 C490.8141,209.4476 509.1021,198.8466 527.3921,188.2506 C527.8111,188.0076 528.3451,187.9636 528.8251,187.8266 C531.8681,186.4636 533.1971,188.2116 533.8571,190.7696 C534.2711,192.3746 534.1541,194.0816 534.1551,195.7476 C534.1861,286.5616 534.1821,377.3756 534.1501,468.1906 C534.1491,470.9956 534.4631,473.9226 532.1601,476.1736" id="Fill-120" fill="#183D4B"></path>
                <path d="M244.0786,683.9465 C244.0576,592.1715 244.0346,500.3965 244.0136,408.6215 C244.0106,393.2975 244.0136,377.9735 244.0136,362.6505 L244.0136,356.1045 C252.0066,360.7775 259.1576,365.0115 266.3586,369.1565 C295.9166,386.1695 325.5336,403.0785 355.0446,420.1725 C384.2636,437.0965 413.3546,454.2415 442.5536,471.2025 C457.0816,479.6405 471.7426,487.8505 486.2876,496.2585 C487.8596,497.1665 489.0686,498.7015 490.4456,499.9465 C489.0816,501.2055 487.8956,502.7705 486.3286,503.6765 C471.9656,511.9885 457.5326,520.1785 443.1426,528.4455 C442.6316,528.7395 442.3696,529.4675 441.9906,529.9935 C440.5396,531.5265 441.0266,533.4485 441.0196,535.2285 C440.9796,546.2115 440.8916,557.1955 441.0616,568.1755 C441.1166,571.7425 439.8876,574.0885 436.9166,576.0155 C426.4466,582.8095 415.3886,588.5895 404.6556,594.9275 C386.1916,605.8305 367.5726,616.4705 348.9856,627.1615 C328.6686,638.8455 308.4636,650.7215 288.1076,662.3405 C276.4136,669.0135 264.8406,675.9125 253.1436,682.5865 C250.4616,684.1155 247.5866,686.8485 244.0786,683.9465" id="Fill-122" fill="#183D4A"></path>
                <path d="M628.2001,571.8718 C628.1381,538.8818 628.0351,505.8908 628.1451,472.9008 C628.1511,471.4098 629.7411,469.3498 631.1581,468.5208 C661.0291,451.0608 690.9621,433.7058 720.9231,416.3988 C753.5331,397.5608 786.1801,378.7878 818.8231,360.0068 C820.8691,358.8298 823.0201,357.8358 825.8891,356.3638 L825.8891,362.9658 C825.8891,422.6218 825.8241,482.2788 826.0131,541.9348 C826.0281,546.7638 824.4631,549.4968 820.3931,551.6948 C811.5111,556.4938 802.8451,561.6918 793.9881,566.5398 C790.8921,568.2348 789.8641,570.3268 789.8871,573.9308 C790.0691,602.0918 789.9901,630.2538 789.9821,658.4158 C789.9821,660.2468 789.9061,662.0788 789.8651,663.9098 C787.8911,666.0318 785.9221,664.9538 784.0131,663.8428 C757.8401,648.6178 731.6211,633.4678 705.4151,618.2978 C682.2331,604.8778 659.1261,591.3238 635.7851,578.1768 C632.8481,576.5218 630.0641,574.7748 628.2001,571.8718" id="Fill-124" fill="#183D4B"></path>
                <path d="M789.852,672.0959 C789.897,683.5879 790.062,695.0819 789.857,706.5699 C789.826,708.3159 788.521,710.7939 787.056,711.6489 C746.851,735.1029 706.56,758.4109 666.258,781.6999 C625.263,805.3899 584.243,829.0359 543.225,852.6859 C541.859,853.4729 540.39,854.0789 538.324,855.0829 C538.175,852.8109 537.982,851.2359 537.982,849.6589 C537.966,798.0199 537.993,746.3789 537.915,694.7399 C537.91,691.2759 538.728,689.1759 542.051,687.2809 C569.462,671.6459 596.695,655.6989 624.05,639.9649 C626.939,638.3029 628.137,636.4919 628.103,633.0319 C627.932,615.3769 628.064,597.7189 628.091,580.0619 C630.904,577.4029 633.509,579.4219 635.817,580.7329 C646.659,586.8919 657.533,592.9979 668.294,599.2969 C691.822,613.0669 715.497,626.5859 739.038,640.3319 C754.399,649.3009 769.961,657.9239 785.178,667.1419 C787.235,668.3879 788.896,669.8749 789.852,672.0959" id="Fill-126" fill="#183D4B"></path>
                <path d="M540.2802,187.7039 C550.3542,193.3519 560.4912,198.8909 570.4902,204.6679 C603.4532,223.7159 636.3212,242.9309 669.3592,261.8469 C673.2212,264.0579 674.4752,266.4479 674.4622,270.7629 C674.3182,318.7479 674.3712,366.7349 674.3722,414.7209 L674.3722,421.9639 C681.4762,418.0049 687.6942,414.6429 693.8152,411.1129 C731.6062,389.3129 769.4072,367.5309 807.0842,345.5349 C809.7592,343.9729 811.3292,344.0249 813.6322,345.6199 C816.2472,347.4309 819.1162,348.8759 822.4062,350.7889 C757.5312,388.3509 693.3322,425.5209 628.0112,463.3409 L628.0112,421.6189 C609.4272,432.3309 591.7152,442.5579 573.9872,452.7549 C562.7172,459.2369 551.4252,465.6769 540.1422,472.1349 C536.9622,473.0259 536.4562,470.7229 536.0622,468.5559 C535.7052,466.5929 535.8332,464.5699 535.8332,462.5719 C535.8232,374.1409 535.8222,285.7109 535.8332,197.2809 C535.8332,195.2819 535.7252,193.2639 536.0712,191.2969 C536.4692,189.0299 537.2572,186.9969 540.2802,187.7039" id="Fill-128" fill="#193D4B"></path>
                <path d="M444.0483,744.0686 C473.0163,727.2906 501.9843,710.5126 531.6113,693.3536 L531.6113,855.7556 C436.7923,800.9046 342.4713,746.3406 248.1503,691.7786 C246.6103,688.1066 249.7443,687.0696 251.8333,685.9146 C260.2833,681.2416 268.3893,675.9876 276.7983,671.2586 C299.8523,658.2956 322.6273,644.8476 345.5283,631.6196 C370.5903,617.1406 395.6643,602.6796 420.6633,588.0896 C425.1173,585.4896 429.4543,582.6766 434.1073,580.4416 C439.3633,577.9176 440.9883,578.9576 440.9903,584.7896 C441.0073,635.7666 440.9903,686.7446 441.0313,737.7216 C441.0323,739.8056 440.3243,742.0956 442.0873,743.9146 L442.0883,743.9156 C442.6783,744.7716 443.3423,744.6886 444.0483,744.0686" id="Fill-130" fill="#193D4B"></path>
                <path d="M954.9628,560.1887 C924.6868,577.6887 894.4138,595.1957 864.1318,612.6837 C849.4278,621.1747 834.6908,629.6077 820.0078,638.1357 C818.5028,639.0097 817.2738,640.3557 815.9158,641.4787 C813.3508,642.1967 812.1918,641.3047 812.2048,638.5627 C812.2588,626.9037 812.0398,615.2377 812.4228,603.5897 C812.4838,601.7537 814.7758,599.4137 816.6308,598.3047 C831.3818,589.4947 846.2628,580.9017 861.1308,572.2897 C889.4418,555.8897 917.7638,539.5097 946.1008,523.1527 C949.8808,520.9707 953.7708,518.9767 958.2398,516.5527 C958.5948,518.7447 958.9638,519.9837 958.9688,521.2247 C959.0148,532.0517 958.9768,542.8787 959.0088,553.7057 C959.0178,556.7577 958.5218,559.4057 954.9628,560.1887" id="Fill-132" fill="#6ACEF7"></path>
                <path d="M442.0869,743.9143 C441.5089,741.8643 440.4309,739.8153 440.4269,737.7663 C440.3339,687.4693 440.3539,637.1723 440.3539,586.8743 L440.3539,579.3003 C432.9529,583.4613 426.6569,586.9133 420.4439,590.5073 C376.8319,615.7303 333.2369,640.9863 289.6349,666.2263 C276.9119,673.5933 264.1609,680.9103 251.4829,688.3533 C250.1589,689.1323 249.2519,690.6203 248.1499,691.7783 C244.0669,690.5853 243.6719,687.4753 244.0789,683.9463 C248.0669,682.2093 252.2589,680.8263 256.0109,678.6783 C288.9869,659.7883 321.9029,640.7953 354.7979,621.7673 C379.2539,607.6193 403.6549,593.3763 428.0779,579.1723 C440.3539,572.0323 440.3509,572.0273 440.3519,557.7563 C440.3519,550.0963 440.2609,542.4333 440.4269,534.7763 C440.4619,533.1713 441.4439,531.5873 441.9899,529.9933 C441.9309,544.4803 441.8549,558.9683 441.8289,573.4563 C441.8249,575.9483 442.1369,578.4403 442.1369,580.9323 C442.1339,635.2593 442.1079,689.5863 442.0869,743.9143" id="Fill-134" fill="#738891"></path>
                <path d="M540.2802,187.7039 C539.4892,188.6029 538.3552,189.3849 537.9982,190.4319 C537.5892,191.6309 537.8532,193.0659 537.8532,194.3979 C537.8502,284.8819 537.8352,375.3669 537.9462,465.8499 C537.9492,467.9459 539.3782,470.0399 540.1422,472.1349 L532.1602,476.1739 C532.0922,474.0149 531.9652,471.8569 531.9652,469.6979 C531.9552,377.6859 531.9652,285.6739 531.9082,193.6619 C531.9062,191.3619 533.3452,187.9059 528.8242,187.8269 C533.1082,183.7729 536.5532,183.7369 540.2802,187.7039" id="Fill-136" fill="#6E848D"></path>
                <path d="M607.0834,494.0149 C609.1214,502.0519 608.6014,503.2399 602.1634,506.9419 C585.1484,516.7289 568.1114,526.4789 551.1524,536.3639 C528.2114,549.7339 505.3474,563.2349 482.4254,576.6379 C476.0614,580.3589 469.6094,583.9289 463.1114,587.6179 C460.5614,579.7629 461.7584,576.5749 468.8544,572.4759 C490.5684,559.9329 512.3004,547.4209 534.0714,534.9769 C548.9534,526.4709 563.9354,518.1399 578.8264,509.6499 C587.2744,504.8329 595.6214,499.8379 604.0414,494.9709 C604.8334,494.5129 605.8234,494.3989 607.0834,494.0149" id="Fill-138" fill="#D5D6D7"></path>
                <path d="M462.9619,635.6155 C460.5739,627.2375 461.3519,625.9065 468.4859,621.7455 C482.5879,613.5205 496.4769,604.9285 510.5659,596.6815 C521.2569,590.4245 532.1799,584.5655 542.8959,578.3485 C557.4419,569.9105 571.8469,561.2295 586.3979,552.7985 C593.0209,548.9595 599.8469,545.4715 606.6479,541.7885 C609.3389,548.7765 608.6139,551.4075 602.9949,554.6905 C587.1809,563.9295 571.2739,573.0095 555.4529,582.2365 C540.3529,591.0425 525.3459,600.0105 510.2379,608.8035 C496.1259,617.0195 481.9399,625.1085 467.7709,633.2265 C466.2329,634.1075 464.5939,634.8105 462.9619,635.6155" id="Fill-140" fill="#D5D6D7"></path>
                <path d="M462.9677,684.0579 C460.7517,675.5019 461.8887,673.4569 468.5247,669.7389 C480.3257,663.1249 491.8827,656.0769 503.6157,649.3399 C518.6197,640.7249 533.7747,632.3709 548.7237,623.6629 C567.3797,612.7949 585.8897,601.6759 604.4847,590.7029 C605.1277,590.3229 606.0067,590.3419 606.7267,590.1849 C609.4717,596.6939 608.1587,600.6619 602.8177,603.7489 C586.9887,612.8949 571.2577,622.2109 555.4187,631.3379 C544.5597,637.5959 533.5157,643.5359 522.6737,649.8229 C508.2857,658.1659 494.0507,666.7729 479.6737,675.1339 C474.3437,678.2349 468.7957,680.9599 462.9677,684.0579" id="Fill-142" fill="#D5D6D7"></path>
                <path d="M789.852,672.0959 C763.476,656.7829 737.108,641.4559 710.72,626.1639 C690.6,614.5039 670.458,602.8809 650.313,591.2629 C644.458,587.8859 638.595,584.5169 632.654,581.2949 C631.307,580.5639 629.621,580.4559 628.091,580.0619 C628.127,577.3319 628.164,574.6019 628.2,571.8719 C637.12,576.8589 646.098,581.7459 654.949,586.8519 C684.431,603.8599 713.878,620.9249 743.314,638.0099 C757.607,646.3069 771.834,654.7179 786.135,663.0019 C787.197,663.6169 788.613,663.6209 789.865,663.9089 C789.86,666.6389 789.856,669.3669 789.852,672.0959" id="Fill-144" fill="#738891"></path>
                <path d="M767.2856,218.1853 C769.2436,225.4283 767.7256,230.0593 761.5776,233.4083 C746.2146,241.7783 731.0736,250.5563 715.8296,259.1463 C709.5636,262.6783 703.2636,266.1493 696.8036,269.7453 C694.7506,260.6083 695.0636,259.8233 702.1976,255.7323 C720.6686,245.1413 739.1526,234.5723 757.6186,223.9723 C760.7256,222.1873 763.7706,220.2933 767.2856,218.1853" id="Fill-146" fill="#D5D6D7"></path>
                <path d="M781.9809,317.9392 C777.5869,320.1332 773.0879,322.1402 768.8219,324.5592 C759.9419,329.5962 751.1809,334.8422 742.3809,340.0212 C728.1779,348.3782 713.9889,356.7612 699.7689,365.0902 C698.9979,365.5422 697.9929,365.5942 696.9299,365.8772 C695.6239,363.0742 695.4669,361.1842 698.4579,359.5312 C705.6729,355.5452 712.7379,351.2862 719.8379,347.0962 C734.7269,338.3112 749.5599,329.4322 764.4959,320.7302 C770.8949,317.0012 777.4939,313.6162 784.0019,310.0752 C787.1529,313.6792 785.2689,315.9892 781.9809,317.9392" id="Fill-148" fill="#D5D6D7"></path>
                <path d="M758.2988,273.9568 C785.1198,258.6728 811.9418,243.3878 838.8958,228.0278 C840.9978,231.5548 839.8448,233.9458 837.1108,235.5278 C815.4248,248.0788 793.6578,260.4928 771.9888,273.0728 C767.3048,275.7918 762.9138,279.0158 758.3878,282.0068 C755.8588,279.3518 756.0238,276.6658 758.2988,273.9568" id="Fill-150" fill="#D5D6D7"></path>
                <path d="M758.2988,273.9568 C758.3268,276.6408 758.3558,279.3248 758.3858,282.0078 C757.6788,288.4298 755.6128,294.2838 750.5098,298.5208 C748.7208,300.0068 746.3178,300.7528 744.1948,301.8368 C739.5528,300.3978 737.8198,297.1138 737.9108,292.4238 C737.9998,287.8008 737.8018,283.2438 739.9828,278.8738 C741.4298,275.9748 742.9678,273.4048 745.9978,272.0058 L746.0048,271.9978 C746.6718,271.3358 747.3228,270.6578 748.0648,270.0758 C754.1408,267.5808 755.9918,268.2818 758.2988,273.9568" id="Fill-152" fill="#6ACEF7"></path>
                <path d="M810.3632,300.0979 C808.1492,305.3299 806.3172,310.7729 803.5852,315.7189 C801.7822,318.9839 798.3582,320.7689 794.2222,319.8429 C791.1652,318.7449 789.9252,316.4999 789.9482,313.3349 C789.9912,307.5829 789.2932,301.7839 792.1642,296.3529 C793.5952,293.6459 795.1252,291.2219 798.1162,290.0829 C805.1902,286.0219 808.4732,287.0639 810.2822,293.9459 C811.9482,295.9739 811.9022,298.0259 810.3632,300.0979" id="Fill-154" fill="#6ACEF7"></path>
                <path d="M729.9785,297.9265 C723.5265,301.4535 717.0595,304.9535 710.6275,308.5165 C706.2375,310.9485 701.8955,313.4685 697.3495,316.0525 C694.8395,312.6175 696.0345,310.1125 698.9225,308.4705 C709.8915,302.2345 720.9665,296.1875 732.0025,290.0695 C735.1985,293.6855 733.2665,295.9805 729.9785,297.9265" id="Fill-156" fill="#D5D6D7"></path>
                <path d="M729.9785,297.9265 C730.6535,295.3065 731.3275,292.6875 732.0025,290.0685 C733.7775,285.5525 735.2725,280.8985 737.4175,276.5655 C739.0415,273.2835 741.9935,271.3705 745.9975,272.0055 C743.9695,277.6325 741.5205,283.1525 740.0415,288.9205 C738.8045,293.7475 740.1465,298.3875 744.1945,301.8375 C738.8245,302.8275 734.0715,301.5765 729.9785,297.9265" id="Fill-158" fill="#DCDDDE"></path>
                <path d="M798.1166,290.0833 C793.8906,296.5883 790.6846,303.4423 791.8866,311.4683 C792.3126,314.3123 793.4226,317.0553 794.2216,319.8433 C791.3786,320.8733 788.7166,321.4993 786.1086,318.9413 C785.2406,318.0903 783.3856,318.2463 781.9806,317.9403 C782.6546,315.3173 783.3286,312.6953 784.0026,310.0743 C784.1556,302.7913 787.2106,296.6853 792.1986,291.6663 C793.4426,290.4143 796.1056,290.5733 798.1166,290.0833" id="Fill-160" fill="#DCDDDE"></path>
                <path d="M810.3632,300.0979 C810.3362,298.0469 810.3072,295.9959 810.2812,293.9459 C814.9242,291.5269 819.6212,289.2079 824.1912,286.6629 C829.0632,283.9509 833.8152,281.0249 838.8792,278.0389 C840.8892,281.2869 840.0652,283.6949 837.5922,285.1989 C829.4152,290.1719 821.1002,294.9199 812.8012,299.6909 C812.1322,300.0759 811.1822,299.9729 810.3632,300.0979" id="Fill-162" fill="#D5D6D7"></path>
                <path d="M748.0644,270.0754 C747.3774,270.7164 746.6914,271.3574 746.0044,271.9974 C746.6914,271.3574 747.3774,270.7164 748.0644,270.0754" id="Fill-164" fill="#DCDDDE"></path>
                <path d="M444.0483,744.0686 L442.9303,745.3866 C442.6503,744.8956 442.3683,744.4056 442.0883,743.9156 C442.7413,743.9656 443.3943,744.0166 444.0483,744.0686" id="Fill-166" fill="#738891"></path>
                <path d="M1062.1016,355.9993 C1062.6626,352.7153 1063.2236,349.4323 1063.7836,346.1493 C1075.0806,346.7983 1086.6356,346.2013 1097.5976,348.4713 C1107.0726,350.4323 1116.3396,350.0583 1125.6016,349.7153 C1132.4406,349.4613 1139.2156,346.7883 1145.9576,344.9663 C1148.7596,344.2083 1151.4036,342.8613 1154.1196,341.7813 C1157.9386,338.9743 1162.6566,338.6033 1166.9666,337.1793 C1172.5436,335.3383 1178.0826,333.1923 1184.0406,332.7263 C1185.5526,333.1383 1186.7416,333.7933 1186.2466,335.6943 C1186.2466,335.6943 1185.9886,336.0133 1185.9886,336.0133 C1177.0316,343.8133 1165.4006,344.6923 1154.7466,348.1163 C1143.9576,351.5823 1133.2136,355.1873 1122.4316,358.6723 C1120.5876,359.2683 1118.6596,359.8743 1116.7506,359.9413 C1111.7566,360.1193 1106.7146,360.3973 1101.7616,359.9193 C1091.1826,358.8993 1080.6536,357.3733 1070.0896,356.1763 C1067.4546,355.8773 1064.7656,356.0453 1062.1016,355.9993" id="Fill-168" fill="#E6EDF7"></path>
                <path d="M1257.957,204.0364 C1268.805,212.1654 1277.35,222.0884 1282.084,234.9834 C1285.883,238.1844 1286.886,242.2604 1285.48,246.8734 C1284.76,249.2394 1285.563,251.8114 1284.268,254.0424 C1280.294,275.4994 1268.698,291.0314 1248.61,299.9944 C1247.619,300.4364 1246.782,301.2244 1245.873,301.8524 C1240.252,305.8244 1234.311,304.5974 1228.603,302.4434 C1223.124,300.3764 1219.754,295.8294 1217.079,290.7894 C1215.967,288.9474 1215.186,286.9284 1214.166,285.0334 C1211.963,280.9444 1212.254,277.5074 1215.392,273.6654 C1218.7,269.6144 1221.235,264.8004 1219.242,259.1164 C1216.577,258.0364 1214.559,259.8344 1212.309,260.0364 C1207.97,260.4254 1206.052,259.3194 1205.054,255.1564 C1204.476,252.7444 1203.795,250.2894 1204.012,247.7874 C1204.816,238.5094 1200.486,232.6454 1192.031,229.4514 C1188.915,226.6704 1185.303,224.2964 1184.061,219.9414 C1183.377,216.2964 1182.682,212.6524 1182.013,209.0044 C1180.612,201.3704 1189.678,192.6884 1197.472,192.2234 C1207.531,191.6224 1217.662,191.9834 1227.754,192.2624 C1231.136,192.3554 1234.49,193.4674 1237.857,194.1144 C1241.677,195.6144 1245.979,194.9904 1249.719,197.2734 C1252.833,199.1754 1256.18,200.5844 1257.957,204.0364" id="Fill-170" fill="#B5865B"></path>
                <path d="M1271.30451,216.401032 C1274.94214,220.501494 1278.5353,226.695617 1282.084,234.9834 C1285.883,238.1844 1286.886,242.2604 1285.48,246.8734 C1284.76,249.2394 1285.563,251.8114 1284.268,254.0424 C1280.294,275.4994 1268.698,291.0314 1248.61,299.9944 C1247.619,300.4364 1246.782,301.2244 1245.873,301.8524 C1240.252,305.8244 1242.8615,313.803965 1237.1535,311.649965 C1231.6745,309.582965 1223.08051,300.614026 1222.06051,298.719026 C1219.85751,294.630026 1250.15182,279.080751 1260.23577,270.603036 C1268.69124,263.494405 1272.38082,245.42707 1271.30451,216.401032 Z" id="Fill-170-Copy" fill="#B37E5A"></path>
                <path d="M1218.127,289.8123 C1220.598,292.5973 1222.904,295.5503 1225.571,298.1323 C1231.453,303.8283 1238.898,301.7113 1245.873,301.8533 C1244.677,313.8843 1243.48,325.9163 1242.284,337.9493 C1236.649,339.9703 1231.151,343.0093 1225.347,343.8033 C1212.952,345.4983 1201.231,342.0683 1190.06,336.6853 C1188.898,336.1263 1187.521,336.0163 1186.245,335.6963 C1185.502,335.0833 1184.757,334.4723 1184.013,333.8613 C1181.331,331.4213 1184.319,328.9813 1183.994,326.5423 C1183.819,316.9033 1183.819,316.9013 1174.574,315.9893 C1173.739,315.9073 1172.971,315.6113 1172.187,315.3513 C1171.69,315.1703 1171.262,314.8893 1170.893,314.5143 C1169.579,309.6583 1173.899,309.5053 1176.402,308.6473 C1183.128,306.3413 1189.704,303.7313 1196.231,300.9213 C1201.73,298.5543 1206.758,295.4263 1211.785,292.2673 C1213.764,291.0243 1215.64,289.6733 1218.127,289.8123" id="Fill-172" fill="#F0BA93"></path>
                <path d="M1185.8438,326.7478 C1185.2338,329.1198 1184.6228,331.4908 1184.0128,333.8618 C1174.0468,336.5018 1164.0818,339.1438 1154.1178,341.7828 C1150.4898,340.5488 1146.9398,338.8838 1143.2098,338.1898 C1138.0658,337.2328 1132.7928,336.8978 1127.5578,336.5608 C1126.4448,336.4888 1125.2588,337.5488 1124.1058,338.0878 C1120.2388,333.4248 1121.3158,329.1608 1126.9108,327.2518 C1128.7578,326.6228 1130.6788,326.1728 1132.6638,326.4108 C1137.4228,327.3628 1136.2578,323.7818 1136.5378,321.3078 C1138.7958,315.3248 1141.6408,309.8198 1148.0068,307.1658 C1155.4218,310.2618 1163.1678,312.5608 1170.3298,316.2838 C1176.4888,318.3058 1180.5238,323.4778 1185.8438,326.7478" id="Fill-174" fill="#FBC89B"></path>
                <path d="M1045.9854,342.2483 C1045.3184,342.1783 1044.6524,342.1073 1043.9854,342.0373 C1042.3604,341.3273 1040.5624,341.1023 1038.9854,340.2573 C1037.9974,340.1513 1037.0094,340.0463 1036.0214,339.9403 C1034.6804,339.3803 1033.2514,339.0373 1031.9814,338.3003 C1031.3124,338.2273 1030.6434,338.1533 1029.9744,338.0793 C1029.1484,338.0093 1028.3294,337.9233 1027.5264,337.6813 C1022.3194,336.1103 1021.4964,334.2263 1024.2974,329.3703 C1026.3654,325.7863 1028.8034,322.4053 1030.8304,318.8033 C1036.5094,308.7103 1043.8864,299.7793 1050.1654,290.1013 L1050.1114,290.1683 C1050.5824,289.3123 1051.3454,288.7063 1051.9764,287.9873 L1051.9874,287.9753 C1053.1584,286.9843 1054.5324,286.3953 1055.9814,285.9563 C1056.6514,286.0023 1057.3204,286.0503 1057.9904,286.0973 C1060.6894,288.3423 1060.1254,291.3893 1059.9314,294.3003 C1059.8024,296.2293 1058.8084,298.0963 1059.5224,300.0893 C1059.3474,302.0283 1059.0414,303.9663 1059.0204,305.9073 C1058.9024,316.8503 1058.8244,327.7943 1058.8114,338.7373 C1058.8094,340.5303 1059.1994,342.3233 1059.4084,344.1153 C1057.6524,345.4993 1055.8234,345.1613 1053.9744,344.3443 C1052.9804,344.2343 1051.9864,344.1233 1050.9924,344.0133 C1049.2354,343.6743 1047.5534,343.1213 1045.9854,342.2483" id="Fill-176" fill="#193D4B"></path>
                <path d="M1170.1406,317.8967 C1163.4926,315.2867 1156.8256,312.7217 1150.2166,310.0147 C1149.2876,309.6337 1148.6446,308.5577 1147.8696,307.8037 C1147.1016,304.3857 1147.3796,301.6817 1151.9136,301.8877 C1151.6376,306.9727 1156.9906,306.7997 1159.2236,309.5817 C1160.0316,310.5857 1161.8236,310.7997 1163.4866,311.5117 C1162.3076,305.3967 1159.8716,299.4417 1160.3286,293.7187 C1161.2216,282.5437 1163.5446,271.4637 1165.6196,260.4087 C1168.0666,247.3667 1174.1126,235.6727 1180.1176,224.0167 C1180.9456,222.4087 1182.7226,221.2887 1184.0606,219.9417 C1186.7966,222.5847 1189.5336,225.2287 1192.2696,227.8717 C1192.5296,229.7877 1191.8606,231.4717 1190.9256,233.0707 C1181.5326,249.1377 1176.3576,266.7897 1172.5576,284.7687 C1170.7326,293.4057 1169.2916,302.3257 1169.8266,311.3307 C1169.8916,312.4427 1170.2886,313.2097 1171.0436,313.9007 L1172.1516,314.1737 C1173.4336,316.4697 1171.1596,316.8437 1170.1406,317.8967" id="Fill-178" fill="#FEDCB8"></path>
                <path d="M1257.957,204.0364 C1251.257,200.7284 1244.557,197.4214 1237.857,194.1134 C1247.064,191.2654 1256.337,188.6134 1265.462,185.5234 C1278.184,181.2164 1290.789,176.5714 1303.452,172.0924 C1308.676,170.2454 1313.919,168.4554 1319.66,166.4644 L1319.66,179.0294 C1300.527,185.9744 1281.604,192.8624 1262.662,199.6954 C1260.422,200.5034 1256.663,199.4704 1257.957,204.0364" id="Fill-180" fill="#DCDDDE"></path>
                <path d="M1123.4971,279.738 C1117.7871,273.032 1112.8911,267.283 1107.6981,261.185 C1109.0631,259.908 1110.1931,258.806 1111.3711,257.757 C1117.0651,252.678 1117.1271,252.63 1122.4531,258.257 C1124.6441,260.573 1126.2071,260.489 1128.6061,258.288 C1134.0401,253.301 1140.0271,248.911 1145.3801,243.845 C1148.4481,240.942 1150.5061,240.932 1152.8641,244.268 C1154.3631,246.387 1155.9831,248.422 1157.7391,250.746 C1146.1291,260.576 1134.9041,270.079 1123.4971,279.738" id="Fill-182" fill="#85C743"></path>
                <path d="M1151.9141,301.8875 C1150.5661,303.8605 1149.2191,305.8325 1147.8701,307.8045 C1144.5701,312.5225 1141.2711,317.2405 1137.9731,321.9585 C1136.1601,323.7065 1136.9161,327.4205 1133.4321,327.8875 C1132.8201,327.8945 1132.1761,327.7765 1131.6021,327.9265 C1123.5801,330.0285 1123.5821,330.0375 1124.1051,338.0885 C1123.5391,338.4435 1122.9711,338.7995 1122.4041,339.1545 C1119.2421,338.9515 1117.1431,337.3165 1115.9951,334.3995 C1117.4321,331.6055 1118.8671,328.8125 1120.3031,326.0185 C1121.9181,319.2025 1127.1771,314.7245 1130.9901,309.3185 C1132.5781,307.4645 1134.0831,305.5235 1136.1491,304.1465 L1136.1411,304.1515 C1136.6431,303.3025 1137.3261,302.6355 1138.1701,302.1285 C1141.0041,298.6155 1144.1301,295.2925 1146.5861,291.5325 C1148.8101,288.1265 1150.6891,287.2195 1153.6571,290.5105 C1154.5981,291.5535 1155.9231,292.2495 1157.5171,293.4355 C1155.6151,296.3045 1153.7651,299.0955 1151.9141,301.8875" id="Fill-184" fill="#F8A129"></path>
                <path d="M1284.2676,254.0422 C1283.5396,247.6882 1282.8116,241.3352 1282.0836,234.9822 C1293.7436,231.3832 1305.4026,227.7822 1317.8926,223.9262 C1317.8926,227.6262 1318.4466,230.7212 1317.6946,233.4582 C1317.2066,235.2342 1315.0706,237.1492 1313.2306,237.8592 C1306.0686,240.6262 1298.7756,243.0852 1291.4366,245.3542 C1287.7986,246.4782 1285.5796,248.2092 1285.7626,252.3012 C1285.7876,252.8582 1284.7906,253.4602 1284.2676,254.0422" id="Fill-186" fill="#DCDDDE"></path>
                <path d="M1059.5225,300.0891 C1059.0105,295.4241 1058.5005,290.7601 1057.9895,286.0961 C1061.7995,283.2931 1065.4365,280.2051 1069.4635,277.7591 C1074.1445,274.9171 1079.1685,272.6371 1084.0425,270.1141 C1081.5785,272.1681 1079.0965,274.2001 1076.6535,276.2771 C1068.9805,282.7991 1064.0275,291.2841 1059.5225,300.0891" id="Fill-188" fill="#CFD0D3"></path>
                <path d="M1132.0781,310.0452 C1128.1531,315.3692 1124.2271,320.6942 1120.3031,326.0182 C1116.6601,325.7092 1112.5881,326.8802 1109.9761,323.0192 C1109.7101,322.3572 1109.7451,321.7232 1110.2061,321.1602 C1114.4741,315.9482 1119.5411,311.7122 1125.7391,309.0132 C1127.9021,308.0722 1130.2941,307.7092 1132.0781,310.0452" id="Fill-190" fill="#FBC89B"></path>
                <path d="M1132.0781,310.0452 C1124.5401,309.3632 1120.0641,315.0892 1114.5441,318.5542 C1112.7811,319.6602 1111.4861,321.5092 1109.9761,323.0192 C1109.6421,322.0512 1108.7311,320.5522 1109.0601,320.1942 C1115.5571,313.1302 1122.0921,306.0242 1132.1731,304.1352 C1133.4521,303.8952 1134.8211,304.1302 1136.1491,304.1462 C1134.7931,306.1122 1133.4351,308.0792 1132.0781,310.0452" id="Fill-192" fill="#FEDCB8"></path>
                <path d="M1115.9951,334.3997 C1118.1351,335.9797 1120.2741,337.5587 1122.4091,339.1467 C1119.5461,341.0677 1116.6881,342.9807 1113.8301,344.8947 C1113.4961,344.5987 1113.1611,344.3027 1112.8261,344.0067 C1113.8831,340.8047 1114.9391,337.6027 1115.9951,334.3997" id="Fill-194" fill="#193D4B"></path>
                <path d="M1053.9746,344.3445 C1055.7856,344.2675 1057.5956,344.1895 1059.4066,344.1135 C1059.6366,344.7355 1059.8656,345.3545 1060.0936,345.9735 C1057.7906,346.4225 1055.2656,347.7015 1053.9746,344.3445" id="Fill-196" fill="#F0BA93"></path>
                <path d="M1122.1533,191.9509 C1122.7683,192.6339 1123.3843,193.3179 1124.0003,194.0009 C1123.3843,193.3179 1122.7683,192.6339 1122.1533,191.9509" id="Fill-198" fill="#DCDDDE"></path>
                <path d="M1138.1699,302.1287 C1137.4929,302.8027 1136.8169,303.4767 1136.1409,304.1507 C1136.8169,303.4777 1137.4929,302.8027 1138.1699,302.1287" id="Fill-200" fill="#FEDCB8"></path>
                <path d="M1115.7178,634.1584 C1117.1508,634.7224 1118.5838,635.2864 1120.0168,635.8484 C1118.5838,635.2854 1117.1508,634.7214 1115.7178,634.1584" id="Fill-202" fill="#D5E8F8"></path>
                <path d="M1050.165,290.1013 C1048.416,293.3753 1046.843,296.7583 1044.886,299.9033 C1038.158,310.7123 1031.282,321.4293 1024.518,332.2143 C1024.024,333.0003 1023.965,334.0583 1023.68,335.0773 C1025.904,336.1383 1027.939,337.1083 1029.975,338.0793 C1028.43,338.1053 1026.717,338.5803 1025.373,338.0743 C1021.149,336.4803 1017.064,334.5183 1012.077,332.3263 C1015.508,328.4353 1019.075,324.4233 1022.605,320.3773 C1031.092,310.6523 1039.549,300.9023 1048.064,291.2043 C1048.552,290.6493 1049.455,290.4603 1050.165,290.1013" id="Fill-204" fill="#F0BA93"></path>
                <path d="M1045.9854,342.2483 C1047.6544,342.8363 1049.3234,343.4253 1050.9924,344.0133 C1049.3234,343.4253 1047.6544,342.8363 1045.9854,342.2483" id="Fill-206" fill="#F0BA93"></path>
                <path d="M1038.9854,340.2571 C1040.6524,340.8511 1042.3184,341.4441 1043.9854,342.0381 C1042.3184,341.4441 1040.6524,340.8511 1038.9854,340.2571" id="Fill-208" fill="#F0BA93"></path>
                <path d="M1031.9814,338.3005 C1033.3284,338.8475 1034.6744,339.3935 1036.0214,339.9405 C1034.6744,339.3935 1033.3284,338.8475 1031.9814,338.3005" id="Fill-210" fill="#F0BA93"></path>
                <path d="M1055.9814,285.9558 C1054.6504,286.6288 1053.3184,287.3018 1051.9874,287.9758 C1053.3184,287.3018 1054.6504,286.6288 1055.9814,285.9558" id="Fill-212" fill="#F0BA93"></path>
                <path d="M1051.9766,287.9871 C1051.3546,288.7141 1050.7326,289.4411 1050.1116,290.1691 C1050.7326,289.4421 1051.3546,288.7151 1051.9766,287.9871" id="Fill-214" fill="#F0BA93"></path>
                <path d="M953.6835,569.9734 C953.8145,572.3874 953.9755,573.9894 953.9765,575.5914 C953.9895,633.5654 953.9475,691.5414 954.0525,749.5154 C954.0625,754.8824 951.8125,757.8484 947.2065,760.4374 C930.5535,769.8054 914.1855,779.6784 897.6345,789.2294 C886.6365,795.5764 875.4465,801.5894 864.4575,807.9524 C850.2065,816.2064 836.0785,824.6694 821.8745,833.0054 C821.0935,833.4634 820.1125,833.5784 818.5285,834.0684 C818.3265,831.8944 818.0265,830.1734 818.0255,828.4514 C818.0005,770.1434 818.0225,711.8354 817.9645,653.5264 C817.9605,649.8814 818.8735,647.6264 822.4515,645.6404 C840.1975,635.7924 857.7045,625.5144 875.2875,615.3694 C887.8585,608.1154 900.4405,600.8794 912.9675,593.5514 C924.7845,586.6394 936.5305,579.6064 948.3255,572.6574 C949.7405,571.8234 951.2665,571.1764 953.6835,569.9734" id="Fill-216" fill="#F4F4F4"></path>
                <path d="M1148.1748,1089.0276 C1148.2148,1089.2716 1148.2848,1089.5156 1148.2748,1089.7576 C1148.2718,1089.8356 1148.0568,1089.9046 1147.9388,1089.9766 C1147.8878,1089.6286 1147.9668,1089.3116 1148.1748,1089.0276" id="Fill-218" fill="#173C4A"></path>
                <path d="M829.0488,619.6985 C826.6658,611.1565 827.5298,608.6435 834.1998,604.8215 C860.6978,589.6365 887.2048,574.4665 913.7318,559.3285 C917.7408,557.0405 919.5198,558.0465 919.5028,562.6785 C919.4908,566.0805 918.5198,568.7325 914.9758,570.7435 C886.9798,586.6365 859.1418,602.8095 831.2438,618.8795 C830.5828,619.2595 829.7988,619.4245 829.0488,619.6985" id="Fill-220" fill="#FDFDFC"></path>
                <path d="M942.5634,546.9158 C941.0514,550.4648 939.5404,554.0148 937.8084,558.0798 C935.2044,556.1328 933.3864,554.7738 930.3464,552.5018 C934.2564,549.9878 937.5794,547.8518 940.9014,545.7148 C941.4554,546.1158 942.0094,546.5158 942.5634,546.9158" id="Fill-222" fill="#E6EDF7"></path>
                <path d="M1167.2299,313.5061 C1168.1899,303.7331 1168.3949,294.1521 1170.2349,284.8971 C1172.2879,274.5701 1175.3079,264.3521 1178.8769,254.4361 C1181.8569,246.1561 1186.2059,238.3661 1190.0349,230.4011 C1190.5039,229.4251 1191.5109,228.7091 1192.2699,227.8721 C1200.8509,229.8081 1205.6839,235.6091 1206.0719,244.0411 C1206.2889,248.7711 1206.9039,253.4841 1207.3979,258.8221 C1212.4219,257.7141 1214.25924,253.32715 1220.7579,255.8761 C1227.25656,258.42505 1221.6949,271.9911 1216.8629,275.5851 C1213.5129,278.0781 1213.7389,279.9101 1215.5839,282.9601 C1216.8219,285.0081 1217.3049,287.5131 1218.1269,289.8131 C1210.3199,294.4921 1202.7509,299.6481 1194.6329,303.7051 C1187.7729,307.1321 1180.2659,309.2541 1173.0799,312.0461 C1172.2809,312.3561 1171.7169,313.2681 1171.0439,313.9011 C1169.9429,313.7871 1168.8419,313.6731 1167.2299,313.5061 Z" id="Fill-224" fill="#FBC89B"></path>
                <path d="M1170.1406,317.8967 C1170.8106,316.6547 1171.4806,315.4137 1172.1506,314.1727 C1172.4836,314.1577 1172.8166,314.1317 1173.1486,314.1277 C1188.3796,313.9607 1186.0706,312.0577 1185.8456,326.7497 C1184.1356,326.4557 1182.1166,326.6457 1180.7796,325.7807 C1177.0806,323.3887 1173.6666,320.5557 1170.1406,317.8967" id="Fill-226" fill="#FDFDFC"></path>
                <path d="M1133.4316,327.887 C1134.9456,325.911 1136.4586,323.935 1137.9726,321.959 C1137.9306,323.432 1138.2826,325.068 1137.7526,326.338 C1137.0306,328.074 1136.1156,330.929 1133.4316,327.887" id="Fill-228" fill="#EDEEEF"></path>
                <path d="M832.7578,739.7209 C830.5388,728.9529 831.2278,727.9829 839.8928,723.0059 C854.8828,714.3979 869.6388,705.3819 884.5868,696.6999 C895.4198,690.4069 906.4048,684.3739 917.3238,678.2299 C923.6118,674.6919 929.9028,671.1609 936.1718,667.6389 C939.7978,673.8359 938.4488,678.5939 933.2078,681.5959 C917.3568,690.6759 901.6208,699.9569 885.7878,709.0699 C874.6588,715.4739 863.4148,721.6769 852.2808,728.0729 C845.8698,731.7559 839.5758,735.6439 832.7578,739.7209" id="Fill-230" fill="#D5D6D7"></path>
                <path d="M937.3564,722.2629 C939.1334,732.8399 938.2524,734.4339 930.0204,739.0129 C914.8994,747.4239 899.8404,755.9499 884.8144,764.5299 C872.2234,771.7189 859.7014,779.0279 847.1794,786.3369 C842.6834,788.9619 838.2774,791.7439 833.8134,794.4639 C830.1964,787.9079 831.5434,783.4209 836.8434,780.3609 C851.3904,771.9629 865.7824,763.2979 880.3204,754.8849 C891.3014,748.5299 902.4364,742.4379 913.4604,736.1539 C921.2944,731.6869 929.0554,727.0939 937.3564,722.2629" id="Fill-232" fill="#D5D6D7"></path>
                <path d="M937.3163,612.4885 C939.1113,621.6885 938.9163,622.7445 931.8613,627.1335 C923.7383,632.1845 915.3373,636.7875 907.0833,641.6285 C892.6023,650.1195 878.1953,658.7375 863.6543,667.1235 C853.6953,672.8645 843.5603,678.3015 833.5073,683.8725 C830.1423,677.9395 831.3893,672.9105 836.9063,669.7745 C852.3843,660.9765 867.9133,652.2665 883.3393,643.3785 C899.6103,634.0035 915.7793,624.4505 932.0133,615.0105 C933.5663,614.1085 935.2633,613.4565 937.3163,612.4885" id="Fill-234" fill="#D5D6D7"></path>
            </g>
        </g>
    </g>
</svg>