<?xml version="1.0" encoding="utf-8"?>
<!-- Generator: Adobe Illustrator 16.0.0, SVG Export Plug-In . SVG Version: 6.00 Build 0)  -->
<!DOCTYPE svg PUBLIC "-//W3C//DTD SVG 1.1//EN" "http://www.w3.org/Graphics/SVG/1.1/DTD/svg11.dtd">
<svg version="1.1" id="Layer_1" xmlns="http://www.w3.org/2000/svg" xmlns:xlink="http://www.w3.org/1999/xlink" x="0px" y="0px"
	 width="128px" height="128px" viewBox="0 0 128 128" enable-background="new 0 0 128 128" xml:space="preserve">
<g>
	<g>
		<path fill="#FFAB00" d="M124.1,64.9c0,32.1-26,58.1-58.1,58.1c-32.1,0-58.1-26-58.1-58.1s26-58.1,58.1-58.1
			C98.1,6.8,124.1,32.8,124.1,64.9z"/>
		<path fill="#37474F" d="M65.9,124.6c-32.9,0-59.6-26.8-59.6-59.6c0-32.9,26.8-59.6,59.6-59.6s59.6,26.7,59.6,59.6
			C125.6,97.8,98.8,124.6,65.9,124.6z M65.9,8.3C34.7,8.3,9.3,33.7,9.3,64.9c0,31.2,25.4,56.6,56.6,56.6s56.6-25.4,56.6-56.6
			C122.6,33.7,97.2,8.3,65.9,8.3z"/>
	</g>
	<g>
		<g>
			<rect x="32.5" y="78.5" fill="#FFFFFF" width="8" height="11"/>
			<path fill="#37474F" d="M40.5,91h-8c-0.8,0-1.5-0.7-1.5-1.5v-11c0-0.8,0.7-1.5,1.5-1.5h8c0.8,0,1.5,0.7,1.5,1.5v11
				C42,90.3,41.3,91,40.5,91z M34,88h5v-8h-5V88z"/>
		</g>
		<g>
			<rect x="47.5" y="70.5" fill="#FFFFFF" width="7" height="19"/>
			<path fill="#37474F" d="M54.5,91h-7c-0.8,0-1.5-0.7-1.5-1.5v-19c0-0.8,0.7-1.5,1.5-1.5h7c0.8,0,1.5,0.7,1.5,1.5v19
				C56,90.3,55.3,91,54.5,91z M49,88h4V72h-4V88z"/>
		</g>
		<g>
			<rect x="61.5" y="58.5" fill="#FFFFFF" width="8" height="31"/>
			<path fill="#37474F" d="M69.5,91h-8c-0.8,0-1.5-0.7-1.5-1.5v-31c0-0.8,0.7-1.5,1.5-1.5h8c0.8,0,1.5,0.7,1.5,1.5v31
				C71,90.3,70.3,91,69.5,91z M63,88h5V60h-5V88z"/>
		</g>
		<g>
			<rect x="76.5" y="47.5" fill="#FFFFFF" width="8" height="42"/>
			<path fill="#37474F" d="M84.5,91h-8c-0.8,0-1.5-0.7-1.5-1.5v-42c0-0.8,0.7-1.5,1.5-1.5h8c0.8,0,1.5,0.7,1.5,1.5v42
				C86,90.3,85.3,91,84.5,91z M78,88h5V49h-5V88z"/>
		</g>
		<g>
			<rect x="91.5" y="40.5" fill="#FFFFFF" width="8" height="49"/>
			<path fill="#37474F" d="M99.5,91h-8c-0.8,0-1.5-0.7-1.5-1.5v-49c0-0.8,0.7-1.5,1.5-1.5h8c0.8,0,1.5,0.7,1.5,1.5v49
				C101,90.3,100.3,91,99.5,91z M93,88h5V42h-5V88z"/>
		</g>
	</g>
	<g>
		<line fill="#FFFFFF" x1="26" y1="89.5" x2="107" y2="89.5"/>
		<path fill="#37474F" d="M107,91H26c-0.8,0-1.5-0.7-1.5-1.5S25.2,88,26,88h81c0.8,0,1.5,0.7,1.5,1.5S107.8,91,107,91z"/>
	</g>
	<g>
		<polyline fill="#FFFFFF" points="118,22.6 58,46.8 54.1,60 3.9,78.6 		"/>
		<path fill="#37474F" d="M3.9,80.1c-0.6,0-1.2-0.4-1.4-1c-0.3-0.8,0.1-1.6,0.9-1.9l49.4-18.3l3.6-12.5c0.1-0.4,0.5-0.8,0.9-1
			l60.1-24.2c0.8-0.3,1.6,0.1,2,0.8c0.3,0.8-0.1,1.6-0.8,2l-59.4,24l-3.6,12.5c-0.1,0.5-0.5,0.8-0.9,1L4.5,80
			C4.3,80.1,4.1,80.1,3.9,80.1z"/>
	</g>
	<g>
		<path fill="#37474F" d="M115.6,33.6c-0.2,0-0.4,0-0.5-0.1c-0.8-0.3-1.2-1.2-0.9-1.9l3.6-9.3l-8.9-2.9c-0.8-0.3-1.2-1.1-1-1.9
			c0.3-0.8,1.1-1.2,1.9-1l10.4,3.4c0.4,0.1,0.7,0.4,0.9,0.8c0.2,0.4,0.2,0.8,0,1.2L117,32.6C116.8,33.2,116.2,33.6,115.6,33.6z"/>
	</g>
	<g>
		<g>
			<path fill="#37474F" d="M31.6,43.2c0,0.7-0.6,1.4-1.4,1.4c-0.8,0-1.4-0.6-1.4-1.4c0-0.8,0.6-1.4,1.4-1.4
				C31,41.9,31.6,42.5,31.6,43.2z"/>
			<path fill="#37474F" d="M30.3,45.1c-1,0-1.9-0.8-1.9-1.9c0-1,0.8-1.9,1.9-1.9c1,0,1.9,0.8,1.9,1.9C32.1,44.3,31.3,45.1,30.3,45.1
				z M30.3,42.4c-0.5,0-0.9,0.4-0.9,0.9c0,0.5,0.4,0.9,0.9,0.9c0.5,0,0.9-0.4,0.9-0.9C31.1,42.7,30.7,42.4,30.3,42.4z"/>
		</g>
		<g>
			<path fill="#37474F" d="M41.1,43.2c0,0.7-0.6,1.4-1.4,1.4c-0.8,0-1.4-0.6-1.4-1.4c0-0.8,0.6-1.4,1.4-1.4
				C40.5,41.9,41.1,42.5,41.1,43.2z"/>
			<path fill="#37474F" d="M39.8,45.1c-1,0-1.9-0.9-1.9-1.9c0-1,0.8-1.9,1.9-1.9c1,0,1.9,0.9,1.9,1.9C41.6,44.2,40.8,45.1,39.8,45.1
				z M39.8,42.4c-0.5,0-0.9,0.4-0.9,0.9c0,0.5,0.4,0.9,0.9,0.9c0.5,0,0.9-0.4,0.9-0.9C40.6,42.8,40.2,42.4,39.8,42.4z"/>
		</g>
		<g>
			<path fill="#37474F" d="M50.7,43.2c0,0.7-0.6,1.4-1.3,1.4c-0.8,0-1.4-0.6-1.4-1.4c0-0.8,0.6-1.4,1.4-1.4
				C50,41.9,50.7,42.5,50.7,43.2z"/>
			<path fill="#37474F" d="M49.3,45.1c-1,0-1.9-0.8-1.9-1.9c0-1,0.8-1.9,1.9-1.9c1,0,1.8,0.8,1.8,1.9C51.2,44.2,50.3,45.1,49.3,45.1
				z M49.3,42.4c-0.5,0-0.9,0.4-0.9,0.9c0,0.5,0.4,0.9,0.9,0.9c0.5,0,0.8-0.4,0.8-0.9C50.2,42.7,49.8,42.4,49.3,42.4z"/>
		</g>
	</g>
</g>
</svg>
