<?xml version="1.0" encoding="utf-8"?>
<!-- Generator: Adobe Illustrator 16.0.0, SVG Export Plug-In . SVG Version: 6.00 Build 0)  -->
<!DOCTYPE svg PUBLIC "-//W3C//DTD SVG 1.1//EN" "http://www.w3.org/Graphics/SVG/1.1/DTD/svg11.dtd">
<svg version="1.1" id="Layer_1" xmlns="http://www.w3.org/2000/svg" xmlns:xlink="http://www.w3.org/1999/xlink" x="0px" y="0px"
	 width="128px" height="128px" viewBox="0 0 128 128" enable-background="new 0 0 128 128" xml:space="preserve">
<g>
	<g>
		<circle fill="#B0BEC5" cx="64.5" cy="56.9" r="53.2"/>
		<path fill="#37474F" d="M64.5,111.7c-30.2,0-54.7-24.5-54.7-54.7c0-30.2,24.5-54.7,54.7-54.7c30.2,0,54.7,24.5,54.7,54.7
			C119.2,87.1,94.7,111.7,64.5,111.7z M64.5,5.2C36,5.2,12.8,28.4,12.8,56.9c0,28.5,23.2,51.7,51.7,51.7c28.5,0,51.7-23.2,51.7-51.7
			C116.2,28.4,93,5.2,64.5,5.2z"/>
	</g>
	<g>
		<rect x="11.5" y="58.5" fill="#FFAB00" width="21" height="66"/>
		<path fill="#37474F" d="M32.5,126h-21c-0.8,0-1.5-0.7-1.5-1.5v-66c0-0.8,0.7-1.5,1.5-1.5h21c0.8,0,1.5,0.7,1.5,1.5v66
			C34,125.3,33.3,126,32.5,126z M13,123h18V60H13V123z"/>
	</g>
	<g>
		<path fill="#37474F" d="M115.6,63.7c0,28.9-23.4,52.4-52.4,52.4c-28.9,0-52.4-23.5-52.4-52.4c0-28.9,23.5-52.4,52.4-52.4
			C92.1,11.3,115.6,34.7,115.6,63.7z"/>
		<path fill="#37474F" d="M63.2,117.6c-29.7,0-53.9-24.2-53.9-53.9c0-29.7,24.2-53.9,53.9-53.9c29.7,0,53.9,24.2,53.9,53.9
			C117.1,93.4,92.9,117.6,63.2,117.6z M63.2,12.8c-28.1,0-50.9,22.8-50.9,50.9c0,28.1,22.8,50.9,50.9,50.9
			c28.1,0,50.9-22.8,50.9-50.9C114.1,35.6,91.2,12.8,63.2,12.8z"/>
	</g>
	<g>
		<g>
			<g>
				<path fill="#FFAB00" d="M72.8,30.4c0,5.3-4.3,9.7-9.7,9.7c-5.3,0-9.7-4.3-9.7-9.7c0-5.3,4.3-9.7,9.7-9.7
					C68.5,20.7,72.8,25,72.8,30.4z"/>
				<path fill="#37474F" d="M63.2,41.5c-6.2,0-11.2-5-11.2-11.2c0-6.2,5-11.2,11.2-11.2s11.2,5,11.2,11.2
					C74.3,36.5,69.3,41.5,63.2,41.5z M63.2,22.2c-4.5,0-8.2,3.7-8.2,8.2c0,4.5,3.7,8.2,8.2,8.2s8.2-3.7,8.2-8.2
					C71.3,25.8,67.7,22.2,63.2,22.2z"/>
			</g>
			<g>
				<path fill="#FFAB00" d="M72.8,97c0,5.4-4.3,9.7-9.7,9.7c-5.3,0-9.7-4.3-9.7-9.7c0-5.3,4.3-9.7,9.7-9.7
					C68.5,87.3,72.8,91.6,72.8,97z"/>
				<path fill="#37474F" d="M63.2,108.2c-6.2,0-11.2-5-11.2-11.2c0-6.2,5-11.2,11.2-11.2s11.2,5,11.2,11.2
					C74.3,103.1,69.3,108.2,63.2,108.2z M63.2,88.8c-4.5,0-8.2,3.7-8.2,8.2c0,4.5,3.7,8.2,8.2,8.2s8.2-3.7,8.2-8.2
					C71.3,92.5,67.7,88.8,63.2,88.8z"/>
			</g>
		</g>
		<g>
			<g>
				<path fill="#FFAB00" d="M96.5,73.3c-5.3,0-9.7-4.3-9.7-9.7c0-5.3,4.3-9.7,9.7-9.7c5.4,0,9.7,4.3,9.7,9.7
					C106.2,69,101.8,73.3,96.5,73.3z"/>
				<path fill="#37474F" d="M96.5,74.8c-6.2,0-11.2-5-11.2-11.2c0-6.2,5-11.2,11.2-11.2s11.2,5,11.2,11.2
					C107.7,69.8,102.7,74.8,96.5,74.8z M96.5,55.5c-4.5,0-8.2,3.7-8.2,8.2c0,4.5,3.7,8.2,8.2,8.2s8.2-3.7,8.2-8.2
					C104.7,59.2,101,55.5,96.5,55.5z"/>
			</g>
			<g>
				<path fill="#FFAB00" d="M29.9,73.3c-5.4,0-9.7-4.3-9.7-9.7c0-5.3,4.3-9.7,9.7-9.7c5.3,0,9.7,4.3,9.7,9.7
					C39.5,69,35.2,73.3,29.9,73.3z"/>
				<path fill="#37474F" d="M29.9,74.8c-6.2,0-11.2-5-11.2-11.2c0-6.2,5-11.2,11.2-11.2c6.2,0,11.2,5,11.2,11.2
					C41,69.8,36,74.8,29.9,74.8z M29.9,55.5c-4.5,0-8.2,3.7-8.2,8.2c0,4.5,3.7,8.2,8.2,8.2c4.5,0,8.2-3.7,8.2-8.2
					C38,59.2,34.4,55.5,29.9,55.5z"/>
			</g>
		</g>
	</g>
	<g>
		<g>
			<path fill="#FFFFFF" d="M54.3,63.1c0,0.8-0.7,1.5-1.5,1.4c-0.8,0-1.5-0.7-1.4-1.5c0-0.8,0.7-1.5,1.5-1.5
				C53.7,61.6,54.3,62.3,54.3,63.1z"/>
			<path fill="#FFFFFF" d="M52.8,65.1L52.8,65.1c-0.6,0-1.1-0.2-1.4-0.6C51,64,50.8,63.5,50.9,63c0-1.1,0.9-1.9,2-1.9
				c0.6,0,1,0.2,1.4,0.6c0.4,0.4,0.6,0.9,0.5,1.4C54.8,64.2,53.9,65.1,52.8,65.1z M52.9,62.1c-0.5,0-1,0.4-1,1
				c0,0.3,0.1,0.5,0.3,0.7c0.2,0.2,0.4,0.3,0.7,0.3l0,0.5v-0.5c0.5,0,1-0.4,1-0.9c0-0.3-0.1-0.5-0.3-0.7
				C53.4,62.2,53.1,62.1,52.9,62.1L52.9,62.1z"/>
		</g>
		<g>
			<path fill="#FFFFFF" d="M64.7,63.4c0,0.8-0.7,1.5-1.5,1.4c-0.8,0-1.5-0.7-1.5-1.5c0-0.8,0.7-1.5,1.5-1.5
				C64,61.9,64.7,62.6,64.7,63.4z"/>
			<path fill="#FFFFFF" d="M63.2,65.3L63.2,65.3c-0.6,0-1.1-0.2-1.5-0.6c-0.4-0.4-0.6-0.9-0.5-1.4c0-1.1,0.9-1.9,2-1.9
				c1.1,0,2,1,2,2C65.1,64.4,64.2,65.3,63.2,65.3z M63.2,62.3c-0.6,0-1,0.4-1,1c0,0.2,0.1,0.5,0.3,0.7c0.2,0.2,0.4,0.3,0.7,0.3
				l0,0.5v-0.5c0.5,0,1-0.4,1-0.9C64.2,62.8,63.8,62.4,63.2,62.3C63.2,62.3,63.2,62.3,63.2,62.3z"/>
		</g>
		<g>
			<path fill="#FFFFFF" d="M75,63.6c0,0.8-0.7,1.5-1.5,1.4c-0.8,0-1.5-0.7-1.4-1.5c0-0.8,0.7-1.5,1.5-1.4C74.4,62.1,75,62.8,75,63.6
				z"/>
			<path fill="#FFFFFF" d="M73.5,65.6L73.5,65.6c-1.2,0-2-0.9-2-2c0-1.1,0.9-1.9,2-1.9c0.6,0,1.1,0.2,1.4,0.6
				c0.4,0.4,0.6,0.9,0.5,1.4C75.5,64.7,74.6,65.6,73.5,65.6z M73.5,62.6c-0.6,0-1,0.4-1,0.9c0,0.5,0.4,1,1,1l0,0.5v-0.5
				c0.5,0,0.9-0.4,1-1c0-0.3-0.1-0.5-0.3-0.7C74,62.7,73.8,62.6,73.5,62.6C73.5,62.6,73.5,62.6,73.5,62.6z"/>
		</g>
	</g>
	<g>
		<g>
			<path fill="#FFFFFF" d="M63,72.2c0.8,0,1.5,0.7,1.5,1.5c0,0.8-0.7,1.5-1.5,1.4c-0.8,0-1.5-0.7-1.4-1.5
				C61.5,72.8,62.2,72.2,63,72.2z"/>
			<path fill="#FFFFFF" d="M63,75.6L63,75.6c-0.6,0-1.1-0.2-1.5-0.6c-0.4-0.4-0.5-0.9-0.5-1.4c0-1.1,0.9-1.9,1.9-1.9
				c0.6,0,1.1,0.2,1.4,0.6c0.4,0.4,0.6,0.9,0.6,1.4C64.9,74.8,64,75.6,63,75.6z M63,72.7c-0.6,0-1,0.4-1,0.9c0,0.3,0.1,0.5,0.3,0.7
				c0.2,0.2,0.4,0.3,0.7,0.3l0.1,0.5v-0.5c0.5,0,0.9-0.4,1-1c0-0.3-0.1-0.5-0.3-0.7C63.4,72.8,63.2,72.7,63,72.7
				C63,72.7,63,72.7,63,72.7z"/>
		</g>
		<g>
			<path fill="#FFFFFF" d="M63.2,61.8c0.8,0,1.4,0.7,1.4,1.5c0,0.8-0.7,1.5-1.5,1.4c-0.8,0-1.5-0.7-1.5-1.5
				C61.7,62.5,62.4,61.8,63.2,61.8z"/>
			<path fill="#FFFFFF" d="M63.2,65.3L63.2,65.3c-0.6,0-1.1-0.2-1.5-0.6c-0.4-0.4-0.6-0.9-0.5-1.4c0-1.1,0.9-1.9,2-1.9
				c1.1,0.1,2,1,2,2C65.1,64.4,64.3,65.3,63.2,65.3z M63.2,62.3c-0.5,0-1,0.4-1,0.9c0,0.3,0.1,0.5,0.3,0.7c0.2,0.2,0.4,0.3,0.7,0.3
				l0.1,0.5v-0.5c0.5,0,0.9-0.4,0.9-1C64.2,62.8,63.7,62.4,63.2,62.3z"/>
		</g>
		<g>
			<path fill="#FFFFFF" d="M63.5,51.5c0.8,0,1.5,0.7,1.4,1.5c0,0.8-0.7,1.5-1.5,1.4c-0.8,0-1.5-0.7-1.4-1.5
				C62,52.1,62.7,51.5,63.5,51.5z"/>
			<path fill="#FFFFFF" d="M63.5,55L63.5,55c-0.1,0-0.1,0-0.1,0c-0.5,0-1-0.2-1.4-0.6c-0.4-0.4-0.6-0.9-0.6-1.4c0-1.1,0.9-1.9,2-1.9
				c1.1,0,2,1,2,2C65.4,54.1,64.5,55,63.5,55z M63.5,52c-0.5,0-1,0.4-1,0.9c0,0.3,0.1,0.5,0.3,0.7c0.2,0.2,0.4,0.3,0.7,0.3l0.1,0
				c0.5,0,0.9-0.4,0.9-0.9C64.4,52.5,64,52,63.5,52z"/>
		</g>
	</g>
	<g>
		<rect x="11.5" y="83.5" fill="#37474F" width="20" height="7"/>
		<path fill="#37474F" d="M31.5,92h-20c-0.8,0-1.5-0.7-1.5-1.5v-7c0-0.8,0.7-1.5,1.5-1.5h20c0.8,0,1.5,0.7,1.5,1.5v7
			C33,91.3,32.3,92,31.5,92z M13,89h17v-4H13V89z"/>
	</g>
	<g>
		<rect x="11.5" y="100.5" fill="#37474F" width="20" height="6"/>
		<path fill="#37474F" d="M31.5,108h-20c-0.8,0-1.5-0.7-1.5-1.5v-6c0-0.8,0.7-1.5,1.5-1.5h20c0.8,0,1.5,0.7,1.5,1.5v6
			C33,107.3,32.3,108,31.5,108z M13,105h17v-3H13V105z"/>
	</g>
	<g>
		<rect x="11.5" y="116.5" fill="#37474F" width="20" height="7"/>
		<path fill="#37474F" d="M31.5,125h-20c-0.8,0-1.5-0.7-1.5-1.5v-7c0-0.8,0.7-1.5,1.5-1.5h20c0.8,0,1.5,0.7,1.5,1.5v7
			C33,124.3,32.3,125,31.5,125z M13,122h17v-4H13V122z"/>
	</g>
	<g>
		<g>
			<g>
				<path fill="#FFAB00" d="M93.6,47c-3.8,3.8-9.9,3.8-13.7,0c-3.8-3.8-3.8-9.9,0-13.7c3.8-3.8,9.9-3.8,13.7,0
					C97.4,37,97.4,43.2,93.6,47z"/>
				<path fill="#37474F" d="M86.7,51.3c-3,0-5.8-1.2-7.9-3.3c-2.1-2.1-3.3-4.9-3.3-7.9c0-3,1.2-5.8,3.3-7.9c2.1-2.1,4.9-3.3,7.9-3.3
					c3,0,5.8,1.2,7.9,3.3c4.4,4.4,4.4,11.4,0,15.8C92.5,50.1,89.7,51.3,86.7,51.3z M86.7,31.9c-2.2,0-4.2,0.9-5.8,2.4
					c-1.5,1.5-2.4,3.6-2.4,5.8c0,2.2,0.9,4.2,2.4,5.8c1.5,1.5,3.6,2.4,5.8,2.4c2.2,0,4.2-0.8,5.8-2.4c3.2-3.2,3.2-8.4,0-11.6
					C91,32.8,88.9,31.9,86.7,31.9z"/>
			</g>
			<g>
				<path fill="#FFAB00" d="M46.5,94.1c-3.8,3.8-9.9,3.8-13.7,0c-3.8-3.8-3.8-9.9,0-13.7c3.8-3.8,9.9-3.8,13.7,0
					C50.2,84.2,50.2,90.3,46.5,94.1z"/>
				<path fill="#37474F" d="M39.6,98.4c-3,0-5.8-1.2-7.9-3.3c-4.3-4.4-4.3-11.5,0-15.8c2.1-2.1,4.9-3.3,7.9-3.3c3,0,5.8,1.2,7.9,3.3
					c4.4,4.4,4.4,11.5,0,15.8C45.4,97.2,42.6,98.4,39.6,98.4z M39.6,79.1c-2.2,0-4.2,0.8-5.8,2.4c-3.2,3.2-3.2,8.4,0,11.6
					c1.5,1.5,3.6,2.4,5.8,2.4c2.2,0,4.2-0.8,5.8-2.4c3.2-3.2,3.2-8.4,0-11.6C43.9,79.9,41.8,79.1,39.6,79.1z"/>
			</g>
		</g>
		<g>
			<g>
				<path fill="#FFAB00" d="M79.9,94.1c-3.8-3.8-3.8-9.9,0-13.7c3.8-3.8,9.9-3.8,13.7,0c3.8,3.8,3.8,9.9,0,13.7
					C89.8,97.8,83.7,97.8,79.9,94.1z"/>
				<path fill="#37474F" d="M86.7,98.4c-3,0-5.8-1.2-7.9-3.3c-4.4-4.4-4.4-11.5,0-15.8c2.1-2.1,4.9-3.3,7.9-3.3c3,0,5.8,1.2,7.9,3.3
					c4.4,4.4,4.4,11.5,0,15.8C92.5,97.2,89.7,98.4,86.7,98.4z M86.7,79.1c-2.2,0-4.2,0.8-5.8,2.4c-3.2,3.2-3.2,8.4,0,11.6
					c1.5,1.5,3.6,2.4,5.8,2.4c2.2,0,4.2-0.8,5.8-2.4c3.2-3.2,3.2-8.4,0-11.6C91,79.9,88.9,79.1,86.7,79.1z"/>
			</g>
			<g>
				<path fill="#FFAB00" d="M32.8,47c-3.8-3.8-3.8-9.9,0-13.7c3.8-3.8,9.9-3.8,13.7,0c3.8,3.8,3.8,9.9,0,13.7
					C42.7,50.7,36.5,50.7,32.8,47z"/>
				<path fill="#37474F" d="M39.6,51.3c-3,0-5.8-1.2-7.9-3.3c-4.3-4.4-4.3-11.5,0-15.8c2.1-2.1,4.9-3.3,7.9-3.3c3,0,5.8,1.2,7.9,3.3
					c4.4,4.4,4.4,11.4,0,15.8C45.4,50.1,42.6,51.3,39.6,51.3z M39.6,31.9c-2.2,0-4.2,0.8-5.8,2.4c-3.2,3.2-3.2,8.4,0,11.6
					c1.5,1.5,3.6,2.4,5.8,2.4c2.2,0,4.2-0.8,5.8-2.4c3.2-3.2,3.2-8.4,0-11.6C43.9,32.8,41.8,31.9,39.6,31.9z"/>
			</g>
		</g>
	</g>
	<g>
		<g>
			<rect x="15" y="89" fill="#37474F" width="1" height="10"/>
		</g>
		<g>
			<rect x="19" y="89" fill="#37474F" width="1" height="10"/>
		</g>
		<g>
			<rect x="23" y="89" fill="#37474F" width="1" height="10"/>
		</g>
		<g>
			<rect x="27" y="89" fill="#37474F" width="1" height="10"/>
		</g>
	</g>
	<g>
		<g>
			<rect x="15" y="75" fill="#37474F" width="1" height="10"/>
		</g>
		<g>
			<rect x="19" y="75" fill="#37474F" width="1" height="10"/>
		</g>
		<g>
			<rect x="23" y="75" fill="#37474F" width="1" height="10"/>
		</g>
		<g>
			<rect x="27" y="75" fill="#37474F" width="1" height="10"/>
		</g>
	</g>
	<g>
		<g>
			<rect x="15" y="106" fill="#37474F" width="1" height="10"/>
		</g>
		<g>
			<rect x="19" y="106" fill="#37474F" width="1" height="10"/>
		</g>
		<g>
			<rect x="23" y="106" fill="#37474F" width="1" height="10"/>
		</g>
		<g>
			<rect x="27" y="106" fill="#37474F" width="1" height="10"/>
		</g>
	</g>
</g>
</svg>
