<?xml version="1.0" encoding="utf-8"?>
<!-- Generator: Adobe Illustrator 16.0.0, SVG Export Plug-In . SVG Version: 6.00 Build 0)  -->
<!DOCTYPE svg PUBLIC "-//W3C//DTD SVG 1.1//EN" "http://www.w3.org/Graphics/SVG/1.1/DTD/svg11.dtd">
<svg version="1.1" id="Layer_1" xmlns="http://www.w3.org/2000/svg" xmlns:xlink="http://www.w3.org/1999/xlink" x="0px" y="0px"
	 width="128px" height="128px" viewBox="0 0 128 128" enable-background="new 0 0 128 128" xml:space="preserve">
<g>
	<g>
		<g>
			<rect x="12.5" y="40.5" fill="#FFFFFF" width="103" height="67"/>
			<path fill="#37474F" d="M115.5,109h-103c-0.8,0-1.5-0.7-1.5-1.5v-67c0-0.8,0.7-1.5,1.5-1.5h103c0.8,0,1.5,0.7,1.5,1.5v67
				C117,108.3,116.3,109,115.5,109z M14,106h100V42H14V106z"/>
		</g>
		<g>
			<rect x="12.5" y="65.5" fill="#FFECB3" width="103" height="57"/>
			<path fill="#37474F" d="M115.5,124h-103c-0.8,0-1.5-0.7-1.5-1.5v-57c0-0.8,0.7-1.5,1.5-1.5h103c0.8,0,1.5,0.7,1.5,1.5v57
				C117,123.3,116.3,124,115.5,124z M14,121h100V67H14V121z"/>
		</g>
		<g>
			<g>
				<polygon fill="#FFFFFF" points="90.9,5.5 22.5,5.5 22.5,112.5 104.5,112.5 104.5,19.1 				"/>
				<path fill="#37474F" d="M106,114H21V4h70.5L106,18.5V114z M24,111h79V19.8L90.3,7H24V111z"/>
			</g>
			<g>
				<polyline fill="#FFAB00" points="103,20.5 88.5,20.5 88.5,6 				"/>
				<path fill="#37474F" d="M103,22H88.5c-0.8,0-1.5-0.7-1.5-1.5V6c0-0.8,0.7-1.5,1.5-1.5S90,5.2,90,6v13h13c0.8,0,1.5,0.7,1.5,1.5
					S103.8,22,103,22z"/>
			</g>
		</g>
		<g>
			<g>
				<g>
					<rect x="34.5" y="74.5" fill="#FFFFFF" width="6" height="7"/>
					<path fill="#37474F" d="M40.5,83h-6c-0.8,0-1.5-0.7-1.5-1.5v-7c0-0.8,0.7-1.5,1.5-1.5h6c0.8,0,1.5,0.7,1.5,1.5v7
						C42,82.3,41.3,83,40.5,83z M36,80h3v-4h-3V80z"/>
				</g>
				<g>
					<rect x="45.5" y="68.5" fill="#FFFFFF" width="5" height="13"/>
					<path fill="#37474F" d="M50.5,83h-5c-0.8,0-1.5-0.7-1.5-1.5v-13c0-0.8,0.7-1.5,1.5-1.5h5c0.8,0,1.5,0.7,1.5,1.5v13
						C52,82.3,51.3,83,50.5,83z M47,80h2V70h-2V80z"/>
				</g>
				<g>
					<rect x="55.5" y="60.5" fill="#FFFFFF" width="5" height="21"/>
					<path fill="#37474F" d="M60.5,83h-5c-0.8,0-1.5-0.7-1.5-1.5v-21c0-0.8,0.7-1.5,1.5-1.5h5c0.8,0,1.5,0.7,1.5,1.5v21
						C62,82.3,61.3,83,60.5,83z M57,80h2V62h-2V80z"/>
				</g>
				<g>
					<rect x="65.5" y="53.5" fill="#FFFFFF" width="6" height="28"/>
					<path fill="#37474F" d="M71.5,83h-6c-0.8,0-1.5-0.7-1.5-1.5v-28c0-0.8,0.7-1.5,1.5-1.5h6c0.8,0,1.5,0.7,1.5,1.5v28
						C73,82.3,72.3,83,71.5,83z M67,80h3V55h-3V80z"/>
				</g>
				<g>
					<rect x="75.5" y="47.5" fill="#FFFFFF" width="6" height="34"/>
					<path fill="#37474F" d="M81.5,83h-6c-0.8,0-1.5-0.7-1.5-1.5v-34c0-0.8,0.7-1.5,1.5-1.5h6c0.8,0,1.5,0.7,1.5,1.5v34
						C83,82.3,82.3,83,81.5,83z M77,80h3V49h-3V80z"/>
				</g>
			</g>
			<g>
				<line fill="#FFFFFF" x1="30" y1="81.5" x2="87" y2="81.5"/>
				<path fill="#37474F" d="M87,83H30c-0.8,0-1.5-0.7-1.5-1.5S29.2,80,30,80h57c0.8,0,1.5,0.7,1.5,1.5S87.8,83,87,83z"/>
			</g>
			<g>
				<polyline fill="#FFFFFF" points="94.2,35.8 52.6,52.6 50,61.8 15.2,74.6 				"/>
				<path fill="#37474F" d="M15.2,76.1c-0.6,0-1.2-0.4-1.4-1c-0.3-0.8,0.1-1.6,0.9-1.9l34-12.6l2.5-8.4c0.1-0.4,0.5-0.8,0.9-1
					l41.6-16.8c0.8-0.3,1.6,0.1,2,0.8s-0.1,1.6-0.8,2L53.9,53.7l-2.5,8.5c-0.1,0.5-0.5,0.8-0.9,1L15.8,76
					C15.6,76.1,15.4,76.1,15.2,76.1z"/>
			</g>
			<g>
				<path fill="#37474F" d="M92.5,43.9c-0.2,0-0.4,0-0.5-0.1c-0.8-0.3-1.2-1.2-0.9-1.9l2.3-6L87.7,34c-0.8-0.3-1.2-1.1-1-1.9
					c0.3-0.8,1.1-1.2,1.9-1l7.2,2.4c0.4,0.1,0.7,0.4,0.9,0.8s0.2,0.8,0,1.2L93.9,43C93.7,43.6,93.1,43.9,92.5,43.9z"/>
			</g>
		</g>
		<g>
			<polygon fill="#FFAB00" points="97.3,122.5 12.5,122.5 12.5,56.5 68.7,56.5 			"/>
			<path fill="#37474F" d="M97.3,124H12.5c-0.8,0-1.5-0.7-1.5-1.5v-66c0-0.8,0.7-1.5,1.5-1.5h56.2c0.6,0,1.1,0.4,1.4,0.9l28.6,66
				c0.2,0.5,0.2,1-0.1,1.4S97.8,124,97.3,124z M14,121h81L67.7,58H14V121z"/>
		</g>
	</g>
	<g>
		<g>
			<path fill="#37474F" d="M36.2,89.2c0,0.9-0.7,1.6-1.6,1.6c-0.9,0-1.6-0.7-1.6-1.6c0-0.9,0.7-1.7,1.6-1.7
				C35.5,87.6,36.2,88.3,36.2,89.2z"/>
			<path fill="#37474F" d="M34.6,91.4c-1.2,0-2.1-0.9-2.1-2.1c0-1.2,0.9-2.2,2.1-2.2c1.2,0,2.1,0.9,2.1,2.2
				C36.7,90.4,35.8,91.4,34.6,91.4z M34.6,88.1c-0.7,0-1.1,0.5-1.1,1.2c0,0.6,0.5,1.1,1.1,1.1c0.6,0,1.1-0.5,1.1-1.1
				C35.7,88.6,35.2,88.1,34.6,88.1z"/>
		</g>
		<g>
			<path fill="#37474F" d="M47.8,89.2c0,0.9-0.8,1.6-1.7,1.6c-0.9,0-1.7-0.7-1.7-1.6c0-0.9,0.8-1.7,1.7-1.7
				C47,87.6,47.8,88.3,47.8,89.2z"/>
			<path fill="#37474F" d="M46.1,91.4c-1.2,0-2.2-1-2.2-2.1c0-1.2,1-2.2,2.2-2.2c1.2,0,2.2,1,2.2,2.2C48.3,90.4,47.3,91.4,46.1,91.4
				z M46.1,88.1c-0.7,0-1.2,0.5-1.2,1.2c0,0.6,0.5,1.1,1.2,1.1c0.6,0,1.2-0.5,1.2-1.1C47.3,88.6,46.8,88.1,46.1,88.1z"/>
		</g>
		<g>
			<path fill="#37474F" d="M59.4,89.2c0,0.9-0.7,1.6-1.6,1.6c-0.9,0-1.7-0.7-1.7-1.6c0-0.9,0.8-1.7,1.7-1.7
				C58.6,87.6,59.4,88.3,59.4,89.2z"/>
			<path fill="#37474F" d="M57.7,91.4c-1.2,0-2.2-1-2.2-2.1c0-1.2,1-2.2,2.2-2.2c1.2,0,2.1,0.9,2.1,2.2
				C59.9,90.4,58.9,91.4,57.7,91.4z M57.7,88.1c-0.6,0-1.2,0.5-1.2,1.2c0,0.6,0.5,1.1,1.2,1.1c0.6,0,1.1-0.5,1.1-1.1
				C58.9,88.6,58.4,88.1,57.7,88.1z"/>
		</g>
	</g>
</g>
</svg>
