<?xml version="1.0" encoding="utf-8"?>
<!-- Generator: Adobe Illustrator 16.0.0, SVG Export Plug-In . SVG Version: 6.00 Build 0)  -->
<!DOCTYPE svg PUBLIC "-//W3C//DTD SVG 1.1//EN" "http://www.w3.org/Graphics/SVG/1.1/DTD/svg11.dtd">
<svg version="1.1" id="Layer_1" xmlns="http://www.w3.org/2000/svg" xmlns:xlink="http://www.w3.org/1999/xlink" x="0px" y="0px"
	 width="128px" height="129.5px" viewBox="0 0 128 129.5" enable-background="new 0 0 128 129.5" xml:space="preserve">
<g>
	<g>
		<rect x="14.5" y="18.5" fill="#FFECB3" width="85" height="102"/>
		<path fill="#37474F" d="M99.5,122h-85c-0.8,0-1.5-0.7-1.5-1.5v-102c0-0.8,0.7-1.5,1.5-1.5h85c0.8,0,1.5,0.7,1.5,1.5v102
			C101,121.3,100.3,122,99.5,122z M16,119h82V20H16V119z"/>
	</g>
	<g>
		<rect x="5.5" y="11.5" fill="#FFFFFF" width="85" height="102"/>
		<path fill="#37474F" d="M90.5,115h-85c-0.8,0-1.5-0.7-1.5-1.5v-102C4,10.7,4.7,10,5.5,10h85c0.8,0,1.5,0.7,1.5,1.5v102
			C92,114.3,91.3,115,90.5,115z M7,112h82V13H7V112z"/>
	</g>
	<g>
		<g>
			<path fill="#37474F" d="M40.3,4.3c0,0.7-0.6,1.4-1.4,1.4c-0.8,0-1.4-0.6-1.4-1.4c0-0.8,0.6-1.4,1.4-1.4
				C39.6,2.9,40.3,3.5,40.3,4.3z"/>
			<path fill="#37474F" d="M38.9,6.2c-1,0-1.9-0.9-1.9-1.9c0-1,0.8-1.9,1.9-1.9c1,0,1.9,0.8,1.9,1.9C40.8,5.3,39.9,6.2,38.9,6.2z
				 M38.9,3.4c-0.5,0-0.9,0.4-0.9,0.9c0,0.5,0.4,0.9,0.9,0.9c0.5,0,0.9-0.4,0.9-0.9C39.8,3.8,39.4,3.4,38.9,3.4z"/>
		</g>
		<g>
			<path fill="#37474F" d="M49.8,4.3c0,0.7-0.6,1.4-1.4,1.4c-0.8,0-1.4-0.6-1.4-1.4c0-0.8,0.6-1.4,1.4-1.4
				C49.2,2.9,49.8,3.5,49.8,4.3z"/>
			<path fill="#37474F" d="M48.5,6.2c-1,0-1.9-0.8-1.9-1.9c0-1,0.8-1.9,1.9-1.9s1.9,0.8,1.9,1.9C50.3,5.3,49.5,6.2,48.5,6.2z
				 M48.5,3.4c-0.5,0-0.9,0.4-0.9,0.9c0,0.5,0.4,0.9,0.9,0.9c0.5,0,0.9-0.4,0.9-0.9C49.3,3.8,48.9,3.4,48.5,3.4z"/>
		</g>
		<g>
			<path fill="#37474F" d="M59.4,4.3c0,0.7-0.6,1.4-1.4,1.4c-0.8,0-1.4-0.6-1.4-1.4c0-0.8,0.6-1.4,1.4-1.4
				C58.8,2.9,59.4,3.5,59.4,4.3z"/>
			<path fill="#37474F" d="M58,6.2c-1,0-1.9-0.8-1.9-1.9c0-1,0.8-1.9,1.9-1.9c1,0,1.9,0.8,1.9,1.9C59.9,5.3,59,6.2,58,6.2z M58,3.4
				c-0.5,0-0.9,0.4-0.9,0.9c0,0.5,0.4,0.9,0.9,0.9c0.5,0,0.9-0.4,0.9-0.9C58.9,3.8,58.5,3.4,58,3.4z"/>
		</g>
	</g>
	<g>
		<g>
			<g>
				<g>
					<path fill="#FFAB00" d="M24.9,29.8c0,1.7-1.4,3.2-3.2,3.2s-3.2-1.4-3.2-3.2c0-1.8,1.4-3.2,3.2-3.2S24.9,28.1,24.9,29.8z"/>
					<path fill="#37474F" d="M21.8,34.5c-2.6,0-4.7-2.1-4.7-4.7c0-2.6,2.1-4.7,4.7-4.7c2.6,0,4.7,2.1,4.7,4.7
						C26.4,32.4,24.3,34.5,21.8,34.5z M21.8,28.1c-0.9,0-1.7,0.7-1.7,1.7c0,0.9,0.8,1.7,1.7,1.7c0.9,0,1.7-0.8,1.7-1.7
						C23.4,28.9,22.7,28.1,21.8,28.1z"/>
				</g>
			</g>
			<g>
				<g>
					<g>
						<path fill="#37474F" d="M53,31H29c-0.8,0-1.5-0.7-1.5-1.5S28.2,28,29,28h24c0.8,0,1.5,0.7,1.5,1.5S53.8,31,53,31z"/>
					</g>
				</g>
			</g>
			<g>
				<polyline fill="#FFAB00" points="60.6,28.5 66.6,34.4 78.3,22.7 				"/>
				<path fill="#37474F" d="M66.6,36.6l-7-7c-0.6-0.6-0.6-1.5,0-2.1s1.5-0.6,2.1,0l4.9,4.9l10.7-10.7c0.6-0.6,1.5-0.6,2.1,0
					c0.6,0.6,0.6,1.5,0,2.1L66.6,36.6z"/>
			</g>
		</g>
		<g>
			<g>
				<g>
					<path fill="#FFAB00" d="M24.9,44.5c0,1.8-1.4,3.2-3.2,3.2s-3.2-1.4-3.2-3.2c0-1.7,1.4-3.2,3.2-3.2S24.9,42.8,24.9,44.5z"/>
					<path fill="#37474F" d="M21.8,49.2c-2.6,0-4.7-2.1-4.7-4.7c0-2.6,2.1-4.7,4.7-4.7c2.6,0,4.7,2.1,4.7,4.7
						C26.4,47.1,24.3,49.2,21.8,49.2z M21.8,42.8c-0.9,0-1.7,0.7-1.7,1.7c0,0.9,0.8,1.7,1.7,1.7c0.9,0,1.7-0.7,1.7-1.7
						C23.4,43.6,22.7,42.8,21.8,42.8z"/>
				</g>
			</g>
			<g>
				<g>
					<g>
						<path fill="#37474F" d="M53,46H29c-0.8,0-1.5-0.7-1.5-1.5S28.2,43,29,43h24c0.8,0,1.5,0.7,1.5,1.5S53.8,46,53,46z"/>
					</g>
				</g>
			</g>
			<g>
				<polyline fill="#FFAB00" points="60.6,43.2 66.6,49.1 78.3,37.4 				"/>
				<path fill="#37474F" d="M66.6,51.2l-7-7c-0.6-0.6-0.6-1.5,0-2.1c0.6-0.6,1.5-0.6,2.1,0l4.9,4.9l10.7-10.7c0.6-0.6,1.5-0.6,2.1,0
					c0.6,0.6,0.6,1.5,0,2.1L66.6,51.2z"/>
			</g>
		</g>
		<g>
			<g>
				<g>
					<path fill="#FFAB00" d="M24.9,59.2c0,1.7-1.4,3.1-3.2,3.1s-3.2-1.4-3.2-3.1c0-1.8,1.4-3.2,3.2-3.2S24.9,57.4,24.9,59.2z"/>
					<path fill="#37474F" d="M21.8,63.8c-2.6,0-4.7-2.1-4.7-4.6c0-2.6,2.1-4.7,4.7-4.7c2.6,0,4.7,2.1,4.7,4.7
						C26.4,61.8,24.3,63.8,21.8,63.8z M21.8,57.5c-0.9,0-1.7,0.8-1.7,1.7c0,0.9,0.8,1.6,1.7,1.6c0.9,0,1.7-0.7,1.7-1.6
						C23.4,58.3,22.7,57.5,21.8,57.5z"/>
				</g>
			</g>
			<g>
				<g>
					<g>
						<path fill="#37474F" d="M53,60H29c-0.8,0-1.5-0.7-1.5-1.5S28.2,57,29,57h24c0.8,0,1.5,0.7,1.5,1.5S53.8,60,53,60z"/>
					</g>
				</g>
			</g>
			<g>
				<polyline fill="#FFAB00" points="60.6,57.8 66.6,63.8 78.3,52.1 				"/>
				<path fill="#37474F" d="M66.6,65.9l-7-7c-0.6-0.6-0.6-1.5,0-2.1c0.6-0.6,1.5-0.6,2.1,0l4.9,4.9L77.3,51c0.6-0.6,1.5-0.6,2.1,0
					s0.6,1.5,0,2.1L66.6,65.9z"/>
			</g>
		</g>
		<g>
			<g>
				<g>
					<path fill="#FFAB00" d="M24.9,73.9c0,1.7-1.4,3.1-3.2,3.1s-3.2-1.4-3.2-3.1c0-1.8,1.4-3.2,3.2-3.2S24.9,72.1,24.9,73.9z"/>
					<path fill="#37474F" d="M21.8,78.5c-2.6,0-4.7-2.1-4.7-4.6c0-2.6,2.1-4.7,4.7-4.7c2.6,0,4.7,2.1,4.7,4.7
						C26.4,76.4,24.3,78.5,21.8,78.5z M21.8,72.2c-0.9,0-1.7,0.8-1.7,1.7c0,0.9,0.8,1.6,1.7,1.6c0.9,0,1.7-0.7,1.7-1.6
						C23.4,73,22.7,72.2,21.8,72.2z"/>
				</g>
			</g>
			<g>
				<g>
					<g>
						<path fill="#37474F" d="M53,75H29c-0.8,0-1.5-0.7-1.5-1.5S28.2,72,29,72h24c0.8,0,1.5,0.7,1.5,1.5S53.8,75,53,75z"/>
					</g>
				</g>
			</g>
			<g>
				<polyline fill="#FFAB00" points="60.6,72.5 66.6,78.5 78.3,66.7 				"/>
				<path fill="#37474F" d="M66.6,80.6l-7-7c-0.6-0.6-0.6-1.5,0-2.1c0.6-0.6,1.5-0.6,2.1,0l4.9,4.9l10.7-10.7c0.6-0.6,1.5-0.6,2.1,0
					c0.6,0.6,0.6,1.5,0,2.1L66.6,80.6z"/>
			</g>
		</g>
		<g>
			<g>
				<g>
					<path fill="#FFAB00" d="M24.9,88.6c0,1.8-1.4,3.2-3.2,3.2s-3.2-1.4-3.2-3.2c0-1.7,1.4-3.2,3.2-3.2S24.9,86.8,24.9,88.6z"/>
					<path fill="#37474F" d="M21.8,93.2c-2.6,0-4.7-2.1-4.7-4.7c0-2.6,2.1-4.7,4.7-4.7c2.6,0,4.7,2.1,4.7,4.7
						C26.4,91.1,24.3,93.2,21.8,93.2z M21.8,86.9c-0.9,0-1.7,0.7-1.7,1.7c0,0.9,0.7,1.7,1.7,1.7c0.9,0,1.7-0.7,1.7-1.7
						C23.4,87.6,22.7,86.9,21.8,86.9z"/>
				</g>
			</g>
			<g>
				<g>
					<g>
						<path fill="#37474F" d="M53,90H29c-0.8,0-1.5-0.7-1.5-1.5S28.2,87,29,87h24c0.8,0,1.5,0.7,1.5,1.5S53.8,90,53,90z"/>
					</g>
				</g>
			</g>
			<g>
				<polyline fill="#FFAB00" points="60.6,87.2 66.6,93.2 78.3,81.4 				"/>
				<path fill="#37474F" d="M66.6,95.3l-7-7c-0.6-0.6-0.6-1.5,0-2.1c0.6-0.6,1.5-0.6,2.1,0l4.9,4.9l10.7-10.7c0.6-0.6,1.5-0.6,2.1,0
					c0.6,0.6,0.6,1.5,0,2.1L66.6,95.3z"/>
			</g>
		</g>
	</g>
	<g>
		<g>
			<path fill="#37474F" d="M74.2,106c-1.5,1.5-4,1.5-5.5,0l0,0c-1.5-1.5-1.5-4,0-5.5l46.9-46.9c1.5-1.5,4-1.5,5.5,0l0,0
				c1.5,1.5,1.5,4,0,5.5L74.2,106z"/>
			<path fill="#37474F" d="M71.5,108.6c-1.4,0-2.8-0.6-3.8-1.6c-2.1-2.1-2.1-5.5,0-7.6l46.9-46.9c1-1,2.4-1.6,3.8-1.6
				c1.4,0,2.8,0.6,3.8,1.6c1,1,1.6,2.4,1.6,3.8c0,1.4-0.6,2.8-1.6,3.8L75.3,107C74.2,108,72.9,108.6,71.5,108.6z M118.4,54
				c-0.6,0-1.2,0.2-1.7,0.7l-46.9,46.9c-0.9,0.9-0.9,2.4,0,3.3c0.9,0.9,2.4,0.9,3.3,0L120,58c0.5-0.4,0.7-1,0.7-1.7
				c0-0.6-0.2-1.2-0.7-1.7C119.6,54.2,119,54,118.4,54z"/>
		</g>
		<g>
			<path fill="#78909C" d="M62.9,117.3c-1.5,1.5-4,1.5-5.5,0l0,0c-1.5-1.5-1.5-4,0-5.5l46.9-46.9c1.5-1.5,4-1.5,5.5,0l0,0
				c1.5,1.5,1.5,4,0,5.5L62.9,117.3z"/>
			<path fill="#37474F" d="M60.1,119.9c-1.4,0-2.8-0.6-3.8-1.6c-2.1-2.1-2.1-5.5,0-7.6l46.9-46.9c1-1,2.4-1.6,3.8-1.6
				c1.4,0,2.8,0.6,3.8,1.6c1,1,1.6,2.4,1.6,3.8c0,1.4-0.6,2.8-1.6,3.8l-46.9,46.9C62.9,119.4,61.6,119.9,60.1,119.9z M107,65.3
				c-0.6,0-1.2,0.2-1.7,0.7l-46.9,46.9c-0.9,0.9-0.9,2.4,0,3.3c0.9,0.9,2.5,0.9,3.3,0l46.9-46.9c0.4-0.4,0.7-1,0.7-1.7
				c0-0.6-0.2-1.2-0.7-1.7C108.2,65.6,107.6,65.3,107,65.3z"/>
		</g>
		<g>
			<polygon fill="#FFAB00" points="56.1,114.2 48.2,126.3 60.3,118.5 			"/>
			<path fill="#37474F" d="M48.2,127.8c-0.4,0-0.8-0.1-1.1-0.4c-0.5-0.5-0.6-1.3-0.2-1.9l7.8-12.1c0.2-0.4,0.7-0.6,1.1-0.7
				c0.5,0,0.9,0.1,1.2,0.4l4.3,4.3c0.3,0.3,0.5,0.8,0.4,1.2c0,0.4-0.3,0.9-0.7,1.1L49,127.6C48.8,127.7,48.5,127.8,48.2,127.8z
				 M56.3,116.6l-3,4.7l4.7-3L56.3,116.6z"/>
		</g>
		<g>
			<path fill="#37474F" d="M82.2,78.5c-0.4,0-0.8-0.1-1.1-0.4c-0.6-0.6-0.6-1.5,0-2.1l12.6-12.6c0.3-0.3,0.8-0.5,1.3-0.4l8.3,1.5
				c0.8,0.1,1.4,0.9,1.2,1.7c-0.1,0.8-0.9,1.4-1.7,1.2L95.3,66L83.2,78.1C83,78.4,82.6,78.5,82.2,78.5z"/>
		</g>
	</g>
</g>
</svg>
