<?xml version="1.0" encoding="utf-8"?>
<!-- Generator: Adobe Illustrator 21.1.0, SVG Export Plug-In . SVG Version: 6.00 Build 0)  -->
<svg version="1.1" id="Layer_1" xmlns="http://www.w3.org/2000/svg" xmlns:xlink="http://www.w3.org/1999/xlink" x="0px" y="0px"
	 viewBox="0 0 2560 1600" style="enable-background:new 0 0 2560 1600;" xml:space="preserve">
<style type="text/css">
	.st0{fill:none;}
	.st1{clip-path:url(#SVGID_2_);}
	.st2{fill:none;stroke:#000000;stroke-miterlimit:10;}
	.st3{fill:url(#New_Pattern);}
</style>
<pattern  y="1600" width="70" height="121.2" patternUnits="userSpaceOnUse" id="New_Pattern" viewBox="71 -162.3 70 121.2" style="overflow:visible;">
	<g>
		<rect x="71" y="-162.3" class="st0" width="70" height="121.2"/>
		<g>
			<defs>
				<rect id="SVGID_1_" x="71" y="-162.3" width="70" height="121.2"/>
			</defs>
			<clipPath id="SVGID_2_">
				<use xlink:href="#SVGID_1_"  style="overflow:visible;"/>
			</clipPath>
			<g class="st1">
				<polygon class="st2" points="176,-142 141,-162.2 141,-162.2 106,-142 141,-121.8 				"/>
				<polygon class="st2" points="176,-142 176,-182.4 141,-202.6 141,-162.2 141,-162.2 				"/>
				<polygon class="st2" points="141,-162.2 141,-202.6 106,-182.4 106,-142 				"/>
			</g>
			<g class="st1">
				<polygon class="st2" points="106,-142 71,-162.2 71,-162.2 36,-142 71,-121.8 				"/>
				<polygon class="st2" points="106,-142 106,-182.4 71,-202.6 71,-162.2 71,-162.2 				"/>
				<polygon class="st2" points="71,-162.2 71,-202.6 36,-182.4 36,-142 				"/>
			</g>
			<g class="st1">
				<polygon class="st2" points="211,-81.4 176,-101.6 176,-101.6 141,-81.4 176,-61.2 				"/>
				<polygon class="st2" points="176,-101.6 176,-142 141,-121.8 141,-81.4 				"/>
			</g>
			<g class="st1">
				<polygon class="st2" points="141,-81.4 106,-101.6 106,-101.6 71,-81.4 106,-61.2 				"/>
				<polygon class="st2" points="141,-81.4 141,-121.8 106,-142 106,-101.6 106,-101.6 				"/>
				<polygon class="st2" points="106,-101.6 106,-142 71,-121.8 71,-81.4 				"/>
			</g>
			<g class="st1">
				<polygon class="st2" points="71,-81.4 36,-101.6 36,-101.6 1,-81.4 36,-61.2 				"/>
				<polygon class="st2" points="71,-81.4 71,-121.8 36,-142 36,-101.6 36,-101.6 				"/>
			</g>
			<g class="st1">
				<polygon class="st2" points="176,-20.8 141,-41 141,-41 106,-20.8 141,-0.6 				"/>
				<polygon class="st2" points="176,-20.8 176,-61.2 141,-81.4 141,-41 141,-41 				"/>
				<polygon class="st2" points="141,-41 141,-81.4 106,-61.2 106,-20.8 				"/>
			</g>
			<g class="st1">
				<polygon class="st2" points="106,-20.8 71,-41 71,-41 36,-20.8 71,-0.6 				"/>
				<polygon class="st2" points="106,-20.8 106,-61.2 71,-81.4 71,-41 71,-41 				"/>
				<polygon class="st2" points="71,-41 71,-81.4 36,-61.2 36,-20.8 				"/>
			</g>
		</g>
	</g>
</pattern>
<rect x="0.1" y="-0.4" class="st3" width="2560" height="1600"/>
</svg>
