<?xml version="1.0" encoding="utf-8"?>
<!-- Generator: Adobe Illustrator 16.0.0, SVG Export Plug-In . SVG Version: 6.00 Build 0)  -->
<!DOCTYPE svg PUBLIC "-//W3C//DTD SVG 1.1//EN" "http://www.w3.org/Graphics/SVG/1.1/DTD/svg11.dtd">
<svg version="1.1" id="Layer_1" xmlns="http://www.w3.org/2000/svg" xmlns:xlink="http://www.w3.org/1999/xlink" x="0px" y="0px"
	 width="128px" height="128px" viewBox="0 0 128 128" enable-background="new 0 0 128 128" xml:space="preserve">
<g>
	<g>
		<circle fill="#FFECB3" cx="100.3" cy="15" r="11.5"/>
		<path fill="#37474F" d="M100.3,28.5c-7.4,0-13.5-6.1-13.5-13.5s6.1-13.5,13.5-13.5s13.5,6.1,13.5,13.5S107.8,28.5,100.3,28.5z
			 M100.3,5.5c-5.2,0-9.5,4.3-9.5,9.5s4.3,9.5,9.5,9.5s9.5-4.3,9.5-9.5S105.6,5.5,100.3,5.5z"/>
	</g>
	<g>
		<circle fill="#FFECB3" cx="100.3" cy="113" r="11.5"/>
		<path fill="#37474F" d="M100.3,126.5c-7.4,0-13.5-6.1-13.5-13.5s6.1-13.5,13.5-13.5s13.5,6.1,13.5,13.5S107.8,126.5,100.3,126.5z
			 M100.3,103.5c-5.2,0-9.5,4.3-9.5,9.5s4.3,9.5,9.5,9.5s9.5-4.3,9.5-9.5S105.6,103.5,100.3,103.5z"/>
	</g>
	<g>
		<circle fill="#FFECB3" cx="27.7" cy="66.5" r="11.5"/>
		<path fill="#37474F" d="M27.7,80c-7.4,0-13.5-6.1-13.5-13.5c0-7.4,6.1-13.5,13.5-13.5s13.5,6.1,13.5,13.5
			C41.2,73.9,35.1,80,27.7,80z M27.7,57c-5.2,0-9.5,4.3-9.5,9.5s4.3,9.5,9.5,9.5s9.5-4.3,9.5-9.5S32.9,57,27.7,57z"/>
	</g>
	<g>
		<polyline fill="#B0BEC5" points="89.1,109.5 28.9,66.5 89.1,23.5 		"/>
		<path fill="#37474F" d="M89.1,111.5c-0.4,0-0.8-0.1-1.2-0.4l-60.2-43c-0.5-0.4-0.8-1-0.8-1.6s0.3-1.3,0.8-1.6l60.2-43
			c0.9-0.6,2.1-0.4,2.8,0.5c0.6,0.9,0.4,2.1-0.5,2.8l-58,41.4l58,41.4c0.9,0.6,1.1,1.9,0.5,2.8C90.3,111.2,89.7,111.5,89.1,111.5z"
			/>
	</g>
</g>
</svg>
