<?xml version="1.0" encoding="utf-8"?>
<!DOCTYPE svg PUBLIC "-//W3C//DTD SVG 1.1//EN" "http://www.w3.org/Graphics/SVG/1.1/DTD/svg11.dtd">
<svg version="1.1" id="Layer_1" xmlns="http://www.w3.org/2000/svg" xmlns:xlink="http://www.w3.org/1999/xlink" x="0px" y="0px"
	 width="328px" height="328px" viewBox="-128 -128 328 328" enable-background="new -128 -128 328 328" xml:space="preserve">
	 <style>
	 	svg {
				background: #f0f2f5;

		}
		svg > g {
			transform: scale(2);
		}
	 </style>
<g>
	<g>
		<g>
			<polygon fill="#FFFFFF" points="1.5,4.8 1.5,30.5 25,30.5 			"/>
			<path fill="#37474F" d="M25,31H1.5C1.2,31,1,30.8,1,30.5V4.8c0-0.2,0.1-0.4,0.3-0.5c0.2-0.1,0.4,0,0.6,0.1l23.5,25.7
				c0.1,0.1,0.2,0.4,0.1,0.5C25.4,30.9,25.2,31,25,31z M2,30h21.9L2,6.1V30z"/>
		</g>
		<g>
			<g>
				<path fill="#78909C" d="M17.5,18.5c-0.5,0.5-1.8,0.1-2.9-1l0,0c-1.1-1.1-1.6-2.4-1-2.9L26.1,2c0.5-0.5,1.8-0.1,2.9,1l0,0
					c1.1,1.1,1.6,2.4,1,2.9L17.5,18.5z"/>
				<path fill="#37474F" d="M16.9,19.2c-0.8,0-1.8-0.5-2.7-1.4c-1.3-1.3-1.8-2.9-1-3.6L25.8,1.7c0.7-0.7,2.3-0.2,3.6,1
					c1.3,1.3,1.8,2.9,1,3.6L17.9,18.9C17.7,19.1,17.3,19.2,16.9,19.2z M26.7,2.3c-0.1,0-0.2,0-0.2,0.1L13.9,14.9
					c-0.2,0.2,0,1.2,1,2.2c0.8,0.8,1.5,1.1,2,1.1c0.1,0,0.2,0,0.2-0.1L29.7,5.6c0.2-0.2,0-1.2-1-2.2C27.9,2.6,27.1,2.3,26.7,2.3z"/>
			</g>
			<g>
				<polygon fill="#FFECB3" points="9.2,22.8 11.5,17.5 14.6,20.6 				"/>
				<path fill="#37474F" d="M9.2,23.3c-0.1,0-0.3-0.1-0.4-0.2c-0.1-0.1-0.2-0.4-0.1-0.5l2.3-5.2c0.1-0.2,0.2-0.3,0.4-0.3
					c0.2,0,0.3,0,0.4,0.1l3.1,3.1c0.1,0.1,0.2,0.3,0.1,0.5c0,0.2-0.1,0.3-0.3,0.4l-5.4,2.1C9.3,23.3,9.3,23.3,9.2,23.3z M11.6,18.4
					l-1.5,3.5l3.5-1.4L11.6,18.4z"/>
			</g>
			<g>
				<polygon fill="#37474F" points="9.2,22.8 10.1,20.7 11.3,21.9 				"/>
				<path fill="#37474F" d="M9.2,23.3c-0.1,0-0.3-0.1-0.4-0.2c-0.1-0.1-0.2-0.4-0.1-0.6l0.9-2.1c0.1-0.1,0.2-0.3,0.4-0.3
					c0.2,0,0.3,0,0.4,0.1l1.2,1.2c0.1,0.1,0.2,0.3,0.1,0.4c0,0.2-0.1,0.3-0.3,0.4l-2.1,0.9C9.3,23.3,9.3,23.3,9.2,23.3z"/>
			</g>
			<g>
				<path fill="#FFAB00" d="M15.7,20.4c-0.5,0.5-1.8,0.1-2.9-1l0,0c-1.1-1.1-1.6-2.4-1-2.9L24.3,3.9c0.5-0.5,1.8-0.1,2.9,1l0,0
					c1.1,1.1,1.6,2.4,1,2.9L15.7,20.4z"/>
				<path fill="#37474F" d="M15.1,21.1c-0.8,0-1.8-0.5-2.7-1.4c-1.3-1.3-1.8-2.9-1-3.6L23.9,3.5c0.7-0.7,2.3-0.2,3.6,1
					c0.6,0.6,1,1.2,1.2,1.9C29,7.2,29,7.8,28.6,8.2L16,20.7C15.8,21,15.5,21.1,15.1,21.1z M24.9,4.2c-0.1,0-0.2,0-0.2,0.1L12.1,16.8
					c-0.2,0.2,0,1.2,1,2.2c0.8,0.8,1.5,1.1,2,1.1c0.1,0,0.2,0,0.2-0.1L27.9,7.5c0.1-0.1,0.1-0.3,0-0.7c-0.2-0.5-0.5-1-1-1.5
					C26.1,4.5,25.3,4.2,24.9,4.2z"/>
			</g>
		</g>
		<g>
			<g>
				<path fill="#37474F" d="M4.7,17c0,0.2-0.2,0.3-0.3,0.3C4.2,17.4,4,17.2,4,17c0-0.2,0.2-0.3,0.3-0.3C4.6,16.7,4.7,16.9,4.7,17z"
					/>
				<path fill="#37474F" d="M4.4,17.9c-0.5,0-0.8-0.4-0.8-0.8c0-0.5,0.4-0.8,0.8-0.8c0.5,0,0.8,0.4,0.8,0.8
					C5.2,17.5,4.8,17.9,4.4,17.9z M4.4,16.9c-0.1,0-0.2,0.1-0.2,0.2c0,0.2,0.3,0.2,0.3,0C4.5,17,4.5,16.9,4.4,16.9z"/>
			</g>
			<g>
				<circle fill="#37474F" cx="6.8" cy="17" r="0.3"/>
				<path fill="#37474F" d="M6.8,17.9c-0.5,0-0.8-0.4-0.8-0.8c0-0.5,0.4-0.8,0.8-0.8c0.5,0,0.8,0.4,0.8,0.8
					C7.6,17.5,7.2,17.9,6.8,17.9z M6.8,16.9c-0.1,0-0.2,0.1-0.2,0.2c0,0.2,0.3,0.2,0.3,0C6.9,17,6.9,16.9,6.8,16.9z"/>
			</g>
			<g>
				<circle fill="#37474F" cx="9.2" cy="17" r="0.3"/>
				<path fill="#37474F" d="M9.2,17.9c-0.5,0-0.8-0.4-0.8-0.8c0-0.5,0.4-0.8,0.8-0.8c0.5,0,0.8,0.4,0.8,0.8
					C10,17.5,9.6,17.9,9.2,17.9z M9.2,16.9C9.1,16.9,9,17,9,17c0,0.2,0.3,0.2,0.3,0C9.3,17,9.2,16.9,9.2,16.9z"/>
			</g>
		</g>
		<g>
			<path fill="#FFECB3" stroke="#37474F" stroke-linecap="round" stroke-linejoin="round" stroke-miterlimit="10" d="M4.5,25.2"/>
		</g>
		<g>
			<path fill="#FFECB3" stroke="#37474F" stroke-linecap="round" stroke-linejoin="round" stroke-miterlimit="10" d="M15.2,25.2"/>
		</g>
	</g>
	<g>
		<line fill="#FFECB3" x1="19" y1="27.5" x2="4" y2="27.5"/>
		<path fill="#37474F" d="M19,28H4c-0.3,0-0.5-0.2-0.5-0.5S3.7,27,4,27h15c0.3,0,0.5,0.2,0.5,0.5S19.3,28,19,28z"/>
	</g>
</g>
</svg>
