<?xml version="1.0" encoding="utf-8"?>
<!-- Generator: Adobe Illustrator 19.0.0, SVG Export Plug-In . SVG Version: 6.00 Build 0)  -->
<svg version="1.1" id="Layer_2_1_" xmlns="http://www.w3.org/2000/svg" xmlns:xlink="http://www.w3.org/1999/xlink" x="0px" y="0px"
	 viewBox="-35 37 128 128" style="enable-background:new -35 37 128 128;" xml:space="preserve">
<style type="text/css">
	.st0{fill:#FFFFFF;stroke:#37474F;stroke-width:3;stroke-miterlimit:10;}
	.st1{fill:#FFAB00;stroke:#37474F;stroke-width:3;stroke-linecap:round;stroke-linejoin:round;stroke-miterlimit:10;}
	.st2{fill:#FFECB3;}
	.st3{fill:#37474F;}
</style>
<g>
	<rect x="-15.2" y="56" class="st0" width="88.4" height="90"/>
	<g>
		<path class="st1" d="M47.3,111.4c0,10.7-8.8,17.5-16.3,17.5H14.9c-2.5,0-5.3-2.3-5.3-4.8V77.9c0-2.5,2.8-4.8,5.3-4.8h12.7
			c0.5,0,3.9,0.2,7.1,1.9c5.1,2.5,7.8,7.1,7.8,13.3c0,3.3-0.9,6.4-2.5,8.8C44.8,100.1,47.3,105.2,47.3,111.4z M18.9,93.2h7.4
			c1.2,0,7,0.2,7-5.4c0-5.3-3.7-5.4-5.1-5.4c-0.3,0-0.6,0-0.6,0h-8.7C18.9,82.4,18.9,93.2,18.9,93.2z M38,111.1
			c0-2.9-1.9-8.5-7.6-8.5H18.8v17.1h11.8c0,0,2.2-0.3,4.2-1.4C37.7,116.5,38,113.1,38,111.1z"/>
	</g>
</g>
<g>
	<polyline class="st2" points="35.2,135.2 51.9,151.9 90.8,113 	"/>
	<path class="st3" d="M51.9,154.9l-18.4-18.2c-0.8-0.8-0.8-2.1,0-3c0.8-0.8,2.1-0.8,3,0l15.2,15.2l37.4-37.4c0.8-0.8,2.1-0.8,3,0
		c0.8,0.8,0.8,2.1,0,3L51.9,154.9z"/>
</g>
</svg>
