<?xml version="1.0" encoding="utf-8"?>
<!-- Generator: Adobe Illustrator 20.0.0, SVG Export Plug-In . SVG Version: 6.00 Build 0)  -->
<svg version="1.1" id="Layer_1" xmlns="http://www.w3.org/2000/svg" xmlns:xlink="http://www.w3.org/1999/xlink" x="0px" y="0px"
	 viewBox="0 0 24 24" style="enable-background:new 0 0 24 24;" xml:space="preserve">
<style type="text/css">
	.st0{fill:#0EBAB2;}
</style>
<g>
	<path class="st0" d="M3.1,22.9h0.6c0.3,0,0.5-0.2,0.5-0.5S4,21.9,3.7,21.9H3.1c-0.8,0-1.4-0.6-1.4-1.4v-4.6c0-0.3-0.2-0.5-0.5-0.5
		s-0.5,0.2-0.5,0.5v4.6C0.6,21.8,1.7,22.9,3.1,22.9z"/>
	<path class="st0" d="M4.6,22.9h10h0.5h0.4c1.3,0,2.1-1,2.1-2.4v-8.6c0-0.3-0.2-0.5-0.5-0.5s-0.5,0.2-0.5,0.5v8.6
		c0,0.4-0.1,1.3-1,1.4V1.4c0-0.3-0.2-0.5-0.5-0.5h-14c-0.3,0-0.5,0.2-0.5,0.5v12.5c0,0.3,0.2,0.5,0.5,0.5s0.5-0.2,0.5-0.5v-12h13v20
		h-10c-0.3,0-0.5,0.2-0.5,0.5S4.4,22.9,4.6,22.9z"/>
	<path class="st0" d="M3.6,5.9h8c0.3,0,0.5-0.2,0.5-0.5s-0.2-0.5-0.5-0.5h-8c-0.3,0-0.5,0.2-0.5,0.5S3.4,5.9,3.6,5.9z"/>
	<path class="st0" d="M3.6,11.9h8c0.3,0,0.5-0.2,0.5-0.5s-0.2-0.5-0.5-0.5h-8c-0.3,0-0.5,0.2-0.5,0.5S3.4,11.9,3.6,11.9z"/>
	<path class="st0" d="M3.6,18.9h8c0.3,0,0.5-0.2,0.5-0.5s-0.2-0.5-0.5-0.5h-8c-0.3,0-0.5,0.2-0.5,0.5S3.4,18.9,3.6,18.9z"/>
	<path class="st0" d="M20.3,21.5v1.2c0,0.3,0.2,0.5,0.5,0.5s0.5-0.2,0.5-0.5v-1.2l2.1-3.6l-0.8-2.3c0.4-0.3,0.6-0.7,0.6-1.2
		s-0.3-1-0.7-1.3c0-0.1,0.1-0.2,0.1-0.2V3.4c0-1.2-0.7-2.5-2-2.5c-1.2,0-2,0.9-2,2.5v9.5c0,0.1,0.1,0.3,0.2,0.4
		c-0.3,0.3-0.5,0.7-0.5,1.1c0,0.5,0.2,0.9,0.6,1.2l-0.8,2.3L20.3,21.5z M19.3,14.4c0-0.3,0.2-0.5,0.5-0.5h2c0.3,0,0.5,0.2,0.5,0.5
		s-0.2,0.5-0.5,0.5h-2C19.5,14.9,19.3,14.7,19.3,14.4z M21.3,19.5v-0.9c0-0.3-0.2-0.5-0.5-0.5s-0.5,0.2-0.5,0.5v0.9l-1-1.7l0.6-1.9
		h1.9l0.6,1.9L21.3,19.5z M19.6,12.9V3.4c0-1.5,0.7-1.5,1-1.5c0.7,0,1,0.9,1,1.5v9.5h-1.9C19.7,12.9,19.7,12.9,19.6,12.9L19.6,12.9z
		"/>
</g>
</svg>
