<?xml version="1.0" encoding="UTF-8"?>
<svg width="190px" height="230px" viewBox="0 0 190 230" version="1.1" xmlns="http://www.w3.org/2000/svg" xmlns:xlink="http://www.w3.org/1999/xlink">
    <!-- Generator: Sketch 47.1 (45422) - http://www.bohemiancoding.com/sketch -->
    <title>timeline-step</title>
    <desc>Created with Sketch.</desc>
    <defs>
        <path d="M7,0 L169,0 L169,8.8817842e-16 C172.865993,1.78006981e-16 176,3.13400675 176,7 L176,196 L176,196 C176,199.865993 172.865993,203 169,203 L101.134711,203 L89.014573,215.816199 L76.6872381,203 L7,203 L7,203 C3.13400675,203 4.73447626e-16,199.865993 0,196 L1.77635684e-15,7 L1.77635684e-15,7 C1.30290921e-15,3.13400675 3.13400675,1.59834986e-15 7,8.8817842e-16 Z" id="path-1"></path>
        <filter x="-6.0%" y="-4.9%" width="111.9%" height="109.7%" filterUnits="objectBoundingBox" id="filter-2">
            <feMorphology radius="0.5" operator="dilate" in="SourceAlpha" result="shadowSpreadOuter1"></feMorphology>
            <feOffset dx="0" dy="0" in="shadowSpreadOuter1" result="shadowOffsetOuter1"></feOffset>
            <feGaussianBlur stdDeviation="3" in="shadowOffsetOuter1" result="shadowBlurOuter1"></feGaussianBlur>
            <feColorMatrix values="0 0 0 0 0   0 0 0 0 0   0 0 0 0 0  0 0 0 0.1 0" type="matrix" in="shadowBlurOuter1"></feColorMatrix>
        </filter>
    </defs>
    <g id="Page-1" stroke="none" stroke-width="1" fill="none" fill-rule="evenodd">
        <g id="timeline-graph" transform="translate(-4315.000000, -15.000000)">
            <g id="Group" transform="translate(4190.000000, 0.000000)">
                <g id="timeline-step" transform="translate(132.000000, 22.000000)">
                    <g id="Rectangle">
                        <use fill="black" fill-opacity="1" filter="url(#filter-2)" xlink:href="#path-1"></use>
                        <use fill="#FFFFFF" fill-rule="evenodd" xlink:href="#path-1"></use>
                    </g>
                    <path d="M64.6044922,40 L61.5,40 L61.5,28.0332031 L57.7939453,29.1826172 L57.7939453,26.6582031 L64.2714844,24.3378906 L64.6044922,24.3378906 L64.6044922,40 Z M74.2095703,34.0810547 C74.2095703,32.9280541 74.4315733,31.9003951 74.8755859,30.9980469 C75.3195986,30.0956986 75.9587523,29.3974634 76.7930664,28.9033203 C77.6273804,28.4091772 78.595958,28.1621094 79.6988281,28.1621094 C81.2671953,28.1621094 82.5472932,28.6419223 83.5391601,29.6015625 C84.5310271,30.5612027 85.0842442,31.8645751 85.1988281,33.5117188 L85.2203125,34.3066406 C85.2203125,36.0898527 84.7225961,37.5203397 83.7271484,38.5981445 C82.7317007,39.6759494 81.3961021,40.2148438 79.7203125,40.2148438 C78.0445228,40.2148438 76.7071339,39.6777397 75.7081054,38.6035156 C74.709077,37.5292915 74.2095703,36.0683686 74.2095703,34.2207031 L74.2095703,34.0810547 Z M77.3140625,34.3066406 C77.3140625,35.4095107 77.5217427,36.252764 77.9371094,36.8364258 C78.352476,37.4200876 78.9468711,37.7119141 79.7203125,37.7119141 C80.4722694,37.7119141 81.0595031,37.4236682 81.4820312,36.847168 C81.9045594,36.2706677 82.1158203,35.3486392 82.1158203,34.0810547 C82.1158203,32.9996691 81.9045594,32.1617868 81.4820312,31.5673828 C81.0595031,30.9729788 80.465108,30.6757812 79.6988281,30.6757812 C78.9397097,30.6757812 78.352476,30.9711885 77.9371094,31.5620117 C77.5217427,32.152835 77.3140625,33.0677021 77.3140625,34.3066406 Z M87.6810547,40 L87.6810547,30.6542969 L85.9515625,30.6542969 L85.9515625,28.3769531 L87.6810547,28.3769531 L87.6810547,27.3886719 C87.6810547,26.0852799 88.0552371,25.0737341 88.8036132,24.3540039 C89.5519894,23.6342737 90.5993422,23.2744141 91.9457031,23.2744141 C92.3753927,23.2744141 92.9017547,23.3460279 93.5248047,23.4892578 L93.4925781,25.8955078 C93.2347643,25.8310544 92.9196633,25.7988281 92.5472656,25.7988281 C91.379942,25.7988281 90.796289,26.3466742 90.796289,27.4423828 L90.796289,28.3769531 L93.1058593,28.3769531 L93.1058593,30.6542969 L90.796289,30.6542969 L90.796289,40 L87.6810547,40 Z M107.007812,40 L103.90332,40 L103.90332,28.0332031 L100.197266,29.1826172 L100.197266,26.6582031 L106.674805,24.3378906 L107.007812,24.3378906 L107.007812,40 Z M122.316211,33.5332031 C122.316211,35.6959744 121.868624,37.3502547 120.973437,38.4960938 C120.078251,39.6419328 118.767717,40.2148438 117.041797,40.2148438 C115.337361,40.2148438 114.033989,39.6526749 113.131641,38.5283203 C112.229292,37.4039657 111.767383,35.7926537 111.745898,33.6943359 L111.745898,30.8154297 C111.745898,28.631174 112.198856,26.9733129 113.104785,25.8417969 C114.010714,24.7102808 115.315877,24.1445312 117.020312,24.1445312 C118.724748,24.1445312 120.02812,24.7049098 120.930469,25.8256836 C121.832817,26.9464574 122.294726,28.5559791 122.316211,30.6542969 L122.316211,33.5332031 Z M119.211719,30.375 C119.211719,29.0787696 119.034474,28.1352569 118.67998,27.5444336 C118.325486,26.9536103 117.772269,26.6582031 117.020312,26.6582031 C116.28984,26.6582031 115.750946,26.9392876 115.403613,27.5014648 C115.056281,28.0636421 114.871875,28.9427024 114.850391,30.1386719 L114.850391,33.9414062 C114.850391,35.2161522 115.024054,36.1632456 115.371387,36.7827148 C115.718719,37.4021841 116.275517,37.7119141 117.041797,37.7119141 C117.800915,37.7119141 118.348761,37.4147165 118.685351,36.8203125 C119.021942,36.2259085 119.197396,35.3164124 119.211719,34.0917969 L119.211719,30.375 Z" id="1-of-10-copy" fill="#333333" opacity="0.8"></path>
                    <path d="M26.6875,165.427734 L20.5253906,165.427734 L20.5253906,170.466797 L27.6835938,170.466797 L27.6835938,172 L18.6503906,172 L18.6503906,157.78125 L27.5859375,157.78125 L27.5859375,159.324219 L20.5253906,159.324219 L20.5253906,163.894531 L26.6875,163.894531 L26.6875,165.427734 Z M32.4335938,161.433594 L32.4824219,162.605469 C33.2571653,161.694006 34.3020768,161.238281 35.6171875,161.238281 C37.0950595,161.238281 38.1009088,161.804682 38.6347656,162.9375 C38.9863299,162.429685 39.4436821,162.019533 40.0068359,161.707031 C40.5699898,161.39453 41.2356732,161.238281 42.0039062,161.238281 C44.3216262,161.238281 45.4999998,162.465483 45.5390625,164.919922 L45.5390625,172 L43.7324219,172 L43.7324219,165.027344 C43.7324219,164.272132 43.5598976,163.707359 43.2148438,163.333008 C42.8697899,162.958657 42.2903687,162.771484 41.4765625,162.771484 C40.8059862,162.771484 40.2493512,162.971678 39.8066406,163.37207 C39.3639301,163.772463 39.1067712,164.311195 39.0351562,164.988281 L39.0351562,172 L37.21875,172 L37.21875,165.076172 C37.21875,163.539706 36.4668044,162.771484 34.9628906,162.771484 C33.7779889,162.771484 32.9674501,163.276037 32.53125,164.285156 L32.53125,172 L30.7246094,172 L30.7246094,161.433594 L32.4335938,161.433594 Z M58.1894531,166.833984 C58.1894531,168.442065 57.8216183,169.737625 57.0859375,170.720703 C56.3502567,171.703781 55.3541729,172.195312 54.0976562,172.195312 C52.8150978,172.195312 51.8059933,171.788416 51.0703125,170.974609 L51.0703125,176.0625 L49.2636719,176.0625 L49.2636719,161.433594 L50.9140625,161.433594 L51.0019531,162.605469 C51.7376339,161.694006 52.7597591,161.238281 54.0683594,161.238281 C55.337897,161.238281 56.3421187,161.716792 57.0810547,162.673828 C57.8199907,163.630864 58.1894531,164.962231 58.1894531,166.667969 L58.1894531,166.833984 Z M56.3828125,166.628906 C56.3828125,165.437494 56.1289088,164.496748 55.6210938,163.806641 C55.1132787,163.116533 54.4166711,162.771484 53.53125,162.771484 C52.4374945,162.771484 51.6171902,163.256506 51.0703125,164.226562 L51.0703125,169.275391 C51.6106798,170.238937 52.4374944,170.720703 53.5507812,170.720703 C54.416671,170.720703 55.1051407,170.377282 55.6162109,169.69043 C56.1272812,169.003577 56.3828125,167.98308 56.3828125,166.628906 Z M68.0078125,172 C67.9036453,171.791666 67.8190107,171.420576 67.7539062,170.886719 C66.9140583,171.759119 65.9114642,172.195312 64.7460938,172.195312 C63.7044219,172.195312 62.8499382,171.900719 62.1826172,171.311523 C61.5152961,170.722328 61.1816406,169.975265 61.1816406,169.070312 C61.1816406,167.970047 61.5999307,167.115563 62.4365234,166.506836 C63.2731162,165.898109 64.4498622,165.59375 65.9667969,165.59375 L67.7246094,165.59375 L67.7246094,164.763672 C67.7246094,164.132158 67.5358092,163.629234 67.1582031,163.254883 C66.7805971,162.880532 66.223962,162.693359 65.4882812,162.693359 C64.8437468,162.693359 64.3033876,162.856118 63.8671875,163.181641 C63.4309874,163.507163 63.2128906,163.901039 63.2128906,164.363281 L61.3964844,164.363281 C61.3964844,163.835935 61.583657,163.3265 61.9580078,162.834961 C62.3323586,162.343422 62.8401661,161.954429 63.4814453,161.667969 C64.1227246,161.381509 64.8274701,161.238281 65.5957031,161.238281 C66.8131571,161.238281 67.7669236,161.54264 68.4570312,162.151367 C69.1471389,162.760094 69.5052082,163.598302 69.53125,164.666016 L69.53125,169.529297 C69.53125,170.499354 69.6549467,171.27083 69.9023438,171.84375 L69.9023438,172 L68.0078125,172 Z M65.0097656,170.623047 C65.5761747,170.623047 66.1132787,170.476564 66.6210938,170.183594 C67.1289088,169.890624 67.4967437,169.509768 67.7246094,169.041016 L67.7246094,166.873047 L66.3085938,166.873047 C64.095041,166.873047 62.9882812,167.520827 62.9882812,168.816406 C62.9882812,169.382815 63.1770814,169.825519 63.5546875,170.144531 C63.9322936,170.463543 64.4173147,170.623047 65.0097656,170.623047 Z M75.8144531,158.875 L75.8144531,161.433594 L77.7871094,161.433594 L77.7871094,162.830078 L75.8144531,162.830078 L75.8144531,169.382812 C75.8144531,169.805992 75.9023429,170.123371 76.078125,170.334961 C76.2539071,170.546551 76.5533833,170.652344 76.9765625,170.652344 C77.1848969,170.652344 77.4713523,170.613282 77.8359375,170.535156 L77.8359375,172 C77.3606747,172.130209 76.8984397,172.195312 76.4492188,172.195312 C75.641923,172.195312 75.0332052,171.951174 74.6230469,171.462891 C74.2128886,170.974607 74.0078125,170.281254 74.0078125,169.382812 L74.0078125,162.830078 L72.0839844,162.830078 L72.0839844,161.433594 L74.0078125,161.433594 L74.0078125,158.875 L75.8144531,158.875 Z M82.703125,162.712891 C83.5039103,161.729813 84.5455665,161.238281 85.828125,161.238281 C88.0612091,161.238281 89.1874999,162.498034 89.2070312,165.017578 L89.2070312,172 L87.4003906,172 L87.4003906,165.007812 C87.3938802,164.24609 87.2197283,163.682945 86.8779297,163.318359 C86.5361311,162.953774 86.0039099,162.771484 85.28125,162.771484 C84.6953096,162.771484 84.1809918,162.927733 83.7382812,163.240234 C83.2955707,163.552736 82.9505221,163.962888 82.703125,164.470703 L82.703125,172 L80.8964844,172 L80.8964844,157 L82.703125,157 L82.703125,162.712891 Z M96.3691406,169.353516 L98.8300781,161.433594 L100.763672,161.433594 L96.515625,173.630859 C95.8580696,175.388681 94.8131582,176.267578 93.3808594,176.267578 L93.0390625,176.238281 L92.3652344,176.111328 L92.3652344,174.646484 L92.8535156,174.685547 C93.4654979,174.685547 93.9423811,174.56185 94.2841797,174.314453 C94.6259783,174.067056 94.907551,173.614587 95.1289062,172.957031 L95.5292969,171.882812 L91.7597656,161.433594 L93.7324219,161.433594 L96.3691406,169.353516 Z M111.494141,170.466797 L118.232422,170.466797 L118.232422,172 L109.609375,172 L109.609375,157.78125 L111.494141,157.78125 L111.494141,170.466797 Z M125.472656,172.195312 C124.040357,172.195312 122.875004,171.72494 121.976562,170.78418 C121.078121,169.84342 120.628906,168.585294 120.628906,167.009766 L120.628906,166.677734 C120.628906,165.629552 120.8291,164.693689 121.229492,163.870117 C121.629885,163.046545 122.189775,162.402021 122.90918,161.936523 C123.628584,161.471026 124.408199,161.238281 125.248047,161.238281 C126.621752,161.238281 127.689449,161.690751 128.451172,162.595703 C129.212894,163.500656 129.59375,164.796216 129.59375,166.482422 L129.59375,167.234375 L122.435547,167.234375 C122.461589,168.276047 122.765948,169.11751 123.348633,169.758789 C123.931318,170.400068 124.671871,170.720703 125.570312,170.720703 C126.208337,170.720703 126.748696,170.590496 127.191406,170.330078 C127.634117,170.06966 128.021483,169.724612 128.353516,169.294922 L129.457031,170.154297 C128.57161,171.514981 127.243498,172.195312 125.472656,172.195312 Z M125.248047,162.722656 C124.518877,162.722656 123.906904,162.987953 123.412109,163.518555 C122.917315,164.049156 122.611329,164.792964 122.494141,165.75 L127.787109,165.75 L127.787109,165.613281 C127.735026,164.695308 127.487632,163.984052 127.044922,163.479492 C126.602211,162.974932 126.003259,162.722656 125.248047,162.722656 Z M136.042969,169.548828 L138.660156,161.433594 L140.505859,161.433594 L136.716797,172 L135.339844,172 L131.511719,161.433594 L133.357422,161.433594 L136.042969,169.548828 Z M147.501953,172.195312 C146.069654,172.195312 144.904301,171.72494 144.005859,170.78418 C143.107417,169.84342 142.658203,168.585294 142.658203,167.009766 L142.658203,166.677734 C142.658203,165.629552 142.858396,164.693689 143.258789,163.870117 C143.659182,163.046545 144.219072,162.402021 144.938477,161.936523 C145.657881,161.471026 146.437496,161.238281 147.277344,161.238281 C148.651049,161.238281 149.718746,161.690751 150.480469,162.595703 C151.242191,163.500656 151.623047,164.796216 151.623047,166.482422 L151.623047,167.234375 L144.464844,167.234375 C144.490886,168.276047 144.795244,169.11751 145.37793,169.758789 C145.960615,170.400068 146.701167,170.720703 147.599609,170.720703 C148.237633,170.720703 148.777993,170.590496 149.220703,170.330078 C149.663414,170.06966 150.05078,169.724612 150.382812,169.294922 L151.486328,170.154297 C150.600907,171.514981 149.272795,172.195312 147.501953,172.195312 Z M147.277344,162.722656 C146.548173,162.722656 145.9362,162.987953 145.441406,163.518555 C144.946612,164.049156 144.640626,164.792964 144.523438,165.75 L149.816406,165.75 L149.816406,165.613281 C149.764323,164.695308 149.516929,163.984052 149.074219,163.479492 C148.631508,162.974932 148.032556,162.722656 147.277344,162.722656 Z M156.675781,172 L154.869141,172 L154.869141,157 L156.675781,157 L156.675781,172 Z" id="Empathy-Level-Copy" fill="#AAAAAA" opacity="0.8"></path>
                    <path d="M60,98 C60,114.6 73.4,128 90,128 C106.6,128 120,114.6 120,98 C120,81.4 106.6,68 90,68 C73.4,68 60,81.4 60,98 Z" id="Shape" fill="#F9B01D" fill-rule="nonzero"></path>
                    <path d="M105.7,103.6 C105.7,112.2 117.4,112.2 117.4,103.6 C117.4,97.3 111.6,91.2 111.6,91.2 C111.6,91.2 105.7,97.3 105.7,103.6" id="Shape" fill="#4495CC" fill-rule="nonzero"></path>
                    <circle id="Oval" fill="#3F2D13" fill-rule="nonzero" cx="96.5" cy="101" r="5"></circle>
                    <circle id="Oval" fill="#3F2D13" fill-rule="nonzero" cx="73.5" cy="101" r="5"></circle>
                    <path d="M78.6,85.9 C75.4,88.6 71.1,89.8 66.9,89 C66.3,88.9 65.8,91 66.5,91.2 C71.3,92.1 76.3,90.7 80,87.6 C80.5,87.1 79,85.5 78.6,85.9" id="Shape" fill="#604813" fill-rule="nonzero"></path>
                    <path d="M103.1,88.9 C98.9,89.6 94.6,88.5 91.4,85.8 C91,85.4 89.4,87 90,87.5 C93.7,90.7 98.7,92 103.5,91.1 C104.2,90.9 103.7,88.8 103.1,88.9" id="Shape" fill="#604813" fill-rule="nonzero"></path>
                    <path d="M96.1,113.3 C90.3,111.8 84.1,112.9 79.2,116.3 C78,117.2 80.3,120.3 81.5,119.5 C84.7,117.2 89.9,115.7 95.2,117.1 C96.5,117.4 97.6,113.8 96.1,113.3" id="Shape" fill="#3F2D13" fill-rule="nonzero"></path>
                </g>
            </g>
        </g>
    </g>
</svg>