<?xml version="1.0" encoding="utf-8"?>
<!-- Generator: Adobe Illustrator 16.0.0, SVG Export Plug-In . SVG Version: 6.00 Build 0)  -->
<!DOCTYPE svg PUBLIC "-//W3C//DTD SVG 1.1//EN" "http://www.w3.org/Graphics/SVG/1.1/DTD/svg11.dtd">
<svg version="1.1" id="Layer_1" xmlns="http://www.w3.org/2000/svg" xmlns:xlink="http://www.w3.org/1999/xlink" x="0px" y="0px"
	 width="128px" height="128px" viewBox="0 0 128 128" enable-background="new 0 0 128 128" xml:space="preserve">
<g>
	<g>
		
			<polyline fill="#FFECB3" stroke="#37474F" stroke-width="3" stroke-linecap="round" stroke-linejoin="round" stroke-miterlimit="10" points="
			45,5.8 72.7,33.5 54,33.5 		"/>
		
			<polyline fill="none" stroke="#37474F" stroke-width="3" stroke-linecap="round" stroke-linejoin="round" stroke-miterlimit="10" points="
			82.1,5.8 54.5,33.5 73,33.5 		"/>
	</g>
	
		<path fill="#FFAB00" stroke="#37474F" stroke-width="3" stroke-linecap="round" stroke-linejoin="round" stroke-miterlimit="10" d="
		M124.5,107.1c0,7.6-6.6,13.4-14.2,13.4H16.9c-7.6,0-13.4-5.7-13.4-13.4V46c0-7.6,5.8-14.5,13.4-14.5h93.4c7.6,0,14.2,6.9,14.2,14.5
		V107.1z"/>
	
		<path fill="#37474F" stroke="#37474F" stroke-width="3" stroke-linecap="round" stroke-linejoin="round" stroke-miterlimit="10" d="
		M83.5,96.2c0,8.5-6.9,15.3-15.4,15.3H28.8c-8.5,0-15.3-6.8-15.3-15.3V56.9c0-8.5,6.8-15.4,15.3-15.4h39.3c8.5,0,15.4,6.9,15.4,15.4
		V96.2z"/>
	
		<path fill="#FFFFFF" stroke="#37474F" stroke-width="3" stroke-linecap="round" stroke-linejoin="round" stroke-miterlimit="10" d="
		M113.3,56c0,5-4.1,9.1-9.1,9.1c-5,0-9.1-4.1-9.1-9.1c0-5,4.1-9.1,9.1-9.1C109.2,46.9,113.3,51,113.3,56z"/>
	<g>
		
			<line fill="#FFAB00" stroke="#37474F" stroke-width="3" stroke-linecap="round" stroke-linejoin="round" stroke-miterlimit="10" x1="98" y1="90.5" x2="110" y2="90.5"/>
		
			<line fill="#FFAB00" stroke="#37474F" stroke-width="3" stroke-linecap="round" stroke-linejoin="round" stroke-miterlimit="10" x1="98" y1="82.5" x2="110" y2="82.5"/>
		
			<line fill="#FFAB00" stroke="#37474F" stroke-width="3" stroke-linecap="round" stroke-linejoin="round" stroke-miterlimit="10" x1="98" y1="74.5" x2="110" y2="74.5"/>
	</g>
	<g>
		<g>
			<path fill="#FFFFFF" stroke="#FFFFFF" stroke-miterlimit="10" d="M26.4,69.2c0.6,0,1.2-0.5,1.2-1.2c0-0.7-0.5-1.2-1.2-1.2
				c-0.7,0-1.2,0.5-1.2,1.2C25.2,68.6,25.8,69.2,26.4,69.2z"/>
			<path fill="#FFFFFF" stroke="#FFFFFF" stroke-miterlimit="10" d="M26.4,77.5c0.6,0,1.2-0.5,1.2-1.2c0-0.6-0.5-1.2-1.2-1.2
				c-0.7,0-1.2,0.5-1.2,1.2C25.2,77,25.8,77.6,26.4,77.5z"/>
			<path fill="#FFFFFF" stroke="#FFFFFF" stroke-miterlimit="10" d="M26.4,85.9c0.6,0,1.2-0.5,1.2-1.2c0-0.7-0.5-1.2-1.2-1.2
				c-0.7,0-1.2,0.5-1.2,1.2C25.2,85.4,25.8,85.9,26.4,85.9z"/>
		</g>
		<g>
			<path fill="#FFFFFF" stroke="#FFFFFF" stroke-miterlimit="10" d="M70.5,69.2c0.6,0,1.2-0.5,1.2-1.2c0-0.7-0.5-1.2-1.2-1.2
				c-0.7,0-1.2,0.5-1.2,1.2C69.3,68.6,69.9,69.2,70.5,69.2z"/>
			<path fill="#FFFFFF" stroke="#FFFFFF" stroke-miterlimit="10" d="M70.5,77.5c0.6,0,1.2-0.5,1.2-1.2c0-0.6-0.5-1.2-1.2-1.2
				c-0.7,0-1.2,0.5-1.2,1.2C69.3,77,69.9,77.6,70.5,77.5z"/>
			<path fill="#FFFFFF" stroke="#FFFFFF" stroke-miterlimit="10" d="M70.5,85.9c0.6,0,1.2-0.5,1.2-1.2c0-0.7-0.5-1.2-1.2-1.2
				c-0.7,0-1.2,0.5-1.2,1.2C69.3,85.4,69.9,85.9,70.5,85.9z"/>
		</g>
	</g>
	<g>
		<g>
			<path fill="#37474F" d="M99.6,98.8c0,1.1-0.9,1.9-1.9,1.9c-1,0-1.9-0.8-1.9-1.9c0-1.1,0.9-1.9,1.9-1.9
				C98.8,96.9,99.6,97.7,99.6,98.8z"/>
			<path fill="#37474F" d="M106.1,98.8c0,1.1-0.9,1.9-1.9,1.9c-1,0-1.9-0.8-1.9-1.9c0-1.1,0.9-1.9,1.9-1.9
				C105.3,96.9,106.1,97.7,106.1,98.8z"/>
			<path fill="#37474F" d="M112.7,98.8c0,1.1-0.9,1.9-1.9,1.9c-1.1,0-1.9-0.8-1.9-1.9c0-1.1,0.9-1.9,1.9-1.9
				C111.8,96.9,112.7,97.7,112.7,98.8z"/>
		</g>
		<g>
			<path fill="#37474F" d="M99.6,104.8c0,1.1-0.9,1.9-1.9,1.9c-1,0-1.9-0.8-1.9-1.9c0-1,0.9-1.9,1.9-1.9
				C98.8,102.9,99.6,103.8,99.6,104.8z"/>
			<path fill="#37474F" d="M106.1,104.8c0,1.1-0.9,1.9-1.9,1.9c-1,0-1.9-0.8-1.9-1.9c0-1,0.9-1.9,1.9-1.9
				C105.3,102.9,106.1,103.8,106.1,104.8z"/>
			<path fill="#37474F" d="M112.7,104.8c0,1.1-0.9,1.9-1.9,1.9c-1.1,0-1.9-0.8-1.9-1.9c0-1,0.9-1.9,1.9-1.9
				C111.8,102.9,112.7,103.8,112.7,104.8z"/>
		</g>
		<g>
			<path fill="#37474F" d="M99.6,110.8c0,1-0.9,1.9-1.9,1.9c-1,0-1.9-0.8-1.9-1.9c0-1.1,0.9-1.9,1.9-1.9
				C98.8,108.9,99.6,109.8,99.6,110.8z"/>
			<path fill="#37474F" d="M106.1,110.8c0,1-0.9,1.9-1.9,1.9c-1,0-1.9-0.8-1.9-1.9c0-1.1,0.9-1.9,1.9-1.9
				C105.3,108.9,106.1,109.8,106.1,110.8z"/>
			<path fill="#37474F" d="M112.7,110.8c0,1-0.9,1.9-1.9,1.9c-1.1,0-1.9-0.8-1.9-1.9c0-1.1,0.9-1.9,1.9-1.9
				C111.8,108.9,112.7,109.8,112.7,110.8z"/>
		</g>
	</g>
	<g>
		<g>
			<path fill="#FFFFFF" d="M49,51.8v51.7c0,0-8.6,1-8.1-2.5c0.5-3.5,3.7-5,2.5-11c-1.3-6-2.5-12.5,0.5-20.3c3-7.8,3.7-9.8,2.5-12.5
				c-1.3-2.8-1.8-4.5-1.8-4.5s1.6-2,3.1-1.8C49.2,51.1,49,51.8,49,51.8z"/>
			<path fill="#FFFFFF" d="M48,51.8v51.7c0,0,8.6,1,8.1-2.5c-0.5-3.5-3.7-5-2.5-11c1.2-6,1.3-13.5-1.7-21.3c-3-7.8-1.4-8.5-1.3-11.6
				c0-2.9-0.2-4.9-0.2-4.9s0.4-1.6-1.1-1.4C47.8,51.1,48,51.8,48,51.8z"/>
		</g>
		<path fill="#FFFFFF" d="M54.2,51c0,2-1.1,3-2.3,3h-7.7c-1.3,0-2.3-1.2-2.3-2.5l0,0c0-1.3,1.1-2.5,2.3-2.5h7.7
			C53.2,49,54.2,50,54.2,51L54.2,51z"/>
		<path fill="#FFFFFF" d="M51,69.1c0,1.6-1.4,2.9-3,2.9l0,0c-1.6,0-3-1.3-3-2.9V53.9c0-1.6,1.4-2.9,3-2.9l0,0c1.6,0,3,1.3,3,2.9
			V69.1z"/>
	</g>
</g>
</svg>
