<?xml version="1.0" encoding="utf-8"?>
<!-- Generator: Adobe Illustrator 16.0.0, SVG Export Plug-In . SVG Version: 6.00 Build 0)  -->
<!DOCTYPE svg PUBLIC "-//W3C//DTD SVG 1.1//EN" "http://www.w3.org/Graphics/SVG/1.1/DTD/svg11.dtd">
<svg version="1.1" id="Layer_1" xmlns="http://www.w3.org/2000/svg" xmlns:xlink="http://www.w3.org/1999/xlink" x="0px" y="0px"
	 width="128px" height="128px" viewBox="0 0 128 128" enable-background="new 0 0 128 128" xml:space="preserve">
<g>
	<g>
		<path fill="#FFAB00" d="M122.8,64c0,32.5-26.3,58.8-58.8,58.8C31.5,122.8,5.2,96.5,5.2,64C5.2,31.5,31.5,5.2,64,5.2
			C96.5,5.2,122.8,31.5,122.8,64z"/>
		<path fill="#37474F" d="M64,124.3c-33.2,0-60.3-27-60.3-60.3c0-33.2,27-60.3,60.3-60.3c33.2,0,60.3,27,60.3,60.3
			C124.3,97.2,97.2,124.3,64,124.3z M64,6.7C32.4,6.7,6.7,32.4,6.7,64c0,31.6,25.7,57.3,57.3,57.3c31.6,0,57.3-25.7,57.3-57.3
			C121.3,32.4,95.6,6.7,64,6.7z"/>
	</g>
	<g>
		<g>
			<line fill="#FFECB3" x1="64" y1="6.9" x2="64" y2="120.9"/>
			<path fill="#37474F" d="M64,122.4c-0.8,0-1.5-0.7-1.5-1.5V6.9c0-0.8,0.7-1.5,1.5-1.5s1.5,0.7,1.5,1.5v114
				C65.5,121.7,64.8,122.4,64,122.4z"/>
		</g>
		<g>
			<line fill="#FFECB3" x1="120.5" y1="64.4" x2="7.5" y2="64.4"/>
			<path fill="#37474F" d="M120.5,65.9H7.5c-0.8,0-1.5-0.7-1.5-1.5s0.7-1.5,1.5-1.5h113c0.8,0,1.5,0.7,1.5,1.5
				S121.3,65.9,120.5,65.9z"/>
		</g>
	</g>
	<g>
		<path fill="#FFECB3" d="M111,64c0,26-21.1,47-47,47S17,90,17,64C17,38,38,17,64,17S111,38,111,64z"/>
		<path fill="#37474F" d="M64,112.5c-26.8,0-48.5-21.8-48.5-48.5c0-26.7,21.8-48.5,48.5-48.5s48.5,21.8,48.5,48.5
			C112.5,90.8,90.8,112.5,64,112.5z M64,18.5c-25.1,0-45.5,20.4-45.5,45.5c0,25.1,20.4,45.5,45.5,45.5s45.5-20.4,45.5-45.5
			C109.5,38.9,89.1,18.5,64,18.5z"/>
	</g>
	<g>
		<g>
			<polygon fill="#37474F" points="53,89.1 93.9,64 53,38.9 			"/>
			<path fill="#37474F" d="M53,90.6c-0.3,0-0.5-0.1-0.7-0.2c-0.5-0.3-0.8-0.8-0.8-1.3V38.9c0-0.5,0.3-1,0.8-1.3s1.1-0.3,1.5,0
				l41,25.1c0.4,0.3,0.7,0.8,0.7,1.3s-0.3,1-0.7,1.3l-41,25.1C53.5,90.6,53.2,90.6,53,90.6z M54.5,41.6v44.9L91.1,64L54.5,41.6z"/>
		</g>
		<g>
			<g>
				<path fill="#37474F" d="M40.1,75.7c1.1,0,2,0.9,2,2c0,1.1-0.9,2-2,2c-1.1,0-1.9-0.9-1.9-2C38.1,76.6,39,75.7,40.1,75.7z"/>
				<path fill="#37474F" d="M40.1,80.2c-1.3,0-2.4-1.1-2.4-2.5c0-0.6,0.2-1.2,0.7-1.7c0.5-0.5,1.1-0.8,1.8-0.8
					c1.4,0,2.5,1.1,2.5,2.5C42.5,79.1,41.4,80.2,40.1,80.2z M40.1,76.2c-0.4,0-0.8,0.2-1,0.4c-0.3,0.3-0.4,0.6-0.4,1
					c0,0.8,0.7,1.5,1.4,1.5c0.8,0,1.5-0.6,1.5-1.5C41.5,76.9,40.9,76.2,40.1,76.2z"/>
			</g>
			<g>
				<path fill="#37474F" d="M40.1,62c1.1,0,2,0.9,2,2c0,1.1-0.9,2-2,2c-1.1,0-2-0.9-2-2C38.1,62.9,39,62,40.1,62z"/>
				<path fill="#37474F" d="M40.1,66.5L40.1,66.5c-1.4,0-2.5-1.2-2.5-2.5c0-1.4,1.2-2.5,2.5-2.5c1.4,0,2.5,1.1,2.5,2.5
					C42.5,65.4,41.4,66.4,40.1,66.5L40.1,66.5z M40.1,62.5c-0.8,0-1.4,0.7-1.5,1.5c0,0.8,0.7,1.4,1.5,1.5c0.8,0,1.5-0.7,1.5-1.5
					C41.5,63.2,40.9,62.5,40.1,62.5z"/>
			</g>
			<g>
				<path fill="#37474F" d="M40.1,48.3c1.1,0,2,0.9,2,2c0,1.1-0.9,2-2,2c-1.1,0-2-0.9-1.9-2C38.1,49.2,39,48.3,40.1,48.3z"/>
				<path fill="#37474F" d="M40.1,52.8c-0.7,0-1.3-0.3-1.8-0.8c-0.5-0.5-0.7-1.1-0.7-1.7c0-0.6,0.2-1.2,0.7-1.7
					c0.5-0.5,1.1-0.8,1.8-0.8c1.4,0,2.5,1.1,2.5,2.5C42.5,51.7,41.4,52.8,40.1,52.8z M40.1,48.8c-0.4,0-0.8,0.2-1,0.4
					c-0.3,0.3-0.4,0.6-0.4,1c0,0.4,0.1,0.8,0.4,1c0.3,0.3,0.7,0.4,1,0.4c0.8,0,1.5-0.7,1.5-1.5C41.5,49.5,40.9,48.8,40.1,48.8z"/>
			</g>
		</g>
	</g>
</g>
</svg>
