<?xml version="1.0" encoding="utf-8"?>
<!-- Generator: Adobe Illustrator 16.0.0, SVG Export Plug-In . SVG Version: 6.00 Build 0)  -->
<!DOCTYPE svg PUBLIC "-//W3C//DTD SVG 1.1//EN" "http://www.w3.org/Graphics/SVG/1.1/DTD/svg11.dtd">
<svg version="1.1" id="Layer_1" xmlns="http://www.w3.org/2000/svg" xmlns:xlink="http://www.w3.org/1999/xlink" x="0px" y="0px"
	 width="128px" height="128px" viewBox="0 0 128 128" enable-background="new 0 0 128 128" xml:space="preserve">
<g>
	<rect x="4.5" y="6.5" fill="#FFFFFF" stroke="#37474F" stroke-width="3" stroke-miterlimit="10" width="119" height="115"/>
	
		<rect x="4.5" y="6.5" fill="#FFAB00" stroke="#37474F" stroke-width="3" stroke-linecap="round" stroke-linejoin="round" stroke-miterlimit="10" width="119" height="24"/>
	<g>
		<g>
			
				<line fill="none" stroke="#37474F" stroke-width="3" stroke-linecap="round" stroke-miterlimit="10" x1="67" y1="70.5" x2="98" y2="70.5"/>
		</g>
		<g>
			
				<line fill="#FFAB00" stroke="#FFAB00" stroke-width="3" stroke-linecap="round" stroke-linejoin="round" stroke-miterlimit="10" x1="67" y1="55.5" x2="98" y2="55.5"/>
		</g>
		<g>
			
				<line fill="none" stroke="#37474F" stroke-width="3" stroke-linecap="round" stroke-miterlimit="10" x1="67" y1="82.5" x2="98" y2="82.5"/>
		</g>
		<g>
			
				<line fill="none" stroke="#37474F" stroke-width="3" stroke-linecap="round" stroke-miterlimit="10" x1="67" y1="95.5" x2="98" y2="95.5"/>
		</g>
		<g>
			
				<line fill="none" stroke="#37474F" stroke-width="3" stroke-linecap="round" stroke-miterlimit="10" x1="67" y1="107.5" x2="98" y2="107.5"/>
		</g>
	</g>
	<polygon fill="#37474F" points="17.7,22.1 14,18.4 17.7,14.7 21.4,18.4 	"/>
	<g>
		<path fill="#37474F" stroke="#37474F" stroke-miterlimit="10" d="M53.6,42.5c0,1-0.8,1.8-1.8,1.8c-1,0-1.8-0.8-1.8-1.8
			c0-1,0.8-1.8,1.8-1.8C52.8,40.7,53.6,41.5,53.6,42.5z"/>
		<path fill="#37474F" stroke="#37474F" stroke-miterlimit="10" d="M66.1,42.5c0,1-0.8,1.8-1.8,1.8c-1,0-1.8-0.8-1.8-1.8
			c0-1,0.8-1.8,1.8-1.8C65.3,40.7,66.1,41.5,66.1,42.5z"/>
		<path fill="#37474F" stroke="#37474F" stroke-miterlimit="10" d="M78.5,42.5c0,1-0.8,1.8-1.8,1.8c-1,0-1.8-0.8-1.8-1.8
			c0-1,0.8-1.8,1.8-1.8C77.7,40.7,78.5,41.5,78.5,42.5z"/>
	</g>
	
		<rect x="21.5" y="54.5" fill="#37474F" stroke="#37474F" stroke-width="3" stroke-linecap="round" stroke-linejoin="round" stroke-miterlimit="10" width="28" height="28"/>
	<g>
		<path fill="#37474F" d="M54.4,14c0,0,0,0.1,0,0.2c0,0.1,0,0.2-0.1,0.2l-2.6,8.3c0,0.1,0,0.1-0.1,0.2c0,0.1-0.1,0.1-0.1,0.1
			c-0.1,0-0.2,0-0.3,0.1c-0.2,0-0.3,0-0.5,0c-0.2,0-0.3,0-0.5,0c-0.1,0-0.2,0-0.3,0c-0.1,0-0.1-0.1-0.2-0.1c0,0-0.1-0.1-0.1-0.2
			l-1.9-6.3l0-0.1v0.1L46,22.7c0,0.1,0,0.1-0.1,0.2c0,0.1-0.1,0.1-0.2,0.1c-0.1,0-0.2,0-0.3,0.1c-0.1,0-0.3,0-0.5,0
			c-0.2,0-0.4,0-0.5,0c-0.1,0-0.2,0-0.3,0c-0.1,0-0.2-0.1-0.2-0.1c0,0-0.1-0.1-0.1-0.2l-2.5-8.3c0-0.1,0-0.2-0.1-0.2
			c0-0.1,0-0.1,0-0.2c0,0,0-0.1,0.1-0.1c0,0,0.1-0.1,0.1-0.1c0.1,0,0.1,0,0.2,0c0.1,0,0.2,0,0.4,0c0.2,0,0.3,0,0.5,0
			c0.1,0,0.2,0,0.2,0c0.1,0,0.1,0.1,0.1,0.1c0,0.1,0.1,0.1,0.1,0.2l2.1,7.2v0.1l0-0.1l1.9-7.2c0-0.1,0-0.1,0.1-0.2
			c0,0,0.1-0.1,0.1-0.1c0.1,0,0.1,0,0.3,0c0.1,0,0.2,0,0.4,0c0.1,0,0.3,0,0.4,0c0.1,0,0.2,0,0.2,0c0.1,0,0.1,0.1,0.1,0.1
			c0,0.1,0,0.1,0.1,0.1l2.1,7.2l0,0.1v-0.1l2.1-7.2c0-0.1,0-0.1,0.1-0.2c0,0,0.1-0.1,0.1-0.1c0.1,0,0.1,0,0.3,0c0.1,0,0.2,0,0.4,0
			c0.2,0,0.3,0,0.4,0c0.1,0,0.2,0,0.2,0c0.1,0,0.1,0.1,0.1,0.1C54.3,13.9,54.4,14,54.4,14z"/>
		<path fill="#37474F" d="M70.6,14c0,0,0,0.1,0,0.2c0,0.1,0,0.2-0.1,0.2l-2.6,8.3c0,0.1,0,0.1-0.1,0.2c0,0.1-0.1,0.1-0.2,0.1
			c-0.1,0-0.1,0-0.3,0.1c-0.1,0-0.3,0-0.5,0c-0.2,0-0.4,0-0.5,0c-0.2,0-0.2,0-0.3,0c-0.1,0-0.1-0.1-0.2-0.1c0,0-0.1-0.1-0.1-0.2
			L64,16.4v-0.1l0,0.1l-1.7,6.3c0,0.1-0.1,0.1-0.1,0.2c0,0.1-0.1,0.1-0.2,0.1c-0.1,0-0.2,0-0.3,0.1c-0.1,0-0.3,0-0.5,0
			c-0.2,0-0.4,0-0.5,0c-0.1,0-0.2,0-0.3,0c-0.1,0-0.1-0.1-0.1-0.1c0,0-0.1-0.1-0.1-0.2l-2.6-8.3c0-0.1-0.1-0.2-0.1-0.2
			c0-0.1,0-0.1,0-0.2c0,0,0-0.1,0-0.1c0,0,0.1-0.1,0.2-0.1c0.1,0,0.1,0,0.2,0c0.1,0,0.2,0,0.4,0c0.2,0,0.3,0,0.5,0
			c0.1,0,0.2,0,0.2,0c0.1,0,0.1,0.1,0.1,0.1c0,0.1,0.1,0.1,0.1,0.2l2.1,7.2v0.1l0-0.1l1.9-7.2c0-0.1,0.1-0.1,0.1-0.2
			c0,0,0.1-0.1,0.2-0.1c0.1,0,0.1,0,0.2,0c0.1,0,0.2,0,0.4,0c0.2,0,0.3,0,0.4,0c0.1,0,0.2,0,0.2,0c0.1,0,0.1,0.1,0.1,0.1
			c0,0.1,0,0.1,0.1,0.1l2.1,7.2l0,0.1l0-0.1L69,14c0-0.1,0-0.1,0.1-0.2c0,0,0.1-0.1,0.1-0.1c0.1,0,0.2,0,0.2,0c0.1,0,0.3,0,0.4,0
			c0.2,0,0.3,0,0.4,0c0.1,0,0.1,0,0.2,0c0.1,0,0.1,0.1,0.1,0.1C70.6,13.9,70.6,14,70.6,14z"/>
		<path fill="#37474F" d="M86.8,14c0,0,0,0.1,0,0.2c0,0.1,0,0.2-0.1,0.2l-2.6,8.3c0,0.1,0,0.1-0.1,0.2C84,22.9,84,22.9,83.9,23
			c-0.1,0-0.2,0-0.3,0.1c-0.1,0-0.3,0-0.5,0c-0.2,0-0.4,0-0.5,0c-0.2,0-0.3,0-0.3,0c-0.1,0-0.1-0.1-0.2-0.1c0,0-0.1-0.1-0.1-0.2
			l-1.8-6.3l0-0.1v0.1l-1.7,6.3c0,0.1,0,0.1-0.1,0.2c-0.1,0.1-0.1,0.1-0.2,0.1c-0.1,0-0.2,0-0.3,0.1c-0.1,0-0.3,0-0.5,0
			c-0.2,0-0.4,0-0.5,0c-0.1,0-0.2,0-0.3,0c-0.1,0-0.2-0.1-0.2-0.1c0,0,0-0.1-0.1-0.2l-2.5-8.3c0-0.1-0.1-0.2-0.1-0.2
			c0-0.1,0-0.1,0-0.2c0,0,0-0.1,0.1-0.1c0,0,0-0.1,0.1-0.1c0.1,0,0.1,0,0.2,0c0.1,0,0.2,0,0.4,0c0.2,0,0.3,0,0.4,0
			c0.1,0,0.2,0,0.3,0c0,0,0.1,0.1,0.1,0.1c0,0.1,0,0.1,0.1,0.2l2.1,7.2v0.1l0-0.1l1.9-7.2c0-0.1,0-0.1,0.1-0.2c0,0,0.1-0.1,0.1-0.1
			c0.1,0,0.2,0,0.2,0c0.1,0,0.2,0,0.4,0c0.2,0,0.3,0,0.4,0c0.1,0,0.2,0,0.2,0c0.1,0,0.1,0.1,0.1,0.1c0,0.1,0,0.1,0,0.1l2.1,7.2
			l0,0.1v-0.1l2.1-7.2c0-0.1,0.1-0.1,0.1-0.2c0,0,0.1-0.1,0.1-0.1c0.1,0,0.1,0,0.2,0c0.1,0,0.2,0,0.4,0c0.2,0,0.3,0,0.4,0
			c0.1,0,0.2,0,0.2,0c0,0,0.1,0.1,0.1,0.1C86.8,13.9,86.8,14,86.8,14z"/>
	</g>
</g>
</svg>
