<svg version="1.1" class="svg" xmlns="http://www.w3.org/2000/svg" xmlns:xlink="http://www.w3.org/1999/xlink" x="0px" y="0px" width="100%" height="100%"
	xml:space="preserve">
	<style type="text/css">
		svg {

		}

		g {
		-o-object-fit: cover;
		object-fit: cover;
		transform: translate(-32.7128px, -96px);
		overflow: visible;
		}

		polygon {
		fill: #000;
		stroke: #000;
		stroke-width: 2px;
		opacity: 0;
		-webkit-transform: scale(0.8);
		-moz-transform: scale(0.8);
		-ms-transform: scale(0.8);
		-o-transform: scale(0.8);
		transform: scale(0.8);
		-webkit-transform-origin: 50% 50%;
		-moz-transform-origin: 50% 50%;
		-ms-transform-origin: 50% 50%;
		-o-transform-origin: 50% 50%;
		transform-origin: 50% 50%;
		-webkit-animation: animate 7.2s linear infinite;
		-moz-animation: animate 7.2s linear infinite;
		animation: animate 7.2s linear infinite;
		}

		@-webkit-keyframes animate {

		0%, 29%, 51%, 100% {
		opacity: 0;
		-webkit-transform: scale(0.8);
		-moz-transform: scale(0.8);
		-ms-transform: scale(0.8);
		-o-transform: scale(0.8);
		transform: scale(0.8);
		}
		30%, 50% {
		opacity: 1;
		-webkit-transform: scale(1);
		-moz-transform: scale(1);
		-ms-transform: scale(1);
		-o-transform: scale(1);
		transform: scale(1);
		}
		}


	</style>
	<g >
		<polygon points="147.8016689125442,853.3333333333334 197.06889188339227,768 295.6033378250884,768 344.87056079593646,853.3333333333334 295.6033378250884,938.6666666666666 197.06889188339227,938.6666666666666 " style="animation-delay: 0s;"></polygon>

		<polygon points="443.40500673763256,1365.333333333333 492.67222970848064,1279.9999999999998 591.2066756501767,1279.9999999999998 640.4738986210248,1365.333333333333 591.2066756501767,1450.6666666666665 492.67222970848064,1450.6666666666665 " style="animation-delay: 0.01s;"></polygon>
		<polygon points="443.40500673763256,511.99999999999994 492.67222970848064,426.66666666666663 591.2066756501767,426.66666666666663 640.4738986210248,511.99999999999994 591.2066756501767,597.3333333333334 492.67222970848064,597.3333333333334 " style="animation-delay: 0.02s;"></polygon>

		<polygon points="147.8016689125442,1194.6666666666665 197.06889188339227,1109.3333333333333 295.6033378250884,1109.3333333333333 344.87056079593646,1194.6666666666665 295.6033378250884,1280 197.06889188339227,1280 " style="animation-delay: 0.03s;"></polygon>

		<polygon points="1034.6116823878094,1194.6666666666665 1083.8789053586574,1109.3333333333333 1182.4133513003535,1109.3333333333333 1231.6805742712017,1194.6666666666665 1182.4133513003535,1280 1083.8789053586574,1280 " style="animation-delay: 0.04s;"></polygon>

		<polygon points="0,597.3333333333334 49.26722297084807,512 147.8016689125442,512 197.06889188339227,597.3333333333334 147.8016689125442,682.6666666666666 49.26722297084807,682.6666666666666 " style="animation-delay: 0.05s;"></polygon>

		<polygon points="443.40500673763256,1024 492.67222970848064,938.6666666666666 591.2066756501767,938.6666666666666 640.4738986210248,1024 591.2066756501767,1109.3333333333333 492.67222970848064,1109.3333333333333 " style="animation-delay: 0.06s;"></polygon>

		<polygon points="886.8100134752651,938.6666666666666 936.0772364461131,853.3333333333333 1034.6116823878092,853.3333333333333 1083.8789053586574,938.6666666666666 1034.6116823878092,1023.9999999999999 936.0772364461131,1023.9999999999999 " style="animation-delay: 0.07s;"></polygon>

		<polygon points="0,768 49.26722297084807,682.6666666666666 147.8016689125442,682.6666666666666 197.06889188339227,768 147.8016689125442,853.3333333333333 49.26722297084807,853.3333333333333 " style="animation-delay: 0.08s;"></polygon>

		<polygon points="739.008344562721,682.6666666666667 788.2755675335691,597.3333333333334 886.8100134752652,597.3333333333334 936.0772364461134,682.6666666666667 886.8100134752652,768 788.2755675335691,768 " style="animation-delay: 0.09s;"></polygon>
		<polygon points="443.40500673763256,682.6666666666667 492.67222970848064,597.3333333333334 591.2066756501767,597.3333333333334 640.4738986210248,682.6666666666667 591.2066756501767,768 492.67222970848064,768 " style="animation-delay: 0.1s;"></polygon>
		<polygon points="147.8016689125442,682.6666666666667 197.06889188339227,597.3333333333334 295.6033378250884,597.3333333333334 344.87056079593646,682.6666666666667 295.6033378250884,768 197.06889188339227,768 " style="animation-delay: 0.11s;"></polygon>
		<polygon points="443.40500673763256,853.3333333333334 492.67222970848064,768 591.2066756501767,768 640.4738986210248,853.3333333333334 591.2066756501767,938.6666666666666 492.67222970848064,938.6666666666666 " style="animation-delay: 0.12s;"></polygon>
		<polygon points="295.6033378250884,768 344.87056079593646,682.6666666666666 443.40500673763256,682.6666666666666 492.67222970848064,768 443.40500673763256,853.3333333333333 344.87056079593646,853.3333333333333 " style="animation-delay: 0.13s;"></polygon>
		<polygon points="591.2066756501767,938.6666666666666 640.4738986210248,853.3333333333333 739.0083445627209,853.3333333333333 788.2755675335691,938.6666666666666 739.0083445627209,1023.9999999999999 640.4738986210248,1023.9999999999999 " style="animation-delay: 0.14s;"></polygon>
		<polygon points="1330.2150202128978,170.66666666666666 1379.4822431837458,85.33333333333333 1478.016689125442,85.33333333333333 1527.2839120962901,170.66666666666666 1478.016689125442,256 1379.4822431837458,256 " style="animation-delay: 0.15s;"></polygon>
		<polygon points="886.8100134752651,85.33333333333333 936.0772364461131,0 1034.6116823878092,0 1083.8789053586574,85.33333333333333 1034.6116823878092,170.66666666666666 936.0772364461131,170.66666666666666 " style="animation-delay: 0.16s;"></polygon>
		<polygon points="739.008344562721,511.99999999999994 788.2755675335691,426.66666666666663 886.8100134752652,426.66666666666663 936.0772364461134,511.99999999999994 886.8100134752652,597.3333333333334 788.2755675335691,597.3333333333334 " style="animation-delay: 0.17s;"></polygon>
		<polygon points="0,85.33333333333333 49.26722297084807,0 147.8016689125442,0 197.06889188339227,85.33333333333333 147.8016689125442,170.66666666666666 49.26722297084807,170.66666666666666 " style="animation-delay: 0.18s;"></polygon>
		<polygon points="0,1279.9999999999998 49.26722297084807,1194.6666666666665 147.8016689125442,1194.6666666666665 197.06889188339227,1279.9999999999998 147.8016689125442,1365.3333333333333 49.26722297084807,1365.3333333333333 " style="animation-delay: 0.19s;"></polygon>
		<polygon points="295.6033378250884,1279.9999999999998 344.87056079593646,1194.6666666666665 443.40500673763256,1194.6666666666665 492.67222970848064,1279.9999999999998 443.40500673763256,1365.3333333333333 344.87056079593646,1365.3333333333333 " style="animation-delay: 0.2s;"></polygon>
		<polygon points="443.40500673763256,170.66666666666666 492.67222970848064,85.33333333333333 591.2066756501767,85.33333333333333 640.4738986210248,170.66666666666666 591.2066756501767,256 492.67222970848064,256 " style="animation-delay: 0.21s;"></polygon>
		<polygon points="1330.2150202128978,1024 1379.4822431837458,938.6666666666666 1478.016689125442,938.6666666666666 1527.2839120962901,1024 1478.016689125442,1109.3333333333333 1379.4822431837458,1109.3333333333333 " style="animation-delay: 0.22s;"></polygon>
		<polygon points="1182.4133513003535,938.6666666666666 1231.6805742712015,853.3333333333333 1330.2150202128978,853.3333333333333 1379.4822431837458,938.6666666666666 1330.2150202128978,1023.9999999999999 1231.6805742712015,1023.9999999999999 " style="animation-delay: 0.23s;"></polygon>
		<polygon points="443.40500673763256,1194.6666666666665 492.67222970848064,1109.3333333333333 591.2066756501767,1109.3333333333333 640.4738986210248,1194.6666666666665 591.2066756501767,1280 492.67222970848064,1280 " style="animation-delay: 0.24s;"></polygon>
		<polygon points="1330.2150202128978,511.99999999999994 1379.4822431837458,426.66666666666663 1478.016689125442,426.66666666666663 1527.2839120962901,511.99999999999994 1478.016689125442,597.3333333333334 1379.4822431837458,597.3333333333334 " style="animation-delay: 0.25s;"></polygon>
		<polygon points="295.6033378250884,85.33333333333333 344.87056079593646,0 443.40500673763256,0 492.67222970848064,85.33333333333333 443.40500673763256,170.66666666666666 344.87056079593646,170.66666666666666 " style="animation-delay: 0.26s;"></polygon>
		<polygon points="1330.2150202128978,341.3333333333333 1379.4822431837458,256 1478.016689125442,256 1527.2839120962901,341.3333333333333 1478.016689125442,426.66666666666663 1379.4822431837458,426.66666666666663 " style="animation-delay: 0.27s;"></polygon>
		<polygon points="443.40500673763256,341.3333333333333 492.67222970848064,256 591.2066756501767,256 640.4738986210248,341.3333333333333 591.2066756501767,426.66666666666663 492.67222970848064,426.66666666666663 " style="animation-delay: 0.28s;"></polygon>
		<polygon points="1182.4133513003535,85.33333333333333 1231.6805742712015,0 1330.2150202128978,0 1379.4822431837458,85.33333333333333 1330.2150202128978,170.66666666666666 1231.6805742712015,170.66666666666666 " style="animation-delay: 0.29s;"></polygon>
		<polygon points="147.8016689125442,511.99999999999994 197.06889188339227,426.66666666666663 295.6033378250884,426.66666666666663 344.87056079593646,511.99999999999994 295.6033378250884,597.3333333333334 197.06889188339227,597.3333333333334 " style="animation-delay: 0.3s;"></polygon>
		<polygon points="591.2066756501767,85.33333333333333 640.4738986210248,0 739.0083445627209,0 788.2755675335691,85.33333333333333 739.0083445627209,170.66666666666666 640.4738986210248,170.66666666666666 " style="animation-delay: 0.31s;"></polygon>
		<polygon points="147.8016689125442,1024 197.06889188339227,938.6666666666666 295.6033378250884,938.6666666666666 344.87056079593646,1024 295.6033378250884,1109.3333333333333 197.06889188339227,1109.3333333333333 " style="animation-delay: 0.32s;"></polygon>
		<polygon points="886.8100134752651,768 936.0772364461131,682.6666666666666 1034.6116823878092,682.6666666666666 1083.8789053586574,768 1034.6116823878092,853.3333333333333 936.0772364461131,853.3333333333333 " style="animation-delay: 0.33s;"></polygon>
		<polygon points="739.008344562721,170.66666666666666 788.2755675335691,85.33333333333333 886.8100134752652,85.33333333333333 936.0772364461134,170.66666666666666 886.8100134752652,256 788.2755675335691,256 " style="animation-delay: 0.34s;"></polygon>
		<polygon points="739.008344562721,341.3333333333333 788.2755675335691,256 886.8100134752652,256 936.0772364461134,341.3333333333333 886.8100134752652,426.66666666666663 788.2755675335691,426.66666666666663 " style="animation-delay: 0.35s;"></polygon>
		<polygon points="1182.4133513003535,1109.3333333333333 1231.6805742712015,1024 1330.2150202128978,1024 1379.4822431837458,1109.3333333333333 1330.2150202128978,1194.6666666666667 1231.6805742712015,1194.6666666666667 " style="animation-delay: 0.36s;"></polygon>
		<polygon points="591.2066756501767,1109.3333333333333 640.4738986210248,1024 739.0083445627209,1024 788.2755675335691,1109.3333333333333 739.0083445627209,1194.6666666666667 640.4738986210248,1194.6666666666667 " style="animation-delay: 0.37s;"></polygon>
		<polygon points="739.008344562721,853.3333333333334 788.2755675335691,768 886.8100134752652,768 936.0772364461134,853.3333333333334 886.8100134752652,938.6666666666666 788.2755675335691,938.6666666666666 " style="animation-delay: 0.38s;"></polygon>
		<polygon points="295.6033378250884,938.6666666666666 344.87056079593646,853.3333333333333 443.40500673763256,853.3333333333333 492.67222970848064,938.6666666666666 443.40500673763256,1023.9999999999999 344.87056079593646,1023.9999999999999 " style="animation-delay: 0.39s;"></polygon>
		<polygon points="295.6033378250884,426.66666666666663 344.87056079593646,341.3333333333333 443.40500673763256,341.3333333333333 492.67222970848064,426.66666666666663 443.40500673763256,512 344.87056079593646,512 " style="animation-delay: 0.4s;"></polygon>
		<polygon points="591.2066756501767,426.66666666666663 640.4738986210248,341.3333333333333 739.0083445627209,341.3333333333333 788.2755675335691,426.66666666666663 739.0083445627209,512 640.4738986210248,512 " style="animation-delay: 0.41s;"></polygon>
		<polygon points="1182.4133513003535,426.66666666666663 1231.6805742712015,341.3333333333333 1330.2150202128978,341.3333333333333 1379.4822431837458,426.66666666666663 1330.2150202128978,512 1231.6805742712015,512 " style="animation-delay: 0.42s;"></polygon>
		<polygon points="0,938.6666666666666 49.26722297084807,853.3333333333333 147.8016689125442,853.3333333333333 197.06889188339227,938.6666666666666 147.8016689125442,1023.9999999999999 49.26722297084807,1023.9999999999999 " style="animation-delay: 0.43s;"></polygon>
		<polygon points="886.8100134752651,256 936.0772364461131,170.66666666666666 1034.6116823878092,170.66666666666666 1083.8789053586574,256 1034.6116823878092,341.3333333333333 936.0772364461131,341.3333333333333 " style="animation-delay: 0.44s;"></polygon>
		<polygon points="1034.6116823878094,1024 1083.8789053586574,938.6666666666666 1182.4133513003535,938.6666666666666 1231.6805742712017,1024 1182.4133513003535,1109.3333333333333 1083.8789053586574,1109.3333333333333 " style="animation-delay: 0.45s;"></polygon>
		<polygon points="886.8100134752651,426.66666666666663 936.0772364461131,341.3333333333333 1034.6116823878092,341.3333333333333 1083.8789053586574,426.66666666666663 1034.6116823878092,512 936.0772364461131,512 " style="animation-delay: 0.46s;"></polygon>
		<polygon points="0,426.66666666666663 49.26722297084807,341.3333333333333 147.8016689125442,341.3333333333333 197.06889188339227,426.66666666666663 147.8016689125442,512 49.26722297084807,512 " style="animation-delay: 0.47s;"></polygon>
		<polygon points="295.6033378250884,597.3333333333334 344.87056079593646,512 443.40500673763256,512 492.67222970848064,597.3333333333334 443.40500673763256,682.6666666666666 344.87056079593646,682.6666666666666 " style="animation-delay: 0.48s;"></polygon>
		<polygon points="591.2066756501767,256 640.4738986210248,170.66666666666666 739.0083445627209,170.66666666666666 788.2755675335691,256 739.0083445627209,341.3333333333333 640.4738986210248,341.3333333333333 " style="animation-delay: 0.49s;"></polygon>
		<polygon points="1330.2150202128978,1365.333333333333 1379.4822431837458,1279.9999999999998 1478.016689125442,1279.9999999999998 1527.2839120962901,1365.333333333333 1478.016689125442,1450.6666666666665 1379.4822431837458,1450.6666666666665 " style="animation-delay: 0.5s;"></polygon>
		<polygon points="0,256 49.26722297084807,170.66666666666666 147.8016689125442,170.66666666666666 197.06889188339227,256 147.8016689125442,341.3333333333333 49.26722297084807,341.3333333333333 " style="animation-delay: 0.51s;"></polygon>
		<polygon points="739.008344562721,1024 788.2755675335691,938.6666666666666 886.8100134752652,938.6666666666666 936.0772364461134,1024 886.8100134752652,1109.3333333333333 788.2755675335691,1109.3333333333333 " style="animation-delay: 0.52s;"></polygon>
		<polygon points="1182.4133513003535,768 1231.6805742712015,682.6666666666666 1330.2150202128978,682.6666666666666 1379.4822431837458,768 1330.2150202128978,853.3333333333333 1231.6805742712015,853.3333333333333 " style="animation-delay: 0.53s;"></polygon>
		<polygon points="147.8016689125442,341.3333333333333 197.06889188339227,256 295.6033378250884,256 344.87056079593646,341.3333333333333 295.6033378250884,426.66666666666663 197.06889188339227,426.66666666666663 " style="animation-delay: 0.54s;"></polygon>
		<polygon points="0,1109.3333333333333 49.26722297084807,1024 147.8016689125442,1024 197.06889188339227,1109.3333333333333 147.8016689125442,1194.6666666666667 49.26722297084807,1194.6666666666667 " style="animation-delay: 0.55s;"></polygon>
		<polygon points="1034.6116823878094,341.3333333333333 1083.8789053586574,256 1182.4133513003535,256 1231.6805742712017,341.3333333333333 1182.4133513003535,426.66666666666663 1083.8789053586574,426.66666666666663 " style="animation-delay: 0.56s;"></polygon>
		<polygon points="1182.4133513003535,597.3333333333334 1231.6805742712015,512 1330.2150202128978,512 1379.4822431837458,597.3333333333334 1330.2150202128978,682.6666666666666 1231.6805742712015,682.6666666666666 " style="animation-delay: 0.57s;"></polygon>
		<polygon points="1034.6116823878094,511.99999999999994 1083.8789053586574,426.66666666666663 1182.4133513003535,426.66666666666663 1231.6805742712017,511.99999999999994 1182.4133513003535,597.3333333333334 1083.8789053586574,597.3333333333334 " style="animation-delay: 0.58s;"></polygon>
		<polygon points="1034.6116823878094,170.66666666666666 1083.8789053586574,85.33333333333333 1182.4133513003535,85.33333333333333 1231.6805742712017,170.66666666666666 1182.4133513003535,256 1083.8789053586574,256 " style="animation-delay: 0.59s;"></polygon>
		<polygon points="739.008344562721,1365.333333333333 788.2755675335691,1279.9999999999998 886.8100134752652,1279.9999999999998 936.0772364461134,1365.333333333333 886.8100134752652,1450.6666666666665 788.2755675335691,1450.6666666666665 " style="animation-delay: 0.6s;"></polygon>
		<polygon points="886.8100134752651,1279.9999999999998 936.0772364461131,1194.6666666666665 1034.6116823878092,1194.6666666666665 1083.8789053586574,1279.9999999999998 1034.6116823878092,1365.3333333333333 936.0772364461131,1365.3333333333333 " style="animation-delay: 0.61s;"></polygon>
		<polygon points="739.008344562721,1194.6666666666665 788.2755675335691,1109.3333333333333 886.8100134752652,1109.3333333333333 936.0772364461134,1194.6666666666665 886.8100134752652,1280 788.2755675335691,1280 " style="animation-delay: 0.62s;"></polygon>
		<polygon points="147.8016689125442,170.66666666666666 197.06889188339227,85.33333333333333 295.6033378250884,85.33333333333333 344.87056079593646,170.66666666666666 295.6033378250884,256 197.06889188339227,256 " style="animation-delay: 0.63s;"></polygon>
		<polygon points="1330.2150202128978,853.3333333333334 1379.4822431837458,768 1478.016689125442,768 1527.2839120962901,853.3333333333334 1478.016689125442,938.6666666666666 1379.4822431837458,938.6666666666666 " style="animation-delay: 0.64s;"></polygon>
		<polygon points="1182.4133513003535,1279.9999999999998 1231.6805742712015,1194.6666666666665 1330.2150202128978,1194.6666666666665 1379.4822431837458,1279.9999999999998 1330.2150202128978,1365.3333333333333 1231.6805742712015,1365.3333333333333 " style="animation-delay: 0.65s;"></polygon>
		<polygon points="1034.6116823878094,682.6666666666667 1083.8789053586574,597.3333333333334 1182.4133513003535,597.3333333333334 1231.6805742712017,682.6666666666667 1182.4133513003535,768 1083.8789053586574,768 " style="animation-delay: 0.66s;"></polygon>
		<polygon points="147.8016689125442,1365.333333333333 197.06889188339227,1279.9999999999998 295.6033378250884,1279.9999999999998 344.87056079593646,1365.333333333333 295.6033378250884,1450.6666666666665 197.06889188339227,1450.6666666666665 " style="animation-delay: 0.67s;"></polygon>
		<polygon points="1034.6116823878094,853.3333333333334 1083.8789053586574,768 1182.4133513003535,768 1231.6805742712017,853.3333333333334 1182.4133513003535,938.6666666666666 1083.8789053586574,938.6666666666666 " style="animation-delay: 0.68s;"></polygon>
		<polygon points="591.2066756501767,597.3333333333334 640.4738986210248,512 739.0083445627209,512 788.2755675335691,597.3333333333334 739.0083445627209,682.6666666666666 640.4738986210248,682.6666666666666 " style="animation-delay: 0.69s;"></polygon>
		<polygon points="591.2066756501767,768 640.4738986210248,682.6666666666666 739.0083445627209,682.6666666666666 788.2755675335691,768 739.0083445627209,853.3333333333333 640.4738986210248,853.3333333333333 " style="animation-delay: 0.7s;"></polygon>
		<polygon points="1330.2150202128978,1194.6666666666665 1379.4822431837458,1109.3333333333333 1478.016689125442,1109.3333333333333 1527.2839120962901,1194.6666666666665 1478.016689125442,1280 1379.4822431837458,1280 " style="animation-delay: 0.71s;"></polygon>
		<polygon points="295.6033378250884,256 344.87056079593646,170.66666666666666 443.40500673763256,170.66666666666666 492.67222970848064,256 443.40500673763256,341.3333333333333 344.87056079593646,341.3333333333333 " style="animation-delay: 0.72s;"></polygon>
		<polygon points="295.6033378250884,1109.3333333333333 344.87056079593646,1024 443.40500673763256,1024 492.67222970848064,1109.3333333333333 443.40500673763256,1194.6666666666667 344.87056079593646,1194.6666666666667 " style="animation-delay: 0.73s;"></polygon>
		<polygon points="886.8100134752651,597.3333333333334 936.0772364461131,512 1034.6116823878092,512 1083.8789053586574,597.3333333333334 1034.6116823878092,682.6666666666666 936.0772364461131,682.6666666666666 " style="animation-delay: 0.74s;"></polygon>
		<polygon points="886.8100134752651,1109.3333333333333 936.0772364461131,1024 1034.6116823878092,1024 1083.8789053586574,1109.3333333333333 1034.6116823878092,1194.6666666666667 936.0772364461131,1194.6666666666667 " style="animation-delay: 0.75s;"></polygon>
		<polygon points="1034.6116823878094,1365.333333333333 1083.8789053586574,1279.9999999999998 1182.4133513003535,1279.9999999999998 1231.6805742712017,1365.333333333333 1182.4133513003535,1450.6666666666665 1083.8789053586574,1450.6666666666665 " style="animation-delay: 0.76s;"></polygon>
		<polygon points="1182.4133513003535,256 1231.6805742712015,170.66666666666666 1330.2150202128978,170.66666666666666 1379.4822431837458,256 1330.2150202128978,341.3333333333333 1231.6805742712015,341.3333333333333 " style="animation-delay: 0.77s;"></polygon>
		<polygon points="591.2066756501767,1279.9999999999998 640.4738986210248,1194.6666666666665 739.0083445627209,1194.6666666666665 788.2755675335691,1279.9999999999998 739.0083445627209,1365.3333333333333 640.4738986210248,1365.3333333333333 " style="animation-delay: 0.78s;"></polygon>
		<polygon points="1330.2150202128978,682.6666666666667 1379.4822431837458,597.3333333333334 1478.016689125442,597.3333333333334 1527.2839120962901,682.6666666666667 1478.016689125442,768 1379.4822431837458,768 " style="animation-delay: 0.79s;"></polygon>
	</g>
</svg>
