<?xml version="1.0" encoding="UTF-8"?>
<svg width="461px" height="280px" viewBox="0 0 461 280" version="1.1" xmlns="http://www.w3.org/2000/svg" xmlns:xlink="http://www.w3.org/1999/xlink">
    <!-- Generator: Sketch 47.1 (45422) - http://www.bohemiancoding.com/sketch -->
    <title>Group 9</title>
    <desc>Created with Sketch.</desc>
    <defs></defs>
    <g id="Page-1" stroke="none" stroke-width="1" fill="none" fill-rule="evenodd">
        <g id="Artboard" transform="translate(-230.000000, -109.000000)" fill="#FFFFFF">
            <g id="Group-9" transform="translate(230.000000, 109.000000)">
                <path d="M19.6588086,97.0087891 L20.7969922,97.0087891 L15.1881055,112 L14.2652539,112 L8.676875,97.0087891 L9.79455078,97.0087891 L13.5679883,107.211426 C14.1422099,108.749519 14.5284365,109.904781 14.7266797,110.677246 C14.8633991,110.164548 15.133416,109.368169 15.5367383,108.288086 L19.6588086,97.0087891 Z M31.4810547,106.411621 C31.4810547,108.22999 31.0401411,109.650141 30.1583008,110.672119 C29.2764604,111.694097 28.0596757,112.205078 26.5079102,112.205078 C25.5303662,112.205078 24.6690467,111.969241 23.9239258,111.497559 C23.1788049,111.025877 22.6080098,110.349126 22.2115234,109.467285 C21.8150371,108.585445 21.6167969,107.5669 21.6167969,106.411621 C21.6167969,104.593253 22.0577104,103.176519 22.9395508,102.161377 C23.8213911,101.146235 25.03134,100.638672 26.5694336,100.638672 C28.1006913,100.638672 29.3020953,101.153071 30.1736816,102.181885 C31.045268,103.210699 31.4810547,104.620597 31.4810547,106.411621 Z M22.6832031,106.411621 C22.6832031,107.942879 23.0198697,109.137447 23.6932129,109.995361 C24.3665561,110.853276 25.3184509,111.282227 26.5489258,111.282227 C27.7794007,111.282227 28.7312955,110.853276 29.4046387,109.995361 C30.0779819,109.137447 30.4146484,107.942879 30.4146484,106.411621 C30.4146484,104.873527 30.0745639,103.680668 29.3943848,102.833008 C28.7142056,101.985347 27.7588929,101.561523 26.528418,101.561523 C25.2979431,101.561523 24.3494662,101.983638 23.682959,102.827881 C23.0164517,103.672123 22.6832031,104.866691 22.6832031,106.411621 Z M35.6026172,112 L34.5874805,112 L34.5874805,96.0449219 L35.6026172,96.0449219 L35.6026172,112 Z M40.236875,100.854004 L40.236875,108.072754 C40.236875,109.193853 40.4727125,110.009031 40.9443945,110.518311 C41.4160766,111.02759 42.1475146,111.282227 43.1387305,111.282227 C44.464909,111.282227 45.4407293,110.947269 46.0662207,110.277344 C46.6917121,109.607419 47.0044531,108.517097 47.0044531,107.006348 L47.0044531,100.854004 L48.0093359,100.854004 L48.0093359,112 L47.1480078,112 L46.9634375,110.461914 L46.9019141,110.461914 C46.1773011,111.624029 44.8887397,112.205078 43.0361914,112.205078 C40.5000459,112.205078 39.2319922,110.848158 39.2319922,108.134277 L39.2319922,100.854004 L40.236875,100.854004 Z M65.6865625,112 L65.6865625,104.688965 C65.6865625,103.602045 65.4746506,102.809085 65.0508203,102.310059 C64.6269901,101.811033 63.9775825,101.561523 63.1025781,101.561523 C61.9609709,101.561523 61.116741,101.875973 60.5698633,102.504883 C60.0229855,103.133792 59.7495508,104.121575 59.7495508,105.468262 L59.7495508,112 L58.7139063,112 L58.7139063,104.381348 C58.7139063,102.501455 57.8525867,101.561523 56.1299219,101.561523 C54.9609707,101.561523 54.109905,101.901608 53.5766992,102.581787 C53.0434934,103.261966 52.7768945,104.350578 52.7768945,105.847656 L52.7768945,112 L51.7617578,112 L51.7617578,100.854004 L52.6025781,100.854004 L52.8179102,102.381836 L52.8794336,102.381836 C53.1870523,101.828122 53.6245479,101.399171 54.1919336,101.094971 C54.7593192,100.79077 55.3848013,100.638672 56.0683984,100.638672 C57.8252432,100.638672 58.9531616,101.298333 59.4521875,102.617676 L59.4932031,102.617676 C59.8555096,101.98193 60.3425653,101.493166 60.9543848,101.151367 C61.5662042,100.809569 62.2617539,100.638672 63.0410547,100.638672 C64.2578576,100.638672 65.1704462,100.963376 65.7788477,101.612793 C66.3872491,102.26221 66.6914453,103.294427 66.6914453,104.709473 L66.6914453,112 L65.6865625,112 Z M74.8222852,112.205078 C73.2021599,112.205078 71.939233,111.70606 71.0334668,110.708008 C70.1277005,109.709956 69.6748242,108.312021 69.6748242,106.51416 C69.6748242,104.736808 70.1123198,103.313238 70.9873242,102.243408 C71.8623286,101.173579 73.041516,100.638672 74.5249219,100.638672 C75.8374284,100.638672 76.8730626,101.096675 77.6318555,102.012695 C78.3906483,102.928716 78.7700391,104.172844 78.7700391,105.745117 L78.7700391,106.56543 L70.7412305,106.56543 C70.7549024,108.096687 71.1120766,109.265621 71.8127637,110.072266 C72.5134508,110.87891 73.5166146,111.282227 74.8222852,111.282227 C75.4580305,111.282227 76.0168628,111.237793 76.4987988,111.148926 C76.9807348,111.060058 77.5908362,110.868654 78.3291211,110.574707 L78.3291211,111.497559 C77.7002117,111.770997 77.1191628,111.957275 76.585957,112.056396 C76.0527512,112.155518 75.4648665,112.205078 74.8222852,112.205078 Z M74.5249219,101.541016 C73.4516743,101.541016 72.5903548,101.894772 71.9409375,102.602295 C71.2915202,103.309818 70.9121295,104.330071 70.8027539,105.663086 L77.6933789,105.663086 C77.6933789,104.371087 77.4131083,103.361088 76.8525586,102.633057 C76.2920089,101.905026 75.5161378,101.541016 74.5249219,101.541016 Z" id="Volume-Copy"></path>
                <path d="M35.9317578,28.1342773 C35.9317578,29.3852602 35.4720456,30.3764612 34.5526074,31.1079102 C33.6331692,31.8393591 32.4112576,32.2050781 30.8868359,32.2050781 C29.0547955,32.2050781 27.6500244,32.00342 26.6724805,31.6000977 L26.6724805,30.5541992 C27.752564,31.0122093 29.1299916,31.2412109 30.8048047,31.2412109 C32.0352796,31.2412109 33.0110999,30.9592313 33.7322949,30.3952637 C34.4534899,29.831296 34.814082,29.0913132 34.814082,28.175293 C34.814082,27.6079073 34.6944543,27.1379413 34.4551953,26.7653809 C34.2159363,26.3928204 33.8262918,26.0527359 33.28625,25.7451172 C32.7462082,25.4374985 31.9532474,25.1059588 30.9073438,24.7504883 C29.3760861,24.2241185 28.3182353,23.6550324 27.7337598,23.0432129 C27.1492842,22.4313934 26.8570508,21.616216 26.8570508,20.5976562 C26.8570508,19.4765569 27.2962554,18.5622594 28.1746777,17.8547363 C29.0531001,17.1472133 30.1827275,16.793457 31.5635938,16.793457 C32.9718039,16.793457 34.2945446,17.0600559 35.5318555,17.5932617 L35.1524609,18.4956055 C33.9083141,17.9760716 32.7188729,17.7163086 31.5841016,17.7163086 C30.4766742,17.7163086 29.594847,17.9726537 28.9385938,18.4853516 C28.2823405,18.9980494 27.9542188,19.6953081 27.9542188,20.5771484 C27.9542188,21.1308621 28.0550478,21.5854474 28.256709,21.940918 C28.4583702,22.2963885 28.7882008,22.6159654 29.2462109,22.8996582 C29.704221,23.183351 30.490346,23.5234355 31.6046094,23.9199219 C32.7735605,24.3232442 33.6519697,24.7145977 34.2398633,25.0939941 C34.8277568,25.4733906 35.2567076,25.9040503 35.5267285,26.3859863 C35.7967494,26.8679223 35.9317578,27.4506802 35.9317578,28.1342773 Z M48.0821289,26.4116211 C48.0821289,28.2299896 47.6412153,29.6501414 46.759375,30.6721191 C45.8775347,31.6940969 44.6607499,32.2050781 43.1089844,32.2050781 C42.1314404,32.2050781 41.2701209,31.9692406 40.525,31.4975586 C39.7798791,31.0258765 39.209084,30.3491255 38.8125977,29.4672852 C38.4161113,28.5854448 38.2178711,27.5669003 38.2178711,26.4116211 C38.2178711,24.5932526 38.6587847,23.1765187 39.540625,22.161377 C40.4224653,21.1462352 41.6324142,20.6386719 43.1705078,20.6386719 C44.7017655,20.6386719 45.9031695,21.153071 46.7747559,22.1818848 C47.6463423,23.2106985 48.0821289,24.6205965 48.0821289,26.4116211 Z M39.2842773,26.4116211 C39.2842773,27.9428788 39.6209439,29.1374469 40.2942871,29.9953613 C40.9676303,30.8532758 41.9195251,31.2822266 43.15,31.2822266 C44.3804749,31.2822266 45.3323697,30.8532758 46.0057129,29.9953613 C46.6790561,29.1374469 47.0157227,27.9428788 47.0157227,26.4116211 C47.0157227,24.8735275 46.6756382,23.6806683 45.995459,22.8330078 C45.3152798,21.9853473 44.3599671,21.5615234 43.1294922,21.5615234 C41.8990173,21.5615234 40.9505404,21.9836384 40.2840332,22.8278809 C39.617526,23.6721234 39.2842773,24.8666915 39.2842773,26.4116211 Z M55.63875,32.2050781 C54.0459686,32.2050781 52.7984225,31.7026417 51.8960742,30.6977539 C50.993726,29.6928661 50.5425586,28.2915129 50.5425586,26.4936523 C50.5425586,24.64794 51.0108156,23.2106985 51.9473438,22.1818848 C52.8838719,21.153071 54.1655973,20.6386719 55.7925586,20.6386719 C56.7564306,20.6386719 57.6792729,20.8061507 58.5611133,21.1411133 L58.2842578,22.043457 C57.3203858,21.7221664 56.4829918,21.5615234 55.7720508,21.5615234 C54.4048564,21.5615234 53.3692223,21.9836384 52.6651172,22.8278809 C51.9610121,23.6721234 51.6089648,24.8871991 51.6089648,26.4731445 C51.6089648,27.9770583 51.9610121,29.1545368 52.6651172,30.0056152 C53.3692223,30.8566937 54.3535874,31.2822266 55.6182422,31.2822266 C56.629966,31.2822266 57.569898,31.101076 58.4380664,30.7387695 L58.4380664,31.6821289 C57.7271254,32.0307635 56.7940292,32.2050781 55.63875,32.2050781 Z M62.2007422,32 L61.1856055,32 L61.1856055,20.8540039 L62.2007422,20.8540039 L62.2007422,32 Z M61.0420508,17.7573242 C61.0420508,17.1010709 61.2573807,16.7729492 61.6880469,16.7729492 C61.899962,16.7729492 62.0657318,16.8583976 62.1853613,17.0292969 C62.3049908,17.2001962 62.3648047,17.4428695 62.3648047,17.7573242 C62.3648047,18.0649429 62.3049908,18.3076163 62.1853613,18.4853516 C62.0657318,18.6630868 61.899962,18.7519531 61.6880469,18.7519531 C61.2573807,18.7519531 61.0420508,18.4204135 61.0420508,17.7573242 Z M72.7207422,32 L72.4643945,30.2363281 L72.3823633,30.2363281 C71.8218136,30.9541052 71.2458916,31.4616684 70.6545801,31.7590332 C70.0632685,32.056398 69.3643009,32.2050781 68.5576563,32.2050781 C67.4639008,32.2050781 66.6128351,31.9248075 66.0044336,31.3642578 C65.3960321,30.8037081 65.0918359,30.027837 65.0918359,29.0366211 C65.0918359,27.9497016 65.5447123,27.1054718 66.4504785,26.5039062 C67.3562448,25.9023407 68.6670227,25.5844728 70.3828516,25.550293 L72.5054102,25.4887695 L72.5054102,24.7504883 C72.5054102,23.6909127 72.2900803,22.891116 71.8594141,22.3510742 C71.4287478,21.8110325 70.7349071,21.5410156 69.7778711,21.5410156 C68.7456394,21.5410156 67.6758259,21.8281221 66.5683984,22.4023438 L66.1890039,21.5205078 C67.4126428,20.9462862 68.6225917,20.6591797 69.8188867,20.6591797 C71.0425257,20.6591797 71.9568231,20.9770476 72.5618066,21.612793 C73.1667901,22.2485383 73.4692773,23.2397394 73.4692773,24.5864258 L73.4692773,32 L72.7207422,32 Z M68.6191797,31.2822266 C69.8086388,31.2822266 70.7468618,30.9421421 71.433877,30.2619629 C72.1208921,29.5817837 72.4643945,28.6367248 72.4643945,27.4267578 L72.4643945,26.3295898 L70.5161523,26.4116211 C68.9507148,26.4868168 67.8347592,26.7311991 67.168252,27.1447754 C66.5017447,27.5583517 66.1684961,28.2026323 66.1684961,29.0776367 C66.1684961,29.7749058 66.382117,30.3166485 66.8093652,30.7028809 C67.2366135,31.0891133 67.8398789,31.2822266 68.6191797,31.2822266 Z M78.1137891,32 L77.0986523,32 L77.0986523,16.0449219 L78.1137891,16.0449219 L78.1137891,32 Z" id="Social-Copy"></path>
                <path d="M9.42642578,172.31543 C9.42642578,173.764656 8.93424321,174.875484 7.94986328,175.647949 C6.96548336,176.420414 5.57096606,176.806641 3.76626953,176.806641 L1.44888672,176.806641 L1.44888672,183 L0.402988285,183 L0.402988285,168.008789 L4.07388672,168.008789 C7.64226394,168.008789 9.42642578,169.444322 9.42642578,172.31543 Z M1.44888672,175.904297 L3.50992188,175.904297 C5.19840688,175.904297 6.41860953,175.625735 7.17056641,175.068604 C7.92252329,174.511472 8.2984961,173.607428 8.2984961,172.356445 C8.2984961,171.201166 7.9430309,170.344973 7.23208985,169.787842 C6.52114879,169.23071 5.42057386,168.952148 3.93033203,168.952148 L1.44888672,168.952148 L1.44888672,175.904297 Z M13.465957,183 L12.4508203,183 L12.4508203,167.044922 L13.465957,167.044922 L13.465957,183 Z M23.985957,183 L23.7296094,181.236328 L23.6475781,181.236328 C23.0870284,181.954105 22.5111065,182.461668 21.9197949,182.759033 C21.3284834,183.056398 20.6295158,183.205078 19.8228711,183.205078 C18.7291156,183.205078 17.8780499,182.924807 17.2696484,182.364258 C16.661247,181.803708 16.3570508,181.027837 16.3570508,180.036621 C16.3570508,178.949702 16.8099271,178.105472 17.7156934,177.503906 C18.6214596,176.902341 19.9322375,176.584473 21.6480664,176.550293 L23.770625,176.48877 L23.770625,175.750488 C23.770625,174.690913 23.5552951,173.891116 23.1246289,173.351074 C22.6939627,172.811032 22.000122,172.541016 21.0430859,172.541016 C20.0108542,172.541016 18.9410407,172.828122 17.8336133,173.402344 L17.4542188,172.520508 C18.6778577,171.946286 19.8878065,171.65918 21.0841016,171.65918 C22.3077405,171.65918 23.222038,171.977048 23.8270215,172.612793 C24.432005,173.248538 24.7344922,174.239739 24.7344922,175.586426 L24.7344922,183 L23.985957,183 Z M19.8843945,182.282227 C21.0738536,182.282227 22.0120766,181.942142 22.6990918,181.261963 C23.386107,180.581784 23.7296094,179.636725 23.7296094,178.426758 L23.7296094,177.32959 L21.7813672,177.411621 C20.2159297,177.486817 19.099974,177.731199 18.4334668,178.144775 C17.7669596,178.558352 17.4337109,179.202632 17.4337109,180.077637 C17.4337109,180.774906 17.6473319,181.316648 18.0745801,181.702881 C18.5018283,182.089113 19.1050938,182.282227 19.8843945,182.282227 Z M26.4976563,171.854004 L27.5435547,171.854004 L29.9019531,178.108887 C30.6197302,180.029795 31.0743155,181.325192 31.2657227,181.995117 L31.3272461,181.995117 C31.6143569,181.113277 32.0826139,179.797372 32.7320313,178.047363 L35.0904297,171.854004 L36.1363281,171.854004 L31.1426758,184.804688 C30.7393535,185.857427 30.4009779,186.568358 30.1275391,186.9375 C29.8541002,187.306642 29.5345233,187.583495 29.1687988,187.768066 C28.8030743,187.952638 28.3604518,188.044922 27.840918,188.044922 C27.4512676,188.044922 27.0171899,187.973145 26.5386719,187.82959 L26.5386719,186.947754 C26.9351582,187.057129 27.3624001,187.111816 27.8204102,187.111816 C28.1690447,187.111816 28.4766588,187.029786 28.7432617,186.865723 C29.0098646,186.701659 29.250829,186.447023 29.4661621,186.101807 C29.6814952,185.75659 29.9310044,185.209721 30.2146973,184.461182 C30.4983901,183.712643 30.6812496,183.225587 30.7632813,183 L26.4976563,171.854004 Z M42.729082,171.638672 C44.2876836,171.638672 45.4617441,172.129145 46.2512988,173.110107 C47.0408536,174.091069 47.435625,175.524893 47.435625,177.411621 C47.435625,179.264169 47.020346,180.692866 46.1897754,181.697754 C45.3592048,182.702642 44.1919802,183.205078 42.6880664,183.205078 C41.8950937,183.205078 41.1807454,183.041017 40.545,182.712891 C39.9092546,182.384764 39.4068183,181.919925 39.0376758,181.318359 L38.9453906,181.318359 L38.6582813,183 L38.0225391,183 L38.0225391,167.044922 L39.0376758,167.044922 L39.0376758,171.054199 C39.0376758,171.655765 39.024004,172.20947 38.9966602,172.715332 L38.9658984,173.586914 L39.0376758,173.586914 C39.461506,172.916989 39.9724872,172.424806 40.5706348,172.110352 C41.1687823,171.795897 41.8882575,171.638672 42.729082,171.638672 Z M42.7085742,172.561523 C41.3960677,172.561523 40.4561357,172.937496 39.88875,173.689453 C39.3213644,174.44141 39.0376758,175.68212 39.0376758,177.411621 L39.0376758,177.585938 C39.0376758,179.267587 39.3333271,180.474117 39.9246387,181.205566 C40.5159502,181.937015 41.4370836,182.302734 42.6880664,182.302734 C43.9048694,182.302734 44.8208758,181.877202 45.4361133,181.026123 C46.0513507,180.175045 46.3589648,178.963387 46.3589648,177.391113 C46.3589648,174.171371 45.1421801,172.561523 42.7085742,172.561523 Z M57.3096289,183 L57.0532813,181.236328 L56.97125,181.236328 C56.4107003,181.954105 55.8347783,182.461668 55.2434668,182.759033 C54.6521552,183.056398 53.9531876,183.205078 53.146543,183.205078 C52.0527875,183.205078 51.2017218,182.924807 50.5933203,182.364258 C49.9849188,181.803708 49.6807227,181.027837 49.6807227,180.036621 C49.6807227,178.949702 50.133599,178.105472 51.0393652,177.503906 C51.9451315,176.902341 53.2559094,176.584473 54.9717383,176.550293 L57.0942969,176.48877 L57.0942969,175.750488 C57.0942969,174.690913 56.878967,173.891116 56.4483008,173.351074 C56.0176346,172.811032 55.3237938,172.541016 54.3667578,172.541016 C53.3345261,172.541016 52.2647126,172.828122 51.1572852,173.402344 L50.7778906,172.520508 C52.0015296,171.946286 53.2114784,171.65918 54.4077734,171.65918 C55.6314124,171.65918 56.5457099,171.977048 57.1506934,172.612793 C57.7556769,173.248538 58.0581641,174.239739 58.0581641,175.586426 L58.0581641,183 L57.3096289,183 Z M53.2080664,182.282227 C54.3975255,182.282227 55.3357485,181.942142 56.0227637,181.261963 C56.7097788,180.581784 57.0532813,179.636725 57.0532813,178.426758 L57.0532813,177.32959 L55.1050391,177.411621 C53.5396015,177.486817 52.4236459,177.731199 51.7571387,178.144775 C51.0906314,178.558352 50.7573828,179.202632 50.7573828,180.077637 C50.7573828,180.774906 50.9710037,181.316648 51.398252,181.702881 C51.8255002,182.089113 52.4287656,182.282227 53.2080664,182.282227 Z M66.1377344,183.205078 C64.544953,183.205078 63.2974069,182.702642 62.3950586,181.697754 C61.4927103,180.692866 61.041543,179.291513 61.041543,177.493652 C61.041543,175.64794 61.5098,174.210699 62.4463281,173.181885 C63.3828562,172.153071 64.6645817,171.638672 66.291543,171.638672 C67.255415,171.638672 68.1782573,171.806151 69.0600977,172.141113 L68.7832422,173.043457 C67.8193702,172.722166 66.9819762,172.561523 66.2710352,172.561523 C64.9038408,172.561523 63.8682066,172.983638 63.1641016,173.827881 C62.4599965,174.672123 62.1079492,175.887199 62.1079492,177.473145 C62.1079492,178.977058 62.4599965,180.154537 63.1641016,181.005615 C63.8682066,181.856694 64.8525718,182.282227 66.1172266,182.282227 C67.1289504,182.282227 68.0688824,182.101076 68.9370508,181.73877 L68.9370508,182.682129 C68.2261097,183.030763 67.2930136,183.205078 66.1377344,183.205078 Z M72.6792188,178.108887 L78.3701367,171.854004 L79.6006055,171.854004 L75.2119336,176.611816 L79.98,183 L78.7597852,183 L74.5249219,177.370605 L72.6997266,179.031738 L72.6997266,183 L71.6845898,183 L71.6845898,167.044922 L72.6997266,167.044922 L72.6997266,175.042969 L72.6279492,178.108887 L72.6792188,178.108887 Z" id="Playback-Copy"></path>
                <path d="M39.4585938,256.483887 C39.4585938,258.862805 38.8638731,260.744378 37.6744141,262.128662 C36.484955,263.512946 34.8443464,264.205078 32.7525391,264.205078 C30.6675677,264.205078 29.030377,263.512946 27.840918,262.128662 C26.6514589,260.744378 26.0567383,258.855969 26.0567383,256.463379 C26.0567383,254.077625 26.6565858,252.19947 27.8562988,250.828857 C29.0560119,249.458245 30.6949115,248.772949 32.7730469,248.772949 C34.8648542,248.772949 36.5020449,249.461663 37.684668,250.839111 C38.8672911,252.21656 39.4585938,254.098133 39.4585938,256.483887 Z M27.1949219,256.483887 C27.1949219,258.630382 27.6734327,260.289789 28.6304688,261.462158 C29.5875048,262.634527 30.9615145,263.220703 32.7525391,263.220703 C34.5572356,263.220703 35.9363722,262.639654 36.8899902,261.477539 C37.8436083,260.315424 38.3204102,258.65089 38.3204102,256.483887 C38.3204102,254.32372 37.8436083,252.66773 36.8899902,251.515869 C35.9363722,250.364008 34.5640715,249.788086 32.7730469,249.788086 C30.9888583,249.788086 29.6131396,250.369135 28.6458496,251.53125 C27.6785596,252.693365 27.1949219,254.344228 27.1949219,256.483887 Z M45.6104297,263.302734 C46.253011,263.302734 46.8135523,263.248047 47.2920703,263.138672 L47.2920703,263.958984 C46.7998804,264.123048 46.2325032,264.205078 45.5899219,264.205078 C44.605542,264.205078 43.8792309,263.941897 43.4109668,263.415527 C42.9427027,262.889158 42.7085742,262.062017 42.7085742,260.934082 L42.7085742,253.73584 L41.0576953,253.73584 L41.0576953,253.141113 L42.7085742,252.679688 L43.2212695,250.157227 L43.7442188,250.157227 L43.7442188,252.854004 L47.0152148,252.854004 L47.0152148,253.73584 L43.7442188,253.73584 L43.7442188,260.790527 C43.7442188,261.645024 43.8946079,262.277342 44.1953906,262.6875 C44.4961734,263.097658 44.9678484,263.302734 45.6104297,263.302734 Z M57.4941992,264 L57.4941992,256.770996 C57.4941992,255.649897 57.2583617,254.834719 56.7866797,254.325439 C56.3149976,253.81616 55.5835596,253.561523 54.5923438,253.561523 C53.2593293,253.561523 52.283509,253.89819 51.6648535,254.571533 C51.0461981,255.244876 50.736875,256.336907 50.736875,257.847656 L50.736875,264 L49.7217383,264 L49.7217383,248.044922 L50.736875,248.044922 L50.736875,253.120605 L50.6856055,254.545898 L50.7573828,254.545898 C51.1743771,253.875973 51.700739,253.390627 52.3364844,253.089844 C52.9722297,252.789061 53.7617726,252.638672 54.7051367,252.638672 C57.2344462,252.638672 58.499082,253.995592 58.499082,256.709473 L58.499082,264 L57.4941992,264 Z M66.6299219,264.205078 C65.0097966,264.205078 63.7468698,263.70606 62.8411035,262.708008 C61.9353373,261.709956 61.4824609,260.312021 61.4824609,258.51416 C61.4824609,256.736808 61.9199566,255.313238 62.7949609,254.243408 C63.6699653,253.173579 64.8491527,252.638672 66.3325586,252.638672 C67.6450652,252.638672 68.6806993,253.096675 69.4394922,254.012695 C70.198285,254.928716 70.5776758,256.172844 70.5776758,257.745117 L70.5776758,258.56543 L62.5488672,258.56543 C62.5625391,260.096687 62.9197133,261.265621 63.6204004,262.072266 C64.3210875,262.87891 65.3242513,263.282227 66.6299219,263.282227 C67.2656672,263.282227 67.8244995,263.237793 68.3064355,263.148926 C68.7883716,263.060058 69.3984729,262.868654 70.1367578,262.574707 L70.1367578,263.497559 C69.5078484,263.770997 68.9267995,263.957275 68.3935938,264.056396 C67.860388,264.155518 67.2725032,264.205078 66.6299219,264.205078 Z M66.3325586,253.541016 C65.259311,253.541016 64.3979915,253.894772 63.7485742,254.602295 C63.0991569,255.309818 62.7197662,256.330071 62.6103906,257.663086 L69.5010156,257.663086 C69.5010156,256.371087 69.220745,255.361088 68.6601953,254.633057 C68.0996456,253.905026 67.3237745,253.541016 66.3325586,253.541016 Z M78.0625195,252.638672 C78.5342016,252.638672 79.0400559,252.686523 79.5800977,252.782227 L79.3852734,253.756348 C78.9204274,253.640136 78.4384986,253.582031 77.9394727,253.582031 C76.9892726,253.582031 76.2099835,253.985348 75.601582,254.791992 C74.9931806,255.598637 74.6889844,256.617181 74.6889844,257.847656 L74.6889844,264 L73.6738477,264 L73.6738477,252.854004 L74.5351758,252.854004 L74.6377148,254.86377 L74.7094922,254.86377 C75.1675023,254.043453 75.6562669,253.467531 76.1758008,253.135986 C76.6953346,252.804442 77.3242346,252.638672 78.0625195,252.638672 Z" id="Other-Copy"></path>
                <path d="M384,169.153826 C384,155.835625 373.233979,145 359.999404,145 C346.766021,145.0006 336,155.835625 336,169.153826 L336,172.385735 L342.422653,172.385735 L342.422653,169.153826 C342.422653,159.399904 350.307601,151.463818 360,151.463818 C369.692399,151.463818 377.577943,159.399304 377.577943,169.153826 C377.577943,178.908348 369.692399,186.843834 360,186.843834 L356.311773,186.843834 L363.468256,179.642082 L358.927571,175.072293 L348.597914,185.465158 L344.053651,190.033747 L344.056036,190.036147 L344.054247,190.037947 L348.594933,194.607735 L358.925186,205 L363.467064,200.430211 L356.390462,193.307652 L360,193.307652 C373.233979,193.307652 384,182.472028 384,169.153826 Z" id="Shape" fill-rule="nonzero"></path>
                <g id="Group-8" transform="translate(122.000000, 155.000000)" fill-rule="nonzero">
                    <g id="XMLID_5_">
                        <path d="M34.3076923,19.2307692 L1.38461538,0.923076923 C1,0.769230769 0.692307692,0.692307692 0.384615385,0.846153846 C0.153846154,1.07692308 0,1.30769231 0,1.76923077 L0,38.2307692 C0,38.6923077 0.153846154,38.9230769 0.384615385,39.1538462 C0.692307692,39.3076923 1,39.3076923 1.38461538,39.0769231 L34.3076923,20.7692308 C34.6923077,20.5384615 34.8461538,20.3076923 34.8461538,20 C34.8461538,19.6923077 34.6923077,19.4615385 34.3076923,19.2307692 Z" id="XMLID_2_"></path>
                    </g>
                    <path d="M36.5,36 L32.5,36 C32.25,36 32,35.7692308 32,35.5384615 L32,4.46153846 C32,4.23076923 32.25,4 32.5,4 L36.5,4 C36.75,4 37,4.23076923 37,4.46153846 L37,35.5384615 C37,35.8461538 36.75,36 36.5,36 Z" id="XMLID_1_"></path>
                </g>
                <g id="Group-2" transform="translate(116.000000, 84.000000)" fill-rule="nonzero">
                    <path d="M36.1952576,0.126278893 C35.3979335,-0.203255992 34.520877,0.126278893 34.1222149,0.950116106 C33.8032853,1.77395332 34.1222149,2.68017425 34.919539,3.00970914 C39.2250893,4.82215101 42.5738506,8.36465102 44.407696,12.813372 C48.2348518,22.1227325 44.009034,32.9973837 34.9992715,36.9518023 C34.4411446,37.1989535 34.0424825,37.7756395 34.0424825,38.4347093 C34.0424825,39.3409302 34.7600742,40 35.6371308,40 C35.876328,40 36.0357928,40 36.1952576,39.8352326 C41.2183996,37.6108721 45.2050201,33.491686 47.2780628,28.3015116 C51.9025427,17.3444766 46.8794008,4.73976729 36.1952576,0.126278893 Z" id="Shape"></path>
                    <path d="M37.9982294,25.0264233 C40.7298348,18.4630571 37.6768641,10.9151859 31.2495573,8.12575522 C30.446144,7.79758691 29.5623893,8.12575522 29.1606827,8.946176 C28.8393173,9.76659678 29.1606827,10.6690596 29.964096,11.07927 C32.2136534,12.063775 34.061504,13.8687007 35.0256,16.247921 C37.1144747,21.1704457 34.784576,26.8313491 29.964096,28.9644431 C29.4017067,29.2105693 29,29.7848639 29,30.4412005 C29,31.3436634 29.723072,32 30.5264853,32 C30.7675093,32 30.928192,32 31.169216,31.8359158 C34.302528,30.6052847 36.7127681,28.0619802 37.9982294,25.0264233 Z" id="Shape"></path>
                    <path d="M26.0868961,15.1304158 C25.3139716,14.7900853 24.4637547,15.1304158 24.1545849,15.981242 C23.8454151,16.8320683 24.1545849,17.7679771 24.9275094,18.1933902 C25.3139716,18.3635555 25.7004338,18.7889686 25.8550187,19.2143817 C26.241481,20.2353731 25.8550187,21.4265299 24.9275094,21.851943 C24.3864622,22.1071908 24,22.7027692 24,23.3834302 C24,24.319339 24.695632,25 25.5458489,25 C25.7004338,25 25.9323112,25 26.0868961,24.8298348 C27.2462828,24.319339 28.0964997,23.2983476 28.6375468,22.0221082 C29.6423487,19.3845469 28.482962,16.2364899 26.0868961,15.1304158 Z" id="Shape"></path>
                    <path d="M21.8375451,3.12825613 L7.80505415,12.2822894 C7.72202166,12.3640218 7.55595668,12.4457542 7.47292419,12.4457542 L0.83032491,12.4457542 C0.332129964,12.4457542 0,12.772684 0,13.1813462 L0,26.7489312 C0,27.1575934 0.332129964,27.4845231 0.747292419,27.4845231 L7.3898917,27.4845231 C7.55595668,27.4845231 7.63898917,27.4845231 7.80505415,27.5662556 L21.8375451,36.8837537 C22.3357401,37.2106835 23,36.8020213 23,36.2298942 L23,3.78211565 C23,3.12825613 22.3357401,2.80132637 21.8375451,3.12825613 Z" id="Shape"></path>
                </g>
                <g id="Group-3" transform="translate(194.000000, 84.000000)" fill-rule="nonzero">
                    <path d="M43.7978753,24.1547263 C47.0758017,16.7709392 43.4122369,8.27958412 35.6994688,5.14147462 C34.7353728,4.77228527 33.6748672,5.14147462 33.1928192,6.064448 C32.8071808,6.98742138 33.1928192,8.0026921 34.1569152,8.46417879 C36.856384,9.57174685 39.0738048,11.6022883 40.2307201,14.2789111 C42.7373697,19.8167514 39.9414912,26.1852677 34.1569152,28.5849985 C33.482048,28.8618905 33,29.5079719 33,30.2463506 C33,31.2616213 33.8676864,32 34.8317824,32 C35.1210112,32 35.3138304,32 35.6030592,31.8154053 C39.3630336,30.4309453 42.2553217,27.5697278 43.7978753,24.1547263 Z" id="Shape"></path>
                    <path d="M29.5042753,13.1434574 C28.5767659,12.7690938 27.5565056,13.1434574 27.1855019,14.0793662 C26.8144981,15.0152751 27.1855019,16.0447748 28.1130112,16.5127292 C28.5767659,16.699911 29.0405206,17.1678654 29.2260225,17.6358198 C29.6897772,18.7589105 29.2260225,20.0691828 28.1130112,20.5371373 C27.4637547,20.8179099 27,21.4730461 27,22.2217732 C27,23.2512729 27.8347584,24 28.8550187,24 C29.0405206,24 29.3187734,24 29.5042753,23.8128182 C30.8955393,23.2512729 31.9157997,22.1281823 32.5650562,20.724319 C33.7708184,17.8230016 32.3795543,14.3601389 29.5042753,13.1434574 Z" id="Shape"></path>
                    <path d="M24.6859206,0.147117324 L8.82310469,10.6473319 C8.72924188,10.7410838 8.54151625,10.8348358 8.44765343,10.8348358 L0.938628159,10.8348358 C0.375451264,10.8348358 0,11.2098434 0,11.678603 L0,27.2414211 C0,27.7101806 0.375451264,28.0851883 0.844765343,28.0851883 L8.35379061,28.0851883 C8.54151625,28.0851883 8.63537906,28.0851883 8.82310469,28.1789402 L24.6859206,38.8666587 C25.2490975,39.2416663 26,38.7729067 26,38.1166433 L26,0.897132652 C26,0.147117324 25.2490975,-0.227890341 24.6859206,0.147117324 Z" id="Shape"></path>
                </g>
                <g id="Group-4" transform="translate(263.000000, 232.000000)" fill-rule="nonzero">
                    <polygon id="XMLID_9_" points="18.6122449 29.5836735 18.6122449 47.6081633 13.2244898 47.6081633 13.2244898 34.9714286 0.587755102 34.9714286 0.587755102 29.5836735"></polygon>
                    <polygon id="XMLID_8_" points="18.6122449 0 18.6122449 18.0244898 0.587755102 18.0244898 0.587755102 12.6367347 13.2244898 12.6367347 13.2244898 0"></polygon>
                    <polygon id="XMLID_7_" points="37.7142857 0 37.7142857 12.6367347 50.3510204 12.6367347 50.3510204 18.0244898 32.3265306 18.0244898 32.3265306 0"></polygon>
                    <polygon id="XMLID_6_" points="50.3510204 29.5836735 50.3510204 34.9714286 37.7142857 34.9714286 37.7142857 47.6081633 32.3265306 47.6081633 32.3265306 29.5836735"></polygon>
                </g>
                <g id="Group-6" transform="translate(269.000000, 84.000000)" fill-rule="nonzero">
                    <path d="M29.5042753,13.1434574 C28.5767659,12.7690938 27.5565056,13.1434574 27.1855019,14.0793662 C26.8144981,15.0152751 27.1855019,16.0447748 28.1130112,16.5127292 C28.5767659,16.699911 29.0405206,17.1678654 29.2260225,17.6358198 C29.6897772,18.7589105 29.2260225,20.0691828 28.1130112,20.5371373 C27.4637547,20.8179099 27,21.4730461 27,22.2217732 C27,23.2512729 27.8347584,24 28.8550187,24 C29.0405206,24 29.3187734,24 29.5042753,23.8128182 C30.8955393,23.2512729 31.9157997,22.1281823 32.5650562,20.724319 C33.7708184,17.8230016 32.3795543,14.3601389 29.5042753,13.1434574 Z" id="Shape"></path>
                    <path d="M24.6859206,0.147117324 L8.82310469,10.6473319 C8.72924188,10.7410838 8.54151625,10.8348358 8.44765343,10.8348358 L0.938628159,10.8348358 C0.375451264,10.8348358 0,11.2098434 0,11.678603 L0,27.2414211 C0,27.7101806 0.375451264,28.0851883 0.844765343,28.0851883 L8.35379061,28.0851883 C8.54151625,28.0851883 8.63537906,28.0851883 8.82310469,28.1789402 L24.6859206,38.8666587 C25.2490975,39.2416663 26,38.7729067 26,38.1166433 L26,0.897132652 C26,0.147117324 25.2490975,-0.227890341 24.6859206,0.147117324 Z" id="Shape"></path>
                </g>
                <path d="M371.685921,84.1471173 L355.823105,94.6473319 C355.729242,94.7410838 355.541516,94.8348358 355.447653,94.8348358 L347.938628,94.8348358 C347.375451,94.8348358 347,95.2098434 347,95.678603 L347,111.241421 C347,111.710181 347.375451,112.085188 347.844765,112.085188 L355.353791,112.085188 C355.541516,112.085188 355.635379,112.085188 355.823105,112.17894 L371.685921,122.866659 C372.249097,123.241666 373,122.772907 373,122.116643 L373,84.8971327 C373,84.1471173 372.249097,83.7721097 371.685921,84.1471173 Z" id="Shape-Copy" fill-rule="nonzero"></path>
                <g id="Group-7" transform="translate(111.000000, 237.000000)" fill-rule="nonzero">
                    <path d="M55.6422764,2.375 L55.6422764,35.625 L2.35772358,35.625 L2.35772358,2.375 L55.6422764,2.375 L55.6422764,2.375 Z M58,0 L0,0 L0,38 L58,38 L58,0 L58,0 Z" id="Shape"></path>
                    <path d="M22.779661,12.6125 C21.1186441,12.6125 19.6949153,13.325 18.7457627,14.5125 C17.7966102,15.7 16.8474576,17.6 16.8474576,19.7375 C16.8474576,22.1125 17.3220339,23.775 18.2711864,24.9625 C19.220339,26.15 20.6440678,26.625 22.5423729,26.625 C23.2542373,26.625 24.2033898,26.625 24.9152542,26.3875 C25.6271186,26.15 26.3389831,25.9125 27.2881356,25.675 L27.2881356,28.2875 C25.8644068,28.7625 24.2033898,29 22.3050847,29 C19.6949153,29 17.559322,28.2875 16.1355932,26.625 C14.7118644,24.9625 14,22.5875 14,19.5 C14,17.6 14.2372881,15.9375 14.9491525,14.5125 C15.6610169,13.0875 16.6101695,11.9 18.0338983,11.1875 C19.4576271,10.475 20.8813559,10 22.779661,10 C24.6779661,10 26.3389831,10.475 28,11.1875 L26.8135593,13.8 C26.1016949,13.5625 25.6271186,13.325 24.9152542,13.0875 C23.9661017,12.85 23.4915254,12.6125 22.779661,12.6125 Z" id="Shape"></path>
                    <path d="M38.5423729,12.6125 C36.8813559,12.6125 35.4576271,13.325 34.5084746,14.5125 C33.559322,15.7 32.8474576,17.6 32.8474576,19.7375 C32.8474576,22.1125 33.3220339,23.775 34.2711864,24.9625 C35.220339,26.15 36.6440678,26.625 38.5423729,26.625 C39.2542373,26.625 40.2033898,26.625 40.9152542,26.3875 C41.6271186,26.15 42.3389831,25.9125 43.2881356,25.675 L43.2881356,28.2875 C41.8644068,28.7625 40.2033898,29 38.3050847,29 C35.6949153,29 33.559322,28.2875 32.1355932,26.625 C30.7118644,24.9625 30,22.5875 30,19.5 C30,17.6 30.2372881,15.9375 30.9491525,14.5125 C31.6610169,13.0875 32.6101695,11.9 34.0338983,11.1875 C35.4576271,10.475 36.8813559,10 38.779661,10 C40.6779661,10 42.3389831,10.475 44,11.1875 L42.8135593,13.8 C42.1016949,13.5625 41.6271186,13.325 40.9152542,13.0875 C40.2033898,12.85 39.2542373,12.6125 38.5423729,12.6125 Z" id="Shape"></path>
                </g>
                <polygon id="Shape" fill-rule="nonzero" points="458 238.536585 456.460526 237 438.5 254.926829 420.539474 237 419 238.536585 436.960526 256.536585 419 274.463415 420.539474 276 438.5 258.073171 456.460526 276 458 274.463415 440.039474 256.536585"></polygon>
                <g id="Group" transform="translate(340.000000, 236.000000)" fill-rule="nonzero">
                    <polygon id="XMLID_9_" points="0 40 0 25 4.48369565 25 4.48369565 35.5163043 15 35.5163043 15 40"></polygon>
                    <polygon id="XMLID_8_" points="0 15 0 0 15 0 15 4.48369565 4.48369565 4.48369565 4.48369565 15"></polygon>
                    <polygon id="XMLID_7_" points="44.5163043 15 44.5163043 4.48369565 34 4.48369565 34 0 49 0 49 15"></polygon>
                    <polygon id="XMLID_6_" points="34 40 34 35.5163043 44.5163043 35.5163043 44.5163043 25 49 25 49 40"></polygon>
                </g>
                <path d="M198,155 L198,194 L211.68,194 L211.68,155 C211.68,155 198,155 198,155 Z M220.32,155 L220.32,194 L234,194 L234,155 L220.32,155 L220.32,155 Z" id="Shape" fill-rule="nonzero"></path>
                <polygon id="Shape" fill-rule="nonzero" points="269 155 301 174.527121 301 174.527121 269 194"></polygon>
                <polygon id="Path-2" points="424.506989 170.902973 421 170.902973 421 168 428.013977 168 428.013977 184.267515 424.506989 184.267515"></polygon>
                <path d="M436.539528,168.000071 C438.493852,167.991319 442.731369,168.786045 442.731369,176.368054 C442.731369,183.950062 438.220103,184.739757 436.558876,184.736061 C434.897649,184.732365 430.052762,183.927415 430.000437,176.368054 C429.948113,168.808692 434.603271,168.008741 436.539528,168.000071 Z M436.539528,170.618988 C434.755321,170.6484 433.110517,171.895598 433.081453,176.35712 C433.052389,180.818642 435.022392,181.848397 436.558876,181.883228 C438.09536,181.91806 440.065504,180.559861 440.036413,176.35712 C440.007322,172.15438 438.323735,170.589576 436.539528,170.618988 Z" id="Combined-Shape"></path>
                <path d="M430.283804,151.272617 C430.283804,153.886824 430.283804,156.06177 430.283804,157.797454 L419.295527,149.518014 L430.283804,141 L430.283804,147.724543 C441.932707,147.724543 460.963073,153.466893 460.762243,177.602378 C460.548135,193.031164 446.628985,205.222357 432.945563,204.996923 C409.705416,204.614044 403.967275,185.001319 404.00014,176.509612 L407.212817,176.509612 C407.188918,189.004548 417.420253,202.092599 432.945563,202.092599 C446.220159,202.092599 457.672725,188.693082 457.615867,177.602378 C457.535816,161.987407 445.277116,150.006095 430.283804,151.272617 Z" id="Path-3"></path>
                <path d="M287.8,45.5 L287.8,26.1 L294.1,26.1 L295.1,18.5 L287.9,18.5 L287.9,13.7 C287.9,11.5 288.5,10 291.5,10 L295.3,10 L295.3,3.3 C294.7,3.2 292.3,3 289.7,3 C284.2,3 280.3,6.5 280.3,13 L280.3,18.5 L274,18.5 L274,26.1 L280.3,26.1 L280.3,45.6 L287.8,45.6 L287.8,45.5 L287.8,45.5 Z" id="XMLID_2_" fill-rule="nonzero"></path>
                <g id="Group-5" transform="translate(330.000000, 5.000000)" fill-rule="nonzero">
                    <path d="M0.5,18.1 C0.7,8.4 9.6,-0.1 19.3,0.3 C23.9,0.1 28.3,2.1 31.9,4.9 C30.4,6.6 28.8,8.3 27.1,9.8 C22.8,6.8 16.7,6 12.5,9.4 C6.3,13.6 6,23.6 11.9,28.2 C17.6,33.4 28.4,30.8 30,22.9 C26.4,22.8 22.8,22.9 19.2,22.8 C19.2,20.7 19.2,18.5 19.2,16.4 C25.2,16.4 31.2,16.4 37.2,16.4 C37.6,21.4 36.9,26.8 33.8,30.9 C29.1,37.5 19.7,39.4 12.4,36.6 C5,33.7 -0.2,26 0.5,18.1 Z" id="XMLID_9_"></path>
                    <path d="M48.9,10.9 C50.7,10.9 52.5,10.9 54.2,10.9 C54.2,12.7 54.2,14.5 54.2,16.3 C56,16.3 57.8,16.3 59.6,16.3 C59.6,18.1 59.6,19.9 59.6,21.6 C57.8,21.6 56,21.6 54.2,21.6 C54.2,23.4 54.2,25.2 54.2,27 C52.4,27 50.6,27 48.8,27 C48.8,25.2 48.8,23.4 48.8,21.6 C47,21.6 45.2,21.6 43.4,21.5 C43.4,19.7 43.4,17.9 43.4,16.2 C45.2,16.2 47,16.2 48.8,16.2 C48.8,14.5 48.8,12.7 48.9,10.9 Z" id="XMLID_7_"></path>
                </g>
                <path d="M154.24,33.28 C152.08,33.28 150.16,34.24 148.8,35.68 L132.48,26 C132.64,25.36 132.8,24.72 132.8,24 C132.8,23.28 132.72,22.56 132.48,21.92 L148.96,12.4 C150.32,13.84 152.16,14.72 154.32,14.72 C158.4,14.72 161.68,11.44 161.68,7.36 C161.68,3.28 158.32,0 154.24,0 C150.16,0 146.88,3.28 146.88,7.36 C146.88,8.08 146.96,8.8 147.2,9.44 L130.72,18.96 C129.36,17.52 127.52,16.64 125.36,16.64 C121.28,16.64 118,19.92 118,24 C118,28.08 121.28,31.36 125.36,31.36 C127.52,31.36 129.44,30.4 130.8,28.96 L147.2,38.64 C147.04,39.28 146.88,39.92 146.88,40.64 C146.88,44.72 150.16,48 154.24,48 C158.32,48 161.6,44.72 161.6,40.64 C161.6,36.56 158.32,33.28 154.24,33.28 Z" id="XMLID_1_" fill-rule="nonzero"></path>
                <path d="M240.3,9.5 C238.6,10.3 236.7,10.7 234.7,11 C236.7,9.8 238.2,8 238.9,5.7 C237.1,6.8 235,7.7 232.8,8 C231,6.2 228.6,5 225.8,5 C220.5,5 216.1,9.2 216.1,14.7 C216.1,15.5 216.3,16.2 216.4,16.8 C208.4,16.3 201.2,12.6 196.5,6.8 C195.7,8.2 195.1,9.8 195.1,11.7 C195.1,15 196.8,18.1 199.3,19.7 C197.8,19.7 196.3,19.2 194.9,18.5 L194.9,18.7 C194.9,23.4 198.2,27.3 202.6,28.1 C201.8,28.3 200.9,28.4 200,28.4 C199.4,28.4 198.8,28.4 198.2,28.2 C199.4,32 203.1,34.9 207.1,34.9 C203.9,37.5 199.8,39 195.3,39 C194.5,39 193.8,39 193,38.8 C197.2,41.5 202.4,43.2 207.7,43.2 C225.4,43.2 235.1,28.5 235.1,15.8 C235.1,15.3 235.1,14.9 235.1,14.6 C237.4,13.2 238.9,11.5 240.3,9.5 L240.3,9.5 Z" id="XMLID_1_" fill-rule="nonzero"></path>
                <path d="M196.811457,253.578485 C195.735518,253.253907 194.60645,252.979325 193.424253,252.75474 L193.424253,236 L241.691909,236 L241.691909,272.412442 L212.689956,272.412442 C212.506627,271.232198 212.268915,270.10313 211.97682,269.025239 L238.304705,269.025239 L238.304705,239.387204 L196.811457,239.387204 L196.811457,253.578485 Z M190,275.899069 L190,270.074288 C193.45946,269.978431 195.504149,271.920025 196.134067,275.899069 L190,275.899069 Z M190.060614,263.19339 C198.070745,263.945727 202.321846,268.148609 202.813917,275.802036 L198.981822,275.802036 C198.138355,270.658954 195.21446,267.814024 190.210138,267.267245 L190.060614,263.19339 Z M190.060614,255.572181 C202.985707,256.733374 209.634937,263.542647 210.008304,276 L206.176208,276 C204.789797,265.728435 199.467773,260.277114 190.210138,259.646036 L190.060614,255.572181 Z" id="Combined-Shape"></path>
            </g>
        </g>
    </g>
</svg>